G04 #@! TF.FileFunction,Soldermask,Top*
%FSLAX46Y46*%
G04 Gerber Fmt 4.6, Leading zero omitted, Abs format (unit mm)*
G04 Created by KiCad (PCBNEW 4.0.7) date 09/09/18 14:05:58*
%MOMM*%
%LPD*%
G01*
G04 APERTURE LIST*
%ADD10C,0.100000*%
%ADD11C,7.000000*%
%ADD12R,1.150000X1.600000*%
%ADD13R,1.600000X1.150000*%
%ADD14R,0.704800X1.162000*%
%ADD15R,1.162000X0.704800*%
%ADD16R,4.845000X4.845000*%
%ADD17R,4.900000X2.400000*%
%ADD18R,3.350000X2.800000*%
%ADD19R,3.050000X2.800000*%
%ADD20C,1.400000*%
%ADD21R,2.800000X3.350000*%
%ADD22R,2.800000X3.050000*%
%ADD23R,1.300000X1.600000*%
%ADD24R,1.600000X1.300000*%
%ADD25R,3.000000X2.000000*%
%ADD26R,2.100000X2.100000*%
%ADD27O,2.100000X2.100000*%
%ADD28R,1.900000X1.900000*%
%ADD29R,1.300000X1.200000*%
G04 APERTURE END LIST*
D10*
D11*
X81000000Y-64000000D03*
X81000000Y-122500000D03*
X32000000Y-122500000D03*
D12*
X35500000Y-118700000D03*
X35500000Y-116800000D03*
X46500000Y-118700000D03*
X46500000Y-116800000D03*
X62250000Y-110550000D03*
X62250000Y-112450000D03*
D13*
X69050000Y-76200000D03*
X70950000Y-76200000D03*
X77550000Y-80800000D03*
X75650000Y-80800000D03*
D14*
X38239400Y-101721800D03*
X38747400Y-101721800D03*
X39255400Y-101721800D03*
X39738000Y-101721800D03*
X40246000Y-101721800D03*
X40754000Y-101721800D03*
X41262000Y-101721800D03*
X41744600Y-101721800D03*
X42252600Y-101721800D03*
X42760600Y-101721800D03*
D15*
X43471800Y-101010600D03*
X43471800Y-100502600D03*
X43471800Y-99994600D03*
X43471800Y-99512000D03*
X43471800Y-99004000D03*
X43471800Y-98496000D03*
X43471800Y-97988000D03*
X43471800Y-97505400D03*
X43471800Y-96997400D03*
X43471800Y-96489400D03*
D14*
X42760600Y-95778200D03*
X42252600Y-95778200D03*
X41744600Y-95778200D03*
X41262000Y-95778200D03*
X40754000Y-95778200D03*
X40246000Y-95778200D03*
X39738000Y-95778200D03*
X39255400Y-95778200D03*
X38747400Y-95778200D03*
X38239400Y-95778200D03*
D15*
X37528200Y-96489400D03*
X37528200Y-96997400D03*
X37528200Y-97505400D03*
X37528200Y-97988000D03*
X37528200Y-98496000D03*
X37528200Y-99004000D03*
X37528200Y-99512000D03*
X37528200Y-99994600D03*
X37528200Y-100502600D03*
X37528200Y-101010600D03*
D16*
X40500000Y-98750000D03*
D17*
X47500000Y-89000000D03*
X39000000Y-89000000D03*
D13*
X69250000Y-55800000D03*
X71150000Y-55800000D03*
X77550000Y-60400000D03*
X75650000Y-60400000D03*
X77250000Y-38600000D03*
X79150000Y-38600000D03*
D12*
X73000000Y-46150000D03*
X73000000Y-44250000D03*
X40250000Y-106800000D03*
X40250000Y-108700000D03*
X35500000Y-113050000D03*
X35500000Y-114950000D03*
X51250000Y-106800000D03*
X51250000Y-108700000D03*
X46500000Y-113050000D03*
X46500000Y-114950000D03*
X62250000Y-106800000D03*
X62250000Y-108700000D03*
X57500000Y-113050000D03*
X57500000Y-114950000D03*
D13*
X65250000Y-76200000D03*
X67150000Y-76200000D03*
X71650000Y-80800000D03*
X73550000Y-80800000D03*
X65450000Y-55800000D03*
X67350000Y-55800000D03*
X71650000Y-60400000D03*
X73550000Y-60400000D03*
D12*
X81000000Y-40550000D03*
X81000000Y-38650000D03*
D13*
X76350000Y-47800000D03*
X74450000Y-47800000D03*
D12*
X70100000Y-109250000D03*
X70100000Y-111150000D03*
D13*
X77750000Y-113900000D03*
X75850000Y-113900000D03*
X71150000Y-98300000D03*
X69250000Y-98300000D03*
X69250000Y-87300000D03*
X71150000Y-87300000D03*
D12*
X58700000Y-52750000D03*
X58700000Y-50850000D03*
X63400000Y-44450000D03*
X63400000Y-46350000D03*
D18*
X43775000Y-124300000D03*
D19*
X43925000Y-114600000D03*
D18*
X37225000Y-121600000D03*
D20*
X40500000Y-123000000D03*
X40500000Y-117000000D03*
D18*
X54775000Y-124300000D03*
D19*
X54925000Y-114600000D03*
D18*
X48225000Y-121600000D03*
D20*
X51500000Y-123000000D03*
X51500000Y-117000000D03*
D18*
X65775000Y-124300000D03*
D19*
X65925000Y-114600000D03*
D18*
X59225000Y-121600000D03*
D20*
X62500000Y-123000000D03*
X62500000Y-117000000D03*
D21*
X82800000Y-105725000D03*
D22*
X73100000Y-105575000D03*
D21*
X80100000Y-112275000D03*
D20*
X81500000Y-109000000D03*
X75500000Y-109000000D03*
D21*
X82800000Y-94725000D03*
D22*
X73100000Y-94575000D03*
D21*
X80100000Y-101275000D03*
D20*
X81500000Y-98000000D03*
X75500000Y-98000000D03*
D21*
X82800000Y-83725000D03*
D22*
X73100000Y-83575000D03*
D21*
X80100000Y-90275000D03*
D20*
X81500000Y-87000000D03*
X75500000Y-87000000D03*
D23*
X41750000Y-110650000D03*
X41750000Y-112850000D03*
X37000000Y-116900000D03*
X37000000Y-119100000D03*
X52750000Y-110650000D03*
X52750000Y-112850000D03*
X48000000Y-116900000D03*
X48000000Y-119100000D03*
X63750000Y-110650000D03*
X63750000Y-112850000D03*
X59000000Y-116900000D03*
X59000000Y-119100000D03*
D24*
X69100000Y-74800000D03*
X71300000Y-74800000D03*
X75500000Y-79400000D03*
X77700000Y-79400000D03*
X69100000Y-54400000D03*
X71300000Y-54400000D03*
X75500000Y-59000000D03*
X77700000Y-59000000D03*
X75300000Y-38600000D03*
X73100000Y-38600000D03*
X76700000Y-45000000D03*
X74500000Y-45000000D03*
D23*
X41750000Y-106650000D03*
X41750000Y-108850000D03*
X37000000Y-112900000D03*
X37000000Y-115100000D03*
X52750000Y-106650000D03*
X52750000Y-108850000D03*
X48000000Y-112900000D03*
X48000000Y-115100000D03*
X63750000Y-106650000D03*
X63750000Y-108850000D03*
X59000000Y-112900000D03*
X59000000Y-115100000D03*
D11*
X32000000Y-64500000D03*
D12*
X47900000Y-52650000D03*
X47900000Y-50750000D03*
X36800000Y-52750000D03*
X36800000Y-50850000D03*
X69400000Y-105350000D03*
X69400000Y-107250000D03*
D13*
X71950000Y-114200000D03*
X73850000Y-114200000D03*
X65450000Y-98300000D03*
X67350000Y-98300000D03*
X65350000Y-87300000D03*
X67250000Y-87300000D03*
D12*
X58700000Y-56850000D03*
X58700000Y-54950000D03*
X63400000Y-50150000D03*
X63400000Y-48250000D03*
X47900000Y-56650000D03*
X47900000Y-54750000D03*
X36800000Y-56650000D03*
X36800000Y-54750000D03*
X48250000Y-97450000D03*
X48250000Y-95550000D03*
D13*
X47300000Y-92250000D03*
X49200000Y-92250000D03*
X52550000Y-92250000D03*
X54450000Y-92250000D03*
X39200000Y-92250000D03*
X37300000Y-92250000D03*
D12*
X37950000Y-105000000D03*
X37950000Y-106900000D03*
D21*
X82800000Y-52225000D03*
D22*
X73100000Y-52075000D03*
D21*
X80100000Y-58775000D03*
D20*
X81500000Y-55500000D03*
X75500000Y-55500000D03*
D18*
X66225000Y-39200000D03*
D19*
X66075000Y-48900000D03*
D18*
X72775000Y-41900000D03*
D20*
X69500000Y-40500000D03*
X69500000Y-46500000D03*
D18*
X55225000Y-39200000D03*
D19*
X55075000Y-48900000D03*
D18*
X61775000Y-41900000D03*
D20*
X58500000Y-40500000D03*
X58500000Y-46500000D03*
D18*
X44225000Y-39200000D03*
D19*
X44075000Y-48900000D03*
D18*
X50775000Y-41900000D03*
D20*
X47500000Y-40500000D03*
X47500000Y-46500000D03*
D18*
X33225000Y-39200000D03*
D19*
X33075000Y-48900000D03*
D18*
X39775000Y-41900000D03*
D20*
X36500000Y-40500000D03*
X36500000Y-46500000D03*
D24*
X65100000Y-74800000D03*
X67300000Y-74800000D03*
X71500000Y-79400000D03*
X73700000Y-79400000D03*
X65100000Y-54400000D03*
X67300000Y-54400000D03*
X71500000Y-59000000D03*
X73700000Y-59000000D03*
X79300000Y-40000000D03*
X77100000Y-40000000D03*
X76700000Y-46400000D03*
X74500000Y-46400000D03*
D23*
X71500000Y-108900000D03*
X71500000Y-111100000D03*
D24*
X75600000Y-112500000D03*
X77800000Y-112500000D03*
X69100000Y-96900000D03*
X71300000Y-96900000D03*
X69100000Y-85900000D03*
X71300000Y-85900000D03*
D23*
X57300000Y-52900000D03*
X57300000Y-50700000D03*
X62000000Y-46400000D03*
X62000000Y-44200000D03*
X46400000Y-52900000D03*
X46400000Y-50700000D03*
X35400000Y-52900000D03*
X35400000Y-50700000D03*
X70800000Y-104900000D03*
X70800000Y-107100000D03*
D24*
X71700000Y-112800000D03*
X73900000Y-112800000D03*
X65100000Y-96900000D03*
X67300000Y-96900000D03*
X65100000Y-85900000D03*
X67300000Y-85900000D03*
D14*
X37739400Y-76171800D03*
X38247400Y-76171800D03*
X38755400Y-76171800D03*
X39238000Y-76171800D03*
X39746000Y-76171800D03*
X40254000Y-76171800D03*
X40762000Y-76171800D03*
X41244600Y-76171800D03*
X41752600Y-76171800D03*
X42260600Y-76171800D03*
D15*
X42971800Y-75460600D03*
X42971800Y-74952600D03*
X42971800Y-74444600D03*
X42971800Y-73962000D03*
X42971800Y-73454000D03*
X42971800Y-72946000D03*
X42971800Y-72438000D03*
X42971800Y-71955400D03*
X42971800Y-71447400D03*
X42971800Y-70939400D03*
D14*
X42260600Y-70228200D03*
X41752600Y-70228200D03*
X41244600Y-70228200D03*
X40762000Y-70228200D03*
X40254000Y-70228200D03*
X39746000Y-70228200D03*
X39238000Y-70228200D03*
X38755400Y-70228200D03*
X38247400Y-70228200D03*
X37739400Y-70228200D03*
D15*
X37028200Y-70939400D03*
X37028200Y-71447400D03*
X37028200Y-71955400D03*
X37028200Y-72438000D03*
X37028200Y-72946000D03*
X37028200Y-73454000D03*
X37028200Y-73962000D03*
X37028200Y-74444600D03*
X37028200Y-74952600D03*
X37028200Y-75460600D03*
D16*
X40000000Y-73200000D03*
D25*
X49850000Y-73150000D03*
X53450000Y-73150000D03*
D12*
X47600000Y-73000000D03*
X47600000Y-74900000D03*
D13*
X38210000Y-67990000D03*
X36310000Y-67990000D03*
X38850000Y-79350000D03*
X40750000Y-79350000D03*
D21*
X82800000Y-72725000D03*
D22*
X73100000Y-72575000D03*
D21*
X80100000Y-79275000D03*
D20*
X81500000Y-76000000D03*
X75500000Y-76000000D03*
D17*
X46500000Y-64720000D03*
X38000000Y-64720000D03*
D26*
X73800000Y-124300000D03*
D27*
X71260000Y-124300000D03*
D26*
X33250000Y-117500000D03*
D27*
X30710000Y-117500000D03*
X33250000Y-114960000D03*
X30710000Y-114960000D03*
X33250000Y-112420000D03*
X30710000Y-112420000D03*
X33250000Y-109880000D03*
X30710000Y-109880000D03*
X33250000Y-107340000D03*
X30710000Y-107340000D03*
X33250000Y-104800000D03*
X30710000Y-104800000D03*
X33250000Y-102260000D03*
X30710000Y-102260000D03*
X33250000Y-99720000D03*
X30710000Y-99720000D03*
X33250000Y-97180000D03*
X30710000Y-97180000D03*
X33250000Y-94640000D03*
X30710000Y-94640000D03*
X33250000Y-92100000D03*
X30710000Y-92100000D03*
X33250000Y-89560000D03*
X30710000Y-89560000D03*
X33250000Y-87020000D03*
X30710000Y-87020000D03*
X33250000Y-84480000D03*
X30710000Y-84480000D03*
X33250000Y-81940000D03*
X30710000Y-81940000D03*
X33250000Y-79400000D03*
X30710000Y-79400000D03*
X33250000Y-76860000D03*
X30710000Y-76860000D03*
X33250000Y-74320000D03*
X30710000Y-74320000D03*
X33250000Y-71780000D03*
X30710000Y-71780000D03*
X33250000Y-69240000D03*
X30710000Y-69240000D03*
D28*
X72900000Y-62800000D03*
X76200000Y-62800000D03*
D12*
X40250000Y-110550000D03*
X40250000Y-112450000D03*
X51250000Y-110550000D03*
X51250000Y-112450000D03*
X57500000Y-118700000D03*
X57500000Y-116800000D03*
D25*
X50450000Y-97250000D03*
X54050000Y-97250000D03*
X54400000Y-89200000D03*
X58000000Y-89200000D03*
X45950000Y-103250000D03*
X49550000Y-103250000D03*
D13*
X46310000Y-68000000D03*
X48210000Y-68000000D03*
D25*
X51350000Y-64700000D03*
X54950000Y-64700000D03*
D13*
X41550000Y-68000000D03*
X43450000Y-68000000D03*
D25*
X38000000Y-82450000D03*
X41600000Y-82450000D03*
D23*
X57300000Y-56900000D03*
X57300000Y-54700000D03*
X62000000Y-50400000D03*
X62000000Y-48200000D03*
X46400000Y-56900000D03*
X46400000Y-54700000D03*
X35400000Y-56900000D03*
X35400000Y-54700000D03*
X69200000Y-62800000D03*
X69200000Y-65000000D03*
D24*
X68300000Y-67900000D03*
X70500000Y-67900000D03*
D12*
X74400000Y-119450000D03*
X74400000Y-121350000D03*
X68400000Y-119550000D03*
X68400000Y-121450000D03*
D23*
X73000000Y-119400000D03*
X73000000Y-121600000D03*
X71200000Y-119400000D03*
X71200000Y-121600000D03*
X69800000Y-121600000D03*
X69800000Y-119400000D03*
D24*
X78100000Y-67750000D03*
X75900000Y-67750000D03*
D28*
X75850000Y-69500000D03*
X79150000Y-69500000D03*
D29*
X72150000Y-67850000D03*
X72150000Y-69750000D03*
X74150000Y-68800000D03*
D24*
X75750000Y-64700000D03*
X73550000Y-64700000D03*
D12*
X67700000Y-63050000D03*
X67700000Y-64950000D03*
M02*
