G04 #@! TF.FileFunction,Legend,Top*
%FSLAX46Y46*%
G04 Gerber Fmt 4.6, Leading zero omitted, Abs format (unit mm)*
G04 Created by KiCad (PCBNEW 4.0.7) date 09/09/18 14:05:58*
%MOMM*%
%LPD*%
G01*
G04 APERTURE LIST*
%ADD10C,0.100000*%
%ADD11C,0.300000*%
%ADD12C,0.120000*%
%ADD13C,0.152400*%
%ADD14C,0.127000*%
%ADD15C,0.150000*%
G04 APERTURE END LIST*
D10*
D11*
X62678571Y-92678571D02*
X61178571Y-92678571D01*
X61178571Y-92107143D01*
X61250000Y-91964285D01*
X61321429Y-91892857D01*
X61464286Y-91821428D01*
X61678571Y-91821428D01*
X61821429Y-91892857D01*
X61892857Y-91964285D01*
X61964286Y-92107143D01*
X61964286Y-92678571D01*
X62678571Y-90964285D02*
X62607143Y-91107143D01*
X62535714Y-91178571D01*
X62392857Y-91250000D01*
X61964286Y-91250000D01*
X61821429Y-91178571D01*
X61750000Y-91107143D01*
X61678571Y-90964285D01*
X61678571Y-90750000D01*
X61750000Y-90607143D01*
X61821429Y-90535714D01*
X61964286Y-90464285D01*
X62392857Y-90464285D01*
X62535714Y-90535714D01*
X62607143Y-90607143D01*
X62678571Y-90750000D01*
X62678571Y-90964285D01*
X61678571Y-89964285D02*
X62678571Y-89678571D01*
X61964286Y-89392857D01*
X62678571Y-89107142D01*
X61678571Y-88821428D01*
X62607143Y-87678571D02*
X62678571Y-87821428D01*
X62678571Y-88107142D01*
X62607143Y-88249999D01*
X62464286Y-88321428D01*
X61892857Y-88321428D01*
X61750000Y-88249999D01*
X61678571Y-88107142D01*
X61678571Y-87821428D01*
X61750000Y-87678571D01*
X61892857Y-87607142D01*
X62035714Y-87607142D01*
X62178571Y-88321428D01*
X62678571Y-86964285D02*
X61678571Y-86964285D01*
X61964286Y-86964285D02*
X61821429Y-86892857D01*
X61750000Y-86821428D01*
X61678571Y-86678571D01*
X61678571Y-86535714D01*
X62678571Y-84892857D02*
X61178571Y-84892857D01*
X62250000Y-84392857D01*
X61178571Y-83892857D01*
X62678571Y-83892857D01*
X62678571Y-82964285D02*
X62607143Y-83107143D01*
X62535714Y-83178571D01*
X62392857Y-83250000D01*
X61964286Y-83250000D01*
X61821429Y-83178571D01*
X61750000Y-83107143D01*
X61678571Y-82964285D01*
X61678571Y-82750000D01*
X61750000Y-82607143D01*
X61821429Y-82535714D01*
X61964286Y-82464285D01*
X62392857Y-82464285D01*
X62535714Y-82535714D01*
X62607143Y-82607143D01*
X62678571Y-82750000D01*
X62678571Y-82964285D01*
X61678571Y-81821428D02*
X62678571Y-81821428D01*
X61821429Y-81821428D02*
X61750000Y-81750000D01*
X61678571Y-81607142D01*
X61678571Y-81392857D01*
X61750000Y-81250000D01*
X61892857Y-81178571D01*
X62678571Y-81178571D01*
X62678571Y-80464285D02*
X61678571Y-80464285D01*
X61178571Y-80464285D02*
X61250000Y-80535714D01*
X61321429Y-80464285D01*
X61250000Y-80392857D01*
X61178571Y-80464285D01*
X61321429Y-80464285D01*
X61678571Y-79964285D02*
X61678571Y-79392856D01*
X61178571Y-79749999D02*
X62464286Y-79749999D01*
X62607143Y-79678571D01*
X62678571Y-79535713D01*
X62678571Y-79392856D01*
X62678571Y-78678570D02*
X62607143Y-78821428D01*
X62535714Y-78892856D01*
X62392857Y-78964285D01*
X61964286Y-78964285D01*
X61821429Y-78892856D01*
X61750000Y-78821428D01*
X61678571Y-78678570D01*
X61678571Y-78464285D01*
X61750000Y-78321428D01*
X61821429Y-78249999D01*
X61964286Y-78178570D01*
X62392857Y-78178570D01*
X62535714Y-78249999D01*
X62607143Y-78321428D01*
X62678571Y-78464285D01*
X62678571Y-78678570D01*
X62678571Y-77535713D02*
X61678571Y-77535713D01*
X61964286Y-77535713D02*
X61821429Y-77464285D01*
X61750000Y-77392856D01*
X61678571Y-77249999D01*
X61678571Y-77107142D01*
X61178571Y-75678571D02*
X62678571Y-75178571D01*
X61178571Y-74678571D01*
X61321429Y-74250000D02*
X61250000Y-74178571D01*
X61178571Y-74035714D01*
X61178571Y-73678571D01*
X61250000Y-73535714D01*
X61321429Y-73464285D01*
X61464286Y-73392857D01*
X61607143Y-73392857D01*
X61821429Y-73464285D01*
X62678571Y-74321428D01*
X62678571Y-73392857D01*
X62535714Y-72750000D02*
X62607143Y-72678572D01*
X62678571Y-72750000D01*
X62607143Y-72821429D01*
X62535714Y-72750000D01*
X62678571Y-72750000D01*
X62678571Y-71250000D02*
X62678571Y-72107143D01*
X62678571Y-71678571D02*
X61178571Y-71678571D01*
X61392857Y-71821428D01*
X61535714Y-71964286D01*
X61607143Y-72107143D01*
D12*
X34900000Y-118100000D02*
X34900000Y-117400000D01*
X36100000Y-117400000D02*
X36100000Y-118100000D01*
X45900000Y-118100000D02*
X45900000Y-117400000D01*
X47100000Y-117400000D02*
X47100000Y-118100000D01*
X62850000Y-111150000D02*
X62850000Y-111850000D01*
X61650000Y-111850000D02*
X61650000Y-111150000D01*
X69650000Y-75600000D02*
X70350000Y-75600000D01*
X70350000Y-76800000D02*
X69650000Y-76800000D01*
X76950000Y-81400000D02*
X76250000Y-81400000D01*
X76250000Y-80200000D02*
X76950000Y-80200000D01*
D13*
X37756800Y-95702000D02*
X37452000Y-95702000D01*
X43548000Y-96006800D02*
X43548000Y-95702000D01*
X37452000Y-101493200D02*
X37452000Y-101798000D01*
X43548000Y-101798000D02*
X43548000Y-101493200D01*
X43548000Y-95702000D02*
X43243200Y-95702000D01*
X37452000Y-95702000D02*
X37452000Y-96006800D01*
X37452000Y-101798000D02*
X37756800Y-101798000D01*
X43243200Y-101798000D02*
X43548000Y-101798000D01*
D12*
X37350000Y-91550000D02*
X49950000Y-91550000D01*
X49950000Y-91550000D02*
X49950000Y-86450000D01*
X49950000Y-86450000D02*
X37350000Y-86450000D01*
X69850000Y-55200000D02*
X70550000Y-55200000D01*
X70550000Y-56400000D02*
X69850000Y-56400000D01*
X76950000Y-61000000D02*
X76250000Y-61000000D01*
X76250000Y-59800000D02*
X76950000Y-59800000D01*
X77850000Y-38000000D02*
X78550000Y-38000000D01*
X78550000Y-39200000D02*
X77850000Y-39200000D01*
X72400000Y-45550000D02*
X72400000Y-44850000D01*
X73600000Y-44850000D02*
X73600000Y-45550000D01*
X40850000Y-107400000D02*
X40850000Y-108100000D01*
X39650000Y-108100000D02*
X39650000Y-107400000D01*
X36100000Y-113650000D02*
X36100000Y-114350000D01*
X34900000Y-114350000D02*
X34900000Y-113650000D01*
X51850000Y-107400000D02*
X51850000Y-108100000D01*
X50650000Y-108100000D02*
X50650000Y-107400000D01*
X47100000Y-113650000D02*
X47100000Y-114350000D01*
X45900000Y-114350000D02*
X45900000Y-113650000D01*
X62850000Y-107400000D02*
X62850000Y-108100000D01*
X61650000Y-108100000D02*
X61650000Y-107400000D01*
X58100000Y-113650000D02*
X58100000Y-114350000D01*
X56900000Y-114350000D02*
X56900000Y-113650000D01*
X65850000Y-75600000D02*
X66550000Y-75600000D01*
X66550000Y-76800000D02*
X65850000Y-76800000D01*
X72250000Y-80200000D02*
X72950000Y-80200000D01*
X72950000Y-81400000D02*
X72250000Y-81400000D01*
X66050000Y-55200000D02*
X66750000Y-55200000D01*
X66750000Y-56400000D02*
X66050000Y-56400000D01*
X72250000Y-59800000D02*
X72950000Y-59800000D01*
X72950000Y-61000000D02*
X72250000Y-61000000D01*
X80400000Y-39950000D02*
X80400000Y-39250000D01*
X81600000Y-39250000D02*
X81600000Y-39950000D01*
X75750000Y-48400000D02*
X75050000Y-48400000D01*
X75050000Y-47200000D02*
X75750000Y-47200000D01*
X70700000Y-109850000D02*
X70700000Y-110550000D01*
X69500000Y-110550000D02*
X69500000Y-109850000D01*
X77150000Y-114500000D02*
X76450000Y-114500000D01*
X76450000Y-113300000D02*
X77150000Y-113300000D01*
X70550000Y-98900000D02*
X69850000Y-98900000D01*
X69850000Y-97700000D02*
X70550000Y-97700000D01*
X69850000Y-86700000D02*
X70550000Y-86700000D01*
X70550000Y-87900000D02*
X69850000Y-87900000D01*
X58100000Y-52150000D02*
X58100000Y-51450000D01*
X59300000Y-51450000D02*
X59300000Y-52150000D01*
X64000000Y-45050000D02*
X64000000Y-45750000D01*
X62800000Y-45750000D02*
X62800000Y-45050000D01*
D14*
X38500000Y-126000000D02*
X38500000Y-127500000D01*
X38500000Y-127500000D02*
X42500000Y-127500000D01*
X42500000Y-127500000D02*
X42500000Y-126000000D01*
X38000000Y-126000000D02*
X38500000Y-126000000D01*
X38500000Y-126000000D02*
X42500000Y-126000000D01*
X42500000Y-126000000D02*
X43000000Y-126000000D01*
X38000000Y-126000000D02*
X38000000Y-123010000D01*
X38000000Y-120180000D02*
X38000000Y-114000000D01*
X38000000Y-114000000D02*
X42400000Y-114000000D01*
X43000000Y-115980000D02*
X43000000Y-122880000D01*
X43000000Y-126000000D02*
X43000000Y-125690000D01*
X49500000Y-126000000D02*
X49500000Y-127500000D01*
X49500000Y-127500000D02*
X53500000Y-127500000D01*
X53500000Y-127500000D02*
X53500000Y-126000000D01*
X49000000Y-126000000D02*
X49500000Y-126000000D01*
X49500000Y-126000000D02*
X53500000Y-126000000D01*
X53500000Y-126000000D02*
X54000000Y-126000000D01*
X49000000Y-126000000D02*
X49000000Y-123010000D01*
X49000000Y-120180000D02*
X49000000Y-114000000D01*
X49000000Y-114000000D02*
X53400000Y-114000000D01*
X54000000Y-115980000D02*
X54000000Y-122880000D01*
X54000000Y-126000000D02*
X54000000Y-125690000D01*
X60500000Y-126000000D02*
X60500000Y-127500000D01*
X60500000Y-127500000D02*
X64500000Y-127500000D01*
X64500000Y-127500000D02*
X64500000Y-126000000D01*
X60000000Y-126000000D02*
X60500000Y-126000000D01*
X60500000Y-126000000D02*
X64500000Y-126000000D01*
X64500000Y-126000000D02*
X65000000Y-126000000D01*
X60000000Y-126000000D02*
X60000000Y-123010000D01*
X60000000Y-120180000D02*
X60000000Y-114000000D01*
X60000000Y-114000000D02*
X64400000Y-114000000D01*
X65000000Y-115980000D02*
X65000000Y-122880000D01*
X65000000Y-126000000D02*
X65000000Y-125690000D01*
X84500000Y-111000000D02*
X86000000Y-111000000D01*
X86000000Y-111000000D02*
X86000000Y-107000000D01*
X86000000Y-107000000D02*
X84500000Y-107000000D01*
X84500000Y-111500000D02*
X84500000Y-111000000D01*
X84500000Y-111000000D02*
X84500000Y-107000000D01*
X84500000Y-107000000D02*
X84500000Y-106500000D01*
X84500000Y-111500000D02*
X81510000Y-111500000D01*
X78680000Y-111500000D02*
X72500000Y-111500000D01*
X72500000Y-111500000D02*
X72500000Y-107100000D01*
X74480000Y-106500000D02*
X81380000Y-106500000D01*
X84500000Y-106500000D02*
X84190000Y-106500000D01*
X84500000Y-100000000D02*
X86000000Y-100000000D01*
X86000000Y-100000000D02*
X86000000Y-96000000D01*
X86000000Y-96000000D02*
X84500000Y-96000000D01*
X84500000Y-100500000D02*
X84500000Y-100000000D01*
X84500000Y-100000000D02*
X84500000Y-96000000D01*
X84500000Y-96000000D02*
X84500000Y-95500000D01*
X84500000Y-100500000D02*
X81510000Y-100500000D01*
X78680000Y-100500000D02*
X72500000Y-100500000D01*
X72500000Y-100500000D02*
X72500000Y-96100000D01*
X74480000Y-95500000D02*
X81380000Y-95500000D01*
X84500000Y-95500000D02*
X84190000Y-95500000D01*
X84500000Y-89000000D02*
X86000000Y-89000000D01*
X86000000Y-89000000D02*
X86000000Y-85000000D01*
X86000000Y-85000000D02*
X84500000Y-85000000D01*
X84500000Y-89500000D02*
X84500000Y-89000000D01*
X84500000Y-89000000D02*
X84500000Y-85000000D01*
X84500000Y-85000000D02*
X84500000Y-84500000D01*
X84500000Y-89500000D02*
X81510000Y-89500000D01*
X78680000Y-89500000D02*
X72500000Y-89500000D01*
X72500000Y-89500000D02*
X72500000Y-85100000D01*
X74480000Y-84500000D02*
X81380000Y-84500000D01*
X84500000Y-84500000D02*
X84190000Y-84500000D01*
D12*
X41070000Y-112250000D02*
X41070000Y-111250000D01*
X42430000Y-111250000D02*
X42430000Y-112250000D01*
X36320000Y-118500000D02*
X36320000Y-117500000D01*
X37680000Y-117500000D02*
X37680000Y-118500000D01*
X52070000Y-112250000D02*
X52070000Y-111250000D01*
X53430000Y-111250000D02*
X53430000Y-112250000D01*
X47320000Y-118500000D02*
X47320000Y-117500000D01*
X48680000Y-117500000D02*
X48680000Y-118500000D01*
X63070000Y-112250000D02*
X63070000Y-111250000D01*
X64430000Y-111250000D02*
X64430000Y-112250000D01*
X58320000Y-118500000D02*
X58320000Y-117500000D01*
X59680000Y-117500000D02*
X59680000Y-118500000D01*
X70700000Y-75480000D02*
X69700000Y-75480000D01*
X69700000Y-74120000D02*
X70700000Y-74120000D01*
X77100000Y-80080000D02*
X76100000Y-80080000D01*
X76100000Y-78720000D02*
X77100000Y-78720000D01*
X70700000Y-55080000D02*
X69700000Y-55080000D01*
X69700000Y-53720000D02*
X70700000Y-53720000D01*
X77100000Y-59680000D02*
X76100000Y-59680000D01*
X76100000Y-58320000D02*
X77100000Y-58320000D01*
X73700000Y-37920000D02*
X74700000Y-37920000D01*
X74700000Y-39280000D02*
X73700000Y-39280000D01*
X75100000Y-44320000D02*
X76100000Y-44320000D01*
X76100000Y-45680000D02*
X75100000Y-45680000D01*
X41070000Y-108250000D02*
X41070000Y-107250000D01*
X42430000Y-107250000D02*
X42430000Y-108250000D01*
X36320000Y-114500000D02*
X36320000Y-113500000D01*
X37680000Y-113500000D02*
X37680000Y-114500000D01*
X52070000Y-108250000D02*
X52070000Y-107250000D01*
X53430000Y-107250000D02*
X53430000Y-108250000D01*
X47320000Y-114500000D02*
X47320000Y-113500000D01*
X48680000Y-113500000D02*
X48680000Y-114500000D01*
X63070000Y-108250000D02*
X63070000Y-107250000D01*
X64430000Y-107250000D02*
X64430000Y-108250000D01*
X58320000Y-114500000D02*
X58320000Y-113500000D01*
X59680000Y-113500000D02*
X59680000Y-114500000D01*
X47300000Y-52050000D02*
X47300000Y-51350000D01*
X48500000Y-51350000D02*
X48500000Y-52050000D01*
X36200000Y-52150000D02*
X36200000Y-51450000D01*
X37400000Y-51450000D02*
X37400000Y-52150000D01*
X70000000Y-105950000D02*
X70000000Y-106650000D01*
X68800000Y-106650000D02*
X68800000Y-105950000D01*
X72550000Y-113600000D02*
X73250000Y-113600000D01*
X73250000Y-114800000D02*
X72550000Y-114800000D01*
X66050000Y-97700000D02*
X66750000Y-97700000D01*
X66750000Y-98900000D02*
X66050000Y-98900000D01*
X65950000Y-86700000D02*
X66650000Y-86700000D01*
X66650000Y-87900000D02*
X65950000Y-87900000D01*
X58100000Y-56250000D02*
X58100000Y-55550000D01*
X59300000Y-55550000D02*
X59300000Y-56250000D01*
X62800000Y-49550000D02*
X62800000Y-48850000D01*
X64000000Y-48850000D02*
X64000000Y-49550000D01*
X47300000Y-56050000D02*
X47300000Y-55350000D01*
X48500000Y-55350000D02*
X48500000Y-56050000D01*
X36200000Y-56050000D02*
X36200000Y-55350000D01*
X37400000Y-55350000D02*
X37400000Y-56050000D01*
X47650000Y-96850000D02*
X47650000Y-96150000D01*
X48850000Y-96150000D02*
X48850000Y-96850000D01*
X47900000Y-91650000D02*
X48600000Y-91650000D01*
X48600000Y-92850000D02*
X47900000Y-92850000D01*
X53150000Y-91650000D02*
X53850000Y-91650000D01*
X53850000Y-92850000D02*
X53150000Y-92850000D01*
X38600000Y-92850000D02*
X37900000Y-92850000D01*
X37900000Y-91650000D02*
X38600000Y-91650000D01*
X38550000Y-105600000D02*
X38550000Y-106300000D01*
X37350000Y-106300000D02*
X37350000Y-105600000D01*
D14*
X84500000Y-57500000D02*
X86000000Y-57500000D01*
X86000000Y-57500000D02*
X86000000Y-53500000D01*
X86000000Y-53500000D02*
X84500000Y-53500000D01*
X84500000Y-58000000D02*
X84500000Y-57500000D01*
X84500000Y-57500000D02*
X84500000Y-53500000D01*
X84500000Y-53500000D02*
X84500000Y-53000000D01*
X84500000Y-58000000D02*
X81510000Y-58000000D01*
X78680000Y-58000000D02*
X72500000Y-58000000D01*
X72500000Y-58000000D02*
X72500000Y-53600000D01*
X74480000Y-53000000D02*
X81380000Y-53000000D01*
X84500000Y-53000000D02*
X84190000Y-53000000D01*
X71500000Y-37500000D02*
X71500000Y-36000000D01*
X71500000Y-36000000D02*
X67500000Y-36000000D01*
X67500000Y-36000000D02*
X67500000Y-37500000D01*
X72000000Y-37500000D02*
X71500000Y-37500000D01*
X71500000Y-37500000D02*
X67500000Y-37500000D01*
X67500000Y-37500000D02*
X67000000Y-37500000D01*
X72000000Y-37500000D02*
X72000000Y-40490000D01*
X72000000Y-43320000D02*
X72000000Y-49500000D01*
X72000000Y-49500000D02*
X67600000Y-49500000D01*
X67000000Y-47520000D02*
X67000000Y-40620000D01*
X67000000Y-37500000D02*
X67000000Y-37810000D01*
X60500000Y-37500000D02*
X60500000Y-36000000D01*
X60500000Y-36000000D02*
X56500000Y-36000000D01*
X56500000Y-36000000D02*
X56500000Y-37500000D01*
X61000000Y-37500000D02*
X60500000Y-37500000D01*
X60500000Y-37500000D02*
X56500000Y-37500000D01*
X56500000Y-37500000D02*
X56000000Y-37500000D01*
X61000000Y-37500000D02*
X61000000Y-40490000D01*
X61000000Y-43320000D02*
X61000000Y-49500000D01*
X61000000Y-49500000D02*
X56600000Y-49500000D01*
X56000000Y-47520000D02*
X56000000Y-40620000D01*
X56000000Y-37500000D02*
X56000000Y-37810000D01*
X49500000Y-37500000D02*
X49500000Y-36000000D01*
X49500000Y-36000000D02*
X45500000Y-36000000D01*
X45500000Y-36000000D02*
X45500000Y-37500000D01*
X50000000Y-37500000D02*
X49500000Y-37500000D01*
X49500000Y-37500000D02*
X45500000Y-37500000D01*
X45500000Y-37500000D02*
X45000000Y-37500000D01*
X50000000Y-37500000D02*
X50000000Y-40490000D01*
X50000000Y-43320000D02*
X50000000Y-49500000D01*
X50000000Y-49500000D02*
X45600000Y-49500000D01*
X45000000Y-47520000D02*
X45000000Y-40620000D01*
X45000000Y-37500000D02*
X45000000Y-37810000D01*
X38500000Y-37500000D02*
X38500000Y-36000000D01*
X38500000Y-36000000D02*
X34500000Y-36000000D01*
X34500000Y-36000000D02*
X34500000Y-37500000D01*
X39000000Y-37500000D02*
X38500000Y-37500000D01*
X38500000Y-37500000D02*
X34500000Y-37500000D01*
X34500000Y-37500000D02*
X34000000Y-37500000D01*
X39000000Y-37500000D02*
X39000000Y-40490000D01*
X39000000Y-43320000D02*
X39000000Y-49500000D01*
X39000000Y-49500000D02*
X34600000Y-49500000D01*
X34000000Y-47520000D02*
X34000000Y-40620000D01*
X34000000Y-37500000D02*
X34000000Y-37810000D01*
D12*
X66700000Y-75480000D02*
X65700000Y-75480000D01*
X65700000Y-74120000D02*
X66700000Y-74120000D01*
X73100000Y-80080000D02*
X72100000Y-80080000D01*
X72100000Y-78720000D02*
X73100000Y-78720000D01*
X66700000Y-55080000D02*
X65700000Y-55080000D01*
X65700000Y-53720000D02*
X66700000Y-53720000D01*
X73100000Y-59680000D02*
X72100000Y-59680000D01*
X72100000Y-58320000D02*
X73100000Y-58320000D01*
X77700000Y-39320000D02*
X78700000Y-39320000D01*
X78700000Y-40680000D02*
X77700000Y-40680000D01*
X75100000Y-45720000D02*
X76100000Y-45720000D01*
X76100000Y-47080000D02*
X75100000Y-47080000D01*
X70820000Y-110500000D02*
X70820000Y-109500000D01*
X72180000Y-109500000D02*
X72180000Y-110500000D01*
X77200000Y-113180000D02*
X76200000Y-113180000D01*
X76200000Y-111820000D02*
X77200000Y-111820000D01*
X70700000Y-97580000D02*
X69700000Y-97580000D01*
X69700000Y-96220000D02*
X70700000Y-96220000D01*
X70700000Y-86580000D02*
X69700000Y-86580000D01*
X69700000Y-85220000D02*
X70700000Y-85220000D01*
X57980000Y-51300000D02*
X57980000Y-52300000D01*
X56620000Y-52300000D02*
X56620000Y-51300000D01*
X62680000Y-44800000D02*
X62680000Y-45800000D01*
X61320000Y-45800000D02*
X61320000Y-44800000D01*
X47080000Y-51300000D02*
X47080000Y-52300000D01*
X45720000Y-52300000D02*
X45720000Y-51300000D01*
X36080000Y-51300000D02*
X36080000Y-52300000D01*
X34720000Y-52300000D02*
X34720000Y-51300000D01*
X70120000Y-106500000D02*
X70120000Y-105500000D01*
X71480000Y-105500000D02*
X71480000Y-106500000D01*
X73300000Y-113480000D02*
X72300000Y-113480000D01*
X72300000Y-112120000D02*
X73300000Y-112120000D01*
X66700000Y-97580000D02*
X65700000Y-97580000D01*
X65700000Y-96220000D02*
X66700000Y-96220000D01*
X66700000Y-86580000D02*
X65700000Y-86580000D01*
X65700000Y-85220000D02*
X66700000Y-85220000D01*
D13*
X37256800Y-70152000D02*
X36952000Y-70152000D01*
X43048000Y-70456800D02*
X43048000Y-70152000D01*
X36952000Y-75943200D02*
X36952000Y-76248000D01*
X43048000Y-76248000D02*
X43048000Y-75943200D01*
X43048000Y-70152000D02*
X42743200Y-70152000D01*
X36952000Y-70152000D02*
X36952000Y-70456800D01*
X36952000Y-76248000D02*
X37256800Y-76248000D01*
X42743200Y-76248000D02*
X43048000Y-76248000D01*
D12*
X49360000Y-71630000D02*
X49360000Y-72030000D01*
X53940000Y-70860000D02*
X53940000Y-72030000D01*
X53940000Y-75440000D02*
X53940000Y-74270000D01*
X49360000Y-74670000D02*
X49360000Y-74270000D01*
X50130000Y-75440000D02*
X53940000Y-75440000D01*
X50130000Y-75440000D02*
X49360000Y-74670000D01*
X50130000Y-70860000D02*
X53940000Y-70860000D01*
X50130000Y-70860000D02*
X49360000Y-71630000D01*
X48200000Y-73600000D02*
X48200000Y-74300000D01*
X47000000Y-74300000D02*
X47000000Y-73600000D01*
X37610000Y-68590000D02*
X36910000Y-68590000D01*
X36910000Y-67390000D02*
X37610000Y-67390000D01*
X39450000Y-78750000D02*
X40150000Y-78750000D01*
X40150000Y-79950000D02*
X39450000Y-79950000D01*
D14*
X84500000Y-78000000D02*
X86000000Y-78000000D01*
X86000000Y-78000000D02*
X86000000Y-74000000D01*
X86000000Y-74000000D02*
X84500000Y-74000000D01*
X84500000Y-78500000D02*
X84500000Y-78000000D01*
X84500000Y-78000000D02*
X84500000Y-74000000D01*
X84500000Y-74000000D02*
X84500000Y-73500000D01*
X84500000Y-78500000D02*
X81510000Y-78500000D01*
X78680000Y-78500000D02*
X72500000Y-78500000D01*
X72500000Y-78500000D02*
X72500000Y-74100000D01*
X74480000Y-73500000D02*
X81380000Y-73500000D01*
X84500000Y-73500000D02*
X84190000Y-73500000D01*
D12*
X36350000Y-67270000D02*
X48950000Y-67270000D01*
X48950000Y-67270000D02*
X48950000Y-62170000D01*
X48950000Y-62170000D02*
X36350000Y-62170000D01*
X75130000Y-125740000D02*
X69930000Y-125740000D01*
X69930000Y-125740000D02*
X69930000Y-128400000D01*
X69930000Y-128400000D02*
X75130000Y-128400000D01*
X75130000Y-128400000D02*
X75130000Y-125740000D01*
X74180000Y-128400000D02*
X74180000Y-134400000D01*
X74180000Y-134400000D02*
X73420000Y-134400000D01*
X73420000Y-134400000D02*
X73420000Y-128400000D01*
X74120000Y-128400000D02*
X74120000Y-134400000D01*
X74000000Y-128400000D02*
X74000000Y-134400000D01*
X73880000Y-128400000D02*
X73880000Y-134400000D01*
X73760000Y-128400000D02*
X73760000Y-134400000D01*
X73640000Y-128400000D02*
X73640000Y-134400000D01*
X73520000Y-128400000D02*
X73520000Y-134400000D01*
X74180000Y-125410000D02*
X74180000Y-125740000D01*
X73420000Y-125410000D02*
X73420000Y-125740000D01*
X72530000Y-125740000D02*
X72530000Y-128400000D01*
X71640000Y-128400000D02*
X71640000Y-134400000D01*
X71640000Y-134400000D02*
X70880000Y-134400000D01*
X70880000Y-134400000D02*
X70880000Y-128400000D01*
X71640000Y-125342929D02*
X71640000Y-125740000D01*
X70880000Y-125342929D02*
X70880000Y-125740000D01*
X73800000Y-123030000D02*
X75070000Y-123030000D01*
X75070000Y-123030000D02*
X75070000Y-124300000D01*
X34580000Y-67910000D02*
X29380000Y-67910000D01*
X34580000Y-116230000D02*
X34580000Y-67910000D01*
X29380000Y-118830000D02*
X29380000Y-67910000D01*
X34580000Y-116230000D02*
X31980000Y-116230000D01*
X31980000Y-116230000D02*
X31980000Y-118830000D01*
X31980000Y-118830000D02*
X29380000Y-118830000D01*
X34580000Y-117500000D02*
X34580000Y-118830000D01*
X34580000Y-118830000D02*
X33250000Y-118830000D01*
X77050000Y-63650000D02*
X77050000Y-61950000D01*
X77000000Y-61950000D02*
X72950000Y-61950000D01*
X77000000Y-63650000D02*
X72950000Y-63650000D01*
X40850000Y-111150000D02*
X40850000Y-111850000D01*
X39650000Y-111850000D02*
X39650000Y-111150000D01*
X51850000Y-111150000D02*
X51850000Y-111850000D01*
X50650000Y-111850000D02*
X50650000Y-111150000D01*
X56900000Y-118100000D02*
X56900000Y-117400000D01*
X58100000Y-117400000D02*
X58100000Y-118100000D01*
X49960000Y-95730000D02*
X49960000Y-96130000D01*
X54540000Y-94960000D02*
X54540000Y-96130000D01*
X54540000Y-99540000D02*
X54540000Y-98370000D01*
X49960000Y-98770000D02*
X49960000Y-98370000D01*
X50730000Y-99540000D02*
X54540000Y-99540000D01*
X50730000Y-99540000D02*
X49960000Y-98770000D01*
X50730000Y-94960000D02*
X54540000Y-94960000D01*
X50730000Y-94960000D02*
X49960000Y-95730000D01*
X53910000Y-87680000D02*
X53910000Y-88080000D01*
X58490000Y-86910000D02*
X58490000Y-88080000D01*
X58490000Y-91490000D02*
X58490000Y-90320000D01*
X53910000Y-90720000D02*
X53910000Y-90320000D01*
X54680000Y-91490000D02*
X58490000Y-91490000D01*
X54680000Y-91490000D02*
X53910000Y-90720000D01*
X54680000Y-86910000D02*
X58490000Y-86910000D01*
X54680000Y-86910000D02*
X53910000Y-87680000D01*
X45460000Y-101730000D02*
X45460000Y-102130000D01*
X50040000Y-100960000D02*
X50040000Y-102130000D01*
X50040000Y-105540000D02*
X50040000Y-104370000D01*
X45460000Y-104770000D02*
X45460000Y-104370000D01*
X46230000Y-105540000D02*
X50040000Y-105540000D01*
X46230000Y-105540000D02*
X45460000Y-104770000D01*
X46230000Y-100960000D02*
X50040000Y-100960000D01*
X46230000Y-100960000D02*
X45460000Y-101730000D01*
X46910000Y-67400000D02*
X47610000Y-67400000D01*
X47610000Y-68600000D02*
X46910000Y-68600000D01*
X50860000Y-63180000D02*
X50860000Y-63580000D01*
X55440000Y-62410000D02*
X55440000Y-63580000D01*
X55440000Y-66990000D02*
X55440000Y-65820000D01*
X50860000Y-66220000D02*
X50860000Y-65820000D01*
X51630000Y-66990000D02*
X55440000Y-66990000D01*
X51630000Y-66990000D02*
X50860000Y-66220000D01*
X51630000Y-62410000D02*
X55440000Y-62410000D01*
X51630000Y-62410000D02*
X50860000Y-63180000D01*
X42150000Y-67400000D02*
X42850000Y-67400000D01*
X42850000Y-68600000D02*
X42150000Y-68600000D01*
X37510000Y-80930000D02*
X37510000Y-81330000D01*
X42090000Y-80160000D02*
X42090000Y-81330000D01*
X42090000Y-84740000D02*
X42090000Y-83570000D01*
X37510000Y-83970000D02*
X37510000Y-83570000D01*
X38280000Y-84740000D02*
X42090000Y-84740000D01*
X38280000Y-84740000D02*
X37510000Y-83970000D01*
X38280000Y-80160000D02*
X42090000Y-80160000D01*
X38280000Y-80160000D02*
X37510000Y-80930000D01*
X57980000Y-55300000D02*
X57980000Y-56300000D01*
X56620000Y-56300000D02*
X56620000Y-55300000D01*
X62680000Y-48800000D02*
X62680000Y-49800000D01*
X61320000Y-49800000D02*
X61320000Y-48800000D01*
X47080000Y-55300000D02*
X47080000Y-56300000D01*
X45720000Y-56300000D02*
X45720000Y-55300000D01*
X36080000Y-55300000D02*
X36080000Y-56300000D01*
X34720000Y-56300000D02*
X34720000Y-55300000D01*
X68520000Y-64400000D02*
X68520000Y-63400000D01*
X69880000Y-63400000D02*
X69880000Y-64400000D01*
X69900000Y-68580000D02*
X68900000Y-68580000D01*
X68900000Y-67220000D02*
X69900000Y-67220000D01*
X75000000Y-120050000D02*
X75000000Y-120750000D01*
X73800000Y-120750000D02*
X73800000Y-120050000D01*
X69000000Y-120150000D02*
X69000000Y-120850000D01*
X67800000Y-120850000D02*
X67800000Y-120150000D01*
X72320000Y-121000000D02*
X72320000Y-120000000D01*
X73680000Y-120000000D02*
X73680000Y-121000000D01*
X70520000Y-121000000D02*
X70520000Y-120000000D01*
X71880000Y-120000000D02*
X71880000Y-121000000D01*
X70480000Y-120000000D02*
X70480000Y-121000000D01*
X69120000Y-121000000D02*
X69120000Y-120000000D01*
X76500000Y-67070000D02*
X77500000Y-67070000D01*
X77500000Y-68430000D02*
X76500000Y-68430000D01*
X80000000Y-70350000D02*
X80000000Y-68650000D01*
X79950000Y-68650000D02*
X75900000Y-68650000D01*
X79950000Y-70350000D02*
X75900000Y-70350000D01*
X73910000Y-70380000D02*
X73910000Y-69450000D01*
X73910000Y-67220000D02*
X73910000Y-68150000D01*
X73910000Y-67220000D02*
X71750000Y-67220000D01*
X73910000Y-70380000D02*
X72450000Y-70380000D01*
X74150000Y-64020000D02*
X75150000Y-64020000D01*
X75150000Y-65380000D02*
X74150000Y-65380000D01*
X68300000Y-63650000D02*
X68300000Y-64350000D01*
X67100000Y-64350000D02*
X67100000Y-63650000D01*
D15*
X35857143Y-111166666D02*
X35904762Y-111214285D01*
X35952381Y-111357142D01*
X35952381Y-111452380D01*
X35904762Y-111595238D01*
X35809524Y-111690476D01*
X35714286Y-111738095D01*
X35523810Y-111785714D01*
X35380952Y-111785714D01*
X35190476Y-111738095D01*
X35095238Y-111690476D01*
X35000000Y-111595238D01*
X34952381Y-111452380D01*
X34952381Y-111357142D01*
X35000000Y-111214285D01*
X35047619Y-111166666D01*
X35047619Y-110785714D02*
X35000000Y-110738095D01*
X34952381Y-110642857D01*
X34952381Y-110404761D01*
X35000000Y-110309523D01*
X35047619Y-110261904D01*
X35142857Y-110214285D01*
X35238095Y-110214285D01*
X35380952Y-110261904D01*
X35952381Y-110833333D01*
X35952381Y-110214285D01*
X46857143Y-111166666D02*
X46904762Y-111214285D01*
X46952381Y-111357142D01*
X46952381Y-111452380D01*
X46904762Y-111595238D01*
X46809524Y-111690476D01*
X46714286Y-111738095D01*
X46523810Y-111785714D01*
X46380952Y-111785714D01*
X46190476Y-111738095D01*
X46095238Y-111690476D01*
X46000000Y-111595238D01*
X45952381Y-111452380D01*
X45952381Y-111357142D01*
X46000000Y-111214285D01*
X46047619Y-111166666D01*
X46285714Y-110309523D02*
X46952381Y-110309523D01*
X45904762Y-110547619D02*
X46619048Y-110785714D01*
X46619048Y-110166666D01*
X61357143Y-111766666D02*
X61404762Y-111814285D01*
X61452381Y-111957142D01*
X61452381Y-112052380D01*
X61404762Y-112195238D01*
X61309524Y-112290476D01*
X61214286Y-112338095D01*
X61023810Y-112385714D01*
X60880952Y-112385714D01*
X60690476Y-112338095D01*
X60595238Y-112290476D01*
X60500000Y-112195238D01*
X60452381Y-112052380D01*
X60452381Y-111957142D01*
X60500000Y-111814285D01*
X60547619Y-111766666D01*
X60452381Y-110861904D02*
X60452381Y-111338095D01*
X60928571Y-111385714D01*
X60880952Y-111338095D01*
X60833333Y-111242857D01*
X60833333Y-111004761D01*
X60880952Y-110909523D01*
X60928571Y-110861904D01*
X61023810Y-110814285D01*
X61261905Y-110814285D01*
X61357143Y-110861904D01*
X61404762Y-110909523D01*
X61452381Y-111004761D01*
X61452381Y-111242857D01*
X61404762Y-111338095D01*
X61357143Y-111385714D01*
X69633334Y-77957143D02*
X69585715Y-78004762D01*
X69442858Y-78052381D01*
X69347620Y-78052381D01*
X69204762Y-78004762D01*
X69109524Y-77909524D01*
X69061905Y-77814286D01*
X69014286Y-77623810D01*
X69014286Y-77480952D01*
X69061905Y-77290476D01*
X69109524Y-77195238D01*
X69204762Y-77100000D01*
X69347620Y-77052381D01*
X69442858Y-77052381D01*
X69585715Y-77100000D01*
X69633334Y-77147619D01*
X69966667Y-77052381D02*
X70633334Y-77052381D01*
X70204762Y-78052381D01*
X69433334Y-81157143D02*
X69385715Y-81204762D01*
X69242858Y-81252381D01*
X69147620Y-81252381D01*
X69004762Y-81204762D01*
X68909524Y-81109524D01*
X68861905Y-81014286D01*
X68814286Y-80823810D01*
X68814286Y-80680952D01*
X68861905Y-80490476D01*
X68909524Y-80395238D01*
X69004762Y-80300000D01*
X69147620Y-80252381D01*
X69242858Y-80252381D01*
X69385715Y-80300000D01*
X69433334Y-80347619D01*
X70004762Y-80680952D02*
X69909524Y-80633333D01*
X69861905Y-80585714D01*
X69814286Y-80490476D01*
X69814286Y-80442857D01*
X69861905Y-80347619D01*
X69909524Y-80300000D01*
X70004762Y-80252381D01*
X70195239Y-80252381D01*
X70290477Y-80300000D01*
X70338096Y-80347619D01*
X70385715Y-80442857D01*
X70385715Y-80490476D01*
X70338096Y-80585714D01*
X70290477Y-80633333D01*
X70195239Y-80680952D01*
X70004762Y-80680952D01*
X69909524Y-80728571D01*
X69861905Y-80776190D01*
X69814286Y-80871429D01*
X69814286Y-81061905D01*
X69861905Y-81157143D01*
X69909524Y-81204762D01*
X70004762Y-81252381D01*
X70195239Y-81252381D01*
X70290477Y-81204762D01*
X70338096Y-81157143D01*
X70385715Y-81061905D01*
X70385715Y-80871429D01*
X70338096Y-80776190D01*
X70290477Y-80728571D01*
X70195239Y-80680952D01*
X35452381Y-100261905D02*
X36261905Y-100261905D01*
X36357143Y-100214286D01*
X36404762Y-100166667D01*
X36452381Y-100071429D01*
X36452381Y-99880952D01*
X36404762Y-99785714D01*
X36357143Y-99738095D01*
X36261905Y-99690476D01*
X35452381Y-99690476D01*
X36452381Y-98690476D02*
X36452381Y-99261905D01*
X36452381Y-98976191D02*
X35452381Y-98976191D01*
X35595238Y-99071429D01*
X35690476Y-99166667D01*
X35738095Y-99261905D01*
X44966667Y-102050000D02*
X44966667Y-101669048D01*
X45252381Y-102126191D02*
X44252381Y-101859524D01*
X45252381Y-101592857D01*
X45252381Y-101326191D02*
X44252381Y-101326191D01*
X44252381Y-101135715D01*
X44300000Y-101021429D01*
X44395238Y-100945238D01*
X44490476Y-100907143D01*
X44680952Y-100869048D01*
X44823810Y-100869048D01*
X45014286Y-100907143D01*
X45109524Y-100945238D01*
X45204762Y-101021429D01*
X45252381Y-101135715D01*
X45252381Y-101326191D01*
X44728571Y-100526191D02*
X44728571Y-100259524D01*
X45252381Y-100145238D02*
X45252381Y-100526191D01*
X44252381Y-100526191D01*
X44252381Y-100145238D01*
X44252381Y-99878571D02*
X44252381Y-99345238D01*
X45252381Y-99688095D01*
X44680952Y-98926190D02*
X44633333Y-99002381D01*
X44585714Y-99040476D01*
X44490476Y-99078571D01*
X44442857Y-99078571D01*
X44347619Y-99040476D01*
X44300000Y-99002381D01*
X44252381Y-98926190D01*
X44252381Y-98773809D01*
X44300000Y-98697619D01*
X44347619Y-98659523D01*
X44442857Y-98621428D01*
X44490476Y-98621428D01*
X44585714Y-98659523D01*
X44633333Y-98697619D01*
X44680952Y-98773809D01*
X44680952Y-98926190D01*
X44728571Y-99002381D01*
X44776190Y-99040476D01*
X44871429Y-99078571D01*
X45061905Y-99078571D01*
X45157143Y-99040476D01*
X45204762Y-99002381D01*
X45252381Y-98926190D01*
X45252381Y-98773809D01*
X45204762Y-98697619D01*
X45157143Y-98659523D01*
X45061905Y-98621428D01*
X44871429Y-98621428D01*
X44776190Y-98659523D01*
X44728571Y-98697619D01*
X44680952Y-98773809D01*
X45252381Y-97859523D02*
X45252381Y-98316666D01*
X45252381Y-98088095D02*
X44252381Y-98088095D01*
X44395238Y-98164285D01*
X44490476Y-98240476D01*
X44538095Y-98316666D01*
X44252381Y-97173809D02*
X44252381Y-97326190D01*
X44300000Y-97402380D01*
X44347619Y-97440475D01*
X44490476Y-97516666D01*
X44680952Y-97554761D01*
X45061905Y-97554761D01*
X45157143Y-97516666D01*
X45204762Y-97478571D01*
X45252381Y-97402380D01*
X45252381Y-97249999D01*
X45204762Y-97173809D01*
X45157143Y-97135713D01*
X45061905Y-97097618D01*
X44823810Y-97097618D01*
X44728571Y-97135713D01*
X44680952Y-97173809D01*
X44633333Y-97249999D01*
X44633333Y-97402380D01*
X44680952Y-97478571D01*
X44728571Y-97516666D01*
X44823810Y-97554761D01*
X44966667Y-96792856D02*
X44966667Y-96411904D01*
X45252381Y-96869047D02*
X44252381Y-96602380D01*
X45252381Y-96335713D01*
X45157143Y-95611904D02*
X45204762Y-95649999D01*
X45252381Y-95764285D01*
X45252381Y-95840475D01*
X45204762Y-95954761D01*
X45109524Y-96030952D01*
X45014286Y-96069047D01*
X44823810Y-96107142D01*
X44680952Y-96107142D01*
X44490476Y-96069047D01*
X44395238Y-96030952D01*
X44300000Y-95954761D01*
X44252381Y-95840475D01*
X44252381Y-95764285D01*
X44300000Y-95649999D01*
X44347619Y-95611904D01*
X45252381Y-95269047D02*
X44252381Y-95269047D01*
X44252381Y-94964285D01*
X44300000Y-94888094D01*
X44347619Y-94849999D01*
X44442857Y-94811904D01*
X44585714Y-94811904D01*
X44680952Y-94849999D01*
X44728571Y-94888094D01*
X44776190Y-94964285D01*
X44776190Y-95269047D01*
X44252381Y-94545237D02*
X44252381Y-94011904D01*
X45252381Y-94545237D01*
X45252381Y-94011904D01*
X41773809Y-92226190D02*
X41773809Y-92702381D01*
X41440476Y-91702381D02*
X41773809Y-92226190D01*
X42107143Y-91702381D01*
X42964286Y-92702381D02*
X42392857Y-92702381D01*
X42678571Y-92702381D02*
X42678571Y-91702381D01*
X42583333Y-91845238D01*
X42488095Y-91940476D01*
X42392857Y-91988095D01*
X69833334Y-57457143D02*
X69785715Y-57504762D01*
X69642858Y-57552381D01*
X69547620Y-57552381D01*
X69404762Y-57504762D01*
X69309524Y-57409524D01*
X69261905Y-57314286D01*
X69214286Y-57123810D01*
X69214286Y-56980952D01*
X69261905Y-56790476D01*
X69309524Y-56695238D01*
X69404762Y-56600000D01*
X69547620Y-56552381D01*
X69642858Y-56552381D01*
X69785715Y-56600000D01*
X69833334Y-56647619D01*
X70309524Y-57552381D02*
X70500000Y-57552381D01*
X70595239Y-57504762D01*
X70642858Y-57457143D01*
X70738096Y-57314286D01*
X70785715Y-57123810D01*
X70785715Y-56742857D01*
X70738096Y-56647619D01*
X70690477Y-56600000D01*
X70595239Y-56552381D01*
X70404762Y-56552381D01*
X70309524Y-56600000D01*
X70261905Y-56647619D01*
X70214286Y-56742857D01*
X70214286Y-56980952D01*
X70261905Y-57076190D01*
X70309524Y-57123810D01*
X70404762Y-57171429D01*
X70595239Y-57171429D01*
X70690477Y-57123810D01*
X70738096Y-57076190D01*
X70785715Y-56980952D01*
X68557143Y-60757143D02*
X68509524Y-60804762D01*
X68366667Y-60852381D01*
X68271429Y-60852381D01*
X68128571Y-60804762D01*
X68033333Y-60709524D01*
X67985714Y-60614286D01*
X67938095Y-60423810D01*
X67938095Y-60280952D01*
X67985714Y-60090476D01*
X68033333Y-59995238D01*
X68128571Y-59900000D01*
X68271429Y-59852381D01*
X68366667Y-59852381D01*
X68509524Y-59900000D01*
X68557143Y-59947619D01*
X69509524Y-60852381D02*
X68938095Y-60852381D01*
X69223809Y-60852381D02*
X69223809Y-59852381D01*
X69128571Y-59995238D01*
X69033333Y-60090476D01*
X68938095Y-60138095D01*
X70128571Y-59852381D02*
X70223810Y-59852381D01*
X70319048Y-59900000D01*
X70366667Y-59947619D01*
X70414286Y-60042857D01*
X70461905Y-60233333D01*
X70461905Y-60471429D01*
X70414286Y-60661905D01*
X70366667Y-60757143D01*
X70319048Y-60804762D01*
X70223810Y-60852381D01*
X70128571Y-60852381D01*
X70033333Y-60804762D01*
X69985714Y-60757143D01*
X69938095Y-60661905D01*
X69890476Y-60471429D01*
X69890476Y-60233333D01*
X69938095Y-60042857D01*
X69985714Y-59947619D01*
X70033333Y-59900000D01*
X70128571Y-59852381D01*
X77557143Y-41757143D02*
X77509524Y-41804762D01*
X77366667Y-41852381D01*
X77271429Y-41852381D01*
X77128571Y-41804762D01*
X77033333Y-41709524D01*
X76985714Y-41614286D01*
X76938095Y-41423810D01*
X76938095Y-41280952D01*
X76985714Y-41090476D01*
X77033333Y-40995238D01*
X77128571Y-40900000D01*
X77271429Y-40852381D01*
X77366667Y-40852381D01*
X77509524Y-40900000D01*
X77557143Y-40947619D01*
X78509524Y-41852381D02*
X77938095Y-41852381D01*
X78223809Y-41852381D02*
X78223809Y-40852381D01*
X78128571Y-40995238D01*
X78033333Y-41090476D01*
X77938095Y-41138095D01*
X79461905Y-41852381D02*
X78890476Y-41852381D01*
X79176190Y-41852381D02*
X79176190Y-40852381D01*
X79080952Y-40995238D01*
X78985714Y-41090476D01*
X78890476Y-41138095D01*
X73357143Y-49042857D02*
X73404762Y-49090476D01*
X73452381Y-49233333D01*
X73452381Y-49328571D01*
X73404762Y-49471429D01*
X73309524Y-49566667D01*
X73214286Y-49614286D01*
X73023810Y-49661905D01*
X72880952Y-49661905D01*
X72690476Y-49614286D01*
X72595238Y-49566667D01*
X72500000Y-49471429D01*
X72452381Y-49328571D01*
X72452381Y-49233333D01*
X72500000Y-49090476D01*
X72547619Y-49042857D01*
X73452381Y-48090476D02*
X73452381Y-48661905D01*
X73452381Y-48376191D02*
X72452381Y-48376191D01*
X72595238Y-48471429D01*
X72690476Y-48566667D01*
X72738095Y-48661905D01*
X72547619Y-47709524D02*
X72500000Y-47661905D01*
X72452381Y-47566667D01*
X72452381Y-47328571D01*
X72500000Y-47233333D01*
X72547619Y-47185714D01*
X72642857Y-47138095D01*
X72738095Y-47138095D01*
X72880952Y-47185714D01*
X73452381Y-47757143D01*
X73452381Y-47138095D01*
X39357143Y-108392857D02*
X39404762Y-108440476D01*
X39452381Y-108583333D01*
X39452381Y-108678571D01*
X39404762Y-108821429D01*
X39309524Y-108916667D01*
X39214286Y-108964286D01*
X39023810Y-109011905D01*
X38880952Y-109011905D01*
X38690476Y-108964286D01*
X38595238Y-108916667D01*
X38500000Y-108821429D01*
X38452381Y-108678571D01*
X38452381Y-108583333D01*
X38500000Y-108440476D01*
X38547619Y-108392857D01*
X39452381Y-107440476D02*
X39452381Y-108011905D01*
X39452381Y-107726191D02*
X38452381Y-107726191D01*
X38595238Y-107821429D01*
X38690476Y-107916667D01*
X38738095Y-108011905D01*
X38452381Y-107107143D02*
X38452381Y-106488095D01*
X38833333Y-106821429D01*
X38833333Y-106678571D01*
X38880952Y-106583333D01*
X38928571Y-106535714D01*
X39023810Y-106488095D01*
X39261905Y-106488095D01*
X39357143Y-106535714D01*
X39404762Y-106583333D01*
X39452381Y-106678571D01*
X39452381Y-106964286D01*
X39404762Y-107059524D01*
X39357143Y-107107143D01*
X35857143Y-108142857D02*
X35904762Y-108190476D01*
X35952381Y-108333333D01*
X35952381Y-108428571D01*
X35904762Y-108571429D01*
X35809524Y-108666667D01*
X35714286Y-108714286D01*
X35523810Y-108761905D01*
X35380952Y-108761905D01*
X35190476Y-108714286D01*
X35095238Y-108666667D01*
X35000000Y-108571429D01*
X34952381Y-108428571D01*
X34952381Y-108333333D01*
X35000000Y-108190476D01*
X35047619Y-108142857D01*
X35952381Y-107190476D02*
X35952381Y-107761905D01*
X35952381Y-107476191D02*
X34952381Y-107476191D01*
X35095238Y-107571429D01*
X35190476Y-107666667D01*
X35238095Y-107761905D01*
X35285714Y-106333333D02*
X35952381Y-106333333D01*
X34904762Y-106571429D02*
X35619048Y-106809524D01*
X35619048Y-106190476D01*
X50357143Y-108392857D02*
X50404762Y-108440476D01*
X50452381Y-108583333D01*
X50452381Y-108678571D01*
X50404762Y-108821429D01*
X50309524Y-108916667D01*
X50214286Y-108964286D01*
X50023810Y-109011905D01*
X49880952Y-109011905D01*
X49690476Y-108964286D01*
X49595238Y-108916667D01*
X49500000Y-108821429D01*
X49452381Y-108678571D01*
X49452381Y-108583333D01*
X49500000Y-108440476D01*
X49547619Y-108392857D01*
X50452381Y-107440476D02*
X50452381Y-108011905D01*
X50452381Y-107726191D02*
X49452381Y-107726191D01*
X49595238Y-107821429D01*
X49690476Y-107916667D01*
X49738095Y-108011905D01*
X49452381Y-106535714D02*
X49452381Y-107011905D01*
X49928571Y-107059524D01*
X49880952Y-107011905D01*
X49833333Y-106916667D01*
X49833333Y-106678571D01*
X49880952Y-106583333D01*
X49928571Y-106535714D01*
X50023810Y-106488095D01*
X50261905Y-106488095D01*
X50357143Y-106535714D01*
X50404762Y-106583333D01*
X50452381Y-106678571D01*
X50452381Y-106916667D01*
X50404762Y-107011905D01*
X50357143Y-107059524D01*
X46857143Y-108142857D02*
X46904762Y-108190476D01*
X46952381Y-108333333D01*
X46952381Y-108428571D01*
X46904762Y-108571429D01*
X46809524Y-108666667D01*
X46714286Y-108714286D01*
X46523810Y-108761905D01*
X46380952Y-108761905D01*
X46190476Y-108714286D01*
X46095238Y-108666667D01*
X46000000Y-108571429D01*
X45952381Y-108428571D01*
X45952381Y-108333333D01*
X46000000Y-108190476D01*
X46047619Y-108142857D01*
X46952381Y-107190476D02*
X46952381Y-107761905D01*
X46952381Y-107476191D02*
X45952381Y-107476191D01*
X46095238Y-107571429D01*
X46190476Y-107666667D01*
X46238095Y-107761905D01*
X45952381Y-106333333D02*
X45952381Y-106523810D01*
X46000000Y-106619048D01*
X46047619Y-106666667D01*
X46190476Y-106761905D01*
X46380952Y-106809524D01*
X46761905Y-106809524D01*
X46857143Y-106761905D01*
X46904762Y-106714286D01*
X46952381Y-106619048D01*
X46952381Y-106428571D01*
X46904762Y-106333333D01*
X46857143Y-106285714D01*
X46761905Y-106238095D01*
X46523810Y-106238095D01*
X46428571Y-106285714D01*
X46380952Y-106333333D01*
X46333333Y-106428571D01*
X46333333Y-106619048D01*
X46380952Y-106714286D01*
X46428571Y-106761905D01*
X46523810Y-106809524D01*
X61357143Y-108442857D02*
X61404762Y-108490476D01*
X61452381Y-108633333D01*
X61452381Y-108728571D01*
X61404762Y-108871429D01*
X61309524Y-108966667D01*
X61214286Y-109014286D01*
X61023810Y-109061905D01*
X60880952Y-109061905D01*
X60690476Y-109014286D01*
X60595238Y-108966667D01*
X60500000Y-108871429D01*
X60452381Y-108728571D01*
X60452381Y-108633333D01*
X60500000Y-108490476D01*
X60547619Y-108442857D01*
X61452381Y-107490476D02*
X61452381Y-108061905D01*
X61452381Y-107776191D02*
X60452381Y-107776191D01*
X60595238Y-107871429D01*
X60690476Y-107966667D01*
X60738095Y-108061905D01*
X60452381Y-107157143D02*
X60452381Y-106490476D01*
X61452381Y-106919048D01*
X57857143Y-107942857D02*
X57904762Y-107990476D01*
X57952381Y-108133333D01*
X57952381Y-108228571D01*
X57904762Y-108371429D01*
X57809524Y-108466667D01*
X57714286Y-108514286D01*
X57523810Y-108561905D01*
X57380952Y-108561905D01*
X57190476Y-108514286D01*
X57095238Y-108466667D01*
X57000000Y-108371429D01*
X56952381Y-108228571D01*
X56952381Y-108133333D01*
X57000000Y-107990476D01*
X57047619Y-107942857D01*
X57952381Y-106990476D02*
X57952381Y-107561905D01*
X57952381Y-107276191D02*
X56952381Y-107276191D01*
X57095238Y-107371429D01*
X57190476Y-107466667D01*
X57238095Y-107561905D01*
X57380952Y-106419048D02*
X57333333Y-106514286D01*
X57285714Y-106561905D01*
X57190476Y-106609524D01*
X57142857Y-106609524D01*
X57047619Y-106561905D01*
X57000000Y-106514286D01*
X56952381Y-106419048D01*
X56952381Y-106228571D01*
X57000000Y-106133333D01*
X57047619Y-106085714D01*
X57142857Y-106038095D01*
X57190476Y-106038095D01*
X57285714Y-106085714D01*
X57333333Y-106133333D01*
X57380952Y-106228571D01*
X57380952Y-106419048D01*
X57428571Y-106514286D01*
X57476190Y-106561905D01*
X57571429Y-106609524D01*
X57761905Y-106609524D01*
X57857143Y-106561905D01*
X57904762Y-106514286D01*
X57952381Y-106419048D01*
X57952381Y-106228571D01*
X57904762Y-106133333D01*
X57857143Y-106085714D01*
X57761905Y-106038095D01*
X57571429Y-106038095D01*
X57476190Y-106085714D01*
X57428571Y-106133333D01*
X57380952Y-106228571D01*
X65557143Y-77957143D02*
X65509524Y-78004762D01*
X65366667Y-78052381D01*
X65271429Y-78052381D01*
X65128571Y-78004762D01*
X65033333Y-77909524D01*
X64985714Y-77814286D01*
X64938095Y-77623810D01*
X64938095Y-77480952D01*
X64985714Y-77290476D01*
X65033333Y-77195238D01*
X65128571Y-77100000D01*
X65271429Y-77052381D01*
X65366667Y-77052381D01*
X65509524Y-77100000D01*
X65557143Y-77147619D01*
X66509524Y-78052381D02*
X65938095Y-78052381D01*
X66223809Y-78052381D02*
X66223809Y-77052381D01*
X66128571Y-77195238D01*
X66033333Y-77290476D01*
X65938095Y-77338095D01*
X66985714Y-78052381D02*
X67176190Y-78052381D01*
X67271429Y-78004762D01*
X67319048Y-77957143D01*
X67414286Y-77814286D01*
X67461905Y-77623810D01*
X67461905Y-77242857D01*
X67414286Y-77147619D01*
X67366667Y-77100000D01*
X67271429Y-77052381D01*
X67080952Y-77052381D01*
X66985714Y-77100000D01*
X66938095Y-77147619D01*
X66890476Y-77242857D01*
X66890476Y-77480952D01*
X66938095Y-77576190D01*
X66985714Y-77623810D01*
X67080952Y-77671429D01*
X67271429Y-77671429D01*
X67366667Y-77623810D01*
X67414286Y-77576190D01*
X67461905Y-77480952D01*
X65557143Y-81157143D02*
X65509524Y-81204762D01*
X65366667Y-81252381D01*
X65271429Y-81252381D01*
X65128571Y-81204762D01*
X65033333Y-81109524D01*
X64985714Y-81014286D01*
X64938095Y-80823810D01*
X64938095Y-80680952D01*
X64985714Y-80490476D01*
X65033333Y-80395238D01*
X65128571Y-80300000D01*
X65271429Y-80252381D01*
X65366667Y-80252381D01*
X65509524Y-80300000D01*
X65557143Y-80347619D01*
X65938095Y-80347619D02*
X65985714Y-80300000D01*
X66080952Y-80252381D01*
X66319048Y-80252381D01*
X66414286Y-80300000D01*
X66461905Y-80347619D01*
X66509524Y-80442857D01*
X66509524Y-80538095D01*
X66461905Y-80680952D01*
X65890476Y-81252381D01*
X66509524Y-81252381D01*
X67128571Y-80252381D02*
X67223810Y-80252381D01*
X67319048Y-80300000D01*
X67366667Y-80347619D01*
X67414286Y-80442857D01*
X67461905Y-80633333D01*
X67461905Y-80871429D01*
X67414286Y-81061905D01*
X67366667Y-81157143D01*
X67319048Y-81204762D01*
X67223810Y-81252381D01*
X67128571Y-81252381D01*
X67033333Y-81204762D01*
X66985714Y-81157143D01*
X66938095Y-81061905D01*
X66890476Y-80871429D01*
X66890476Y-80633333D01*
X66938095Y-80442857D01*
X66985714Y-80347619D01*
X67033333Y-80300000D01*
X67128571Y-80252381D01*
X65657143Y-57557143D02*
X65609524Y-57604762D01*
X65466667Y-57652381D01*
X65371429Y-57652381D01*
X65228571Y-57604762D01*
X65133333Y-57509524D01*
X65085714Y-57414286D01*
X65038095Y-57223810D01*
X65038095Y-57080952D01*
X65085714Y-56890476D01*
X65133333Y-56795238D01*
X65228571Y-56700000D01*
X65371429Y-56652381D01*
X65466667Y-56652381D01*
X65609524Y-56700000D01*
X65657143Y-56747619D01*
X66038095Y-56747619D02*
X66085714Y-56700000D01*
X66180952Y-56652381D01*
X66419048Y-56652381D01*
X66514286Y-56700000D01*
X66561905Y-56747619D01*
X66609524Y-56842857D01*
X66609524Y-56938095D01*
X66561905Y-57080952D01*
X65990476Y-57652381D01*
X66609524Y-57652381D01*
X67561905Y-57652381D02*
X66990476Y-57652381D01*
X67276190Y-57652381D02*
X67276190Y-56652381D01*
X67180952Y-56795238D01*
X67085714Y-56890476D01*
X66990476Y-56938095D01*
X65157143Y-60757143D02*
X65109524Y-60804762D01*
X64966667Y-60852381D01*
X64871429Y-60852381D01*
X64728571Y-60804762D01*
X64633333Y-60709524D01*
X64585714Y-60614286D01*
X64538095Y-60423810D01*
X64538095Y-60280952D01*
X64585714Y-60090476D01*
X64633333Y-59995238D01*
X64728571Y-59900000D01*
X64871429Y-59852381D01*
X64966667Y-59852381D01*
X65109524Y-59900000D01*
X65157143Y-59947619D01*
X65538095Y-59947619D02*
X65585714Y-59900000D01*
X65680952Y-59852381D01*
X65919048Y-59852381D01*
X66014286Y-59900000D01*
X66061905Y-59947619D01*
X66109524Y-60042857D01*
X66109524Y-60138095D01*
X66061905Y-60280952D01*
X65490476Y-60852381D01*
X66109524Y-60852381D01*
X66490476Y-59947619D02*
X66538095Y-59900000D01*
X66633333Y-59852381D01*
X66871429Y-59852381D01*
X66966667Y-59900000D01*
X67014286Y-59947619D01*
X67061905Y-60042857D01*
X67061905Y-60138095D01*
X67014286Y-60280952D01*
X66442857Y-60852381D01*
X67061905Y-60852381D01*
X82757143Y-40442857D02*
X82804762Y-40490476D01*
X82852381Y-40633333D01*
X82852381Y-40728571D01*
X82804762Y-40871429D01*
X82709524Y-40966667D01*
X82614286Y-41014286D01*
X82423810Y-41061905D01*
X82280952Y-41061905D01*
X82090476Y-41014286D01*
X81995238Y-40966667D01*
X81900000Y-40871429D01*
X81852381Y-40728571D01*
X81852381Y-40633333D01*
X81900000Y-40490476D01*
X81947619Y-40442857D01*
X81947619Y-40061905D02*
X81900000Y-40014286D01*
X81852381Y-39919048D01*
X81852381Y-39680952D01*
X81900000Y-39585714D01*
X81947619Y-39538095D01*
X82042857Y-39490476D01*
X82138095Y-39490476D01*
X82280952Y-39538095D01*
X82852381Y-40109524D01*
X82852381Y-39490476D01*
X81852381Y-39157143D02*
X81852381Y-38538095D01*
X82233333Y-38871429D01*
X82233333Y-38728571D01*
X82280952Y-38633333D01*
X82328571Y-38585714D01*
X82423810Y-38538095D01*
X82661905Y-38538095D01*
X82757143Y-38585714D01*
X82804762Y-38633333D01*
X82852381Y-38728571D01*
X82852381Y-39014286D01*
X82804762Y-39109524D01*
X82757143Y-39157143D01*
X77957143Y-48157143D02*
X77909524Y-48204762D01*
X77766667Y-48252381D01*
X77671429Y-48252381D01*
X77528571Y-48204762D01*
X77433333Y-48109524D01*
X77385714Y-48014286D01*
X77338095Y-47823810D01*
X77338095Y-47680952D01*
X77385714Y-47490476D01*
X77433333Y-47395238D01*
X77528571Y-47300000D01*
X77671429Y-47252381D01*
X77766667Y-47252381D01*
X77909524Y-47300000D01*
X77957143Y-47347619D01*
X78338095Y-47347619D02*
X78385714Y-47300000D01*
X78480952Y-47252381D01*
X78719048Y-47252381D01*
X78814286Y-47300000D01*
X78861905Y-47347619D01*
X78909524Y-47442857D01*
X78909524Y-47538095D01*
X78861905Y-47680952D01*
X78290476Y-48252381D01*
X78909524Y-48252381D01*
X79766667Y-47585714D02*
X79766667Y-48252381D01*
X79528571Y-47204762D02*
X79290476Y-47919048D01*
X79909524Y-47919048D01*
X67957143Y-110642857D02*
X68004762Y-110690476D01*
X68052381Y-110833333D01*
X68052381Y-110928571D01*
X68004762Y-111071429D01*
X67909524Y-111166667D01*
X67814286Y-111214286D01*
X67623810Y-111261905D01*
X67480952Y-111261905D01*
X67290476Y-111214286D01*
X67195238Y-111166667D01*
X67100000Y-111071429D01*
X67052381Y-110928571D01*
X67052381Y-110833333D01*
X67100000Y-110690476D01*
X67147619Y-110642857D01*
X67147619Y-110261905D02*
X67100000Y-110214286D01*
X67052381Y-110119048D01*
X67052381Y-109880952D01*
X67100000Y-109785714D01*
X67147619Y-109738095D01*
X67242857Y-109690476D01*
X67338095Y-109690476D01*
X67480952Y-109738095D01*
X68052381Y-110309524D01*
X68052381Y-109690476D01*
X67052381Y-108785714D02*
X67052381Y-109261905D01*
X67528571Y-109309524D01*
X67480952Y-109261905D01*
X67433333Y-109166667D01*
X67433333Y-108928571D01*
X67480952Y-108833333D01*
X67528571Y-108785714D01*
X67623810Y-108738095D01*
X67861905Y-108738095D01*
X67957143Y-108785714D01*
X68004762Y-108833333D01*
X68052381Y-108928571D01*
X68052381Y-109166667D01*
X68004762Y-109261905D01*
X67957143Y-109309524D01*
X76157143Y-116757143D02*
X76109524Y-116804762D01*
X75966667Y-116852381D01*
X75871429Y-116852381D01*
X75728571Y-116804762D01*
X75633333Y-116709524D01*
X75585714Y-116614286D01*
X75538095Y-116423810D01*
X75538095Y-116280952D01*
X75585714Y-116090476D01*
X75633333Y-115995238D01*
X75728571Y-115900000D01*
X75871429Y-115852381D01*
X75966667Y-115852381D01*
X76109524Y-115900000D01*
X76157143Y-115947619D01*
X76538095Y-115947619D02*
X76585714Y-115900000D01*
X76680952Y-115852381D01*
X76919048Y-115852381D01*
X77014286Y-115900000D01*
X77061905Y-115947619D01*
X77109524Y-116042857D01*
X77109524Y-116138095D01*
X77061905Y-116280952D01*
X76490476Y-116852381D01*
X77109524Y-116852381D01*
X77966667Y-115852381D02*
X77776190Y-115852381D01*
X77680952Y-115900000D01*
X77633333Y-115947619D01*
X77538095Y-116090476D01*
X77490476Y-116280952D01*
X77490476Y-116661905D01*
X77538095Y-116757143D01*
X77585714Y-116804762D01*
X77680952Y-116852381D01*
X77871429Y-116852381D01*
X77966667Y-116804762D01*
X78014286Y-116757143D01*
X78061905Y-116661905D01*
X78061905Y-116423810D01*
X78014286Y-116328571D01*
X77966667Y-116280952D01*
X77871429Y-116233333D01*
X77680952Y-116233333D01*
X77585714Y-116280952D01*
X77538095Y-116328571D01*
X77490476Y-116423810D01*
X69657143Y-100057143D02*
X69609524Y-100104762D01*
X69466667Y-100152381D01*
X69371429Y-100152381D01*
X69228571Y-100104762D01*
X69133333Y-100009524D01*
X69085714Y-99914286D01*
X69038095Y-99723810D01*
X69038095Y-99580952D01*
X69085714Y-99390476D01*
X69133333Y-99295238D01*
X69228571Y-99200000D01*
X69371429Y-99152381D01*
X69466667Y-99152381D01*
X69609524Y-99200000D01*
X69657143Y-99247619D01*
X70038095Y-99247619D02*
X70085714Y-99200000D01*
X70180952Y-99152381D01*
X70419048Y-99152381D01*
X70514286Y-99200000D01*
X70561905Y-99247619D01*
X70609524Y-99342857D01*
X70609524Y-99438095D01*
X70561905Y-99580952D01*
X69990476Y-100152381D01*
X70609524Y-100152381D01*
X70942857Y-99152381D02*
X71609524Y-99152381D01*
X71180952Y-100152381D01*
X69357143Y-88957143D02*
X69309524Y-89004762D01*
X69166667Y-89052381D01*
X69071429Y-89052381D01*
X68928571Y-89004762D01*
X68833333Y-88909524D01*
X68785714Y-88814286D01*
X68738095Y-88623810D01*
X68738095Y-88480952D01*
X68785714Y-88290476D01*
X68833333Y-88195238D01*
X68928571Y-88100000D01*
X69071429Y-88052381D01*
X69166667Y-88052381D01*
X69309524Y-88100000D01*
X69357143Y-88147619D01*
X69738095Y-88147619D02*
X69785714Y-88100000D01*
X69880952Y-88052381D01*
X70119048Y-88052381D01*
X70214286Y-88100000D01*
X70261905Y-88147619D01*
X70309524Y-88242857D01*
X70309524Y-88338095D01*
X70261905Y-88480952D01*
X69690476Y-89052381D01*
X70309524Y-89052381D01*
X70785714Y-89052381D02*
X70976190Y-89052381D01*
X71071429Y-89004762D01*
X71119048Y-88957143D01*
X71214286Y-88814286D01*
X71261905Y-88623810D01*
X71261905Y-88242857D01*
X71214286Y-88147619D01*
X71166667Y-88100000D01*
X71071429Y-88052381D01*
X70880952Y-88052381D01*
X70785714Y-88100000D01*
X70738095Y-88147619D01*
X70690476Y-88242857D01*
X70690476Y-88480952D01*
X70738095Y-88576190D01*
X70785714Y-88623810D01*
X70880952Y-88671429D01*
X71071429Y-88671429D01*
X71166667Y-88623810D01*
X71214286Y-88576190D01*
X71261905Y-88480952D01*
X60357143Y-52342857D02*
X60404762Y-52390476D01*
X60452381Y-52533333D01*
X60452381Y-52628571D01*
X60404762Y-52771429D01*
X60309524Y-52866667D01*
X60214286Y-52914286D01*
X60023810Y-52961905D01*
X59880952Y-52961905D01*
X59690476Y-52914286D01*
X59595238Y-52866667D01*
X59500000Y-52771429D01*
X59452381Y-52628571D01*
X59452381Y-52533333D01*
X59500000Y-52390476D01*
X59547619Y-52342857D01*
X59452381Y-52009524D02*
X59452381Y-51390476D01*
X59833333Y-51723810D01*
X59833333Y-51580952D01*
X59880952Y-51485714D01*
X59928571Y-51438095D01*
X60023810Y-51390476D01*
X60261905Y-51390476D01*
X60357143Y-51438095D01*
X60404762Y-51485714D01*
X60452381Y-51580952D01*
X60452381Y-51866667D01*
X60404762Y-51961905D01*
X60357143Y-52009524D01*
X60452381Y-50438095D02*
X60452381Y-51009524D01*
X60452381Y-50723810D02*
X59452381Y-50723810D01*
X59595238Y-50819048D01*
X59690476Y-50914286D01*
X59738095Y-51009524D01*
X63757143Y-53342857D02*
X63804762Y-53390476D01*
X63852381Y-53533333D01*
X63852381Y-53628571D01*
X63804762Y-53771429D01*
X63709524Y-53866667D01*
X63614286Y-53914286D01*
X63423810Y-53961905D01*
X63280952Y-53961905D01*
X63090476Y-53914286D01*
X62995238Y-53866667D01*
X62900000Y-53771429D01*
X62852381Y-53628571D01*
X62852381Y-53533333D01*
X62900000Y-53390476D01*
X62947619Y-53342857D01*
X62852381Y-53009524D02*
X62852381Y-52390476D01*
X63233333Y-52723810D01*
X63233333Y-52580952D01*
X63280952Y-52485714D01*
X63328571Y-52438095D01*
X63423810Y-52390476D01*
X63661905Y-52390476D01*
X63757143Y-52438095D01*
X63804762Y-52485714D01*
X63852381Y-52580952D01*
X63852381Y-52866667D01*
X63804762Y-52961905D01*
X63757143Y-53009524D01*
X62947619Y-52009524D02*
X62900000Y-51961905D01*
X62852381Y-51866667D01*
X62852381Y-51628571D01*
X62900000Y-51533333D01*
X62947619Y-51485714D01*
X63042857Y-51438095D01*
X63138095Y-51438095D01*
X63280952Y-51485714D01*
X63852381Y-52057143D01*
X63852381Y-51438095D01*
X36065477Y-124350426D02*
X36065477Y-125067262D01*
X36017687Y-125210629D01*
X35922109Y-125306207D01*
X35778742Y-125353996D01*
X35683164Y-125353996D01*
X37069047Y-125353996D02*
X36495578Y-125353996D01*
X36782312Y-125353996D02*
X36782312Y-124350426D01*
X36686734Y-124493793D01*
X36591156Y-124589371D01*
X36495578Y-124637160D01*
X47065477Y-124350426D02*
X47065477Y-125067262D01*
X47017687Y-125210629D01*
X46922109Y-125306207D01*
X46778742Y-125353996D01*
X46683164Y-125353996D01*
X47495578Y-124446004D02*
X47543367Y-124398215D01*
X47638945Y-124350426D01*
X47877891Y-124350426D01*
X47973469Y-124398215D01*
X48021258Y-124446004D01*
X48069047Y-124541582D01*
X48069047Y-124637160D01*
X48021258Y-124780527D01*
X47447789Y-125353996D01*
X48069047Y-125353996D01*
X57865477Y-124050426D02*
X57865477Y-124767262D01*
X57817687Y-124910629D01*
X57722109Y-125006207D01*
X57578742Y-125053996D01*
X57483164Y-125053996D01*
X58247789Y-124050426D02*
X58869047Y-124050426D01*
X58534523Y-124432738D01*
X58677891Y-124432738D01*
X58773469Y-124480527D01*
X58821258Y-124528316D01*
X58869047Y-124623895D01*
X58869047Y-124862840D01*
X58821258Y-124958418D01*
X58773469Y-125006207D01*
X58677891Y-125053996D01*
X58391156Y-125053996D01*
X58295578Y-125006207D01*
X58247789Y-124958418D01*
X82450426Y-113434523D02*
X83167262Y-113434523D01*
X83310629Y-113482313D01*
X83406207Y-113577891D01*
X83453996Y-113721258D01*
X83453996Y-113816836D01*
X82784949Y-112526531D02*
X83453996Y-112526531D01*
X82402637Y-112765477D02*
X83119473Y-113004422D01*
X83119473Y-112383164D01*
X82450426Y-102334523D02*
X83167262Y-102334523D01*
X83310629Y-102382313D01*
X83406207Y-102477891D01*
X83453996Y-102621258D01*
X83453996Y-102716836D01*
X82450426Y-101378742D02*
X82450426Y-101856633D01*
X82928316Y-101904422D01*
X82880527Y-101856633D01*
X82832738Y-101761055D01*
X82832738Y-101522109D01*
X82880527Y-101426531D01*
X82928316Y-101378742D01*
X83023895Y-101330953D01*
X83262840Y-101330953D01*
X83358418Y-101378742D01*
X83406207Y-101426531D01*
X83453996Y-101522109D01*
X83453996Y-101761055D01*
X83406207Y-101856633D01*
X83358418Y-101904422D01*
X82450426Y-91234523D02*
X83167262Y-91234523D01*
X83310629Y-91282313D01*
X83406207Y-91377891D01*
X83453996Y-91521258D01*
X83453996Y-91616836D01*
X82450426Y-90326531D02*
X82450426Y-90517688D01*
X82498215Y-90613266D01*
X82546004Y-90661055D01*
X82689371Y-90756633D01*
X82880527Y-90804422D01*
X83262840Y-90804422D01*
X83358418Y-90756633D01*
X83406207Y-90708844D01*
X83453996Y-90613266D01*
X83453996Y-90422109D01*
X83406207Y-90326531D01*
X83358418Y-90278742D01*
X83262840Y-90230953D01*
X83023895Y-90230953D01*
X82928316Y-90278742D01*
X82880527Y-90326531D01*
X82832738Y-90422109D01*
X82832738Y-90613266D01*
X82880527Y-90708844D01*
X82928316Y-90756633D01*
X83023895Y-90804422D01*
X43652381Y-111916666D02*
X43176190Y-112250000D01*
X43652381Y-112488095D02*
X42652381Y-112488095D01*
X42652381Y-112107142D01*
X42700000Y-112011904D01*
X42747619Y-111964285D01*
X42842857Y-111916666D01*
X42985714Y-111916666D01*
X43080952Y-111964285D01*
X43128571Y-112011904D01*
X43176190Y-112107142D01*
X43176190Y-112488095D01*
X43652381Y-111440476D02*
X43652381Y-111250000D01*
X43604762Y-111154761D01*
X43557143Y-111107142D01*
X43414286Y-111011904D01*
X43223810Y-110964285D01*
X42842857Y-110964285D01*
X42747619Y-111011904D01*
X42700000Y-111059523D01*
X42652381Y-111154761D01*
X42652381Y-111345238D01*
X42700000Y-111440476D01*
X42747619Y-111488095D01*
X42842857Y-111535714D01*
X43080952Y-111535714D01*
X43176190Y-111488095D01*
X43223810Y-111440476D01*
X43271429Y-111345238D01*
X43271429Y-111154761D01*
X43223810Y-111059523D01*
X43176190Y-111011904D01*
X43080952Y-110964285D01*
X37452381Y-111142857D02*
X36976190Y-111476191D01*
X37452381Y-111714286D02*
X36452381Y-111714286D01*
X36452381Y-111333333D01*
X36500000Y-111238095D01*
X36547619Y-111190476D01*
X36642857Y-111142857D01*
X36785714Y-111142857D01*
X36880952Y-111190476D01*
X36928571Y-111238095D01*
X36976190Y-111333333D01*
X36976190Y-111714286D01*
X37452381Y-110190476D02*
X37452381Y-110761905D01*
X37452381Y-110476191D02*
X36452381Y-110476191D01*
X36595238Y-110571429D01*
X36690476Y-110666667D01*
X36738095Y-110761905D01*
X36452381Y-109571429D02*
X36452381Y-109476190D01*
X36500000Y-109380952D01*
X36547619Y-109333333D01*
X36642857Y-109285714D01*
X36833333Y-109238095D01*
X37071429Y-109238095D01*
X37261905Y-109285714D01*
X37357143Y-109333333D01*
X37404762Y-109380952D01*
X37452381Y-109476190D01*
X37452381Y-109571429D01*
X37404762Y-109666667D01*
X37357143Y-109714286D01*
X37261905Y-109761905D01*
X37071429Y-109809524D01*
X36833333Y-109809524D01*
X36642857Y-109761905D01*
X36547619Y-109714286D01*
X36500000Y-109666667D01*
X36452381Y-109571429D01*
X54652381Y-112392857D02*
X54176190Y-112726191D01*
X54652381Y-112964286D02*
X53652381Y-112964286D01*
X53652381Y-112583333D01*
X53700000Y-112488095D01*
X53747619Y-112440476D01*
X53842857Y-112392857D01*
X53985714Y-112392857D01*
X54080952Y-112440476D01*
X54128571Y-112488095D01*
X54176190Y-112583333D01*
X54176190Y-112964286D01*
X54652381Y-111440476D02*
X54652381Y-112011905D01*
X54652381Y-111726191D02*
X53652381Y-111726191D01*
X53795238Y-111821429D01*
X53890476Y-111916667D01*
X53938095Y-112011905D01*
X54652381Y-110488095D02*
X54652381Y-111059524D01*
X54652381Y-110773810D02*
X53652381Y-110773810D01*
X53795238Y-110869048D01*
X53890476Y-110964286D01*
X53938095Y-111059524D01*
X48452381Y-111142857D02*
X47976190Y-111476191D01*
X48452381Y-111714286D02*
X47452381Y-111714286D01*
X47452381Y-111333333D01*
X47500000Y-111238095D01*
X47547619Y-111190476D01*
X47642857Y-111142857D01*
X47785714Y-111142857D01*
X47880952Y-111190476D01*
X47928571Y-111238095D01*
X47976190Y-111333333D01*
X47976190Y-111714286D01*
X48452381Y-110190476D02*
X48452381Y-110761905D01*
X48452381Y-110476191D02*
X47452381Y-110476191D01*
X47595238Y-110571429D01*
X47690476Y-110666667D01*
X47738095Y-110761905D01*
X47547619Y-109809524D02*
X47500000Y-109761905D01*
X47452381Y-109666667D01*
X47452381Y-109428571D01*
X47500000Y-109333333D01*
X47547619Y-109285714D01*
X47642857Y-109238095D01*
X47738095Y-109238095D01*
X47880952Y-109285714D01*
X48452381Y-109857143D01*
X48452381Y-109238095D01*
X65652381Y-112442857D02*
X65176190Y-112776191D01*
X65652381Y-113014286D02*
X64652381Y-113014286D01*
X64652381Y-112633333D01*
X64700000Y-112538095D01*
X64747619Y-112490476D01*
X64842857Y-112442857D01*
X64985714Y-112442857D01*
X65080952Y-112490476D01*
X65128571Y-112538095D01*
X65176190Y-112633333D01*
X65176190Y-113014286D01*
X65652381Y-111490476D02*
X65652381Y-112061905D01*
X65652381Y-111776191D02*
X64652381Y-111776191D01*
X64795238Y-111871429D01*
X64890476Y-111966667D01*
X64938095Y-112061905D01*
X64652381Y-111157143D02*
X64652381Y-110538095D01*
X65033333Y-110871429D01*
X65033333Y-110728571D01*
X65080952Y-110633333D01*
X65128571Y-110585714D01*
X65223810Y-110538095D01*
X65461905Y-110538095D01*
X65557143Y-110585714D01*
X65604762Y-110633333D01*
X65652381Y-110728571D01*
X65652381Y-111014286D01*
X65604762Y-111109524D01*
X65557143Y-111157143D01*
X59552381Y-111242857D02*
X59076190Y-111576191D01*
X59552381Y-111814286D02*
X58552381Y-111814286D01*
X58552381Y-111433333D01*
X58600000Y-111338095D01*
X58647619Y-111290476D01*
X58742857Y-111242857D01*
X58885714Y-111242857D01*
X58980952Y-111290476D01*
X59028571Y-111338095D01*
X59076190Y-111433333D01*
X59076190Y-111814286D01*
X59552381Y-110290476D02*
X59552381Y-110861905D01*
X59552381Y-110576191D02*
X58552381Y-110576191D01*
X58695238Y-110671429D01*
X58790476Y-110766667D01*
X58838095Y-110861905D01*
X58885714Y-109433333D02*
X59552381Y-109433333D01*
X58504762Y-109671429D02*
X59219048Y-109909524D01*
X59219048Y-109290476D01*
X69357143Y-73852381D02*
X69023809Y-73376190D01*
X68785714Y-73852381D02*
X68785714Y-72852381D01*
X69166667Y-72852381D01*
X69261905Y-72900000D01*
X69309524Y-72947619D01*
X69357143Y-73042857D01*
X69357143Y-73185714D01*
X69309524Y-73280952D01*
X69261905Y-73328571D01*
X69166667Y-73376190D01*
X68785714Y-73376190D01*
X70309524Y-73852381D02*
X69738095Y-73852381D01*
X70023809Y-73852381D02*
X70023809Y-72852381D01*
X69928571Y-72995238D01*
X69833333Y-73090476D01*
X69738095Y-73138095D01*
X71214286Y-72852381D02*
X70738095Y-72852381D01*
X70690476Y-73328571D01*
X70738095Y-73280952D01*
X70833333Y-73233333D01*
X71071429Y-73233333D01*
X71166667Y-73280952D01*
X71214286Y-73328571D01*
X71261905Y-73423810D01*
X71261905Y-73661905D01*
X71214286Y-73757143D01*
X71166667Y-73804762D01*
X71071429Y-73852381D01*
X70833333Y-73852381D01*
X70738095Y-73804762D01*
X70690476Y-73757143D01*
X68557143Y-79852381D02*
X68223809Y-79376190D01*
X67985714Y-79852381D02*
X67985714Y-78852381D01*
X68366667Y-78852381D01*
X68461905Y-78900000D01*
X68509524Y-78947619D01*
X68557143Y-79042857D01*
X68557143Y-79185714D01*
X68509524Y-79280952D01*
X68461905Y-79328571D01*
X68366667Y-79376190D01*
X67985714Y-79376190D01*
X69509524Y-79852381D02*
X68938095Y-79852381D01*
X69223809Y-79852381D02*
X69223809Y-78852381D01*
X69128571Y-78995238D01*
X69033333Y-79090476D01*
X68938095Y-79138095D01*
X70366667Y-78852381D02*
X70176190Y-78852381D01*
X70080952Y-78900000D01*
X70033333Y-78947619D01*
X69938095Y-79090476D01*
X69890476Y-79280952D01*
X69890476Y-79661905D01*
X69938095Y-79757143D01*
X69985714Y-79804762D01*
X70080952Y-79852381D01*
X70271429Y-79852381D01*
X70366667Y-79804762D01*
X70414286Y-79757143D01*
X70461905Y-79661905D01*
X70461905Y-79423810D01*
X70414286Y-79328571D01*
X70366667Y-79280952D01*
X70271429Y-79233333D01*
X70080952Y-79233333D01*
X69985714Y-79280952D01*
X69938095Y-79328571D01*
X69890476Y-79423810D01*
X69557143Y-53402381D02*
X69223809Y-52926190D01*
X68985714Y-53402381D02*
X68985714Y-52402381D01*
X69366667Y-52402381D01*
X69461905Y-52450000D01*
X69509524Y-52497619D01*
X69557143Y-52592857D01*
X69557143Y-52735714D01*
X69509524Y-52830952D01*
X69461905Y-52878571D01*
X69366667Y-52926190D01*
X68985714Y-52926190D01*
X70509524Y-53402381D02*
X69938095Y-53402381D01*
X70223809Y-53402381D02*
X70223809Y-52402381D01*
X70128571Y-52545238D01*
X70033333Y-52640476D01*
X69938095Y-52688095D01*
X70842857Y-52402381D02*
X71509524Y-52402381D01*
X71080952Y-53402381D01*
X68557143Y-59452381D02*
X68223809Y-58976190D01*
X67985714Y-59452381D02*
X67985714Y-58452381D01*
X68366667Y-58452381D01*
X68461905Y-58500000D01*
X68509524Y-58547619D01*
X68557143Y-58642857D01*
X68557143Y-58785714D01*
X68509524Y-58880952D01*
X68461905Y-58928571D01*
X68366667Y-58976190D01*
X67985714Y-58976190D01*
X69509524Y-59452381D02*
X68938095Y-59452381D01*
X69223809Y-59452381D02*
X69223809Y-58452381D01*
X69128571Y-58595238D01*
X69033333Y-58690476D01*
X68938095Y-58738095D01*
X70080952Y-58880952D02*
X69985714Y-58833333D01*
X69938095Y-58785714D01*
X69890476Y-58690476D01*
X69890476Y-58642857D01*
X69938095Y-58547619D01*
X69985714Y-58500000D01*
X70080952Y-58452381D01*
X70271429Y-58452381D01*
X70366667Y-58500000D01*
X70414286Y-58547619D01*
X70461905Y-58642857D01*
X70461905Y-58690476D01*
X70414286Y-58785714D01*
X70366667Y-58833333D01*
X70271429Y-58880952D01*
X70080952Y-58880952D01*
X69985714Y-58928571D01*
X69938095Y-58976190D01*
X69890476Y-59071429D01*
X69890476Y-59261905D01*
X69938095Y-59357143D01*
X69985714Y-59404762D01*
X70080952Y-59452381D01*
X70271429Y-59452381D01*
X70366667Y-59404762D01*
X70414286Y-59357143D01*
X70461905Y-59261905D01*
X70461905Y-59071429D01*
X70414286Y-58976190D01*
X70366667Y-58928571D01*
X70271429Y-58880952D01*
X73557143Y-40502381D02*
X73223809Y-40026190D01*
X72985714Y-40502381D02*
X72985714Y-39502381D01*
X73366667Y-39502381D01*
X73461905Y-39550000D01*
X73509524Y-39597619D01*
X73557143Y-39692857D01*
X73557143Y-39835714D01*
X73509524Y-39930952D01*
X73461905Y-39978571D01*
X73366667Y-40026190D01*
X72985714Y-40026190D01*
X74509524Y-40502381D02*
X73938095Y-40502381D01*
X74223809Y-40502381D02*
X74223809Y-39502381D01*
X74128571Y-39645238D01*
X74033333Y-39740476D01*
X73938095Y-39788095D01*
X74985714Y-40502381D02*
X75176190Y-40502381D01*
X75271429Y-40454762D01*
X75319048Y-40407143D01*
X75414286Y-40264286D01*
X75461905Y-40073810D01*
X75461905Y-39692857D01*
X75414286Y-39597619D01*
X75366667Y-39550000D01*
X75271429Y-39502381D01*
X75080952Y-39502381D01*
X74985714Y-39550000D01*
X74938095Y-39597619D01*
X74890476Y-39692857D01*
X74890476Y-39930952D01*
X74938095Y-40026190D01*
X74985714Y-40073810D01*
X75080952Y-40121429D01*
X75271429Y-40121429D01*
X75366667Y-40073810D01*
X75414286Y-40026190D01*
X75461905Y-39930952D01*
X78357143Y-45452381D02*
X78023809Y-44976190D01*
X77785714Y-45452381D02*
X77785714Y-44452381D01*
X78166667Y-44452381D01*
X78261905Y-44500000D01*
X78309524Y-44547619D01*
X78357143Y-44642857D01*
X78357143Y-44785714D01*
X78309524Y-44880952D01*
X78261905Y-44928571D01*
X78166667Y-44976190D01*
X77785714Y-44976190D01*
X78738095Y-44547619D02*
X78785714Y-44500000D01*
X78880952Y-44452381D01*
X79119048Y-44452381D01*
X79214286Y-44500000D01*
X79261905Y-44547619D01*
X79309524Y-44642857D01*
X79309524Y-44738095D01*
X79261905Y-44880952D01*
X78690476Y-45452381D01*
X79309524Y-45452381D01*
X79928571Y-44452381D02*
X80023810Y-44452381D01*
X80119048Y-44500000D01*
X80166667Y-44547619D01*
X80214286Y-44642857D01*
X80261905Y-44833333D01*
X80261905Y-45071429D01*
X80214286Y-45261905D01*
X80166667Y-45357143D01*
X80119048Y-45404762D01*
X80023810Y-45452381D01*
X79928571Y-45452381D01*
X79833333Y-45404762D01*
X79785714Y-45357143D01*
X79738095Y-45261905D01*
X79690476Y-45071429D01*
X79690476Y-44833333D01*
X79738095Y-44642857D01*
X79785714Y-44547619D01*
X79833333Y-44500000D01*
X79928571Y-44452381D01*
X43652381Y-108392857D02*
X43176190Y-108726191D01*
X43652381Y-108964286D02*
X42652381Y-108964286D01*
X42652381Y-108583333D01*
X42700000Y-108488095D01*
X42747619Y-108440476D01*
X42842857Y-108392857D01*
X42985714Y-108392857D01*
X43080952Y-108440476D01*
X43128571Y-108488095D01*
X43176190Y-108583333D01*
X43176190Y-108964286D01*
X42747619Y-108011905D02*
X42700000Y-107964286D01*
X42652381Y-107869048D01*
X42652381Y-107630952D01*
X42700000Y-107535714D01*
X42747619Y-107488095D01*
X42842857Y-107440476D01*
X42938095Y-107440476D01*
X43080952Y-107488095D01*
X43652381Y-108059524D01*
X43652381Y-107440476D01*
X43652381Y-106488095D02*
X43652381Y-107059524D01*
X43652381Y-106773810D02*
X42652381Y-106773810D01*
X42795238Y-106869048D01*
X42890476Y-106964286D01*
X42938095Y-107059524D01*
X37452381Y-108142857D02*
X36976190Y-108476191D01*
X37452381Y-108714286D02*
X36452381Y-108714286D01*
X36452381Y-108333333D01*
X36500000Y-108238095D01*
X36547619Y-108190476D01*
X36642857Y-108142857D01*
X36785714Y-108142857D01*
X36880952Y-108190476D01*
X36928571Y-108238095D01*
X36976190Y-108333333D01*
X36976190Y-108714286D01*
X36547619Y-107761905D02*
X36500000Y-107714286D01*
X36452381Y-107619048D01*
X36452381Y-107380952D01*
X36500000Y-107285714D01*
X36547619Y-107238095D01*
X36642857Y-107190476D01*
X36738095Y-107190476D01*
X36880952Y-107238095D01*
X37452381Y-107809524D01*
X37452381Y-107190476D01*
X36547619Y-106809524D02*
X36500000Y-106761905D01*
X36452381Y-106666667D01*
X36452381Y-106428571D01*
X36500000Y-106333333D01*
X36547619Y-106285714D01*
X36642857Y-106238095D01*
X36738095Y-106238095D01*
X36880952Y-106285714D01*
X37452381Y-106857143D01*
X37452381Y-106238095D01*
X54652381Y-108392857D02*
X54176190Y-108726191D01*
X54652381Y-108964286D02*
X53652381Y-108964286D01*
X53652381Y-108583333D01*
X53700000Y-108488095D01*
X53747619Y-108440476D01*
X53842857Y-108392857D01*
X53985714Y-108392857D01*
X54080952Y-108440476D01*
X54128571Y-108488095D01*
X54176190Y-108583333D01*
X54176190Y-108964286D01*
X53747619Y-108011905D02*
X53700000Y-107964286D01*
X53652381Y-107869048D01*
X53652381Y-107630952D01*
X53700000Y-107535714D01*
X53747619Y-107488095D01*
X53842857Y-107440476D01*
X53938095Y-107440476D01*
X54080952Y-107488095D01*
X54652381Y-108059524D01*
X54652381Y-107440476D01*
X53652381Y-107107143D02*
X53652381Y-106488095D01*
X54033333Y-106821429D01*
X54033333Y-106678571D01*
X54080952Y-106583333D01*
X54128571Y-106535714D01*
X54223810Y-106488095D01*
X54461905Y-106488095D01*
X54557143Y-106535714D01*
X54604762Y-106583333D01*
X54652381Y-106678571D01*
X54652381Y-106964286D01*
X54604762Y-107059524D01*
X54557143Y-107107143D01*
X48452381Y-108142857D02*
X47976190Y-108476191D01*
X48452381Y-108714286D02*
X47452381Y-108714286D01*
X47452381Y-108333333D01*
X47500000Y-108238095D01*
X47547619Y-108190476D01*
X47642857Y-108142857D01*
X47785714Y-108142857D01*
X47880952Y-108190476D01*
X47928571Y-108238095D01*
X47976190Y-108333333D01*
X47976190Y-108714286D01*
X47547619Y-107761905D02*
X47500000Y-107714286D01*
X47452381Y-107619048D01*
X47452381Y-107380952D01*
X47500000Y-107285714D01*
X47547619Y-107238095D01*
X47642857Y-107190476D01*
X47738095Y-107190476D01*
X47880952Y-107238095D01*
X48452381Y-107809524D01*
X48452381Y-107190476D01*
X47785714Y-106333333D02*
X48452381Y-106333333D01*
X47404762Y-106571429D02*
X48119048Y-106809524D01*
X48119048Y-106190476D01*
X65652381Y-108442857D02*
X65176190Y-108776191D01*
X65652381Y-109014286D02*
X64652381Y-109014286D01*
X64652381Y-108633333D01*
X64700000Y-108538095D01*
X64747619Y-108490476D01*
X64842857Y-108442857D01*
X64985714Y-108442857D01*
X65080952Y-108490476D01*
X65128571Y-108538095D01*
X65176190Y-108633333D01*
X65176190Y-109014286D01*
X64747619Y-108061905D02*
X64700000Y-108014286D01*
X64652381Y-107919048D01*
X64652381Y-107680952D01*
X64700000Y-107585714D01*
X64747619Y-107538095D01*
X64842857Y-107490476D01*
X64938095Y-107490476D01*
X65080952Y-107538095D01*
X65652381Y-108109524D01*
X65652381Y-107490476D01*
X64652381Y-106585714D02*
X64652381Y-107061905D01*
X65128571Y-107109524D01*
X65080952Y-107061905D01*
X65033333Y-106966667D01*
X65033333Y-106728571D01*
X65080952Y-106633333D01*
X65128571Y-106585714D01*
X65223810Y-106538095D01*
X65461905Y-106538095D01*
X65557143Y-106585714D01*
X65604762Y-106633333D01*
X65652381Y-106728571D01*
X65652381Y-106966667D01*
X65604762Y-107061905D01*
X65557143Y-107109524D01*
X59552381Y-108042857D02*
X59076190Y-108376191D01*
X59552381Y-108614286D02*
X58552381Y-108614286D01*
X58552381Y-108233333D01*
X58600000Y-108138095D01*
X58647619Y-108090476D01*
X58742857Y-108042857D01*
X58885714Y-108042857D01*
X58980952Y-108090476D01*
X59028571Y-108138095D01*
X59076190Y-108233333D01*
X59076190Y-108614286D01*
X58647619Y-107661905D02*
X58600000Y-107614286D01*
X58552381Y-107519048D01*
X58552381Y-107280952D01*
X58600000Y-107185714D01*
X58647619Y-107138095D01*
X58742857Y-107090476D01*
X58838095Y-107090476D01*
X58980952Y-107138095D01*
X59552381Y-107709524D01*
X59552381Y-107090476D01*
X58552381Y-106233333D02*
X58552381Y-106423810D01*
X58600000Y-106519048D01*
X58647619Y-106566667D01*
X58790476Y-106661905D01*
X58980952Y-106709524D01*
X59361905Y-106709524D01*
X59457143Y-106661905D01*
X59504762Y-106614286D01*
X59552381Y-106519048D01*
X59552381Y-106328571D01*
X59504762Y-106233333D01*
X59457143Y-106185714D01*
X59361905Y-106138095D01*
X59123810Y-106138095D01*
X59028571Y-106185714D01*
X58980952Y-106233333D01*
X58933333Y-106328571D01*
X58933333Y-106519048D01*
X58980952Y-106614286D01*
X59028571Y-106661905D01*
X59123810Y-106709524D01*
X49657143Y-52342857D02*
X49704762Y-52390476D01*
X49752381Y-52533333D01*
X49752381Y-52628571D01*
X49704762Y-52771429D01*
X49609524Y-52866667D01*
X49514286Y-52914286D01*
X49323810Y-52961905D01*
X49180952Y-52961905D01*
X48990476Y-52914286D01*
X48895238Y-52866667D01*
X48800000Y-52771429D01*
X48752381Y-52628571D01*
X48752381Y-52533333D01*
X48800000Y-52390476D01*
X48847619Y-52342857D01*
X48752381Y-52009524D02*
X48752381Y-51390476D01*
X49133333Y-51723810D01*
X49133333Y-51580952D01*
X49180952Y-51485714D01*
X49228571Y-51438095D01*
X49323810Y-51390476D01*
X49561905Y-51390476D01*
X49657143Y-51438095D01*
X49704762Y-51485714D01*
X49752381Y-51580952D01*
X49752381Y-51866667D01*
X49704762Y-51961905D01*
X49657143Y-52009524D01*
X48752381Y-51057143D02*
X48752381Y-50438095D01*
X49133333Y-50771429D01*
X49133333Y-50628571D01*
X49180952Y-50533333D01*
X49228571Y-50485714D01*
X49323810Y-50438095D01*
X49561905Y-50438095D01*
X49657143Y-50485714D01*
X49704762Y-50533333D01*
X49752381Y-50628571D01*
X49752381Y-50914286D01*
X49704762Y-51009524D01*
X49657143Y-51057143D01*
X38457143Y-52442857D02*
X38504762Y-52490476D01*
X38552381Y-52633333D01*
X38552381Y-52728571D01*
X38504762Y-52871429D01*
X38409524Y-52966667D01*
X38314286Y-53014286D01*
X38123810Y-53061905D01*
X37980952Y-53061905D01*
X37790476Y-53014286D01*
X37695238Y-52966667D01*
X37600000Y-52871429D01*
X37552381Y-52728571D01*
X37552381Y-52633333D01*
X37600000Y-52490476D01*
X37647619Y-52442857D01*
X37552381Y-52109524D02*
X37552381Y-51490476D01*
X37933333Y-51823810D01*
X37933333Y-51680952D01*
X37980952Y-51585714D01*
X38028571Y-51538095D01*
X38123810Y-51490476D01*
X38361905Y-51490476D01*
X38457143Y-51538095D01*
X38504762Y-51585714D01*
X38552381Y-51680952D01*
X38552381Y-51966667D01*
X38504762Y-52061905D01*
X38457143Y-52109524D01*
X37552381Y-50585714D02*
X37552381Y-51061905D01*
X38028571Y-51109524D01*
X37980952Y-51061905D01*
X37933333Y-50966667D01*
X37933333Y-50728571D01*
X37980952Y-50633333D01*
X38028571Y-50585714D01*
X38123810Y-50538095D01*
X38361905Y-50538095D01*
X38457143Y-50585714D01*
X38504762Y-50633333D01*
X38552381Y-50728571D01*
X38552381Y-50966667D01*
X38504762Y-51061905D01*
X38457143Y-51109524D01*
X67357143Y-106842857D02*
X67404762Y-106890476D01*
X67452381Y-107033333D01*
X67452381Y-107128571D01*
X67404762Y-107271429D01*
X67309524Y-107366667D01*
X67214286Y-107414286D01*
X67023810Y-107461905D01*
X66880952Y-107461905D01*
X66690476Y-107414286D01*
X66595238Y-107366667D01*
X66500000Y-107271429D01*
X66452381Y-107128571D01*
X66452381Y-107033333D01*
X66500000Y-106890476D01*
X66547619Y-106842857D01*
X66452381Y-106509524D02*
X66452381Y-105890476D01*
X66833333Y-106223810D01*
X66833333Y-106080952D01*
X66880952Y-105985714D01*
X66928571Y-105938095D01*
X67023810Y-105890476D01*
X67261905Y-105890476D01*
X67357143Y-105938095D01*
X67404762Y-105985714D01*
X67452381Y-106080952D01*
X67452381Y-106366667D01*
X67404762Y-106461905D01*
X67357143Y-106509524D01*
X66452381Y-105557143D02*
X66452381Y-104890476D01*
X67452381Y-105319048D01*
X68957143Y-114657143D02*
X68909524Y-114704762D01*
X68766667Y-114752381D01*
X68671429Y-114752381D01*
X68528571Y-114704762D01*
X68433333Y-114609524D01*
X68385714Y-114514286D01*
X68338095Y-114323810D01*
X68338095Y-114180952D01*
X68385714Y-113990476D01*
X68433333Y-113895238D01*
X68528571Y-113800000D01*
X68671429Y-113752381D01*
X68766667Y-113752381D01*
X68909524Y-113800000D01*
X68957143Y-113847619D01*
X69290476Y-113752381D02*
X69909524Y-113752381D01*
X69576190Y-114133333D01*
X69719048Y-114133333D01*
X69814286Y-114180952D01*
X69861905Y-114228571D01*
X69909524Y-114323810D01*
X69909524Y-114561905D01*
X69861905Y-114657143D01*
X69814286Y-114704762D01*
X69719048Y-114752381D01*
X69433333Y-114752381D01*
X69338095Y-114704762D01*
X69290476Y-114657143D01*
X70480952Y-114180952D02*
X70385714Y-114133333D01*
X70338095Y-114085714D01*
X70290476Y-113990476D01*
X70290476Y-113942857D01*
X70338095Y-113847619D01*
X70385714Y-113800000D01*
X70480952Y-113752381D01*
X70671429Y-113752381D01*
X70766667Y-113800000D01*
X70814286Y-113847619D01*
X70861905Y-113942857D01*
X70861905Y-113990476D01*
X70814286Y-114085714D01*
X70766667Y-114133333D01*
X70671429Y-114180952D01*
X70480952Y-114180952D01*
X70385714Y-114228571D01*
X70338095Y-114276190D01*
X70290476Y-114371429D01*
X70290476Y-114561905D01*
X70338095Y-114657143D01*
X70385714Y-114704762D01*
X70480952Y-114752381D01*
X70671429Y-114752381D01*
X70766667Y-114704762D01*
X70814286Y-114657143D01*
X70861905Y-114561905D01*
X70861905Y-114371429D01*
X70814286Y-114276190D01*
X70766667Y-114228571D01*
X70671429Y-114180952D01*
X65757143Y-100057143D02*
X65709524Y-100104762D01*
X65566667Y-100152381D01*
X65471429Y-100152381D01*
X65328571Y-100104762D01*
X65233333Y-100009524D01*
X65185714Y-99914286D01*
X65138095Y-99723810D01*
X65138095Y-99580952D01*
X65185714Y-99390476D01*
X65233333Y-99295238D01*
X65328571Y-99200000D01*
X65471429Y-99152381D01*
X65566667Y-99152381D01*
X65709524Y-99200000D01*
X65757143Y-99247619D01*
X66090476Y-99152381D02*
X66709524Y-99152381D01*
X66376190Y-99533333D01*
X66519048Y-99533333D01*
X66614286Y-99580952D01*
X66661905Y-99628571D01*
X66709524Y-99723810D01*
X66709524Y-99961905D01*
X66661905Y-100057143D01*
X66614286Y-100104762D01*
X66519048Y-100152381D01*
X66233333Y-100152381D01*
X66138095Y-100104762D01*
X66090476Y-100057143D01*
X67185714Y-100152381D02*
X67376190Y-100152381D01*
X67471429Y-100104762D01*
X67519048Y-100057143D01*
X67614286Y-99914286D01*
X67661905Y-99723810D01*
X67661905Y-99342857D01*
X67614286Y-99247619D01*
X67566667Y-99200000D01*
X67471429Y-99152381D01*
X67280952Y-99152381D01*
X67185714Y-99200000D01*
X67138095Y-99247619D01*
X67090476Y-99342857D01*
X67090476Y-99580952D01*
X67138095Y-99676190D01*
X67185714Y-99723810D01*
X67280952Y-99771429D01*
X67471429Y-99771429D01*
X67566667Y-99723810D01*
X67614286Y-99676190D01*
X67661905Y-99580952D01*
X65657143Y-88957143D02*
X65609524Y-89004762D01*
X65466667Y-89052381D01*
X65371429Y-89052381D01*
X65228571Y-89004762D01*
X65133333Y-88909524D01*
X65085714Y-88814286D01*
X65038095Y-88623810D01*
X65038095Y-88480952D01*
X65085714Y-88290476D01*
X65133333Y-88195238D01*
X65228571Y-88100000D01*
X65371429Y-88052381D01*
X65466667Y-88052381D01*
X65609524Y-88100000D01*
X65657143Y-88147619D01*
X66514286Y-88385714D02*
X66514286Y-89052381D01*
X66276190Y-88004762D02*
X66038095Y-88719048D01*
X66657143Y-88719048D01*
X67561905Y-89052381D02*
X66990476Y-89052381D01*
X67276190Y-89052381D02*
X67276190Y-88052381D01*
X67180952Y-88195238D01*
X67085714Y-88290476D01*
X66990476Y-88338095D01*
X60357143Y-56442857D02*
X60404762Y-56490476D01*
X60452381Y-56633333D01*
X60452381Y-56728571D01*
X60404762Y-56871429D01*
X60309524Y-56966667D01*
X60214286Y-57014286D01*
X60023810Y-57061905D01*
X59880952Y-57061905D01*
X59690476Y-57014286D01*
X59595238Y-56966667D01*
X59500000Y-56871429D01*
X59452381Y-56728571D01*
X59452381Y-56633333D01*
X59500000Y-56490476D01*
X59547619Y-56442857D01*
X59785714Y-55585714D02*
X60452381Y-55585714D01*
X59404762Y-55823810D02*
X60119048Y-56061905D01*
X60119048Y-55442857D01*
X59452381Y-55157143D02*
X59452381Y-54538095D01*
X59833333Y-54871429D01*
X59833333Y-54728571D01*
X59880952Y-54633333D01*
X59928571Y-54585714D01*
X60023810Y-54538095D01*
X60261905Y-54538095D01*
X60357143Y-54585714D01*
X60404762Y-54633333D01*
X60452381Y-54728571D01*
X60452381Y-55014286D01*
X60404762Y-55109524D01*
X60357143Y-55157143D01*
X63757143Y-56542857D02*
X63804762Y-56590476D01*
X63852381Y-56733333D01*
X63852381Y-56828571D01*
X63804762Y-56971429D01*
X63709524Y-57066667D01*
X63614286Y-57114286D01*
X63423810Y-57161905D01*
X63280952Y-57161905D01*
X63090476Y-57114286D01*
X62995238Y-57066667D01*
X62900000Y-56971429D01*
X62852381Y-56828571D01*
X62852381Y-56733333D01*
X62900000Y-56590476D01*
X62947619Y-56542857D01*
X63185714Y-55685714D02*
X63852381Y-55685714D01*
X62804762Y-55923810D02*
X63519048Y-56161905D01*
X63519048Y-55542857D01*
X63185714Y-54733333D02*
X63852381Y-54733333D01*
X62804762Y-54971429D02*
X63519048Y-55209524D01*
X63519048Y-54590476D01*
X49657143Y-56242857D02*
X49704762Y-56290476D01*
X49752381Y-56433333D01*
X49752381Y-56528571D01*
X49704762Y-56671429D01*
X49609524Y-56766667D01*
X49514286Y-56814286D01*
X49323810Y-56861905D01*
X49180952Y-56861905D01*
X48990476Y-56814286D01*
X48895238Y-56766667D01*
X48800000Y-56671429D01*
X48752381Y-56528571D01*
X48752381Y-56433333D01*
X48800000Y-56290476D01*
X48847619Y-56242857D01*
X49085714Y-55385714D02*
X49752381Y-55385714D01*
X48704762Y-55623810D02*
X49419048Y-55861905D01*
X49419048Y-55242857D01*
X48752381Y-54385714D02*
X48752381Y-54861905D01*
X49228571Y-54909524D01*
X49180952Y-54861905D01*
X49133333Y-54766667D01*
X49133333Y-54528571D01*
X49180952Y-54433333D01*
X49228571Y-54385714D01*
X49323810Y-54338095D01*
X49561905Y-54338095D01*
X49657143Y-54385714D01*
X49704762Y-54433333D01*
X49752381Y-54528571D01*
X49752381Y-54766667D01*
X49704762Y-54861905D01*
X49657143Y-54909524D01*
X38557143Y-56342857D02*
X38604762Y-56390476D01*
X38652381Y-56533333D01*
X38652381Y-56628571D01*
X38604762Y-56771429D01*
X38509524Y-56866667D01*
X38414286Y-56914286D01*
X38223810Y-56961905D01*
X38080952Y-56961905D01*
X37890476Y-56914286D01*
X37795238Y-56866667D01*
X37700000Y-56771429D01*
X37652381Y-56628571D01*
X37652381Y-56533333D01*
X37700000Y-56390476D01*
X37747619Y-56342857D01*
X37985714Y-55485714D02*
X38652381Y-55485714D01*
X37604762Y-55723810D02*
X38319048Y-55961905D01*
X38319048Y-55342857D01*
X37652381Y-55057143D02*
X37652381Y-54390476D01*
X38652381Y-54819048D01*
X47357143Y-97142857D02*
X47404762Y-97190476D01*
X47452381Y-97333333D01*
X47452381Y-97428571D01*
X47404762Y-97571429D01*
X47309524Y-97666667D01*
X47214286Y-97714286D01*
X47023810Y-97761905D01*
X46880952Y-97761905D01*
X46690476Y-97714286D01*
X46595238Y-97666667D01*
X46500000Y-97571429D01*
X46452381Y-97428571D01*
X46452381Y-97333333D01*
X46500000Y-97190476D01*
X46547619Y-97142857D01*
X46452381Y-96238095D02*
X46452381Y-96714286D01*
X46928571Y-96761905D01*
X46880952Y-96714286D01*
X46833333Y-96619048D01*
X46833333Y-96380952D01*
X46880952Y-96285714D01*
X46928571Y-96238095D01*
X47023810Y-96190476D01*
X47261905Y-96190476D01*
X47357143Y-96238095D01*
X47404762Y-96285714D01*
X47452381Y-96380952D01*
X47452381Y-96619048D01*
X47404762Y-96714286D01*
X47357143Y-96761905D01*
X46452381Y-95571429D02*
X46452381Y-95476190D01*
X46500000Y-95380952D01*
X46547619Y-95333333D01*
X46642857Y-95285714D01*
X46833333Y-95238095D01*
X47071429Y-95238095D01*
X47261905Y-95285714D01*
X47357143Y-95333333D01*
X47404762Y-95380952D01*
X47452381Y-95476190D01*
X47452381Y-95571429D01*
X47404762Y-95666667D01*
X47357143Y-95714286D01*
X47261905Y-95761905D01*
X47071429Y-95809524D01*
X46833333Y-95809524D01*
X46642857Y-95761905D01*
X46547619Y-95714286D01*
X46500000Y-95666667D01*
X46452381Y-95571429D01*
X44357143Y-92607143D02*
X44309524Y-92654762D01*
X44166667Y-92702381D01*
X44071429Y-92702381D01*
X43928571Y-92654762D01*
X43833333Y-92559524D01*
X43785714Y-92464286D01*
X43738095Y-92273810D01*
X43738095Y-92130952D01*
X43785714Y-91940476D01*
X43833333Y-91845238D01*
X43928571Y-91750000D01*
X44071429Y-91702381D01*
X44166667Y-91702381D01*
X44309524Y-91750000D01*
X44357143Y-91797619D01*
X45261905Y-91702381D02*
X44785714Y-91702381D01*
X44738095Y-92178571D01*
X44785714Y-92130952D01*
X44880952Y-92083333D01*
X45119048Y-92083333D01*
X45214286Y-92130952D01*
X45261905Y-92178571D01*
X45309524Y-92273810D01*
X45309524Y-92511905D01*
X45261905Y-92607143D01*
X45214286Y-92654762D01*
X45119048Y-92702381D01*
X44880952Y-92702381D01*
X44785714Y-92654762D01*
X44738095Y-92607143D01*
X46261905Y-92702381D02*
X45690476Y-92702381D01*
X45976190Y-92702381D02*
X45976190Y-91702381D01*
X45880952Y-91845238D01*
X45785714Y-91940476D01*
X45690476Y-91988095D01*
X52657143Y-89742857D02*
X52704762Y-89790476D01*
X52752381Y-89933333D01*
X52752381Y-90028571D01*
X52704762Y-90171429D01*
X52609524Y-90266667D01*
X52514286Y-90314286D01*
X52323810Y-90361905D01*
X52180952Y-90361905D01*
X51990476Y-90314286D01*
X51895238Y-90266667D01*
X51800000Y-90171429D01*
X51752381Y-90028571D01*
X51752381Y-89933333D01*
X51800000Y-89790476D01*
X51847619Y-89742857D01*
X51752381Y-88838095D02*
X51752381Y-89314286D01*
X52228571Y-89361905D01*
X52180952Y-89314286D01*
X52133333Y-89219048D01*
X52133333Y-88980952D01*
X52180952Y-88885714D01*
X52228571Y-88838095D01*
X52323810Y-88790476D01*
X52561905Y-88790476D01*
X52657143Y-88838095D01*
X52704762Y-88885714D01*
X52752381Y-88980952D01*
X52752381Y-89219048D01*
X52704762Y-89314286D01*
X52657143Y-89361905D01*
X51752381Y-88457143D02*
X51752381Y-87838095D01*
X52133333Y-88171429D01*
X52133333Y-88028571D01*
X52180952Y-87933333D01*
X52228571Y-87885714D01*
X52323810Y-87838095D01*
X52561905Y-87838095D01*
X52657143Y-87885714D01*
X52704762Y-87933333D01*
X52752381Y-88028571D01*
X52752381Y-88314286D01*
X52704762Y-88409524D01*
X52657143Y-88457143D01*
X37607143Y-94107143D02*
X37559524Y-94154762D01*
X37416667Y-94202381D01*
X37321429Y-94202381D01*
X37178571Y-94154762D01*
X37083333Y-94059524D01*
X37035714Y-93964286D01*
X36988095Y-93773810D01*
X36988095Y-93630952D01*
X37035714Y-93440476D01*
X37083333Y-93345238D01*
X37178571Y-93250000D01*
X37321429Y-93202381D01*
X37416667Y-93202381D01*
X37559524Y-93250000D01*
X37607143Y-93297619D01*
X38511905Y-93202381D02*
X38035714Y-93202381D01*
X37988095Y-93678571D01*
X38035714Y-93630952D01*
X38130952Y-93583333D01*
X38369048Y-93583333D01*
X38464286Y-93630952D01*
X38511905Y-93678571D01*
X38559524Y-93773810D01*
X38559524Y-94011905D01*
X38511905Y-94107143D01*
X38464286Y-94154762D01*
X38369048Y-94202381D01*
X38130952Y-94202381D01*
X38035714Y-94154762D01*
X37988095Y-94107143D01*
X39416667Y-93535714D02*
X39416667Y-94202381D01*
X39178571Y-93154762D02*
X38940476Y-93869048D01*
X39559524Y-93869048D01*
X35557143Y-105157143D02*
X35509524Y-105204762D01*
X35366667Y-105252381D01*
X35271429Y-105252381D01*
X35128571Y-105204762D01*
X35033333Y-105109524D01*
X34985714Y-105014286D01*
X34938095Y-104823810D01*
X34938095Y-104680952D01*
X34985714Y-104490476D01*
X35033333Y-104395238D01*
X35128571Y-104300000D01*
X35271429Y-104252381D01*
X35366667Y-104252381D01*
X35509524Y-104300000D01*
X35557143Y-104347619D01*
X36461905Y-104252381D02*
X35985714Y-104252381D01*
X35938095Y-104728571D01*
X35985714Y-104680952D01*
X36080952Y-104633333D01*
X36319048Y-104633333D01*
X36414286Y-104680952D01*
X36461905Y-104728571D01*
X36509524Y-104823810D01*
X36509524Y-105061905D01*
X36461905Y-105157143D01*
X36414286Y-105204762D01*
X36319048Y-105252381D01*
X36080952Y-105252381D01*
X35985714Y-105204762D01*
X35938095Y-105157143D01*
X37366667Y-104252381D02*
X37176190Y-104252381D01*
X37080952Y-104300000D01*
X37033333Y-104347619D01*
X36938095Y-104490476D01*
X36890476Y-104680952D01*
X36890476Y-105061905D01*
X36938095Y-105157143D01*
X36985714Y-105204762D01*
X37080952Y-105252381D01*
X37271429Y-105252381D01*
X37366667Y-105204762D01*
X37414286Y-105157143D01*
X37461905Y-105061905D01*
X37461905Y-104823810D01*
X37414286Y-104728571D01*
X37366667Y-104680952D01*
X37271429Y-104633333D01*
X37080952Y-104633333D01*
X36985714Y-104680952D01*
X36938095Y-104728571D01*
X36890476Y-104823810D01*
X82550426Y-59934523D02*
X83267262Y-59934523D01*
X83410629Y-59982313D01*
X83506207Y-60077891D01*
X83553996Y-60221258D01*
X83553996Y-60316836D01*
X82980527Y-59313266D02*
X82932738Y-59408844D01*
X82884949Y-59456633D01*
X82789371Y-59504422D01*
X82741582Y-59504422D01*
X82646004Y-59456633D01*
X82598215Y-59408844D01*
X82550426Y-59313266D01*
X82550426Y-59122109D01*
X82598215Y-59026531D01*
X82646004Y-58978742D01*
X82741582Y-58930953D01*
X82789371Y-58930953D01*
X82884949Y-58978742D01*
X82932738Y-59026531D01*
X82980527Y-59122109D01*
X82980527Y-59313266D01*
X83028316Y-59408844D01*
X83076105Y-59456633D01*
X83171684Y-59504422D01*
X83362840Y-59504422D01*
X83458418Y-59456633D01*
X83506207Y-59408844D01*
X83553996Y-59313266D01*
X83553996Y-59122109D01*
X83506207Y-59026531D01*
X83458418Y-58978742D01*
X83362840Y-58930953D01*
X83171684Y-58930953D01*
X83076105Y-58978742D01*
X83028316Y-59026531D01*
X82980527Y-59122109D01*
X65550426Y-43534523D02*
X66267262Y-43534523D01*
X66410629Y-43582313D01*
X66506207Y-43677891D01*
X66553996Y-43821258D01*
X66553996Y-43916836D01*
X66553996Y-43008844D02*
X66553996Y-42817688D01*
X66506207Y-42722109D01*
X66458418Y-42674320D01*
X66315051Y-42578742D01*
X66123895Y-42530953D01*
X65741582Y-42530953D01*
X65646004Y-42578742D01*
X65598215Y-42626531D01*
X65550426Y-42722109D01*
X65550426Y-42913266D01*
X65598215Y-43008844D01*
X65646004Y-43056633D01*
X65741582Y-43104422D01*
X65980527Y-43104422D01*
X66076105Y-43056633D01*
X66123895Y-43008844D01*
X66171684Y-42913266D01*
X66171684Y-42722109D01*
X66123895Y-42626531D01*
X66076105Y-42578742D01*
X65980527Y-42530953D01*
X61887587Y-38350426D02*
X61887587Y-39067262D01*
X61839797Y-39210629D01*
X61744219Y-39306207D01*
X61600852Y-39353996D01*
X61505274Y-39353996D01*
X62891157Y-39353996D02*
X62317688Y-39353996D01*
X62604422Y-39353996D02*
X62604422Y-38350426D01*
X62508844Y-38493793D01*
X62413266Y-38589371D01*
X62317688Y-38637160D01*
X63512414Y-38350426D02*
X63607993Y-38350426D01*
X63703571Y-38398215D01*
X63751360Y-38446004D01*
X63799149Y-38541582D01*
X63846938Y-38732738D01*
X63846938Y-38971684D01*
X63799149Y-39162840D01*
X63751360Y-39258418D01*
X63703571Y-39306207D01*
X63607993Y-39353996D01*
X63512414Y-39353996D01*
X63416836Y-39306207D01*
X63369047Y-39258418D01*
X63321258Y-39162840D01*
X63273469Y-38971684D01*
X63273469Y-38732738D01*
X63321258Y-38541582D01*
X63369047Y-38446004D01*
X63416836Y-38398215D01*
X63512414Y-38350426D01*
X50787587Y-38350426D02*
X50787587Y-39067262D01*
X50739797Y-39210629D01*
X50644219Y-39306207D01*
X50500852Y-39353996D01*
X50405274Y-39353996D01*
X51791157Y-39353996D02*
X51217688Y-39353996D01*
X51504422Y-39353996D02*
X51504422Y-38350426D01*
X51408844Y-38493793D01*
X51313266Y-38589371D01*
X51217688Y-38637160D01*
X52746938Y-39353996D02*
X52173469Y-39353996D01*
X52460203Y-39353996D02*
X52460203Y-38350426D01*
X52364625Y-38493793D01*
X52269047Y-38589371D01*
X52173469Y-38637160D01*
X39787587Y-38450426D02*
X39787587Y-39167262D01*
X39739797Y-39310629D01*
X39644219Y-39406207D01*
X39500852Y-39453996D01*
X39405274Y-39453996D01*
X40791157Y-39453996D02*
X40217688Y-39453996D01*
X40504422Y-39453996D02*
X40504422Y-38450426D01*
X40408844Y-38593793D01*
X40313266Y-38689371D01*
X40217688Y-38737160D01*
X41173469Y-38546004D02*
X41221258Y-38498215D01*
X41316836Y-38450426D01*
X41555782Y-38450426D01*
X41651360Y-38498215D01*
X41699149Y-38546004D01*
X41746938Y-38641582D01*
X41746938Y-38737160D01*
X41699149Y-38880527D01*
X41125680Y-39453996D01*
X41746938Y-39453996D01*
X65557143Y-73852381D02*
X65223809Y-73376190D01*
X64985714Y-73852381D02*
X64985714Y-72852381D01*
X65366667Y-72852381D01*
X65461905Y-72900000D01*
X65509524Y-72947619D01*
X65557143Y-73042857D01*
X65557143Y-73185714D01*
X65509524Y-73280952D01*
X65461905Y-73328571D01*
X65366667Y-73376190D01*
X64985714Y-73376190D01*
X65938095Y-72947619D02*
X65985714Y-72900000D01*
X66080952Y-72852381D01*
X66319048Y-72852381D01*
X66414286Y-72900000D01*
X66461905Y-72947619D01*
X66509524Y-73042857D01*
X66509524Y-73138095D01*
X66461905Y-73280952D01*
X65890476Y-73852381D01*
X66509524Y-73852381D01*
X66842857Y-72852381D02*
X67509524Y-72852381D01*
X67080952Y-73852381D01*
X65557143Y-79852381D02*
X65223809Y-79376190D01*
X64985714Y-79852381D02*
X64985714Y-78852381D01*
X65366667Y-78852381D01*
X65461905Y-78900000D01*
X65509524Y-78947619D01*
X65557143Y-79042857D01*
X65557143Y-79185714D01*
X65509524Y-79280952D01*
X65461905Y-79328571D01*
X65366667Y-79376190D01*
X64985714Y-79376190D01*
X65938095Y-78947619D02*
X65985714Y-78900000D01*
X66080952Y-78852381D01*
X66319048Y-78852381D01*
X66414286Y-78900000D01*
X66461905Y-78947619D01*
X66509524Y-79042857D01*
X66509524Y-79138095D01*
X66461905Y-79280952D01*
X65890476Y-79852381D01*
X66509524Y-79852381D01*
X67080952Y-79280952D02*
X66985714Y-79233333D01*
X66938095Y-79185714D01*
X66890476Y-79090476D01*
X66890476Y-79042857D01*
X66938095Y-78947619D01*
X66985714Y-78900000D01*
X67080952Y-78852381D01*
X67271429Y-78852381D01*
X67366667Y-78900000D01*
X67414286Y-78947619D01*
X67461905Y-79042857D01*
X67461905Y-79090476D01*
X67414286Y-79185714D01*
X67366667Y-79233333D01*
X67271429Y-79280952D01*
X67080952Y-79280952D01*
X66985714Y-79328571D01*
X66938095Y-79376190D01*
X66890476Y-79471429D01*
X66890476Y-79661905D01*
X66938095Y-79757143D01*
X66985714Y-79804762D01*
X67080952Y-79852381D01*
X67271429Y-79852381D01*
X67366667Y-79804762D01*
X67414286Y-79757143D01*
X67461905Y-79661905D01*
X67461905Y-79471429D01*
X67414286Y-79376190D01*
X67366667Y-79328571D01*
X67271429Y-79280952D01*
X65557143Y-53402381D02*
X65223809Y-52926190D01*
X64985714Y-53402381D02*
X64985714Y-52402381D01*
X65366667Y-52402381D01*
X65461905Y-52450000D01*
X65509524Y-52497619D01*
X65557143Y-52592857D01*
X65557143Y-52735714D01*
X65509524Y-52830952D01*
X65461905Y-52878571D01*
X65366667Y-52926190D01*
X64985714Y-52926190D01*
X65938095Y-52497619D02*
X65985714Y-52450000D01*
X66080952Y-52402381D01*
X66319048Y-52402381D01*
X66414286Y-52450000D01*
X66461905Y-52497619D01*
X66509524Y-52592857D01*
X66509524Y-52688095D01*
X66461905Y-52830952D01*
X65890476Y-53402381D01*
X66509524Y-53402381D01*
X66985714Y-53402381D02*
X67176190Y-53402381D01*
X67271429Y-53354762D01*
X67319048Y-53307143D01*
X67414286Y-53164286D01*
X67461905Y-52973810D01*
X67461905Y-52592857D01*
X67414286Y-52497619D01*
X67366667Y-52450000D01*
X67271429Y-52402381D01*
X67080952Y-52402381D01*
X66985714Y-52450000D01*
X66938095Y-52497619D01*
X66890476Y-52592857D01*
X66890476Y-52830952D01*
X66938095Y-52926190D01*
X66985714Y-52973810D01*
X67080952Y-53021429D01*
X67271429Y-53021429D01*
X67366667Y-52973810D01*
X67414286Y-52926190D01*
X67461905Y-52830952D01*
X65257143Y-59452381D02*
X64923809Y-58976190D01*
X64685714Y-59452381D02*
X64685714Y-58452381D01*
X65066667Y-58452381D01*
X65161905Y-58500000D01*
X65209524Y-58547619D01*
X65257143Y-58642857D01*
X65257143Y-58785714D01*
X65209524Y-58880952D01*
X65161905Y-58928571D01*
X65066667Y-58976190D01*
X64685714Y-58976190D01*
X65590476Y-58452381D02*
X66209524Y-58452381D01*
X65876190Y-58833333D01*
X66019048Y-58833333D01*
X66114286Y-58880952D01*
X66161905Y-58928571D01*
X66209524Y-59023810D01*
X66209524Y-59261905D01*
X66161905Y-59357143D01*
X66114286Y-59404762D01*
X66019048Y-59452381D01*
X65733333Y-59452381D01*
X65638095Y-59404762D01*
X65590476Y-59357143D01*
X66828571Y-58452381D02*
X66923810Y-58452381D01*
X67019048Y-58500000D01*
X67066667Y-58547619D01*
X67114286Y-58642857D01*
X67161905Y-58833333D01*
X67161905Y-59071429D01*
X67114286Y-59261905D01*
X67066667Y-59357143D01*
X67019048Y-59404762D01*
X66923810Y-59452381D01*
X66828571Y-59452381D01*
X66733333Y-59404762D01*
X66685714Y-59357143D01*
X66638095Y-59261905D01*
X66590476Y-59071429D01*
X66590476Y-58833333D01*
X66638095Y-58642857D01*
X66685714Y-58547619D01*
X66733333Y-58500000D01*
X66828571Y-58452381D01*
X77557143Y-43452381D02*
X77223809Y-42976190D01*
X76985714Y-43452381D02*
X76985714Y-42452381D01*
X77366667Y-42452381D01*
X77461905Y-42500000D01*
X77509524Y-42547619D01*
X77557143Y-42642857D01*
X77557143Y-42785714D01*
X77509524Y-42880952D01*
X77461905Y-42928571D01*
X77366667Y-42976190D01*
X76985714Y-42976190D01*
X77890476Y-42452381D02*
X78509524Y-42452381D01*
X78176190Y-42833333D01*
X78319048Y-42833333D01*
X78414286Y-42880952D01*
X78461905Y-42928571D01*
X78509524Y-43023810D01*
X78509524Y-43261905D01*
X78461905Y-43357143D01*
X78414286Y-43404762D01*
X78319048Y-43452381D01*
X78033333Y-43452381D01*
X77938095Y-43404762D01*
X77890476Y-43357143D01*
X79461905Y-43452381D02*
X78890476Y-43452381D01*
X79176190Y-43452381D02*
X79176190Y-42452381D01*
X79080952Y-42595238D01*
X78985714Y-42690476D01*
X78890476Y-42738095D01*
X78357143Y-46852381D02*
X78023809Y-46376190D01*
X77785714Y-46852381D02*
X77785714Y-45852381D01*
X78166667Y-45852381D01*
X78261905Y-45900000D01*
X78309524Y-45947619D01*
X78357143Y-46042857D01*
X78357143Y-46185714D01*
X78309524Y-46280952D01*
X78261905Y-46328571D01*
X78166667Y-46376190D01*
X77785714Y-46376190D01*
X78690476Y-45852381D02*
X79309524Y-45852381D01*
X78976190Y-46233333D01*
X79119048Y-46233333D01*
X79214286Y-46280952D01*
X79261905Y-46328571D01*
X79309524Y-46423810D01*
X79309524Y-46661905D01*
X79261905Y-46757143D01*
X79214286Y-46804762D01*
X79119048Y-46852381D01*
X78833333Y-46852381D01*
X78738095Y-46804762D01*
X78690476Y-46757143D01*
X79690476Y-45947619D02*
X79738095Y-45900000D01*
X79833333Y-45852381D01*
X80071429Y-45852381D01*
X80166667Y-45900000D01*
X80214286Y-45947619D01*
X80261905Y-46042857D01*
X80261905Y-46138095D01*
X80214286Y-46280952D01*
X79642857Y-46852381D01*
X80261905Y-46852381D01*
X69252381Y-110642857D02*
X68776190Y-110976191D01*
X69252381Y-111214286D02*
X68252381Y-111214286D01*
X68252381Y-110833333D01*
X68300000Y-110738095D01*
X68347619Y-110690476D01*
X68442857Y-110642857D01*
X68585714Y-110642857D01*
X68680952Y-110690476D01*
X68728571Y-110738095D01*
X68776190Y-110833333D01*
X68776190Y-111214286D01*
X68252381Y-110309524D02*
X68252381Y-109690476D01*
X68633333Y-110023810D01*
X68633333Y-109880952D01*
X68680952Y-109785714D01*
X68728571Y-109738095D01*
X68823810Y-109690476D01*
X69061905Y-109690476D01*
X69157143Y-109738095D01*
X69204762Y-109785714D01*
X69252381Y-109880952D01*
X69252381Y-110166667D01*
X69204762Y-110261905D01*
X69157143Y-110309524D01*
X68252381Y-109357143D02*
X68252381Y-108738095D01*
X68633333Y-109071429D01*
X68633333Y-108928571D01*
X68680952Y-108833333D01*
X68728571Y-108785714D01*
X68823810Y-108738095D01*
X69061905Y-108738095D01*
X69157143Y-108785714D01*
X69204762Y-108833333D01*
X69252381Y-108928571D01*
X69252381Y-109214286D01*
X69204762Y-109309524D01*
X69157143Y-109357143D01*
X76157143Y-115652381D02*
X75823809Y-115176190D01*
X75585714Y-115652381D02*
X75585714Y-114652381D01*
X75966667Y-114652381D01*
X76061905Y-114700000D01*
X76109524Y-114747619D01*
X76157143Y-114842857D01*
X76157143Y-114985714D01*
X76109524Y-115080952D01*
X76061905Y-115128571D01*
X75966667Y-115176190D01*
X75585714Y-115176190D01*
X76490476Y-114652381D02*
X77109524Y-114652381D01*
X76776190Y-115033333D01*
X76919048Y-115033333D01*
X77014286Y-115080952D01*
X77061905Y-115128571D01*
X77109524Y-115223810D01*
X77109524Y-115461905D01*
X77061905Y-115557143D01*
X77014286Y-115604762D01*
X76919048Y-115652381D01*
X76633333Y-115652381D01*
X76538095Y-115604762D01*
X76490476Y-115557143D01*
X77966667Y-114985714D02*
X77966667Y-115652381D01*
X77728571Y-114604762D02*
X77490476Y-115319048D01*
X78109524Y-115319048D01*
X69557143Y-95902381D02*
X69223809Y-95426190D01*
X68985714Y-95902381D02*
X68985714Y-94902381D01*
X69366667Y-94902381D01*
X69461905Y-94950000D01*
X69509524Y-94997619D01*
X69557143Y-95092857D01*
X69557143Y-95235714D01*
X69509524Y-95330952D01*
X69461905Y-95378571D01*
X69366667Y-95426190D01*
X68985714Y-95426190D01*
X69890476Y-94902381D02*
X70509524Y-94902381D01*
X70176190Y-95283333D01*
X70319048Y-95283333D01*
X70414286Y-95330952D01*
X70461905Y-95378571D01*
X70509524Y-95473810D01*
X70509524Y-95711905D01*
X70461905Y-95807143D01*
X70414286Y-95854762D01*
X70319048Y-95902381D01*
X70033333Y-95902381D01*
X69938095Y-95854762D01*
X69890476Y-95807143D01*
X71414286Y-94902381D02*
X70938095Y-94902381D01*
X70890476Y-95378571D01*
X70938095Y-95330952D01*
X71033333Y-95283333D01*
X71271429Y-95283333D01*
X71366667Y-95330952D01*
X71414286Y-95378571D01*
X71461905Y-95473810D01*
X71461905Y-95711905D01*
X71414286Y-95807143D01*
X71366667Y-95854762D01*
X71271429Y-95902381D01*
X71033333Y-95902381D01*
X70938095Y-95854762D01*
X70890476Y-95807143D01*
X69457143Y-84952381D02*
X69123809Y-84476190D01*
X68885714Y-84952381D02*
X68885714Y-83952381D01*
X69266667Y-83952381D01*
X69361905Y-84000000D01*
X69409524Y-84047619D01*
X69457143Y-84142857D01*
X69457143Y-84285714D01*
X69409524Y-84380952D01*
X69361905Y-84428571D01*
X69266667Y-84476190D01*
X68885714Y-84476190D01*
X69790476Y-83952381D02*
X70409524Y-83952381D01*
X70076190Y-84333333D01*
X70219048Y-84333333D01*
X70314286Y-84380952D01*
X70361905Y-84428571D01*
X70409524Y-84523810D01*
X70409524Y-84761905D01*
X70361905Y-84857143D01*
X70314286Y-84904762D01*
X70219048Y-84952381D01*
X69933333Y-84952381D01*
X69838095Y-84904762D01*
X69790476Y-84857143D01*
X70742857Y-83952381D02*
X71409524Y-83952381D01*
X70980952Y-84952381D01*
X56352381Y-52442857D02*
X55876190Y-52776191D01*
X56352381Y-53014286D02*
X55352381Y-53014286D01*
X55352381Y-52633333D01*
X55400000Y-52538095D01*
X55447619Y-52490476D01*
X55542857Y-52442857D01*
X55685714Y-52442857D01*
X55780952Y-52490476D01*
X55828571Y-52538095D01*
X55876190Y-52633333D01*
X55876190Y-53014286D01*
X55352381Y-52109524D02*
X55352381Y-51490476D01*
X55733333Y-51823810D01*
X55733333Y-51680952D01*
X55780952Y-51585714D01*
X55828571Y-51538095D01*
X55923810Y-51490476D01*
X56161905Y-51490476D01*
X56257143Y-51538095D01*
X56304762Y-51585714D01*
X56352381Y-51680952D01*
X56352381Y-51966667D01*
X56304762Y-52061905D01*
X56257143Y-52109524D01*
X56352381Y-51014286D02*
X56352381Y-50823810D01*
X56304762Y-50728571D01*
X56257143Y-50680952D01*
X56114286Y-50585714D01*
X55923810Y-50538095D01*
X55542857Y-50538095D01*
X55447619Y-50585714D01*
X55400000Y-50633333D01*
X55352381Y-50728571D01*
X55352381Y-50919048D01*
X55400000Y-51014286D01*
X55447619Y-51061905D01*
X55542857Y-51109524D01*
X55780952Y-51109524D01*
X55876190Y-51061905D01*
X55923810Y-51014286D01*
X55971429Y-50919048D01*
X55971429Y-50728571D01*
X55923810Y-50633333D01*
X55876190Y-50585714D01*
X55780952Y-50538095D01*
X62452381Y-53342857D02*
X61976190Y-53676191D01*
X62452381Y-53914286D02*
X61452381Y-53914286D01*
X61452381Y-53533333D01*
X61500000Y-53438095D01*
X61547619Y-53390476D01*
X61642857Y-53342857D01*
X61785714Y-53342857D01*
X61880952Y-53390476D01*
X61928571Y-53438095D01*
X61976190Y-53533333D01*
X61976190Y-53914286D01*
X61785714Y-52485714D02*
X62452381Y-52485714D01*
X61404762Y-52723810D02*
X62119048Y-52961905D01*
X62119048Y-52342857D01*
X61452381Y-51771429D02*
X61452381Y-51676190D01*
X61500000Y-51580952D01*
X61547619Y-51533333D01*
X61642857Y-51485714D01*
X61833333Y-51438095D01*
X62071429Y-51438095D01*
X62261905Y-51485714D01*
X62357143Y-51533333D01*
X62404762Y-51580952D01*
X62452381Y-51676190D01*
X62452381Y-51771429D01*
X62404762Y-51866667D01*
X62357143Y-51914286D01*
X62261905Y-51961905D01*
X62071429Y-52009524D01*
X61833333Y-52009524D01*
X61642857Y-51961905D01*
X61547619Y-51914286D01*
X61500000Y-51866667D01*
X61452381Y-51771429D01*
X45452381Y-52442857D02*
X44976190Y-52776191D01*
X45452381Y-53014286D02*
X44452381Y-53014286D01*
X44452381Y-52633333D01*
X44500000Y-52538095D01*
X44547619Y-52490476D01*
X44642857Y-52442857D01*
X44785714Y-52442857D01*
X44880952Y-52490476D01*
X44928571Y-52538095D01*
X44976190Y-52633333D01*
X44976190Y-53014286D01*
X44785714Y-51585714D02*
X45452381Y-51585714D01*
X44404762Y-51823810D02*
X45119048Y-52061905D01*
X45119048Y-51442857D01*
X45452381Y-50538095D02*
X45452381Y-51109524D01*
X45452381Y-50823810D02*
X44452381Y-50823810D01*
X44595238Y-50919048D01*
X44690476Y-51014286D01*
X44738095Y-51109524D01*
X34452381Y-52442857D02*
X33976190Y-52776191D01*
X34452381Y-53014286D02*
X33452381Y-53014286D01*
X33452381Y-52633333D01*
X33500000Y-52538095D01*
X33547619Y-52490476D01*
X33642857Y-52442857D01*
X33785714Y-52442857D01*
X33880952Y-52490476D01*
X33928571Y-52538095D01*
X33976190Y-52633333D01*
X33976190Y-53014286D01*
X33785714Y-51585714D02*
X34452381Y-51585714D01*
X33404762Y-51823810D02*
X34119048Y-52061905D01*
X34119048Y-51442857D01*
X33452381Y-51157143D02*
X33452381Y-50538095D01*
X33833333Y-50871429D01*
X33833333Y-50728571D01*
X33880952Y-50633333D01*
X33928571Y-50585714D01*
X34023810Y-50538095D01*
X34261905Y-50538095D01*
X34357143Y-50585714D01*
X34404762Y-50633333D01*
X34452381Y-50728571D01*
X34452381Y-51014286D01*
X34404762Y-51109524D01*
X34357143Y-51157143D01*
X68652381Y-106842857D02*
X68176190Y-107176191D01*
X68652381Y-107414286D02*
X67652381Y-107414286D01*
X67652381Y-107033333D01*
X67700000Y-106938095D01*
X67747619Y-106890476D01*
X67842857Y-106842857D01*
X67985714Y-106842857D01*
X68080952Y-106890476D01*
X68128571Y-106938095D01*
X68176190Y-107033333D01*
X68176190Y-107414286D01*
X67985714Y-105985714D02*
X68652381Y-105985714D01*
X67604762Y-106223810D02*
X68319048Y-106461905D01*
X68319048Y-105842857D01*
X67652381Y-104985714D02*
X67652381Y-105461905D01*
X68128571Y-105509524D01*
X68080952Y-105461905D01*
X68033333Y-105366667D01*
X68033333Y-105128571D01*
X68080952Y-105033333D01*
X68128571Y-104985714D01*
X68223810Y-104938095D01*
X68461905Y-104938095D01*
X68557143Y-104985714D01*
X68604762Y-105033333D01*
X68652381Y-105128571D01*
X68652381Y-105366667D01*
X68604762Y-105461905D01*
X68557143Y-105509524D01*
X68757143Y-113352381D02*
X68423809Y-112876190D01*
X68185714Y-113352381D02*
X68185714Y-112352381D01*
X68566667Y-112352381D01*
X68661905Y-112400000D01*
X68709524Y-112447619D01*
X68757143Y-112542857D01*
X68757143Y-112685714D01*
X68709524Y-112780952D01*
X68661905Y-112828571D01*
X68566667Y-112876190D01*
X68185714Y-112876190D01*
X69614286Y-112685714D02*
X69614286Y-113352381D01*
X69376190Y-112304762D02*
X69138095Y-113019048D01*
X69757143Y-113019048D01*
X70566667Y-112352381D02*
X70376190Y-112352381D01*
X70280952Y-112400000D01*
X70233333Y-112447619D01*
X70138095Y-112590476D01*
X70090476Y-112780952D01*
X70090476Y-113161905D01*
X70138095Y-113257143D01*
X70185714Y-113304762D01*
X70280952Y-113352381D01*
X70471429Y-113352381D01*
X70566667Y-113304762D01*
X70614286Y-113257143D01*
X70661905Y-113161905D01*
X70661905Y-112923810D01*
X70614286Y-112828571D01*
X70566667Y-112780952D01*
X70471429Y-112733333D01*
X70280952Y-112733333D01*
X70185714Y-112780952D01*
X70138095Y-112828571D01*
X70090476Y-112923810D01*
X65557143Y-95902381D02*
X65223809Y-95426190D01*
X64985714Y-95902381D02*
X64985714Y-94902381D01*
X65366667Y-94902381D01*
X65461905Y-94950000D01*
X65509524Y-94997619D01*
X65557143Y-95092857D01*
X65557143Y-95235714D01*
X65509524Y-95330952D01*
X65461905Y-95378571D01*
X65366667Y-95426190D01*
X64985714Y-95426190D01*
X66414286Y-95235714D02*
X66414286Y-95902381D01*
X66176190Y-94854762D02*
X65938095Y-95569048D01*
X66557143Y-95569048D01*
X66842857Y-94902381D02*
X67509524Y-94902381D01*
X67080952Y-95902381D01*
X65557143Y-84952381D02*
X65223809Y-84476190D01*
X64985714Y-84952381D02*
X64985714Y-83952381D01*
X65366667Y-83952381D01*
X65461905Y-84000000D01*
X65509524Y-84047619D01*
X65557143Y-84142857D01*
X65557143Y-84285714D01*
X65509524Y-84380952D01*
X65461905Y-84428571D01*
X65366667Y-84476190D01*
X64985714Y-84476190D01*
X66414286Y-84285714D02*
X66414286Y-84952381D01*
X66176190Y-83904762D02*
X65938095Y-84619048D01*
X66557143Y-84619048D01*
X66985714Y-84952381D02*
X67176190Y-84952381D01*
X67271429Y-84904762D01*
X67319048Y-84857143D01*
X67414286Y-84714286D01*
X67461905Y-84523810D01*
X67461905Y-84142857D01*
X67414286Y-84047619D01*
X67366667Y-84000000D01*
X67271429Y-83952381D01*
X67080952Y-83952381D01*
X66985714Y-84000000D01*
X66938095Y-84047619D01*
X66890476Y-84142857D01*
X66890476Y-84380952D01*
X66938095Y-84476190D01*
X66985714Y-84523810D01*
X67080952Y-84571429D01*
X67271429Y-84571429D01*
X67366667Y-84523810D01*
X67414286Y-84476190D01*
X67461905Y-84380952D01*
X34952381Y-75261905D02*
X35761905Y-75261905D01*
X35857143Y-75214286D01*
X35904762Y-75166667D01*
X35952381Y-75071429D01*
X35952381Y-74880952D01*
X35904762Y-74785714D01*
X35857143Y-74738095D01*
X35761905Y-74690476D01*
X34952381Y-74690476D01*
X35047619Y-74261905D02*
X35000000Y-74214286D01*
X34952381Y-74119048D01*
X34952381Y-73880952D01*
X35000000Y-73785714D01*
X35047619Y-73738095D01*
X35142857Y-73690476D01*
X35238095Y-73690476D01*
X35380952Y-73738095D01*
X35952381Y-74309524D01*
X35952381Y-73690476D01*
X44516667Y-77400000D02*
X44516667Y-77019048D01*
X44802381Y-77476191D02*
X43802381Y-77209524D01*
X44802381Y-76942857D01*
X44802381Y-76676191D02*
X43802381Y-76676191D01*
X43802381Y-76485715D01*
X43850000Y-76371429D01*
X43945238Y-76295238D01*
X44040476Y-76257143D01*
X44230952Y-76219048D01*
X44373810Y-76219048D01*
X44564286Y-76257143D01*
X44659524Y-76295238D01*
X44754762Y-76371429D01*
X44802381Y-76485715D01*
X44802381Y-76676191D01*
X44278571Y-75876191D02*
X44278571Y-75609524D01*
X44802381Y-75495238D02*
X44802381Y-75876191D01*
X43802381Y-75876191D01*
X43802381Y-75495238D01*
X43802381Y-75228571D02*
X43802381Y-74695238D01*
X44802381Y-75038095D01*
X44230952Y-74276190D02*
X44183333Y-74352381D01*
X44135714Y-74390476D01*
X44040476Y-74428571D01*
X43992857Y-74428571D01*
X43897619Y-74390476D01*
X43850000Y-74352381D01*
X43802381Y-74276190D01*
X43802381Y-74123809D01*
X43850000Y-74047619D01*
X43897619Y-74009523D01*
X43992857Y-73971428D01*
X44040476Y-73971428D01*
X44135714Y-74009523D01*
X44183333Y-74047619D01*
X44230952Y-74123809D01*
X44230952Y-74276190D01*
X44278571Y-74352381D01*
X44326190Y-74390476D01*
X44421429Y-74428571D01*
X44611905Y-74428571D01*
X44707143Y-74390476D01*
X44754762Y-74352381D01*
X44802381Y-74276190D01*
X44802381Y-74123809D01*
X44754762Y-74047619D01*
X44707143Y-74009523D01*
X44611905Y-73971428D01*
X44421429Y-73971428D01*
X44326190Y-74009523D01*
X44278571Y-74047619D01*
X44230952Y-74123809D01*
X44802381Y-73209523D02*
X44802381Y-73666666D01*
X44802381Y-73438095D02*
X43802381Y-73438095D01*
X43945238Y-73514285D01*
X44040476Y-73590476D01*
X44088095Y-73666666D01*
X43802381Y-72523809D02*
X43802381Y-72676190D01*
X43850000Y-72752380D01*
X43897619Y-72790475D01*
X44040476Y-72866666D01*
X44230952Y-72904761D01*
X44611905Y-72904761D01*
X44707143Y-72866666D01*
X44754762Y-72828571D01*
X44802381Y-72752380D01*
X44802381Y-72599999D01*
X44754762Y-72523809D01*
X44707143Y-72485713D01*
X44611905Y-72447618D01*
X44373810Y-72447618D01*
X44278571Y-72485713D01*
X44230952Y-72523809D01*
X44183333Y-72599999D01*
X44183333Y-72752380D01*
X44230952Y-72828571D01*
X44278571Y-72866666D01*
X44373810Y-72904761D01*
X44516667Y-72142856D02*
X44516667Y-71761904D01*
X44802381Y-72219047D02*
X43802381Y-71952380D01*
X44802381Y-71685713D01*
X44707143Y-70961904D02*
X44754762Y-70999999D01*
X44802381Y-71114285D01*
X44802381Y-71190475D01*
X44754762Y-71304761D01*
X44659524Y-71380952D01*
X44564286Y-71419047D01*
X44373810Y-71457142D01*
X44230952Y-71457142D01*
X44040476Y-71419047D01*
X43945238Y-71380952D01*
X43850000Y-71304761D01*
X43802381Y-71190475D01*
X43802381Y-71114285D01*
X43850000Y-70999999D01*
X43897619Y-70961904D01*
X44802381Y-70619047D02*
X43802381Y-70619047D01*
X43802381Y-70314285D01*
X43850000Y-70238094D01*
X43897619Y-70199999D01*
X43992857Y-70161904D01*
X44135714Y-70161904D01*
X44230952Y-70199999D01*
X44278571Y-70238094D01*
X44326190Y-70314285D01*
X44326190Y-70619047D01*
X43802381Y-69895237D02*
X43802381Y-69361904D01*
X44802381Y-69895237D01*
X44802381Y-69361904D01*
X51007143Y-77047143D02*
X50959524Y-77094762D01*
X50816667Y-77142381D01*
X50721429Y-77142381D01*
X50578571Y-77094762D01*
X50483333Y-76999524D01*
X50435714Y-76904286D01*
X50388095Y-76713810D01*
X50388095Y-76570952D01*
X50435714Y-76380476D01*
X50483333Y-76285238D01*
X50578571Y-76190000D01*
X50721429Y-76142381D01*
X50816667Y-76142381D01*
X50959524Y-76190000D01*
X51007143Y-76237619D01*
X51911905Y-76142381D02*
X51435714Y-76142381D01*
X51388095Y-76618571D01*
X51435714Y-76570952D01*
X51530952Y-76523333D01*
X51769048Y-76523333D01*
X51864286Y-76570952D01*
X51911905Y-76618571D01*
X51959524Y-76713810D01*
X51959524Y-76951905D01*
X51911905Y-77047143D01*
X51864286Y-77094762D01*
X51769048Y-77142381D01*
X51530952Y-77142381D01*
X51435714Y-77094762D01*
X51388095Y-77047143D01*
X52292857Y-76142381D02*
X52959524Y-76142381D01*
X52530952Y-77142381D01*
X48499048Y-75231429D02*
X49260953Y-75231429D01*
X48880001Y-75612381D02*
X48880001Y-74850476D01*
X46707143Y-75542857D02*
X46754762Y-75590476D01*
X46802381Y-75733333D01*
X46802381Y-75828571D01*
X46754762Y-75971429D01*
X46659524Y-76066667D01*
X46564286Y-76114286D01*
X46373810Y-76161905D01*
X46230952Y-76161905D01*
X46040476Y-76114286D01*
X45945238Y-76066667D01*
X45850000Y-75971429D01*
X45802381Y-75828571D01*
X45802381Y-75733333D01*
X45850000Y-75590476D01*
X45897619Y-75542857D01*
X45802381Y-74638095D02*
X45802381Y-75114286D01*
X46278571Y-75161905D01*
X46230952Y-75114286D01*
X46183333Y-75019048D01*
X46183333Y-74780952D01*
X46230952Y-74685714D01*
X46278571Y-74638095D01*
X46373810Y-74590476D01*
X46611905Y-74590476D01*
X46707143Y-74638095D01*
X46754762Y-74685714D01*
X46802381Y-74780952D01*
X46802381Y-75019048D01*
X46754762Y-75114286D01*
X46707143Y-75161905D01*
X46230952Y-74019048D02*
X46183333Y-74114286D01*
X46135714Y-74161905D01*
X46040476Y-74209524D01*
X45992857Y-74209524D01*
X45897619Y-74161905D01*
X45850000Y-74114286D01*
X45802381Y-74019048D01*
X45802381Y-73828571D01*
X45850000Y-73733333D01*
X45897619Y-73685714D01*
X45992857Y-73638095D01*
X46040476Y-73638095D01*
X46135714Y-73685714D01*
X46183333Y-73733333D01*
X46230952Y-73828571D01*
X46230952Y-74019048D01*
X46278571Y-74114286D01*
X46326190Y-74161905D01*
X46421429Y-74209524D01*
X46611905Y-74209524D01*
X46707143Y-74161905D01*
X46754762Y-74114286D01*
X46802381Y-74019048D01*
X46802381Y-73828571D01*
X46754762Y-73733333D01*
X46707143Y-73685714D01*
X46611905Y-73638095D01*
X46421429Y-73638095D01*
X46326190Y-73685714D01*
X46278571Y-73733333D01*
X46230952Y-73828571D01*
X36457143Y-69557143D02*
X36409524Y-69604762D01*
X36266667Y-69652381D01*
X36171429Y-69652381D01*
X36028571Y-69604762D01*
X35933333Y-69509524D01*
X35885714Y-69414286D01*
X35838095Y-69223810D01*
X35838095Y-69080952D01*
X35885714Y-68890476D01*
X35933333Y-68795238D01*
X36028571Y-68700000D01*
X36171429Y-68652381D01*
X36266667Y-68652381D01*
X36409524Y-68700000D01*
X36457143Y-68747619D01*
X37314286Y-68652381D02*
X37123809Y-68652381D01*
X37028571Y-68700000D01*
X36980952Y-68747619D01*
X36885714Y-68890476D01*
X36838095Y-69080952D01*
X36838095Y-69461905D01*
X36885714Y-69557143D01*
X36933333Y-69604762D01*
X37028571Y-69652381D01*
X37219048Y-69652381D01*
X37314286Y-69604762D01*
X37361905Y-69557143D01*
X37409524Y-69461905D01*
X37409524Y-69223810D01*
X37361905Y-69128571D01*
X37314286Y-69080952D01*
X37219048Y-69033333D01*
X37028571Y-69033333D01*
X36933333Y-69080952D01*
X36885714Y-69128571D01*
X36838095Y-69223810D01*
X37790476Y-68747619D02*
X37838095Y-68700000D01*
X37933333Y-68652381D01*
X38171429Y-68652381D01*
X38266667Y-68700000D01*
X38314286Y-68747619D01*
X38361905Y-68842857D01*
X38361905Y-68938095D01*
X38314286Y-69080952D01*
X37742857Y-69652381D01*
X38361905Y-69652381D01*
X39157143Y-78457143D02*
X39109524Y-78504762D01*
X38966667Y-78552381D01*
X38871429Y-78552381D01*
X38728571Y-78504762D01*
X38633333Y-78409524D01*
X38585714Y-78314286D01*
X38538095Y-78123810D01*
X38538095Y-77980952D01*
X38585714Y-77790476D01*
X38633333Y-77695238D01*
X38728571Y-77600000D01*
X38871429Y-77552381D01*
X38966667Y-77552381D01*
X39109524Y-77600000D01*
X39157143Y-77647619D01*
X40014286Y-77552381D02*
X39823809Y-77552381D01*
X39728571Y-77600000D01*
X39680952Y-77647619D01*
X39585714Y-77790476D01*
X39538095Y-77980952D01*
X39538095Y-78361905D01*
X39585714Y-78457143D01*
X39633333Y-78504762D01*
X39728571Y-78552381D01*
X39919048Y-78552381D01*
X40014286Y-78504762D01*
X40061905Y-78457143D01*
X40109524Y-78361905D01*
X40109524Y-78123810D01*
X40061905Y-78028571D01*
X40014286Y-77980952D01*
X39919048Y-77933333D01*
X39728571Y-77933333D01*
X39633333Y-77980952D01*
X39585714Y-78028571D01*
X39538095Y-78123810D01*
X40966667Y-77885714D02*
X40966667Y-78552381D01*
X40728571Y-77504762D02*
X40490476Y-78219048D01*
X41109524Y-78219048D01*
X82550426Y-80434523D02*
X83267262Y-80434523D01*
X83410629Y-80482313D01*
X83506207Y-80577891D01*
X83553996Y-80721258D01*
X83553996Y-80816836D01*
X82550426Y-80052211D02*
X82550426Y-79383164D01*
X83553996Y-79813266D01*
X41773809Y-61466190D02*
X41773809Y-61942381D01*
X41440476Y-60942381D02*
X41773809Y-61466190D01*
X42107143Y-60942381D01*
X42392857Y-61037619D02*
X42440476Y-60990000D01*
X42535714Y-60942381D01*
X42773810Y-60942381D01*
X42869048Y-60990000D01*
X42916667Y-61037619D01*
X42964286Y-61132857D01*
X42964286Y-61228095D01*
X42916667Y-61370952D01*
X42345238Y-61942381D01*
X42964286Y-61942381D01*
X75522381Y-129494523D02*
X76236667Y-129494523D01*
X76379524Y-129542143D01*
X76474762Y-129637381D01*
X76522381Y-129780238D01*
X76522381Y-129875476D01*
X76522381Y-128494523D02*
X76522381Y-129065952D01*
X76522381Y-128780238D02*
X75522381Y-128780238D01*
X75665238Y-128875476D01*
X75760476Y-128970714D01*
X75808095Y-129065952D01*
X75522381Y-128161190D02*
X75522381Y-127542142D01*
X75903333Y-127875476D01*
X75903333Y-127732618D01*
X75950952Y-127637380D01*
X75998571Y-127589761D01*
X76093810Y-127542142D01*
X76331905Y-127542142D01*
X76427143Y-127589761D01*
X76474762Y-127637380D01*
X76522381Y-127732618D01*
X76522381Y-128018333D01*
X76474762Y-128113571D01*
X76427143Y-128161190D01*
X34952381Y-90059523D02*
X35666667Y-90059523D01*
X35809524Y-90107143D01*
X35904762Y-90202381D01*
X35952381Y-90345238D01*
X35952381Y-90440476D01*
X35952381Y-89059523D02*
X35952381Y-89630952D01*
X35952381Y-89345238D02*
X34952381Y-89345238D01*
X35095238Y-89440476D01*
X35190476Y-89535714D01*
X35238095Y-89630952D01*
X35285714Y-88202380D02*
X35952381Y-88202380D01*
X34904762Y-88440476D02*
X35619048Y-88678571D01*
X35619048Y-88059523D01*
X70261905Y-63202381D02*
X70261905Y-62202381D01*
X70500000Y-62202381D01*
X70642858Y-62250000D01*
X70738096Y-62345238D01*
X70785715Y-62440476D01*
X70833334Y-62630952D01*
X70833334Y-62773810D01*
X70785715Y-62964286D01*
X70738096Y-63059524D01*
X70642858Y-63154762D01*
X70500000Y-63202381D01*
X70261905Y-63202381D01*
X71785715Y-63202381D02*
X71214286Y-63202381D01*
X71500000Y-63202381D02*
X71500000Y-62202381D01*
X71404762Y-62345238D01*
X71309524Y-62440476D01*
X71214286Y-62488095D01*
X39357143Y-111666666D02*
X39404762Y-111714285D01*
X39452381Y-111857142D01*
X39452381Y-111952380D01*
X39404762Y-112095238D01*
X39309524Y-112190476D01*
X39214286Y-112238095D01*
X39023810Y-112285714D01*
X38880952Y-112285714D01*
X38690476Y-112238095D01*
X38595238Y-112190476D01*
X38500000Y-112095238D01*
X38452381Y-111952380D01*
X38452381Y-111857142D01*
X38500000Y-111714285D01*
X38547619Y-111666666D01*
X39452381Y-110714285D02*
X39452381Y-111285714D01*
X39452381Y-111000000D02*
X38452381Y-111000000D01*
X38595238Y-111095238D01*
X38690476Y-111190476D01*
X38738095Y-111285714D01*
X50357143Y-111666666D02*
X50404762Y-111714285D01*
X50452381Y-111857142D01*
X50452381Y-111952380D01*
X50404762Y-112095238D01*
X50309524Y-112190476D01*
X50214286Y-112238095D01*
X50023810Y-112285714D01*
X49880952Y-112285714D01*
X49690476Y-112238095D01*
X49595238Y-112190476D01*
X49500000Y-112095238D01*
X49452381Y-111952380D01*
X49452381Y-111857142D01*
X49500000Y-111714285D01*
X49547619Y-111666666D01*
X49452381Y-111333333D02*
X49452381Y-110714285D01*
X49833333Y-111047619D01*
X49833333Y-110904761D01*
X49880952Y-110809523D01*
X49928571Y-110761904D01*
X50023810Y-110714285D01*
X50261905Y-110714285D01*
X50357143Y-110761904D01*
X50404762Y-110809523D01*
X50452381Y-110904761D01*
X50452381Y-111190476D01*
X50404762Y-111285714D01*
X50357143Y-111333333D01*
X57857143Y-111266666D02*
X57904762Y-111314285D01*
X57952381Y-111457142D01*
X57952381Y-111552380D01*
X57904762Y-111695238D01*
X57809524Y-111790476D01*
X57714286Y-111838095D01*
X57523810Y-111885714D01*
X57380952Y-111885714D01*
X57190476Y-111838095D01*
X57095238Y-111790476D01*
X57000000Y-111695238D01*
X56952381Y-111552380D01*
X56952381Y-111457142D01*
X57000000Y-111314285D01*
X57047619Y-111266666D01*
X56952381Y-110409523D02*
X56952381Y-110600000D01*
X57000000Y-110695238D01*
X57047619Y-110742857D01*
X57190476Y-110838095D01*
X57380952Y-110885714D01*
X57761905Y-110885714D01*
X57857143Y-110838095D01*
X57904762Y-110790476D01*
X57952381Y-110695238D01*
X57952381Y-110504761D01*
X57904762Y-110409523D01*
X57857143Y-110361904D01*
X57761905Y-110314285D01*
X57523810Y-110314285D01*
X57428571Y-110361904D01*
X57380952Y-110409523D01*
X57333333Y-110504761D01*
X57333333Y-110695238D01*
X57380952Y-110790476D01*
X57428571Y-110838095D01*
X57523810Y-110885714D01*
X56457143Y-97707143D02*
X56409524Y-97754762D01*
X56266667Y-97802381D01*
X56171429Y-97802381D01*
X56028571Y-97754762D01*
X55933333Y-97659524D01*
X55885714Y-97564286D01*
X55838095Y-97373810D01*
X55838095Y-97230952D01*
X55885714Y-97040476D01*
X55933333Y-96945238D01*
X56028571Y-96850000D01*
X56171429Y-96802381D01*
X56266667Y-96802381D01*
X56409524Y-96850000D01*
X56457143Y-96897619D01*
X57314286Y-97135714D02*
X57314286Y-97802381D01*
X57076190Y-96754762D02*
X56838095Y-97469048D01*
X57457143Y-97469048D01*
X57885714Y-97802381D02*
X58076190Y-97802381D01*
X58171429Y-97754762D01*
X58219048Y-97707143D01*
X58314286Y-97564286D01*
X58361905Y-97373810D01*
X58361905Y-96992857D01*
X58314286Y-96897619D01*
X58266667Y-96850000D01*
X58171429Y-96802381D01*
X57980952Y-96802381D01*
X57885714Y-96850000D01*
X57838095Y-96897619D01*
X57790476Y-96992857D01*
X57790476Y-97230952D01*
X57838095Y-97326190D01*
X57885714Y-97373810D01*
X57980952Y-97421429D01*
X58171429Y-97421429D01*
X58266667Y-97373810D01*
X58314286Y-97326190D01*
X58361905Y-97230952D01*
X49099048Y-99331429D02*
X49860953Y-99331429D01*
X49480001Y-99712381D02*
X49480001Y-98950476D01*
X52657143Y-93957143D02*
X52609524Y-94004762D01*
X52466667Y-94052381D01*
X52371429Y-94052381D01*
X52228571Y-94004762D01*
X52133333Y-93909524D01*
X52085714Y-93814286D01*
X52038095Y-93623810D01*
X52038095Y-93480952D01*
X52085714Y-93290476D01*
X52133333Y-93195238D01*
X52228571Y-93100000D01*
X52371429Y-93052381D01*
X52466667Y-93052381D01*
X52609524Y-93100000D01*
X52657143Y-93147619D01*
X53561905Y-93052381D02*
X53085714Y-93052381D01*
X53038095Y-93528571D01*
X53085714Y-93480952D01*
X53180952Y-93433333D01*
X53419048Y-93433333D01*
X53514286Y-93480952D01*
X53561905Y-93528571D01*
X53609524Y-93623810D01*
X53609524Y-93861905D01*
X53561905Y-93957143D01*
X53514286Y-94004762D01*
X53419048Y-94052381D01*
X53180952Y-94052381D01*
X53085714Y-94004762D01*
X53038095Y-93957143D01*
X53990476Y-93147619D02*
X54038095Y-93100000D01*
X54133333Y-93052381D01*
X54371429Y-93052381D01*
X54466667Y-93100000D01*
X54514286Y-93147619D01*
X54561905Y-93242857D01*
X54561905Y-93338095D01*
X54514286Y-93480952D01*
X53942857Y-94052381D01*
X54561905Y-94052381D01*
X53049048Y-91281429D02*
X53810953Y-91281429D01*
X53430001Y-91662381D02*
X53430001Y-90900476D01*
X51807143Y-103757143D02*
X51759524Y-103804762D01*
X51616667Y-103852381D01*
X51521429Y-103852381D01*
X51378571Y-103804762D01*
X51283333Y-103709524D01*
X51235714Y-103614286D01*
X51188095Y-103423810D01*
X51188095Y-103280952D01*
X51235714Y-103090476D01*
X51283333Y-102995238D01*
X51378571Y-102900000D01*
X51521429Y-102852381D01*
X51616667Y-102852381D01*
X51759524Y-102900000D01*
X51807143Y-102947619D01*
X52711905Y-102852381D02*
X52235714Y-102852381D01*
X52188095Y-103328571D01*
X52235714Y-103280952D01*
X52330952Y-103233333D01*
X52569048Y-103233333D01*
X52664286Y-103280952D01*
X52711905Y-103328571D01*
X52759524Y-103423810D01*
X52759524Y-103661905D01*
X52711905Y-103757143D01*
X52664286Y-103804762D01*
X52569048Y-103852381D01*
X52330952Y-103852381D01*
X52235714Y-103804762D01*
X52188095Y-103757143D01*
X53664286Y-102852381D02*
X53188095Y-102852381D01*
X53140476Y-103328571D01*
X53188095Y-103280952D01*
X53283333Y-103233333D01*
X53521429Y-103233333D01*
X53616667Y-103280952D01*
X53664286Y-103328571D01*
X53711905Y-103423810D01*
X53711905Y-103661905D01*
X53664286Y-103757143D01*
X53616667Y-103804762D01*
X53521429Y-103852381D01*
X53283333Y-103852381D01*
X53188095Y-103804762D01*
X53140476Y-103757143D01*
X44599048Y-105331429D02*
X45360953Y-105331429D01*
X44980001Y-105712381D02*
X44980001Y-104950476D01*
X49707143Y-68507143D02*
X49659524Y-68554762D01*
X49516667Y-68602381D01*
X49421429Y-68602381D01*
X49278571Y-68554762D01*
X49183333Y-68459524D01*
X49135714Y-68364286D01*
X49088095Y-68173810D01*
X49088095Y-68030952D01*
X49135714Y-67840476D01*
X49183333Y-67745238D01*
X49278571Y-67650000D01*
X49421429Y-67602381D01*
X49516667Y-67602381D01*
X49659524Y-67650000D01*
X49707143Y-67697619D01*
X50611905Y-67602381D02*
X50135714Y-67602381D01*
X50088095Y-68078571D01*
X50135714Y-68030952D01*
X50230952Y-67983333D01*
X50469048Y-67983333D01*
X50564286Y-68030952D01*
X50611905Y-68078571D01*
X50659524Y-68173810D01*
X50659524Y-68411905D01*
X50611905Y-68507143D01*
X50564286Y-68554762D01*
X50469048Y-68602381D01*
X50230952Y-68602381D01*
X50135714Y-68554762D01*
X50088095Y-68507143D01*
X51135714Y-68602381D02*
X51326190Y-68602381D01*
X51421429Y-68554762D01*
X51469048Y-68507143D01*
X51564286Y-68364286D01*
X51611905Y-68173810D01*
X51611905Y-67792857D01*
X51564286Y-67697619D01*
X51516667Y-67650000D01*
X51421429Y-67602381D01*
X51230952Y-67602381D01*
X51135714Y-67650000D01*
X51088095Y-67697619D01*
X51040476Y-67792857D01*
X51040476Y-68030952D01*
X51088095Y-68126190D01*
X51135714Y-68173810D01*
X51230952Y-68221429D01*
X51421429Y-68221429D01*
X51516667Y-68173810D01*
X51564286Y-68126190D01*
X51611905Y-68030952D01*
X57257143Y-65207143D02*
X57209524Y-65254762D01*
X57066667Y-65302381D01*
X56971429Y-65302381D01*
X56828571Y-65254762D01*
X56733333Y-65159524D01*
X56685714Y-65064286D01*
X56638095Y-64873810D01*
X56638095Y-64730952D01*
X56685714Y-64540476D01*
X56733333Y-64445238D01*
X56828571Y-64350000D01*
X56971429Y-64302381D01*
X57066667Y-64302381D01*
X57209524Y-64350000D01*
X57257143Y-64397619D01*
X58114286Y-64302381D02*
X57923809Y-64302381D01*
X57828571Y-64350000D01*
X57780952Y-64397619D01*
X57685714Y-64540476D01*
X57638095Y-64730952D01*
X57638095Y-65111905D01*
X57685714Y-65207143D01*
X57733333Y-65254762D01*
X57828571Y-65302381D01*
X58019048Y-65302381D01*
X58114286Y-65254762D01*
X58161905Y-65207143D01*
X58209524Y-65111905D01*
X58209524Y-64873810D01*
X58161905Y-64778571D01*
X58114286Y-64730952D01*
X58019048Y-64683333D01*
X57828571Y-64683333D01*
X57733333Y-64730952D01*
X57685714Y-64778571D01*
X57638095Y-64873810D01*
X58828571Y-64302381D02*
X58923810Y-64302381D01*
X59019048Y-64350000D01*
X59066667Y-64397619D01*
X59114286Y-64492857D01*
X59161905Y-64683333D01*
X59161905Y-64921429D01*
X59114286Y-65111905D01*
X59066667Y-65207143D01*
X59019048Y-65254762D01*
X58923810Y-65302381D01*
X58828571Y-65302381D01*
X58733333Y-65254762D01*
X58685714Y-65207143D01*
X58638095Y-65111905D01*
X58590476Y-64921429D01*
X58590476Y-64683333D01*
X58638095Y-64492857D01*
X58685714Y-64397619D01*
X58733333Y-64350000D01*
X58828571Y-64302381D01*
X49999048Y-66781429D02*
X50760953Y-66781429D01*
X50380001Y-67162381D02*
X50380001Y-66400476D01*
X39557143Y-69357143D02*
X39509524Y-69404762D01*
X39366667Y-69452381D01*
X39271429Y-69452381D01*
X39128571Y-69404762D01*
X39033333Y-69309524D01*
X38985714Y-69214286D01*
X38938095Y-69023810D01*
X38938095Y-68880952D01*
X38985714Y-68690476D01*
X39033333Y-68595238D01*
X39128571Y-68500000D01*
X39271429Y-68452381D01*
X39366667Y-68452381D01*
X39509524Y-68500000D01*
X39557143Y-68547619D01*
X40414286Y-68452381D02*
X40223809Y-68452381D01*
X40128571Y-68500000D01*
X40080952Y-68547619D01*
X39985714Y-68690476D01*
X39938095Y-68880952D01*
X39938095Y-69261905D01*
X39985714Y-69357143D01*
X40033333Y-69404762D01*
X40128571Y-69452381D01*
X40319048Y-69452381D01*
X40414286Y-69404762D01*
X40461905Y-69357143D01*
X40509524Y-69261905D01*
X40509524Y-69023810D01*
X40461905Y-68928571D01*
X40414286Y-68880952D01*
X40319048Y-68833333D01*
X40128571Y-68833333D01*
X40033333Y-68880952D01*
X39985714Y-68928571D01*
X39938095Y-69023810D01*
X41461905Y-69452381D02*
X40890476Y-69452381D01*
X41176190Y-69452381D02*
X41176190Y-68452381D01*
X41080952Y-68595238D01*
X40985714Y-68690476D01*
X40890476Y-68738095D01*
X39157143Y-86347143D02*
X39109524Y-86394762D01*
X38966667Y-86442381D01*
X38871429Y-86442381D01*
X38728571Y-86394762D01*
X38633333Y-86299524D01*
X38585714Y-86204286D01*
X38538095Y-86013810D01*
X38538095Y-85870952D01*
X38585714Y-85680476D01*
X38633333Y-85585238D01*
X38728571Y-85490000D01*
X38871429Y-85442381D01*
X38966667Y-85442381D01*
X39109524Y-85490000D01*
X39157143Y-85537619D01*
X40014286Y-85442381D02*
X39823809Y-85442381D01*
X39728571Y-85490000D01*
X39680952Y-85537619D01*
X39585714Y-85680476D01*
X39538095Y-85870952D01*
X39538095Y-86251905D01*
X39585714Y-86347143D01*
X39633333Y-86394762D01*
X39728571Y-86442381D01*
X39919048Y-86442381D01*
X40014286Y-86394762D01*
X40061905Y-86347143D01*
X40109524Y-86251905D01*
X40109524Y-86013810D01*
X40061905Y-85918571D01*
X40014286Y-85870952D01*
X39919048Y-85823333D01*
X39728571Y-85823333D01*
X39633333Y-85870952D01*
X39585714Y-85918571D01*
X39538095Y-86013810D01*
X40442857Y-85442381D02*
X41061905Y-85442381D01*
X40728571Y-85823333D01*
X40871429Y-85823333D01*
X40966667Y-85870952D01*
X41014286Y-85918571D01*
X41061905Y-86013810D01*
X41061905Y-86251905D01*
X41014286Y-86347143D01*
X40966667Y-86394762D01*
X40871429Y-86442381D01*
X40585714Y-86442381D01*
X40490476Y-86394762D01*
X40442857Y-86347143D01*
X36649048Y-84531429D02*
X37410953Y-84531429D01*
X37030001Y-84912381D02*
X37030001Y-84150476D01*
X56352381Y-56442857D02*
X55876190Y-56776191D01*
X56352381Y-57014286D02*
X55352381Y-57014286D01*
X55352381Y-56633333D01*
X55400000Y-56538095D01*
X55447619Y-56490476D01*
X55542857Y-56442857D01*
X55685714Y-56442857D01*
X55780952Y-56490476D01*
X55828571Y-56538095D01*
X55876190Y-56633333D01*
X55876190Y-57014286D01*
X55352381Y-55538095D02*
X55352381Y-56014286D01*
X55828571Y-56061905D01*
X55780952Y-56014286D01*
X55733333Y-55919048D01*
X55733333Y-55680952D01*
X55780952Y-55585714D01*
X55828571Y-55538095D01*
X55923810Y-55490476D01*
X56161905Y-55490476D01*
X56257143Y-55538095D01*
X56304762Y-55585714D01*
X56352381Y-55680952D01*
X56352381Y-55919048D01*
X56304762Y-56014286D01*
X56257143Y-56061905D01*
X56352381Y-54538095D02*
X56352381Y-55109524D01*
X56352381Y-54823810D02*
X55352381Y-54823810D01*
X55495238Y-54919048D01*
X55590476Y-55014286D01*
X55638095Y-55109524D01*
X62452381Y-56542857D02*
X61976190Y-56876191D01*
X62452381Y-57114286D02*
X61452381Y-57114286D01*
X61452381Y-56733333D01*
X61500000Y-56638095D01*
X61547619Y-56590476D01*
X61642857Y-56542857D01*
X61785714Y-56542857D01*
X61880952Y-56590476D01*
X61928571Y-56638095D01*
X61976190Y-56733333D01*
X61976190Y-57114286D01*
X61452381Y-55638095D02*
X61452381Y-56114286D01*
X61928571Y-56161905D01*
X61880952Y-56114286D01*
X61833333Y-56019048D01*
X61833333Y-55780952D01*
X61880952Y-55685714D01*
X61928571Y-55638095D01*
X62023810Y-55590476D01*
X62261905Y-55590476D01*
X62357143Y-55638095D01*
X62404762Y-55685714D01*
X62452381Y-55780952D01*
X62452381Y-56019048D01*
X62404762Y-56114286D01*
X62357143Y-56161905D01*
X61547619Y-55209524D02*
X61500000Y-55161905D01*
X61452381Y-55066667D01*
X61452381Y-54828571D01*
X61500000Y-54733333D01*
X61547619Y-54685714D01*
X61642857Y-54638095D01*
X61738095Y-54638095D01*
X61880952Y-54685714D01*
X62452381Y-55257143D01*
X62452381Y-54638095D01*
X45452381Y-56442857D02*
X44976190Y-56776191D01*
X45452381Y-57014286D02*
X44452381Y-57014286D01*
X44452381Y-56633333D01*
X44500000Y-56538095D01*
X44547619Y-56490476D01*
X44642857Y-56442857D01*
X44785714Y-56442857D01*
X44880952Y-56490476D01*
X44928571Y-56538095D01*
X44976190Y-56633333D01*
X44976190Y-57014286D01*
X44452381Y-55538095D02*
X44452381Y-56014286D01*
X44928571Y-56061905D01*
X44880952Y-56014286D01*
X44833333Y-55919048D01*
X44833333Y-55680952D01*
X44880952Y-55585714D01*
X44928571Y-55538095D01*
X45023810Y-55490476D01*
X45261905Y-55490476D01*
X45357143Y-55538095D01*
X45404762Y-55585714D01*
X45452381Y-55680952D01*
X45452381Y-55919048D01*
X45404762Y-56014286D01*
X45357143Y-56061905D01*
X44452381Y-55157143D02*
X44452381Y-54538095D01*
X44833333Y-54871429D01*
X44833333Y-54728571D01*
X44880952Y-54633333D01*
X44928571Y-54585714D01*
X45023810Y-54538095D01*
X45261905Y-54538095D01*
X45357143Y-54585714D01*
X45404762Y-54633333D01*
X45452381Y-54728571D01*
X45452381Y-55014286D01*
X45404762Y-55109524D01*
X45357143Y-55157143D01*
X34452381Y-56442857D02*
X33976190Y-56776191D01*
X34452381Y-57014286D02*
X33452381Y-57014286D01*
X33452381Y-56633333D01*
X33500000Y-56538095D01*
X33547619Y-56490476D01*
X33642857Y-56442857D01*
X33785714Y-56442857D01*
X33880952Y-56490476D01*
X33928571Y-56538095D01*
X33976190Y-56633333D01*
X33976190Y-57014286D01*
X33452381Y-55538095D02*
X33452381Y-56014286D01*
X33928571Y-56061905D01*
X33880952Y-56014286D01*
X33833333Y-55919048D01*
X33833333Y-55680952D01*
X33880952Y-55585714D01*
X33928571Y-55538095D01*
X34023810Y-55490476D01*
X34261905Y-55490476D01*
X34357143Y-55538095D01*
X34404762Y-55585714D01*
X34452381Y-55680952D01*
X34452381Y-55919048D01*
X34404762Y-56014286D01*
X34357143Y-56061905D01*
X33452381Y-54585714D02*
X33452381Y-55061905D01*
X33928571Y-55109524D01*
X33880952Y-55061905D01*
X33833333Y-54966667D01*
X33833333Y-54728571D01*
X33880952Y-54633333D01*
X33928571Y-54585714D01*
X34023810Y-54538095D01*
X34261905Y-54538095D01*
X34357143Y-54585714D01*
X34404762Y-54633333D01*
X34452381Y-54728571D01*
X34452381Y-54966667D01*
X34404762Y-55061905D01*
X34357143Y-55109524D01*
X66852381Y-64542857D02*
X66376190Y-64876191D01*
X66852381Y-65114286D02*
X65852381Y-65114286D01*
X65852381Y-64733333D01*
X65900000Y-64638095D01*
X65947619Y-64590476D01*
X66042857Y-64542857D01*
X66185714Y-64542857D01*
X66280952Y-64590476D01*
X66328571Y-64638095D01*
X66376190Y-64733333D01*
X66376190Y-65114286D01*
X65852381Y-63638095D02*
X65852381Y-64114286D01*
X66328571Y-64161905D01*
X66280952Y-64114286D01*
X66233333Y-64019048D01*
X66233333Y-63780952D01*
X66280952Y-63685714D01*
X66328571Y-63638095D01*
X66423810Y-63590476D01*
X66661905Y-63590476D01*
X66757143Y-63638095D01*
X66804762Y-63685714D01*
X66852381Y-63780952D01*
X66852381Y-64019048D01*
X66804762Y-64114286D01*
X66757143Y-64161905D01*
X65852381Y-63257143D02*
X65852381Y-62590476D01*
X66852381Y-63019048D01*
X68757143Y-66902381D02*
X68423809Y-66426190D01*
X68185714Y-66902381D02*
X68185714Y-65902381D01*
X68566667Y-65902381D01*
X68661905Y-65950000D01*
X68709524Y-65997619D01*
X68757143Y-66092857D01*
X68757143Y-66235714D01*
X68709524Y-66330952D01*
X68661905Y-66378571D01*
X68566667Y-66426190D01*
X68185714Y-66426190D01*
X69661905Y-65902381D02*
X69185714Y-65902381D01*
X69138095Y-66378571D01*
X69185714Y-66330952D01*
X69280952Y-66283333D01*
X69519048Y-66283333D01*
X69614286Y-66330952D01*
X69661905Y-66378571D01*
X69709524Y-66473810D01*
X69709524Y-66711905D01*
X69661905Y-66807143D01*
X69614286Y-66854762D01*
X69519048Y-66902381D01*
X69280952Y-66902381D01*
X69185714Y-66854762D01*
X69138095Y-66807143D01*
X70280952Y-66330952D02*
X70185714Y-66283333D01*
X70138095Y-66235714D01*
X70090476Y-66140476D01*
X70090476Y-66092857D01*
X70138095Y-65997619D01*
X70185714Y-65950000D01*
X70280952Y-65902381D01*
X70471429Y-65902381D01*
X70566667Y-65950000D01*
X70614286Y-65997619D01*
X70661905Y-66092857D01*
X70661905Y-66140476D01*
X70614286Y-66235714D01*
X70566667Y-66283333D01*
X70471429Y-66330952D01*
X70280952Y-66330952D01*
X70185714Y-66378571D01*
X70138095Y-66426190D01*
X70090476Y-66521429D01*
X70090476Y-66711905D01*
X70138095Y-66807143D01*
X70185714Y-66854762D01*
X70280952Y-66902381D01*
X70471429Y-66902381D01*
X70566667Y-66854762D01*
X70614286Y-66807143D01*
X70661905Y-66711905D01*
X70661905Y-66521429D01*
X70614286Y-66426190D01*
X70566667Y-66378571D01*
X70471429Y-66330952D01*
X74757143Y-117842857D02*
X74804762Y-117890476D01*
X74852381Y-118033333D01*
X74852381Y-118128571D01*
X74804762Y-118271429D01*
X74709524Y-118366667D01*
X74614286Y-118414286D01*
X74423810Y-118461905D01*
X74280952Y-118461905D01*
X74090476Y-118414286D01*
X73995238Y-118366667D01*
X73900000Y-118271429D01*
X73852381Y-118128571D01*
X73852381Y-118033333D01*
X73900000Y-117890476D01*
X73947619Y-117842857D01*
X73852381Y-116985714D02*
X73852381Y-117176191D01*
X73900000Y-117271429D01*
X73947619Y-117319048D01*
X74090476Y-117414286D01*
X74280952Y-117461905D01*
X74661905Y-117461905D01*
X74757143Y-117414286D01*
X74804762Y-117366667D01*
X74852381Y-117271429D01*
X74852381Y-117080952D01*
X74804762Y-116985714D01*
X74757143Y-116938095D01*
X74661905Y-116890476D01*
X74423810Y-116890476D01*
X74328571Y-116938095D01*
X74280952Y-116985714D01*
X74233333Y-117080952D01*
X74233333Y-117271429D01*
X74280952Y-117366667D01*
X74328571Y-117414286D01*
X74423810Y-117461905D01*
X73852381Y-115985714D02*
X73852381Y-116461905D01*
X74328571Y-116509524D01*
X74280952Y-116461905D01*
X74233333Y-116366667D01*
X74233333Y-116128571D01*
X74280952Y-116033333D01*
X74328571Y-115985714D01*
X74423810Y-115938095D01*
X74661905Y-115938095D01*
X74757143Y-115985714D01*
X74804762Y-116033333D01*
X74852381Y-116128571D01*
X74852381Y-116366667D01*
X74804762Y-116461905D01*
X74757143Y-116509524D01*
X68757143Y-117942857D02*
X68804762Y-117990476D01*
X68852381Y-118133333D01*
X68852381Y-118228571D01*
X68804762Y-118371429D01*
X68709524Y-118466667D01*
X68614286Y-118514286D01*
X68423810Y-118561905D01*
X68280952Y-118561905D01*
X68090476Y-118514286D01*
X67995238Y-118466667D01*
X67900000Y-118371429D01*
X67852381Y-118228571D01*
X67852381Y-118133333D01*
X67900000Y-117990476D01*
X67947619Y-117942857D01*
X67852381Y-117085714D02*
X67852381Y-117276191D01*
X67900000Y-117371429D01*
X67947619Y-117419048D01*
X68090476Y-117514286D01*
X68280952Y-117561905D01*
X68661905Y-117561905D01*
X68757143Y-117514286D01*
X68804762Y-117466667D01*
X68852381Y-117371429D01*
X68852381Y-117180952D01*
X68804762Y-117085714D01*
X68757143Y-117038095D01*
X68661905Y-116990476D01*
X68423810Y-116990476D01*
X68328571Y-117038095D01*
X68280952Y-117085714D01*
X68233333Y-117180952D01*
X68233333Y-117371429D01*
X68280952Y-117466667D01*
X68328571Y-117514286D01*
X68423810Y-117561905D01*
X67852381Y-116133333D02*
X67852381Y-116323810D01*
X67900000Y-116419048D01*
X67947619Y-116466667D01*
X68090476Y-116561905D01*
X68280952Y-116609524D01*
X68661905Y-116609524D01*
X68757143Y-116561905D01*
X68804762Y-116514286D01*
X68852381Y-116419048D01*
X68852381Y-116228571D01*
X68804762Y-116133333D01*
X68757143Y-116085714D01*
X68661905Y-116038095D01*
X68423810Y-116038095D01*
X68328571Y-116085714D01*
X68280952Y-116133333D01*
X68233333Y-116228571D01*
X68233333Y-116419048D01*
X68280952Y-116514286D01*
X68328571Y-116561905D01*
X68423810Y-116609524D01*
X73452381Y-117842857D02*
X72976190Y-118176191D01*
X73452381Y-118414286D02*
X72452381Y-118414286D01*
X72452381Y-118033333D01*
X72500000Y-117938095D01*
X72547619Y-117890476D01*
X72642857Y-117842857D01*
X72785714Y-117842857D01*
X72880952Y-117890476D01*
X72928571Y-117938095D01*
X72976190Y-118033333D01*
X72976190Y-118414286D01*
X72452381Y-116985714D02*
X72452381Y-117176191D01*
X72500000Y-117271429D01*
X72547619Y-117319048D01*
X72690476Y-117414286D01*
X72880952Y-117461905D01*
X73261905Y-117461905D01*
X73357143Y-117414286D01*
X73404762Y-117366667D01*
X73452381Y-117271429D01*
X73452381Y-117080952D01*
X73404762Y-116985714D01*
X73357143Y-116938095D01*
X73261905Y-116890476D01*
X73023810Y-116890476D01*
X72928571Y-116938095D01*
X72880952Y-116985714D01*
X72833333Y-117080952D01*
X72833333Y-117271429D01*
X72880952Y-117366667D01*
X72928571Y-117414286D01*
X73023810Y-117461905D01*
X73452381Y-115938095D02*
X73452381Y-116509524D01*
X73452381Y-116223810D02*
X72452381Y-116223810D01*
X72595238Y-116319048D01*
X72690476Y-116414286D01*
X72738095Y-116509524D01*
X71652381Y-117842857D02*
X71176190Y-118176191D01*
X71652381Y-118414286D02*
X70652381Y-118414286D01*
X70652381Y-118033333D01*
X70700000Y-117938095D01*
X70747619Y-117890476D01*
X70842857Y-117842857D01*
X70985714Y-117842857D01*
X71080952Y-117890476D01*
X71128571Y-117938095D01*
X71176190Y-118033333D01*
X71176190Y-118414286D01*
X70652381Y-116985714D02*
X70652381Y-117176191D01*
X70700000Y-117271429D01*
X70747619Y-117319048D01*
X70890476Y-117414286D01*
X71080952Y-117461905D01*
X71461905Y-117461905D01*
X71557143Y-117414286D01*
X71604762Y-117366667D01*
X71652381Y-117271429D01*
X71652381Y-117080952D01*
X71604762Y-116985714D01*
X71557143Y-116938095D01*
X71461905Y-116890476D01*
X71223810Y-116890476D01*
X71128571Y-116938095D01*
X71080952Y-116985714D01*
X71033333Y-117080952D01*
X71033333Y-117271429D01*
X71080952Y-117366667D01*
X71128571Y-117414286D01*
X71223810Y-117461905D01*
X70747619Y-116509524D02*
X70700000Y-116461905D01*
X70652381Y-116366667D01*
X70652381Y-116128571D01*
X70700000Y-116033333D01*
X70747619Y-115985714D01*
X70842857Y-115938095D01*
X70938095Y-115938095D01*
X71080952Y-115985714D01*
X71652381Y-116557143D01*
X71652381Y-115938095D01*
X70252381Y-117842857D02*
X69776190Y-118176191D01*
X70252381Y-118414286D02*
X69252381Y-118414286D01*
X69252381Y-118033333D01*
X69300000Y-117938095D01*
X69347619Y-117890476D01*
X69442857Y-117842857D01*
X69585714Y-117842857D01*
X69680952Y-117890476D01*
X69728571Y-117938095D01*
X69776190Y-118033333D01*
X69776190Y-118414286D01*
X69252381Y-116985714D02*
X69252381Y-117176191D01*
X69300000Y-117271429D01*
X69347619Y-117319048D01*
X69490476Y-117414286D01*
X69680952Y-117461905D01*
X70061905Y-117461905D01*
X70157143Y-117414286D01*
X70204762Y-117366667D01*
X70252381Y-117271429D01*
X70252381Y-117080952D01*
X70204762Y-116985714D01*
X70157143Y-116938095D01*
X70061905Y-116890476D01*
X69823810Y-116890476D01*
X69728571Y-116938095D01*
X69680952Y-116985714D01*
X69633333Y-117080952D01*
X69633333Y-117271429D01*
X69680952Y-117366667D01*
X69728571Y-117414286D01*
X69823810Y-117461905D01*
X69252381Y-116557143D02*
X69252381Y-115938095D01*
X69633333Y-116271429D01*
X69633333Y-116128571D01*
X69680952Y-116033333D01*
X69728571Y-115985714D01*
X69823810Y-115938095D01*
X70061905Y-115938095D01*
X70157143Y-115985714D01*
X70204762Y-116033333D01*
X70252381Y-116128571D01*
X70252381Y-116414286D01*
X70204762Y-116509524D01*
X70157143Y-116557143D01*
X76357143Y-66952381D02*
X76023809Y-66476190D01*
X75785714Y-66952381D02*
X75785714Y-65952381D01*
X76166667Y-65952381D01*
X76261905Y-66000000D01*
X76309524Y-66047619D01*
X76357143Y-66142857D01*
X76357143Y-66285714D01*
X76309524Y-66380952D01*
X76261905Y-66428571D01*
X76166667Y-66476190D01*
X75785714Y-66476190D01*
X77261905Y-65952381D02*
X76785714Y-65952381D01*
X76738095Y-66428571D01*
X76785714Y-66380952D01*
X76880952Y-66333333D01*
X77119048Y-66333333D01*
X77214286Y-66380952D01*
X77261905Y-66428571D01*
X77309524Y-66523810D01*
X77309524Y-66761905D01*
X77261905Y-66857143D01*
X77214286Y-66904762D01*
X77119048Y-66952381D01*
X76880952Y-66952381D01*
X76785714Y-66904762D01*
X76738095Y-66857143D01*
X77785714Y-66952381D02*
X77976190Y-66952381D01*
X78071429Y-66904762D01*
X78119048Y-66857143D01*
X78214286Y-66714286D01*
X78261905Y-66523810D01*
X78261905Y-66142857D01*
X78214286Y-66047619D01*
X78166667Y-66000000D01*
X78071429Y-65952381D01*
X77880952Y-65952381D01*
X77785714Y-66000000D01*
X77738095Y-66047619D01*
X77690476Y-66142857D01*
X77690476Y-66380952D01*
X77738095Y-66476190D01*
X77785714Y-66523810D01*
X77880952Y-66571429D01*
X78071429Y-66571429D01*
X78166667Y-66523810D01*
X78214286Y-66476190D01*
X78261905Y-66380952D01*
X76761905Y-71552381D02*
X76761905Y-70552381D01*
X77000000Y-70552381D01*
X77142858Y-70600000D01*
X77238096Y-70695238D01*
X77285715Y-70790476D01*
X77333334Y-70980952D01*
X77333334Y-71123810D01*
X77285715Y-71314286D01*
X77238096Y-71409524D01*
X77142858Y-71504762D01*
X77000000Y-71552381D01*
X76761905Y-71552381D01*
X77714286Y-70647619D02*
X77761905Y-70600000D01*
X77857143Y-70552381D01*
X78095239Y-70552381D01*
X78190477Y-70600000D01*
X78238096Y-70647619D01*
X78285715Y-70742857D01*
X78285715Y-70838095D01*
X78238096Y-70980952D01*
X77666667Y-71552381D01*
X78285715Y-71552381D01*
X73054762Y-66847619D02*
X72959524Y-66800000D01*
X72864286Y-66704762D01*
X72721429Y-66561905D01*
X72626190Y-66514286D01*
X72530952Y-66514286D01*
X72578571Y-66752381D02*
X72483333Y-66704762D01*
X72388095Y-66609524D01*
X72340476Y-66419048D01*
X72340476Y-66085714D01*
X72388095Y-65895238D01*
X72483333Y-65800000D01*
X72578571Y-65752381D01*
X72769048Y-65752381D01*
X72864286Y-65800000D01*
X72959524Y-65895238D01*
X73007143Y-66085714D01*
X73007143Y-66419048D01*
X72959524Y-66609524D01*
X72864286Y-66704762D01*
X72769048Y-66752381D01*
X72578571Y-66752381D01*
X73959524Y-66752381D02*
X73388095Y-66752381D01*
X73673809Y-66752381D02*
X73673809Y-65752381D01*
X73578571Y-65895238D01*
X73483333Y-65990476D01*
X73388095Y-66038095D01*
X71683334Y-65152381D02*
X71350000Y-64676190D01*
X71111905Y-65152381D02*
X71111905Y-64152381D01*
X71492858Y-64152381D01*
X71588096Y-64200000D01*
X71635715Y-64247619D01*
X71683334Y-64342857D01*
X71683334Y-64485714D01*
X71635715Y-64580952D01*
X71588096Y-64628571D01*
X71492858Y-64676190D01*
X71111905Y-64676190D01*
X72635715Y-65152381D02*
X72064286Y-65152381D01*
X72350000Y-65152381D02*
X72350000Y-64152381D01*
X72254762Y-64295238D01*
X72159524Y-64390476D01*
X72064286Y-64438095D01*
X65357143Y-64542857D02*
X65404762Y-64590476D01*
X65452381Y-64733333D01*
X65452381Y-64828571D01*
X65404762Y-64971429D01*
X65309524Y-65066667D01*
X65214286Y-65114286D01*
X65023810Y-65161905D01*
X64880952Y-65161905D01*
X64690476Y-65114286D01*
X64595238Y-65066667D01*
X64500000Y-64971429D01*
X64452381Y-64828571D01*
X64452381Y-64733333D01*
X64500000Y-64590476D01*
X64547619Y-64542857D01*
X64452381Y-63685714D02*
X64452381Y-63876191D01*
X64500000Y-63971429D01*
X64547619Y-64019048D01*
X64690476Y-64114286D01*
X64880952Y-64161905D01*
X65261905Y-64161905D01*
X65357143Y-64114286D01*
X65404762Y-64066667D01*
X65452381Y-63971429D01*
X65452381Y-63780952D01*
X65404762Y-63685714D01*
X65357143Y-63638095D01*
X65261905Y-63590476D01*
X65023810Y-63590476D01*
X64928571Y-63638095D01*
X64880952Y-63685714D01*
X64833333Y-63780952D01*
X64833333Y-63971429D01*
X64880952Y-64066667D01*
X64928571Y-64114286D01*
X65023810Y-64161905D01*
X64452381Y-63257143D02*
X64452381Y-62590476D01*
X65452381Y-63019048D01*
M02*
