M48
;DRILL file {KiCad 4.0.7} date 09/09/18 14:06:02
;FORMAT={-:-/ absolute / metric / decimal}
FMAT,2
METRIC,TZ
T1C0.400
T2C1.000
%
G90
G05
M71
T1
X29.73Y-83.25
X31.94Y-86.17
X32.Y-46.5
X35.1Y-88.1
X35.4Y-73.1
X35.45Y-115.9
X35.8Y-76.06
X35.9Y-77.4
X36.2Y-79.95
X36.5Y-93.75
X36.5Y-96.25
X36.5Y-97.25
X37.35Y-103.05
X38.1Y-93.7
X39.25Y-103.95
X39.88Y-68.51
X40.1Y-118.85
X40.4Y-93.8
X40.5Y-105.
X42.8Y-92.9
X43.2Y-65.7
X44.1Y-51.6
X44.35Y-67.2
X45.1Y-73.6
X45.65Y-66.55
X46.45Y-73.2
X47.Y-105.
X48.2Y-67.3
X48.55Y-49.05
X48.65Y-59.6
X49.45Y-105.2
X49.6Y-54.7
X49.65Y-74.85
X49.65Y-109.45
X50.2Y-95.5
X50.35Y-60.3
X50.7Y-66.4
X50.9Y-92.4
X52.25Y-60.35
X53.1Y-59.55
X54.55Y-61.6
X57.25Y-92.75
X58.25Y-93.25
X59.65Y-48.8
X60.65Y-55.
X60.9Y-110.7
X63.5Y-97.
X64.8Y-60.5
X65.25Y-108.15
X65.45Y-103.6
X66.2Y-60.4
X66.45Y-68.55
X68.65Y-109.05
X69.25Y-103.75
X70.3Y-69.85
X71.8Y-66.6
X73.1Y-102.7
X73.45Y-87.4
X74.35Y-66.35
X75.65Y-82.4
X82.5Y-58.5
X82.65Y-41.35
T2
X30.71Y-69.24
X30.71Y-71.78
X30.71Y-74.32
X30.71Y-76.86
X30.71Y-79.4
X30.71Y-81.94
X30.71Y-84.48
X30.71Y-87.02
X30.71Y-89.56
X30.71Y-92.1
X30.71Y-94.64
X30.71Y-97.18
X30.71Y-99.72
X30.71Y-102.26
X30.71Y-104.8
X30.71Y-107.34
X30.71Y-109.88
X30.71Y-112.42
X30.71Y-114.96
X30.71Y-117.5
X33.25Y-69.24
X33.25Y-71.78
X33.25Y-74.32
X33.25Y-76.86
X33.25Y-79.4
X33.25Y-81.94
X33.25Y-84.48
X33.25Y-87.02
X33.25Y-89.56
X33.25Y-92.1
X33.25Y-94.64
X33.25Y-97.18
X33.25Y-99.72
X33.25Y-102.26
X33.25Y-104.8
X33.25Y-107.34
X33.25Y-109.88
X33.25Y-112.42
X33.25Y-114.96
X33.25Y-117.5
X71.26Y-124.3
X73.8Y-124.3
T0
M30
