M48
;DRILL file {KiCad 4.0.7} date 09/09/18 14:06:02
;FORMAT={-:-/ absolute / metric / decimal}
FMAT,2
METRIC,TZ
T1C1.000
T2C3.000
%
G90
G05
M71
T1
X36.5Y-40.5
X36.5Y-46.5
X40.5Y-117.
X40.5Y-123.
X47.5Y-40.5
X47.5Y-46.5
X51.5Y-117.
X51.5Y-123.
X58.5Y-40.5
X58.5Y-46.5
X62.5Y-117.
X62.5Y-123.
X69.5Y-40.5
X69.5Y-46.5
X75.5Y-55.5
X75.5Y-76.
X75.5Y-87.
X75.5Y-98.
X75.5Y-109.
X81.5Y-55.5
X81.5Y-76.
X81.5Y-87.
X81.5Y-98.
X81.5Y-109.
T2
X32.Y-64.5
X32.Y-122.5
X81.Y-64.
X81.Y-122.5
T0
M30
