G04 #@! TF.FileFunction,Legend,Bot*
%FSLAX46Y46*%
G04 Gerber Fmt 4.6, Leading zero omitted, Abs format (unit mm)*
G04 Created by KiCad (PCBNEW 4.0.7) date 09/09/18 14:05:58*
%MOMM*%
%LPD*%
G01*
G04 APERTURE LIST*
%ADD10C,0.100000*%
%ADD11C,0.150000*%
%ADD12C,0.200000*%
G04 APERTURE END LIST*
D10*
D11*
X83452381Y-75238095D02*
X82452381Y-75238095D01*
X83452381Y-75666667D02*
X82928571Y-75666667D01*
X82833333Y-75619048D01*
X82785714Y-75523810D01*
X82785714Y-75380952D01*
X82833333Y-75285714D01*
X82880952Y-75238095D01*
X82785714Y-76000000D02*
X82785714Y-76380952D01*
X82452381Y-76142857D02*
X83309524Y-76142857D01*
X83404762Y-76190476D01*
X83452381Y-76285714D01*
X83452381Y-76380952D01*
X82785714Y-76571429D02*
X82785714Y-76952381D01*
X82452381Y-76714286D02*
X83309524Y-76714286D01*
X83404762Y-76761905D01*
X83452381Y-76857143D01*
X83452381Y-76952381D01*
X82785714Y-77285715D02*
X83785714Y-77285715D01*
X82833333Y-77285715D02*
X82785714Y-77380953D01*
X82785714Y-77571430D01*
X82833333Y-77666668D01*
X82880952Y-77714287D01*
X82976190Y-77761906D01*
X83261905Y-77761906D01*
X83357143Y-77714287D01*
X83404762Y-77666668D01*
X83452381Y-77571430D01*
X83452381Y-77380953D01*
X83404762Y-77285715D01*
X83404762Y-78142858D02*
X83452381Y-78238096D01*
X83452381Y-78428572D01*
X83404762Y-78523811D01*
X83309524Y-78571430D01*
X83261905Y-78571430D01*
X83166667Y-78523811D01*
X83119048Y-78428572D01*
X83119048Y-78285715D01*
X83071429Y-78190477D01*
X82976190Y-78142858D01*
X82928571Y-78142858D01*
X82833333Y-78190477D01*
X82785714Y-78285715D01*
X82785714Y-78428572D01*
X82833333Y-78523811D01*
X83357143Y-79000001D02*
X83404762Y-79047620D01*
X83452381Y-79000001D01*
X83404762Y-78952382D01*
X83357143Y-79000001D01*
X83452381Y-79000001D01*
X82833333Y-79000001D02*
X82880952Y-79047620D01*
X82928571Y-79000001D01*
X82880952Y-78952382D01*
X82833333Y-79000001D01*
X82928571Y-79000001D01*
X82404762Y-80190477D02*
X83690476Y-79333334D01*
X82404762Y-81238096D02*
X83690476Y-80380953D01*
X82785714Y-82000001D02*
X83595238Y-82000001D01*
X83690476Y-81952382D01*
X83738095Y-81904763D01*
X83785714Y-81809524D01*
X83785714Y-81666667D01*
X83738095Y-81571429D01*
X83404762Y-82000001D02*
X83452381Y-81904763D01*
X83452381Y-81714286D01*
X83404762Y-81619048D01*
X83357143Y-81571429D01*
X83261905Y-81523810D01*
X82976190Y-81523810D01*
X82880952Y-81571429D01*
X82833333Y-81619048D01*
X82785714Y-81714286D01*
X82785714Y-81904763D01*
X82833333Y-82000001D01*
X83452381Y-82476191D02*
X82785714Y-82476191D01*
X82452381Y-82476191D02*
X82500000Y-82428572D01*
X82547619Y-82476191D01*
X82500000Y-82523810D01*
X82452381Y-82476191D01*
X82547619Y-82476191D01*
X82785714Y-82809524D02*
X82785714Y-83190476D01*
X82452381Y-82952381D02*
X83309524Y-82952381D01*
X83404762Y-83000000D01*
X83452381Y-83095238D01*
X83452381Y-83190476D01*
X83452381Y-83523810D02*
X82452381Y-83523810D01*
X83452381Y-83952382D02*
X82928571Y-83952382D01*
X82833333Y-83904763D01*
X82785714Y-83809525D01*
X82785714Y-83666667D01*
X82833333Y-83571429D01*
X82880952Y-83523810D01*
X82785714Y-84857144D02*
X83452381Y-84857144D01*
X82785714Y-84428572D02*
X83309524Y-84428572D01*
X83404762Y-84476191D01*
X83452381Y-84571429D01*
X83452381Y-84714287D01*
X83404762Y-84809525D01*
X83357143Y-84857144D01*
X83452381Y-85333334D02*
X82452381Y-85333334D01*
X82833333Y-85333334D02*
X82785714Y-85428572D01*
X82785714Y-85619049D01*
X82833333Y-85714287D01*
X82880952Y-85761906D01*
X82976190Y-85809525D01*
X83261905Y-85809525D01*
X83357143Y-85761906D01*
X83404762Y-85714287D01*
X83452381Y-85619049D01*
X83452381Y-85428572D01*
X83404762Y-85333334D01*
X83357143Y-86238096D02*
X83404762Y-86285715D01*
X83452381Y-86238096D01*
X83404762Y-86190477D01*
X83357143Y-86238096D01*
X83452381Y-86238096D01*
X83404762Y-87142858D02*
X83452381Y-87047620D01*
X83452381Y-86857143D01*
X83404762Y-86761905D01*
X83357143Y-86714286D01*
X83261905Y-86666667D01*
X82976190Y-86666667D01*
X82880952Y-86714286D01*
X82833333Y-86761905D01*
X82785714Y-86857143D01*
X82785714Y-87047620D01*
X82833333Y-87142858D01*
X83452381Y-87714286D02*
X83404762Y-87619048D01*
X83357143Y-87571429D01*
X83261905Y-87523810D01*
X82976190Y-87523810D01*
X82880952Y-87571429D01*
X82833333Y-87619048D01*
X82785714Y-87714286D01*
X82785714Y-87857144D01*
X82833333Y-87952382D01*
X82880952Y-88000001D01*
X82976190Y-88047620D01*
X83261905Y-88047620D01*
X83357143Y-88000001D01*
X83404762Y-87952382D01*
X83452381Y-87857144D01*
X83452381Y-87714286D01*
X83452381Y-88476191D02*
X82785714Y-88476191D01*
X82880952Y-88476191D02*
X82833333Y-88523810D01*
X82785714Y-88619048D01*
X82785714Y-88761906D01*
X82833333Y-88857144D01*
X82928571Y-88904763D01*
X83452381Y-88904763D01*
X82928571Y-88904763D02*
X82833333Y-88952382D01*
X82785714Y-89047620D01*
X82785714Y-89190477D01*
X82833333Y-89285715D01*
X82928571Y-89333334D01*
X83452381Y-89333334D01*
X82404762Y-90523810D02*
X83690476Y-89666667D01*
X83452381Y-90857143D02*
X82452381Y-90857143D01*
X83166667Y-91190477D01*
X82452381Y-91523810D01*
X83452381Y-91523810D01*
X83166667Y-91952381D02*
X83166667Y-92428572D01*
X83452381Y-91857143D02*
X82452381Y-92190476D01*
X83452381Y-92523810D01*
X82452381Y-92761905D02*
X83452381Y-93000000D01*
X82738095Y-93190477D01*
X83452381Y-93380953D01*
X82452381Y-93619048D01*
X83452381Y-94142857D02*
X83404762Y-94047619D01*
X83357143Y-94000000D01*
X83261905Y-93952381D01*
X82976190Y-93952381D01*
X82880952Y-94000000D01*
X82833333Y-94047619D01*
X82785714Y-94142857D01*
X82785714Y-94285715D01*
X82833333Y-94380953D01*
X82880952Y-94428572D01*
X82976190Y-94476191D01*
X83261905Y-94476191D01*
X83357143Y-94428572D01*
X83404762Y-94380953D01*
X83452381Y-94285715D01*
X83452381Y-94142857D01*
X83452381Y-95047619D02*
X83404762Y-94952381D01*
X83357143Y-94904762D01*
X83261905Y-94857143D01*
X82976190Y-94857143D01*
X82880952Y-94904762D01*
X82833333Y-94952381D01*
X82785714Y-95047619D01*
X82785714Y-95190477D01*
X82833333Y-95285715D01*
X82880952Y-95333334D01*
X82976190Y-95380953D01*
X83261905Y-95380953D01*
X83357143Y-95333334D01*
X83404762Y-95285715D01*
X83452381Y-95190477D01*
X83452381Y-95047619D01*
X83452381Y-96238096D02*
X82452381Y-96238096D01*
X83404762Y-96238096D02*
X83452381Y-96142858D01*
X83452381Y-95952381D01*
X83404762Y-95857143D01*
X83357143Y-95809524D01*
X83261905Y-95761905D01*
X82976190Y-95761905D01*
X82880952Y-95809524D01*
X82833333Y-95857143D01*
X82785714Y-95952381D01*
X82785714Y-96142858D01*
X82833333Y-96238096D01*
X83452381Y-96714286D02*
X82452381Y-96714286D01*
X83166667Y-97047620D01*
X82452381Y-97380953D01*
X83452381Y-97380953D01*
X83452381Y-98285715D02*
X82928571Y-98285715D01*
X82833333Y-98238096D01*
X82785714Y-98142858D01*
X82785714Y-97952381D01*
X82833333Y-97857143D01*
X83404762Y-98285715D02*
X83452381Y-98190477D01*
X83452381Y-97952381D01*
X83404762Y-97857143D01*
X83309524Y-97809524D01*
X83214286Y-97809524D01*
X83119048Y-97857143D01*
X83071429Y-97952381D01*
X83071429Y-98190477D01*
X83023810Y-98285715D01*
X83452381Y-98761905D02*
X82785714Y-98761905D01*
X82452381Y-98761905D02*
X82500000Y-98714286D01*
X82547619Y-98761905D01*
X82500000Y-98809524D01*
X82452381Y-98761905D01*
X82547619Y-98761905D01*
X82785714Y-99238095D02*
X83452381Y-99238095D01*
X82880952Y-99238095D02*
X82833333Y-99285714D01*
X82785714Y-99380952D01*
X82785714Y-99523810D01*
X82833333Y-99619048D01*
X82928571Y-99666667D01*
X83452381Y-99666667D01*
X82404762Y-100857143D02*
X83690476Y-100000000D01*
X83357143Y-101761905D02*
X83404762Y-101714286D01*
X83452381Y-101571429D01*
X83452381Y-101476191D01*
X83404762Y-101333333D01*
X83309524Y-101238095D01*
X83214286Y-101190476D01*
X83023810Y-101142857D01*
X82880952Y-101142857D01*
X82690476Y-101190476D01*
X82595238Y-101238095D01*
X82500000Y-101333333D01*
X82452381Y-101476191D01*
X82452381Y-101571429D01*
X82500000Y-101714286D01*
X82547619Y-101761905D01*
X83452381Y-102190476D02*
X82785714Y-102190476D01*
X82452381Y-102190476D02*
X82500000Y-102142857D01*
X82547619Y-102190476D01*
X82500000Y-102238095D01*
X82452381Y-102190476D01*
X82547619Y-102190476D01*
X83452381Y-102666666D02*
X82785714Y-102666666D01*
X82976190Y-102666666D02*
X82880952Y-102714285D01*
X82833333Y-102761904D01*
X82785714Y-102857142D01*
X82785714Y-102952381D01*
X83404762Y-103714286D02*
X83452381Y-103619048D01*
X83452381Y-103428571D01*
X83404762Y-103333333D01*
X83357143Y-103285714D01*
X83261905Y-103238095D01*
X82976190Y-103238095D01*
X82880952Y-103285714D01*
X82833333Y-103333333D01*
X82785714Y-103428571D01*
X82785714Y-103619048D01*
X82833333Y-103714286D01*
X82785714Y-104571429D02*
X83452381Y-104571429D01*
X82785714Y-104142857D02*
X83309524Y-104142857D01*
X83404762Y-104190476D01*
X83452381Y-104285714D01*
X83452381Y-104428572D01*
X83404762Y-104523810D01*
X83357143Y-104571429D01*
X83452381Y-105047619D02*
X82785714Y-105047619D01*
X82452381Y-105047619D02*
X82500000Y-105000000D01*
X82547619Y-105047619D01*
X82500000Y-105095238D01*
X82452381Y-105047619D01*
X82547619Y-105047619D01*
X82785714Y-105380952D02*
X82785714Y-105761904D01*
X82452381Y-105523809D02*
X83309524Y-105523809D01*
X83404762Y-105571428D01*
X83452381Y-105666666D01*
X83452381Y-105761904D01*
X83452381Y-106095238D02*
X82452381Y-106095238D01*
X83166667Y-106428572D01*
X82452381Y-106761905D01*
X83452381Y-106761905D01*
X83452381Y-107380952D02*
X83404762Y-107285714D01*
X83357143Y-107238095D01*
X83261905Y-107190476D01*
X82976190Y-107190476D01*
X82880952Y-107238095D01*
X82833333Y-107285714D01*
X82785714Y-107380952D01*
X82785714Y-107523810D01*
X82833333Y-107619048D01*
X82880952Y-107666667D01*
X82976190Y-107714286D01*
X83261905Y-107714286D01*
X83357143Y-107666667D01*
X83404762Y-107619048D01*
X83452381Y-107523810D01*
X83452381Y-107380952D01*
X82785714Y-108142857D02*
X83452381Y-108142857D01*
X82880952Y-108142857D02*
X82833333Y-108190476D01*
X82785714Y-108285714D01*
X82785714Y-108428572D01*
X82833333Y-108523810D01*
X82928571Y-108571429D01*
X83452381Y-108571429D01*
X83452381Y-109047619D02*
X82785714Y-109047619D01*
X82452381Y-109047619D02*
X82500000Y-109000000D01*
X82547619Y-109047619D01*
X82500000Y-109095238D01*
X82452381Y-109047619D01*
X82547619Y-109047619D01*
X82785714Y-109380952D02*
X82785714Y-109761904D01*
X82452381Y-109523809D02*
X83309524Y-109523809D01*
X83404762Y-109571428D01*
X83452381Y-109666666D01*
X83452381Y-109761904D01*
X83452381Y-110238095D02*
X83404762Y-110142857D01*
X83357143Y-110095238D01*
X83261905Y-110047619D01*
X82976190Y-110047619D01*
X82880952Y-110095238D01*
X82833333Y-110142857D01*
X82785714Y-110238095D01*
X82785714Y-110380953D01*
X82833333Y-110476191D01*
X82880952Y-110523810D01*
X82976190Y-110571429D01*
X83261905Y-110571429D01*
X83357143Y-110523810D01*
X83404762Y-110476191D01*
X83452381Y-110380953D01*
X83452381Y-110238095D01*
X83452381Y-111000000D02*
X82785714Y-111000000D01*
X82976190Y-111000000D02*
X82880952Y-111047619D01*
X82833333Y-111095238D01*
X82785714Y-111190476D01*
X82785714Y-111285715D01*
X68857143Y-93809524D02*
X68904762Y-93761905D01*
X68952381Y-93619048D01*
X68952381Y-93523810D01*
X68904762Y-93380952D01*
X68809524Y-93285714D01*
X68714286Y-93238095D01*
X68523810Y-93190476D01*
X68380952Y-93190476D01*
X68190476Y-93238095D01*
X68095238Y-93285714D01*
X68000000Y-93380952D01*
X67952381Y-93523810D01*
X67952381Y-93619048D01*
X68000000Y-93761905D01*
X68047619Y-93809524D01*
X68904762Y-94190476D02*
X68952381Y-94333333D01*
X68952381Y-94571429D01*
X68904762Y-94666667D01*
X68857143Y-94714286D01*
X68761905Y-94761905D01*
X68666667Y-94761905D01*
X68571429Y-94714286D01*
X68523810Y-94666667D01*
X68476190Y-94571429D01*
X68428571Y-94380952D01*
X68380952Y-94285714D01*
X68333333Y-94238095D01*
X68238095Y-94190476D01*
X68142857Y-94190476D01*
X68047619Y-94238095D01*
X68000000Y-94285714D01*
X67952381Y-94380952D01*
X67952381Y-94619048D01*
X68000000Y-94761905D01*
X67904762Y-95904762D02*
X69190476Y-95047619D01*
X68904762Y-96190476D02*
X68952381Y-96333333D01*
X68952381Y-96571429D01*
X68904762Y-96666667D01*
X68857143Y-96714286D01*
X68761905Y-96761905D01*
X68666667Y-96761905D01*
X68571429Y-96714286D01*
X68523810Y-96666667D01*
X68476190Y-96571429D01*
X68428571Y-96380952D01*
X68380952Y-96285714D01*
X68333333Y-96238095D01*
X68238095Y-96190476D01*
X68142857Y-96190476D01*
X68047619Y-96238095D01*
X68000000Y-96285714D01*
X67952381Y-96380952D01*
X67952381Y-96619048D01*
X68000000Y-96761905D01*
X68904762Y-97142857D02*
X68952381Y-97285714D01*
X68952381Y-97523810D01*
X68904762Y-97619048D01*
X68857143Y-97666667D01*
X68761905Y-97714286D01*
X68666667Y-97714286D01*
X68571429Y-97666667D01*
X68523810Y-97619048D01*
X68476190Y-97523810D01*
X68428571Y-97333333D01*
X68380952Y-97238095D01*
X68333333Y-97190476D01*
X68238095Y-97142857D01*
X68142857Y-97142857D01*
X68047619Y-97190476D01*
X68000000Y-97238095D01*
X67952381Y-97333333D01*
X67952381Y-97571429D01*
X68000000Y-97714286D01*
X68571429Y-98904762D02*
X68571429Y-99666667D01*
X68857143Y-101476191D02*
X68904762Y-101428572D01*
X68952381Y-101285715D01*
X68952381Y-101190477D01*
X68904762Y-101047619D01*
X68809524Y-100952381D01*
X68714286Y-100904762D01*
X68523810Y-100857143D01*
X68380952Y-100857143D01*
X68190476Y-100904762D01*
X68095238Y-100952381D01*
X68000000Y-101047619D01*
X67952381Y-101190477D01*
X67952381Y-101285715D01*
X68000000Y-101428572D01*
X68047619Y-101476191D01*
X68428571Y-101904762D02*
X68428571Y-102238096D01*
X68952381Y-102380953D02*
X68952381Y-101904762D01*
X67952381Y-101904762D01*
X67952381Y-102380953D01*
X68952381Y-103333334D02*
X68952381Y-102761905D01*
X68952381Y-103047619D02*
X67952381Y-103047619D01*
X68095238Y-102952381D01*
X68190476Y-102857143D01*
X68238095Y-102761905D01*
X69047619Y-103523810D02*
X69047619Y-104285715D01*
X68000000Y-105047620D02*
X67952381Y-104952382D01*
X67952381Y-104809525D01*
X68000000Y-104666667D01*
X68095238Y-104571429D01*
X68190476Y-104523810D01*
X68380952Y-104476191D01*
X68523810Y-104476191D01*
X68714286Y-104523810D01*
X68809524Y-104571429D01*
X68904762Y-104666667D01*
X68952381Y-104809525D01*
X68952381Y-104904763D01*
X68904762Y-105047620D01*
X68857143Y-105095239D01*
X68523810Y-105095239D01*
X68523810Y-104904763D01*
X68952381Y-105523810D02*
X67952381Y-105523810D01*
X67952381Y-105904763D01*
X68000000Y-106000001D01*
X68047619Y-106047620D01*
X68142857Y-106095239D01*
X68285714Y-106095239D01*
X68380952Y-106047620D01*
X68428571Y-106000001D01*
X68476190Y-105904763D01*
X68476190Y-105523810D01*
X68952381Y-106523810D02*
X67952381Y-106523810D01*
X67952381Y-107190476D02*
X67952381Y-107380953D01*
X68000000Y-107476191D01*
X68095238Y-107571429D01*
X68285714Y-107619048D01*
X68619048Y-107619048D01*
X68809524Y-107571429D01*
X68904762Y-107476191D01*
X68952381Y-107380953D01*
X68952381Y-107190476D01*
X68904762Y-107095238D01*
X68809524Y-107000000D01*
X68619048Y-106952381D01*
X68285714Y-106952381D01*
X68095238Y-107000000D01*
X68000000Y-107095238D01*
X67952381Y-107190476D01*
X67952381Y-108714286D02*
X67952381Y-109380953D01*
X68952381Y-108952381D01*
X68571429Y-110523810D02*
X68571429Y-111285715D01*
X68952381Y-112523810D02*
X67952381Y-112523810D01*
X67952381Y-112904763D01*
X68000000Y-113000001D01*
X68047619Y-113047620D01*
X68142857Y-113095239D01*
X68285714Y-113095239D01*
X68380952Y-113047620D01*
X68428571Y-113000001D01*
X68476190Y-112904763D01*
X68476190Y-112523810D01*
X68952381Y-113523810D02*
X68285714Y-113523810D01*
X67952381Y-113523810D02*
X68000000Y-113476191D01*
X68047619Y-113523810D01*
X68000000Y-113571429D01*
X67952381Y-113523810D01*
X68047619Y-113523810D01*
X68285714Y-114000000D02*
X68952381Y-114000000D01*
X68380952Y-114000000D02*
X68333333Y-114047619D01*
X68285714Y-114142857D01*
X68285714Y-114285715D01*
X68333333Y-114380953D01*
X68428571Y-114428572D01*
X68952381Y-114428572D01*
X68047619Y-115619048D02*
X68000000Y-115666667D01*
X67952381Y-115761905D01*
X67952381Y-116000001D01*
X68000000Y-116095239D01*
X68047619Y-116142858D01*
X68142857Y-116190477D01*
X68238095Y-116190477D01*
X68380952Y-116142858D01*
X68952381Y-115571429D01*
X68952381Y-116190477D01*
X67952381Y-117047620D02*
X67952381Y-116857143D01*
X68000000Y-116761905D01*
X68047619Y-116714286D01*
X68190476Y-116619048D01*
X68380952Y-116571429D01*
X68761905Y-116571429D01*
X68857143Y-116619048D01*
X68904762Y-116666667D01*
X68952381Y-116761905D01*
X68952381Y-116952382D01*
X68904762Y-117047620D01*
X68857143Y-117095239D01*
X68761905Y-117142858D01*
X68523810Y-117142858D01*
X68428571Y-117095239D01*
X68380952Y-117047620D01*
X68333333Y-116952382D01*
X68333333Y-116761905D01*
X68380952Y-116666667D01*
X68428571Y-116619048D01*
X68523810Y-116571429D01*
X61357143Y-93809524D02*
X61404762Y-93761905D01*
X61452381Y-93619048D01*
X61452381Y-93523810D01*
X61404762Y-93380952D01*
X61309524Y-93285714D01*
X61214286Y-93238095D01*
X61023810Y-93190476D01*
X60880952Y-93190476D01*
X60690476Y-93238095D01*
X60595238Y-93285714D01*
X60500000Y-93380952D01*
X60452381Y-93523810D01*
X60452381Y-93619048D01*
X60500000Y-93761905D01*
X60547619Y-93809524D01*
X61404762Y-94190476D02*
X61452381Y-94333333D01*
X61452381Y-94571429D01*
X61404762Y-94666667D01*
X61357143Y-94714286D01*
X61261905Y-94761905D01*
X61166667Y-94761905D01*
X61071429Y-94714286D01*
X61023810Y-94666667D01*
X60976190Y-94571429D01*
X60928571Y-94380952D01*
X60880952Y-94285714D01*
X60833333Y-94238095D01*
X60738095Y-94190476D01*
X60642857Y-94190476D01*
X60547619Y-94238095D01*
X60500000Y-94285714D01*
X60452381Y-94380952D01*
X60452381Y-94619048D01*
X60500000Y-94761905D01*
X60404762Y-95904762D02*
X61690476Y-95047619D01*
X61404762Y-96190476D02*
X61452381Y-96333333D01*
X61452381Y-96571429D01*
X61404762Y-96666667D01*
X61357143Y-96714286D01*
X61261905Y-96761905D01*
X61166667Y-96761905D01*
X61071429Y-96714286D01*
X61023810Y-96666667D01*
X60976190Y-96571429D01*
X60928571Y-96380952D01*
X60880952Y-96285714D01*
X60833333Y-96238095D01*
X60738095Y-96190476D01*
X60642857Y-96190476D01*
X60547619Y-96238095D01*
X60500000Y-96285714D01*
X60452381Y-96380952D01*
X60452381Y-96619048D01*
X60500000Y-96761905D01*
X61404762Y-97142857D02*
X61452381Y-97285714D01*
X61452381Y-97523810D01*
X61404762Y-97619048D01*
X61357143Y-97666667D01*
X61261905Y-97714286D01*
X61166667Y-97714286D01*
X61071429Y-97666667D01*
X61023810Y-97619048D01*
X60976190Y-97523810D01*
X60928571Y-97333333D01*
X60880952Y-97238095D01*
X60833333Y-97190476D01*
X60738095Y-97142857D01*
X60642857Y-97142857D01*
X60547619Y-97190476D01*
X60500000Y-97238095D01*
X60452381Y-97333333D01*
X60452381Y-97571429D01*
X60500000Y-97714286D01*
X61071429Y-98904762D02*
X61071429Y-99666667D01*
X61357143Y-101476191D02*
X61404762Y-101428572D01*
X61452381Y-101285715D01*
X61452381Y-101190477D01*
X61404762Y-101047619D01*
X61309524Y-100952381D01*
X61214286Y-100904762D01*
X61023810Y-100857143D01*
X60880952Y-100857143D01*
X60690476Y-100904762D01*
X60595238Y-100952381D01*
X60500000Y-101047619D01*
X60452381Y-101190477D01*
X60452381Y-101285715D01*
X60500000Y-101428572D01*
X60547619Y-101476191D01*
X60928571Y-101904762D02*
X60928571Y-102238096D01*
X61452381Y-102380953D02*
X61452381Y-101904762D01*
X60452381Y-101904762D01*
X60452381Y-102380953D01*
X60452381Y-103000000D02*
X60452381Y-103095239D01*
X60500000Y-103190477D01*
X60547619Y-103238096D01*
X60642857Y-103285715D01*
X60833333Y-103333334D01*
X61071429Y-103333334D01*
X61261905Y-103285715D01*
X61357143Y-103238096D01*
X61404762Y-103190477D01*
X61452381Y-103095239D01*
X61452381Y-103000000D01*
X61404762Y-102904762D01*
X61357143Y-102857143D01*
X61261905Y-102809524D01*
X61071429Y-102761905D01*
X60833333Y-102761905D01*
X60642857Y-102809524D01*
X60547619Y-102857143D01*
X60500000Y-102904762D01*
X60452381Y-103000000D01*
X61547619Y-103523810D02*
X61547619Y-104285715D01*
X60500000Y-105047620D02*
X60452381Y-104952382D01*
X60452381Y-104809525D01*
X60500000Y-104666667D01*
X60595238Y-104571429D01*
X60690476Y-104523810D01*
X60880952Y-104476191D01*
X61023810Y-104476191D01*
X61214286Y-104523810D01*
X61309524Y-104571429D01*
X61404762Y-104666667D01*
X61452381Y-104809525D01*
X61452381Y-104904763D01*
X61404762Y-105047620D01*
X61357143Y-105095239D01*
X61023810Y-105095239D01*
X61023810Y-104904763D01*
X61452381Y-105523810D02*
X60452381Y-105523810D01*
X60452381Y-105904763D01*
X60500000Y-106000001D01*
X60547619Y-106047620D01*
X60642857Y-106095239D01*
X60785714Y-106095239D01*
X60880952Y-106047620D01*
X60928571Y-106000001D01*
X60976190Y-105904763D01*
X60976190Y-105523810D01*
X61452381Y-106523810D02*
X60452381Y-106523810D01*
X60452381Y-107190476D02*
X60452381Y-107380953D01*
X60500000Y-107476191D01*
X60595238Y-107571429D01*
X60785714Y-107619048D01*
X61119048Y-107619048D01*
X61309524Y-107571429D01*
X61404762Y-107476191D01*
X61452381Y-107380953D01*
X61452381Y-107190476D01*
X61404762Y-107095238D01*
X61309524Y-107000000D01*
X61119048Y-106952381D01*
X60785714Y-106952381D01*
X60595238Y-107000000D01*
X60500000Y-107095238D01*
X60452381Y-107190476D01*
X60880952Y-108952381D02*
X60833333Y-108857143D01*
X60785714Y-108809524D01*
X60690476Y-108761905D01*
X60642857Y-108761905D01*
X60547619Y-108809524D01*
X60500000Y-108857143D01*
X60452381Y-108952381D01*
X60452381Y-109142858D01*
X60500000Y-109238096D01*
X60547619Y-109285715D01*
X60642857Y-109333334D01*
X60690476Y-109333334D01*
X60785714Y-109285715D01*
X60833333Y-109238096D01*
X60880952Y-109142858D01*
X60880952Y-108952381D01*
X60928571Y-108857143D01*
X60976190Y-108809524D01*
X61071429Y-108761905D01*
X61261905Y-108761905D01*
X61357143Y-108809524D01*
X61404762Y-108857143D01*
X61452381Y-108952381D01*
X61452381Y-109142858D01*
X61404762Y-109238096D01*
X61357143Y-109285715D01*
X61261905Y-109333334D01*
X61071429Y-109333334D01*
X60976190Y-109285715D01*
X60928571Y-109238096D01*
X60880952Y-109142858D01*
X61071429Y-110523810D02*
X61071429Y-111285715D01*
X61452381Y-112523810D02*
X60452381Y-112523810D01*
X60452381Y-112904763D01*
X60500000Y-113000001D01*
X60547619Y-113047620D01*
X60642857Y-113095239D01*
X60785714Y-113095239D01*
X60880952Y-113047620D01*
X60928571Y-113000001D01*
X60976190Y-112904763D01*
X60976190Y-112523810D01*
X61452381Y-113523810D02*
X60785714Y-113523810D01*
X60452381Y-113523810D02*
X60500000Y-113476191D01*
X60547619Y-113523810D01*
X60500000Y-113571429D01*
X60452381Y-113523810D01*
X60547619Y-113523810D01*
X60785714Y-114000000D02*
X61452381Y-114000000D01*
X60880952Y-114000000D02*
X60833333Y-114047619D01*
X60785714Y-114142857D01*
X60785714Y-114285715D01*
X60833333Y-114380953D01*
X60928571Y-114428572D01*
X61452381Y-114428572D01*
X60547619Y-115619048D02*
X60500000Y-115666667D01*
X60452381Y-115761905D01*
X60452381Y-116000001D01*
X60500000Y-116095239D01*
X60547619Y-116142858D01*
X60642857Y-116190477D01*
X60738095Y-116190477D01*
X60880952Y-116142858D01*
X61452381Y-115571429D01*
X61452381Y-116190477D01*
X60785714Y-117047620D02*
X61452381Y-117047620D01*
X60404762Y-116809524D02*
X61119048Y-116571429D01*
X61119048Y-117190477D01*
X67452381Y-93238095D02*
X66452381Y-93238095D01*
X67452381Y-94285714D02*
X66976190Y-93952380D01*
X67452381Y-93714285D02*
X66452381Y-93714285D01*
X66452381Y-94095238D01*
X66500000Y-94190476D01*
X66547619Y-94238095D01*
X66642857Y-94285714D01*
X66785714Y-94285714D01*
X66880952Y-94238095D01*
X66928571Y-94190476D01*
X66976190Y-94095238D01*
X66976190Y-93714285D01*
X67547619Y-95380952D02*
X67500000Y-95285714D01*
X67404762Y-95190476D01*
X67261905Y-95047619D01*
X67214286Y-94952380D01*
X67214286Y-94857142D01*
X67452381Y-94904761D02*
X67404762Y-94809523D01*
X67309524Y-94714285D01*
X67119048Y-94666666D01*
X66785714Y-94666666D01*
X66595238Y-94714285D01*
X66500000Y-94809523D01*
X66452381Y-94904761D01*
X66452381Y-95095238D01*
X66500000Y-95190476D01*
X66595238Y-95285714D01*
X66785714Y-95333333D01*
X67119048Y-95333333D01*
X67309524Y-95285714D01*
X67404762Y-95190476D01*
X67452381Y-95095238D01*
X67452381Y-94904761D01*
X67452381Y-96285714D02*
X67452381Y-95714285D01*
X67452381Y-95999999D02*
X66452381Y-95999999D01*
X66595238Y-95904761D01*
X66690476Y-95809523D01*
X66738095Y-95714285D01*
X67071429Y-97476190D02*
X67071429Y-98238095D01*
X66500000Y-100000000D02*
X66452381Y-99904762D01*
X66452381Y-99761905D01*
X66500000Y-99619047D01*
X66595238Y-99523809D01*
X66690476Y-99476190D01*
X66880952Y-99428571D01*
X67023810Y-99428571D01*
X67214286Y-99476190D01*
X67309524Y-99523809D01*
X67404762Y-99619047D01*
X67452381Y-99761905D01*
X67452381Y-99857143D01*
X67404762Y-100000000D01*
X67357143Y-100047619D01*
X67023810Y-100047619D01*
X67023810Y-99857143D01*
X67452381Y-100476190D02*
X66452381Y-100476190D01*
X66452381Y-100857143D01*
X66500000Y-100952381D01*
X66547619Y-101000000D01*
X66642857Y-101047619D01*
X66785714Y-101047619D01*
X66880952Y-101000000D01*
X66928571Y-100952381D01*
X66976190Y-100857143D01*
X66976190Y-100476190D01*
X67452381Y-101476190D02*
X66452381Y-101476190D01*
X66452381Y-102142856D02*
X66452381Y-102333333D01*
X66500000Y-102428571D01*
X66595238Y-102523809D01*
X66785714Y-102571428D01*
X67119048Y-102571428D01*
X67309524Y-102523809D01*
X67404762Y-102428571D01*
X67452381Y-102333333D01*
X67452381Y-102142856D01*
X67404762Y-102047618D01*
X67309524Y-101952380D01*
X67119048Y-101904761D01*
X66785714Y-101904761D01*
X66595238Y-101952380D01*
X66500000Y-102047618D01*
X66452381Y-102142856D01*
X67452381Y-104285714D02*
X67452381Y-103714285D01*
X67452381Y-103999999D02*
X66452381Y-103999999D01*
X66595238Y-103904761D01*
X66690476Y-103809523D01*
X66738095Y-103714285D01*
X67452381Y-104761904D02*
X67452381Y-104952380D01*
X67404762Y-105047619D01*
X67357143Y-105095238D01*
X67214286Y-105190476D01*
X67023810Y-105238095D01*
X66642857Y-105238095D01*
X66547619Y-105190476D01*
X66500000Y-105142857D01*
X66452381Y-105047619D01*
X66452381Y-104857142D01*
X66500000Y-104761904D01*
X66547619Y-104714285D01*
X66642857Y-104666666D01*
X66880952Y-104666666D01*
X66976190Y-104714285D01*
X67023810Y-104761904D01*
X67071429Y-104857142D01*
X67071429Y-105047619D01*
X67023810Y-105142857D01*
X66976190Y-105190476D01*
X66880952Y-105238095D01*
X67071429Y-106428571D02*
X67071429Y-107190476D01*
X67452381Y-108428571D02*
X66452381Y-108428571D01*
X66452381Y-108809524D01*
X66500000Y-108904762D01*
X66547619Y-108952381D01*
X66642857Y-109000000D01*
X66785714Y-109000000D01*
X66880952Y-108952381D01*
X66928571Y-108904762D01*
X66976190Y-108809524D01*
X66976190Y-108428571D01*
X67452381Y-109428571D02*
X66785714Y-109428571D01*
X66452381Y-109428571D02*
X66500000Y-109380952D01*
X66547619Y-109428571D01*
X66500000Y-109476190D01*
X66452381Y-109428571D01*
X66547619Y-109428571D01*
X66785714Y-109904761D02*
X67452381Y-109904761D01*
X66880952Y-109904761D02*
X66833333Y-109952380D01*
X66785714Y-110047618D01*
X66785714Y-110190476D01*
X66833333Y-110285714D01*
X66928571Y-110333333D01*
X67452381Y-110333333D01*
X66452381Y-111476190D02*
X66452381Y-112095238D01*
X66833333Y-111761904D01*
X66833333Y-111904762D01*
X66880952Y-112000000D01*
X66928571Y-112047619D01*
X67023810Y-112095238D01*
X67261905Y-112095238D01*
X67357143Y-112047619D01*
X67404762Y-112000000D01*
X67452381Y-111904762D01*
X67452381Y-111619047D01*
X67404762Y-111523809D01*
X67357143Y-111476190D01*
X66452381Y-113000000D02*
X66452381Y-112523809D01*
X66928571Y-112476190D01*
X66880952Y-112523809D01*
X66833333Y-112619047D01*
X66833333Y-112857143D01*
X66880952Y-112952381D01*
X66928571Y-113000000D01*
X67023810Y-113047619D01*
X67261905Y-113047619D01*
X67357143Y-113000000D01*
X67404762Y-112952381D01*
X67452381Y-112857143D01*
X67452381Y-112619047D01*
X67404762Y-112523809D01*
X67357143Y-112476190D01*
X65952381Y-93238095D02*
X64952381Y-93238095D01*
X65952381Y-94285714D02*
X65476190Y-93952380D01*
X65952381Y-93714285D02*
X64952381Y-93714285D01*
X64952381Y-94095238D01*
X65000000Y-94190476D01*
X65047619Y-94238095D01*
X65142857Y-94285714D01*
X65285714Y-94285714D01*
X65380952Y-94238095D01*
X65428571Y-94190476D01*
X65476190Y-94095238D01*
X65476190Y-93714285D01*
X66047619Y-95380952D02*
X66000000Y-95285714D01*
X65904762Y-95190476D01*
X65761905Y-95047619D01*
X65714286Y-94952380D01*
X65714286Y-94857142D01*
X65952381Y-94904761D02*
X65904762Y-94809523D01*
X65809524Y-94714285D01*
X65619048Y-94666666D01*
X65285714Y-94666666D01*
X65095238Y-94714285D01*
X65000000Y-94809523D01*
X64952381Y-94904761D01*
X64952381Y-95095238D01*
X65000000Y-95190476D01*
X65095238Y-95285714D01*
X65285714Y-95333333D01*
X65619048Y-95333333D01*
X65809524Y-95285714D01*
X65904762Y-95190476D01*
X65952381Y-95095238D01*
X65952381Y-94904761D01*
X64952381Y-95952380D02*
X64952381Y-96047619D01*
X65000000Y-96142857D01*
X65047619Y-96190476D01*
X65142857Y-96238095D01*
X65333333Y-96285714D01*
X65571429Y-96285714D01*
X65761905Y-96238095D01*
X65857143Y-96190476D01*
X65904762Y-96142857D01*
X65952381Y-96047619D01*
X65952381Y-95952380D01*
X65904762Y-95857142D01*
X65857143Y-95809523D01*
X65761905Y-95761904D01*
X65571429Y-95714285D01*
X65333333Y-95714285D01*
X65142857Y-95761904D01*
X65047619Y-95809523D01*
X65000000Y-95857142D01*
X64952381Y-95952380D01*
X65571429Y-97476190D02*
X65571429Y-98238095D01*
X65000000Y-100000000D02*
X64952381Y-99904762D01*
X64952381Y-99761905D01*
X65000000Y-99619047D01*
X65095238Y-99523809D01*
X65190476Y-99476190D01*
X65380952Y-99428571D01*
X65523810Y-99428571D01*
X65714286Y-99476190D01*
X65809524Y-99523809D01*
X65904762Y-99619047D01*
X65952381Y-99761905D01*
X65952381Y-99857143D01*
X65904762Y-100000000D01*
X65857143Y-100047619D01*
X65523810Y-100047619D01*
X65523810Y-99857143D01*
X65952381Y-100476190D02*
X64952381Y-100476190D01*
X64952381Y-100857143D01*
X65000000Y-100952381D01*
X65047619Y-101000000D01*
X65142857Y-101047619D01*
X65285714Y-101047619D01*
X65380952Y-101000000D01*
X65428571Y-100952381D01*
X65476190Y-100857143D01*
X65476190Y-100476190D01*
X65952381Y-101476190D02*
X64952381Y-101476190D01*
X64952381Y-102142856D02*
X64952381Y-102333333D01*
X65000000Y-102428571D01*
X65095238Y-102523809D01*
X65285714Y-102571428D01*
X65619048Y-102571428D01*
X65809524Y-102523809D01*
X65904762Y-102428571D01*
X65952381Y-102333333D01*
X65952381Y-102142856D01*
X65904762Y-102047618D01*
X65809524Y-101952380D01*
X65619048Y-101904761D01*
X65285714Y-101904761D01*
X65095238Y-101952380D01*
X65000000Y-102047618D01*
X64952381Y-102142856D01*
X65952381Y-104285714D02*
X65952381Y-103714285D01*
X65952381Y-103999999D02*
X64952381Y-103999999D01*
X65095238Y-103904761D01*
X65190476Y-103809523D01*
X65238095Y-103714285D01*
X64952381Y-105142857D02*
X64952381Y-104952380D01*
X65000000Y-104857142D01*
X65047619Y-104809523D01*
X65190476Y-104714285D01*
X65380952Y-104666666D01*
X65761905Y-104666666D01*
X65857143Y-104714285D01*
X65904762Y-104761904D01*
X65952381Y-104857142D01*
X65952381Y-105047619D01*
X65904762Y-105142857D01*
X65857143Y-105190476D01*
X65761905Y-105238095D01*
X65523810Y-105238095D01*
X65428571Y-105190476D01*
X65380952Y-105142857D01*
X65333333Y-105047619D01*
X65333333Y-104857142D01*
X65380952Y-104761904D01*
X65428571Y-104714285D01*
X65523810Y-104666666D01*
X65571429Y-106428571D02*
X65571429Y-107190476D01*
X65952381Y-108428571D02*
X64952381Y-108428571D01*
X64952381Y-108809524D01*
X65000000Y-108904762D01*
X65047619Y-108952381D01*
X65142857Y-109000000D01*
X65285714Y-109000000D01*
X65380952Y-108952381D01*
X65428571Y-108904762D01*
X65476190Y-108809524D01*
X65476190Y-108428571D01*
X65952381Y-109428571D02*
X65285714Y-109428571D01*
X64952381Y-109428571D02*
X65000000Y-109380952D01*
X65047619Y-109428571D01*
X65000000Y-109476190D01*
X64952381Y-109428571D01*
X65047619Y-109428571D01*
X65285714Y-109904761D02*
X65952381Y-109904761D01*
X65380952Y-109904761D02*
X65333333Y-109952380D01*
X65285714Y-110047618D01*
X65285714Y-110190476D01*
X65333333Y-110285714D01*
X65428571Y-110333333D01*
X65952381Y-110333333D01*
X64952381Y-111476190D02*
X64952381Y-112095238D01*
X65333333Y-111761904D01*
X65333333Y-111904762D01*
X65380952Y-112000000D01*
X65428571Y-112047619D01*
X65523810Y-112095238D01*
X65761905Y-112095238D01*
X65857143Y-112047619D01*
X65904762Y-112000000D01*
X65952381Y-111904762D01*
X65952381Y-111619047D01*
X65904762Y-111523809D01*
X65857143Y-111476190D01*
X64952381Y-112952381D02*
X64952381Y-112761904D01*
X65000000Y-112666666D01*
X65047619Y-112619047D01*
X65190476Y-112523809D01*
X65380952Y-112476190D01*
X65761905Y-112476190D01*
X65857143Y-112523809D01*
X65904762Y-112571428D01*
X65952381Y-112666666D01*
X65952381Y-112857143D01*
X65904762Y-112952381D01*
X65857143Y-113000000D01*
X65761905Y-113047619D01*
X65523810Y-113047619D01*
X65428571Y-113000000D01*
X65380952Y-112952381D01*
X65333333Y-112857143D01*
X65333333Y-112666666D01*
X65380952Y-112571428D01*
X65428571Y-112523809D01*
X65523810Y-112476190D01*
D12*
X63708333Y-93238095D02*
X63708333Y-93833333D01*
X64065476Y-93119048D02*
X62815476Y-93535714D01*
X64065476Y-93952381D01*
X64065476Y-94369048D02*
X62815476Y-94369048D01*
X62815476Y-94666667D01*
X62875000Y-94845239D01*
X62994048Y-94964286D01*
X63113095Y-95023810D01*
X63351190Y-95083334D01*
X63529762Y-95083334D01*
X63767857Y-95023810D01*
X63886905Y-94964286D01*
X64005952Y-94845239D01*
X64065476Y-94666667D01*
X64065476Y-94369048D01*
X63410714Y-95619048D02*
X63410714Y-96035715D01*
X64065476Y-96214286D02*
X64065476Y-95619048D01*
X62815476Y-95619048D01*
X62815476Y-96214286D01*
X62815476Y-96630952D02*
X62815476Y-97464286D01*
X64065476Y-96928571D01*
X63351190Y-98119047D02*
X63291667Y-98000000D01*
X63232143Y-97940476D01*
X63113095Y-97880952D01*
X63053571Y-97880952D01*
X62934524Y-97940476D01*
X62875000Y-98000000D01*
X62815476Y-98119047D01*
X62815476Y-98357143D01*
X62875000Y-98476190D01*
X62934524Y-98535714D01*
X63053571Y-98595238D01*
X63113095Y-98595238D01*
X63232143Y-98535714D01*
X63291667Y-98476190D01*
X63351190Y-98357143D01*
X63351190Y-98119047D01*
X63410714Y-98000000D01*
X63470238Y-97940476D01*
X63589286Y-97880952D01*
X63827381Y-97880952D01*
X63946429Y-97940476D01*
X64005952Y-98000000D01*
X64065476Y-98119047D01*
X64065476Y-98357143D01*
X64005952Y-98476190D01*
X63946429Y-98535714D01*
X63827381Y-98595238D01*
X63589286Y-98595238D01*
X63470238Y-98535714D01*
X63410714Y-98476190D01*
X63351190Y-98357143D01*
X64065476Y-99785714D02*
X64065476Y-99071428D01*
X64065476Y-99428571D02*
X62815476Y-99428571D01*
X62994048Y-99309523D01*
X63113095Y-99190476D01*
X63172619Y-99071428D01*
X62815476Y-100857142D02*
X62815476Y-100619047D01*
X62875000Y-100499999D01*
X62934524Y-100440476D01*
X63113095Y-100321428D01*
X63351190Y-100261904D01*
X63827381Y-100261904D01*
X63946429Y-100321428D01*
X64005952Y-100380952D01*
X64065476Y-100499999D01*
X64065476Y-100738095D01*
X64005952Y-100857142D01*
X63946429Y-100916666D01*
X63827381Y-100976190D01*
X63529762Y-100976190D01*
X63410714Y-100916666D01*
X63351190Y-100857142D01*
X63291667Y-100738095D01*
X63291667Y-100499999D01*
X63351190Y-100380952D01*
X63410714Y-100321428D01*
X63529762Y-100261904D01*
X63410714Y-102880952D02*
X63470238Y-103059523D01*
X63529762Y-103119047D01*
X63648810Y-103178571D01*
X63827381Y-103178571D01*
X63946429Y-103119047D01*
X64005952Y-103059523D01*
X64065476Y-102940476D01*
X64065476Y-102464285D01*
X62815476Y-102464285D01*
X62815476Y-102880952D01*
X62875000Y-102999999D01*
X62934524Y-103059523D01*
X63053571Y-103119047D01*
X63172619Y-103119047D01*
X63291667Y-103059523D01*
X63351190Y-102999999D01*
X63410714Y-102880952D01*
X63410714Y-102464285D01*
D11*
X59952381Y-93238095D02*
X58952381Y-93238095D01*
X59952381Y-94285714D02*
X59476190Y-93952380D01*
X59952381Y-93714285D02*
X58952381Y-93714285D01*
X58952381Y-94095238D01*
X59000000Y-94190476D01*
X59047619Y-94238095D01*
X59142857Y-94285714D01*
X59285714Y-94285714D01*
X59380952Y-94238095D01*
X59428571Y-94190476D01*
X59476190Y-94095238D01*
X59476190Y-93714285D01*
X60047619Y-95380952D02*
X60000000Y-95285714D01*
X59904762Y-95190476D01*
X59761905Y-95047619D01*
X59714286Y-94952380D01*
X59714286Y-94857142D01*
X59952381Y-94904761D02*
X59904762Y-94809523D01*
X59809524Y-94714285D01*
X59619048Y-94666666D01*
X59285714Y-94666666D01*
X59095238Y-94714285D01*
X59000000Y-94809523D01*
X58952381Y-94904761D01*
X58952381Y-95095238D01*
X59000000Y-95190476D01*
X59095238Y-95285714D01*
X59285714Y-95333333D01*
X59619048Y-95333333D01*
X59809524Y-95285714D01*
X59904762Y-95190476D01*
X59952381Y-95095238D01*
X59952381Y-94904761D01*
X59952381Y-96285714D02*
X59952381Y-95714285D01*
X59952381Y-95999999D02*
X58952381Y-95999999D01*
X59095238Y-95904761D01*
X59190476Y-95809523D01*
X59238095Y-95714285D01*
X59571429Y-97476190D02*
X59571429Y-98238095D01*
X59000000Y-100000000D02*
X58952381Y-99904762D01*
X58952381Y-99761905D01*
X59000000Y-99619047D01*
X59095238Y-99523809D01*
X59190476Y-99476190D01*
X59380952Y-99428571D01*
X59523810Y-99428571D01*
X59714286Y-99476190D01*
X59809524Y-99523809D01*
X59904762Y-99619047D01*
X59952381Y-99761905D01*
X59952381Y-99857143D01*
X59904762Y-100000000D01*
X59857143Y-100047619D01*
X59523810Y-100047619D01*
X59523810Y-99857143D01*
X59952381Y-100476190D02*
X58952381Y-100476190D01*
X58952381Y-100857143D01*
X59000000Y-100952381D01*
X59047619Y-101000000D01*
X59142857Y-101047619D01*
X59285714Y-101047619D01*
X59380952Y-101000000D01*
X59428571Y-100952381D01*
X59476190Y-100857143D01*
X59476190Y-100476190D01*
X59952381Y-101476190D02*
X58952381Y-101476190D01*
X58952381Y-102142856D02*
X58952381Y-102333333D01*
X59000000Y-102428571D01*
X59095238Y-102523809D01*
X59285714Y-102571428D01*
X59619048Y-102571428D01*
X59809524Y-102523809D01*
X59904762Y-102428571D01*
X59952381Y-102333333D01*
X59952381Y-102142856D01*
X59904762Y-102047618D01*
X59809524Y-101952380D01*
X59619048Y-101904761D01*
X59285714Y-101904761D01*
X59095238Y-101952380D01*
X59000000Y-102047618D01*
X58952381Y-102142856D01*
X59952381Y-104285714D02*
X59952381Y-103714285D01*
X59952381Y-103999999D02*
X58952381Y-103999999D01*
X59095238Y-103904761D01*
X59190476Y-103809523D01*
X59238095Y-103714285D01*
X58952381Y-104619047D02*
X58952381Y-105285714D01*
X59952381Y-104857142D01*
X59571429Y-106428571D02*
X59571429Y-107190476D01*
X59952381Y-108428571D02*
X58952381Y-108428571D01*
X58952381Y-108809524D01*
X59000000Y-108904762D01*
X59047619Y-108952381D01*
X59142857Y-109000000D01*
X59285714Y-109000000D01*
X59380952Y-108952381D01*
X59428571Y-108904762D01*
X59476190Y-108809524D01*
X59476190Y-108428571D01*
X59952381Y-109428571D02*
X59285714Y-109428571D01*
X58952381Y-109428571D02*
X59000000Y-109380952D01*
X59047619Y-109428571D01*
X59000000Y-109476190D01*
X58952381Y-109428571D01*
X59047619Y-109428571D01*
X59285714Y-109904761D02*
X59952381Y-109904761D01*
X59380952Y-109904761D02*
X59333333Y-109952380D01*
X59285714Y-110047618D01*
X59285714Y-110190476D01*
X59333333Y-110285714D01*
X59428571Y-110333333D01*
X59952381Y-110333333D01*
X59952381Y-112095238D02*
X59952381Y-111523809D01*
X59952381Y-111809523D02*
X58952381Y-111809523D01*
X59095238Y-111714285D01*
X59190476Y-111619047D01*
X59238095Y-111523809D01*
X59952381Y-113047619D02*
X59952381Y-112476190D01*
X59952381Y-112761904D02*
X58952381Y-112761904D01*
X59095238Y-112666666D01*
X59190476Y-112571428D01*
X59238095Y-112476190D01*
X58452381Y-93238095D02*
X57452381Y-93238095D01*
X58452381Y-94285714D02*
X57976190Y-93952380D01*
X58452381Y-93714285D02*
X57452381Y-93714285D01*
X57452381Y-94095238D01*
X57500000Y-94190476D01*
X57547619Y-94238095D01*
X57642857Y-94285714D01*
X57785714Y-94285714D01*
X57880952Y-94238095D01*
X57928571Y-94190476D01*
X57976190Y-94095238D01*
X57976190Y-93714285D01*
X58547619Y-95380952D02*
X58500000Y-95285714D01*
X58404762Y-95190476D01*
X58261905Y-95047619D01*
X58214286Y-94952380D01*
X58214286Y-94857142D01*
X58452381Y-94904761D02*
X58404762Y-94809523D01*
X58309524Y-94714285D01*
X58119048Y-94666666D01*
X57785714Y-94666666D01*
X57595238Y-94714285D01*
X57500000Y-94809523D01*
X57452381Y-94904761D01*
X57452381Y-95095238D01*
X57500000Y-95190476D01*
X57595238Y-95285714D01*
X57785714Y-95333333D01*
X58119048Y-95333333D01*
X58309524Y-95285714D01*
X58404762Y-95190476D01*
X58452381Y-95095238D01*
X58452381Y-94904761D01*
X57452381Y-95952380D02*
X57452381Y-96047619D01*
X57500000Y-96142857D01*
X57547619Y-96190476D01*
X57642857Y-96238095D01*
X57833333Y-96285714D01*
X58071429Y-96285714D01*
X58261905Y-96238095D01*
X58357143Y-96190476D01*
X58404762Y-96142857D01*
X58452381Y-96047619D01*
X58452381Y-95952380D01*
X58404762Y-95857142D01*
X58357143Y-95809523D01*
X58261905Y-95761904D01*
X58071429Y-95714285D01*
X57833333Y-95714285D01*
X57642857Y-95761904D01*
X57547619Y-95809523D01*
X57500000Y-95857142D01*
X57452381Y-95952380D01*
X58071429Y-97476190D02*
X58071429Y-98238095D01*
X57500000Y-100000000D02*
X57452381Y-99904762D01*
X57452381Y-99761905D01*
X57500000Y-99619047D01*
X57595238Y-99523809D01*
X57690476Y-99476190D01*
X57880952Y-99428571D01*
X58023810Y-99428571D01*
X58214286Y-99476190D01*
X58309524Y-99523809D01*
X58404762Y-99619047D01*
X58452381Y-99761905D01*
X58452381Y-99857143D01*
X58404762Y-100000000D01*
X58357143Y-100047619D01*
X58023810Y-100047619D01*
X58023810Y-99857143D01*
X58452381Y-100476190D02*
X57452381Y-100476190D01*
X57452381Y-100857143D01*
X57500000Y-100952381D01*
X57547619Y-101000000D01*
X57642857Y-101047619D01*
X57785714Y-101047619D01*
X57880952Y-101000000D01*
X57928571Y-100952381D01*
X57976190Y-100857143D01*
X57976190Y-100476190D01*
X58452381Y-101476190D02*
X57452381Y-101476190D01*
X57452381Y-102142856D02*
X57452381Y-102333333D01*
X57500000Y-102428571D01*
X57595238Y-102523809D01*
X57785714Y-102571428D01*
X58119048Y-102571428D01*
X58309524Y-102523809D01*
X58404762Y-102428571D01*
X58452381Y-102333333D01*
X58452381Y-102142856D01*
X58404762Y-102047618D01*
X58309524Y-101952380D01*
X58119048Y-101904761D01*
X57785714Y-101904761D01*
X57595238Y-101952380D01*
X57500000Y-102047618D01*
X57452381Y-102142856D01*
X58452381Y-104285714D02*
X58452381Y-103714285D01*
X58452381Y-103999999D02*
X57452381Y-103999999D01*
X57595238Y-103904761D01*
X57690476Y-103809523D01*
X57738095Y-103714285D01*
X57880952Y-104857142D02*
X57833333Y-104761904D01*
X57785714Y-104714285D01*
X57690476Y-104666666D01*
X57642857Y-104666666D01*
X57547619Y-104714285D01*
X57500000Y-104761904D01*
X57452381Y-104857142D01*
X57452381Y-105047619D01*
X57500000Y-105142857D01*
X57547619Y-105190476D01*
X57642857Y-105238095D01*
X57690476Y-105238095D01*
X57785714Y-105190476D01*
X57833333Y-105142857D01*
X57880952Y-105047619D01*
X57880952Y-104857142D01*
X57928571Y-104761904D01*
X57976190Y-104714285D01*
X58071429Y-104666666D01*
X58261905Y-104666666D01*
X58357143Y-104714285D01*
X58404762Y-104761904D01*
X58452381Y-104857142D01*
X58452381Y-105047619D01*
X58404762Y-105142857D01*
X58357143Y-105190476D01*
X58261905Y-105238095D01*
X58071429Y-105238095D01*
X57976190Y-105190476D01*
X57928571Y-105142857D01*
X57880952Y-105047619D01*
X58071429Y-106428571D02*
X58071429Y-107190476D01*
X58452381Y-108428571D02*
X57452381Y-108428571D01*
X57452381Y-108809524D01*
X57500000Y-108904762D01*
X57547619Y-108952381D01*
X57642857Y-109000000D01*
X57785714Y-109000000D01*
X57880952Y-108952381D01*
X57928571Y-108904762D01*
X57976190Y-108809524D01*
X57976190Y-108428571D01*
X58452381Y-109428571D02*
X57785714Y-109428571D01*
X57452381Y-109428571D02*
X57500000Y-109380952D01*
X57547619Y-109428571D01*
X57500000Y-109476190D01*
X57452381Y-109428571D01*
X57547619Y-109428571D01*
X57785714Y-109904761D02*
X58452381Y-109904761D01*
X57880952Y-109904761D02*
X57833333Y-109952380D01*
X57785714Y-110047618D01*
X57785714Y-110190476D01*
X57833333Y-110285714D01*
X57928571Y-110333333D01*
X58452381Y-110333333D01*
X58452381Y-112095238D02*
X58452381Y-111523809D01*
X58452381Y-111809523D02*
X57452381Y-111809523D01*
X57595238Y-111714285D01*
X57690476Y-111619047D01*
X57738095Y-111523809D01*
X57547619Y-112476190D02*
X57500000Y-112523809D01*
X57452381Y-112619047D01*
X57452381Y-112857143D01*
X57500000Y-112952381D01*
X57547619Y-113000000D01*
X57642857Y-113047619D01*
X57738095Y-113047619D01*
X57880952Y-113000000D01*
X58452381Y-112428571D01*
X58452381Y-113047619D01*
D12*
X56208333Y-93238095D02*
X56208333Y-93833333D01*
X56565476Y-93119048D02*
X55315476Y-93535714D01*
X56565476Y-93952381D01*
X56565476Y-94369048D02*
X55315476Y-94369048D01*
X55315476Y-94666667D01*
X55375000Y-94845239D01*
X55494048Y-94964286D01*
X55613095Y-95023810D01*
X55851190Y-95083334D01*
X56029762Y-95083334D01*
X56267857Y-95023810D01*
X56386905Y-94964286D01*
X56505952Y-94845239D01*
X56565476Y-94666667D01*
X56565476Y-94369048D01*
X55910714Y-95619048D02*
X55910714Y-96035715D01*
X56565476Y-96214286D02*
X56565476Y-95619048D01*
X55315476Y-95619048D01*
X55315476Y-96214286D01*
X55315476Y-96630952D02*
X55315476Y-97464286D01*
X56565476Y-96928571D01*
X55851190Y-98119047D02*
X55791667Y-98000000D01*
X55732143Y-97940476D01*
X55613095Y-97880952D01*
X55553571Y-97880952D01*
X55434524Y-97940476D01*
X55375000Y-98000000D01*
X55315476Y-98119047D01*
X55315476Y-98357143D01*
X55375000Y-98476190D01*
X55434524Y-98535714D01*
X55553571Y-98595238D01*
X55613095Y-98595238D01*
X55732143Y-98535714D01*
X55791667Y-98476190D01*
X55851190Y-98357143D01*
X55851190Y-98119047D01*
X55910714Y-98000000D01*
X55970238Y-97940476D01*
X56089286Y-97880952D01*
X56327381Y-97880952D01*
X56446429Y-97940476D01*
X56505952Y-98000000D01*
X56565476Y-98119047D01*
X56565476Y-98357143D01*
X56505952Y-98476190D01*
X56446429Y-98535714D01*
X56327381Y-98595238D01*
X56089286Y-98595238D01*
X55970238Y-98535714D01*
X55910714Y-98476190D01*
X55851190Y-98357143D01*
X56565476Y-99785714D02*
X56565476Y-99071428D01*
X56565476Y-99428571D02*
X55315476Y-99428571D01*
X55494048Y-99309523D01*
X55613095Y-99190476D01*
X55672619Y-99071428D01*
X55315476Y-100857142D02*
X55315476Y-100619047D01*
X55375000Y-100499999D01*
X55434524Y-100440476D01*
X55613095Y-100321428D01*
X55851190Y-100261904D01*
X56327381Y-100261904D01*
X56446429Y-100321428D01*
X56505952Y-100380952D01*
X56565476Y-100499999D01*
X56565476Y-100738095D01*
X56505952Y-100857142D01*
X56446429Y-100916666D01*
X56327381Y-100976190D01*
X56029762Y-100976190D01*
X55910714Y-100916666D01*
X55851190Y-100857142D01*
X55791667Y-100738095D01*
X55791667Y-100499999D01*
X55851190Y-100380952D01*
X55910714Y-100321428D01*
X56029762Y-100261904D01*
X56208333Y-102404761D02*
X56208333Y-102999999D01*
X56565476Y-102285714D02*
X55315476Y-102702380D01*
X56565476Y-103119047D01*
D11*
X71952381Y-119738095D02*
X70952381Y-119738095D01*
X70952381Y-120119048D01*
X71000000Y-120214286D01*
X71047619Y-120261905D01*
X71142857Y-120309524D01*
X71285714Y-120309524D01*
X71380952Y-120261905D01*
X71428571Y-120214286D01*
X71476190Y-120119048D01*
X71476190Y-119738095D01*
X71000000Y-121261905D02*
X70952381Y-121166667D01*
X70952381Y-121023810D01*
X71000000Y-120880952D01*
X71095238Y-120785714D01*
X71190476Y-120738095D01*
X71380952Y-120690476D01*
X71523810Y-120690476D01*
X71714286Y-120738095D01*
X71809524Y-120785714D01*
X71904762Y-120880952D01*
X71952381Y-121023810D01*
X71952381Y-121119048D01*
X71904762Y-121261905D01*
X71857143Y-121309524D01*
X71523810Y-121309524D01*
X71523810Y-121119048D01*
X71666667Y-121690476D02*
X71666667Y-122166667D01*
X71952381Y-121595238D02*
X70952381Y-121928571D01*
X71952381Y-122261905D01*
X73500000Y-120261905D02*
X73452381Y-120166667D01*
X73452381Y-120023810D01*
X73500000Y-119880952D01*
X73595238Y-119785714D01*
X73690476Y-119738095D01*
X73880952Y-119690476D01*
X74023810Y-119690476D01*
X74214286Y-119738095D01*
X74309524Y-119785714D01*
X74404762Y-119880952D01*
X74452381Y-120023810D01*
X74452381Y-120119048D01*
X74404762Y-120261905D01*
X74357143Y-120309524D01*
X74023810Y-120309524D01*
X74023810Y-120119048D01*
X74452381Y-120738095D02*
X73452381Y-120738095D01*
X74452381Y-121309524D01*
X73452381Y-121309524D01*
X74452381Y-121785714D02*
X73452381Y-121785714D01*
X73452381Y-122023809D01*
X73500000Y-122166667D01*
X73595238Y-122261905D01*
X73690476Y-122309524D01*
X73880952Y-122357143D01*
X74023810Y-122357143D01*
X74214286Y-122309524D01*
X74309524Y-122261905D01*
X74404762Y-122166667D01*
X74452381Y-122023809D01*
X74452381Y-121785714D01*
D12*
X44428571Y-112785714D02*
X45500000Y-112785714D01*
X45714286Y-112714286D01*
X45857143Y-112571429D01*
X45928571Y-112357143D01*
X45928571Y-112214286D01*
X45928571Y-114142857D02*
X45142857Y-114142857D01*
X45000000Y-114071428D01*
X44928571Y-113928571D01*
X44928571Y-113642857D01*
X45000000Y-113500000D01*
X45857143Y-114142857D02*
X45928571Y-114000000D01*
X45928571Y-113642857D01*
X45857143Y-113500000D01*
X45714286Y-113428571D01*
X45571429Y-113428571D01*
X45428571Y-113500000D01*
X45357143Y-113642857D01*
X45357143Y-114000000D01*
X45285714Y-114142857D01*
X45857143Y-115500000D02*
X45928571Y-115357143D01*
X45928571Y-115071429D01*
X45857143Y-114928571D01*
X45785714Y-114857143D01*
X45642857Y-114785714D01*
X45214286Y-114785714D01*
X45071429Y-114857143D01*
X45000000Y-114928571D01*
X44928571Y-115071429D01*
X44928571Y-115357143D01*
X45000000Y-115500000D01*
X45928571Y-116142857D02*
X44428571Y-116142857D01*
X45357143Y-116285714D02*
X45928571Y-116714285D01*
X44928571Y-116714285D02*
X45500000Y-116142857D01*
X44428571Y-118357143D02*
X45928571Y-118714286D01*
X44857143Y-119000000D01*
X45928571Y-119285714D01*
X44428571Y-119642857D01*
X45928571Y-120214286D02*
X44928571Y-120214286D01*
X44428571Y-120214286D02*
X44500000Y-120142857D01*
X44571429Y-120214286D01*
X44500000Y-120285714D01*
X44428571Y-120214286D01*
X44571429Y-120214286D01*
X45928571Y-120928572D02*
X44928571Y-120928572D01*
X45214286Y-120928572D02*
X45071429Y-121000000D01*
X45000000Y-121071429D01*
X44928571Y-121214286D01*
X44928571Y-121357143D01*
X45928571Y-121857143D02*
X44928571Y-121857143D01*
X44428571Y-121857143D02*
X44500000Y-121785714D01*
X44571429Y-121857143D01*
X44500000Y-121928571D01*
X44428571Y-121857143D01*
X44571429Y-121857143D01*
X44928571Y-122571429D02*
X45928571Y-122571429D01*
X45071429Y-122571429D02*
X45000000Y-122642857D01*
X44928571Y-122785715D01*
X44928571Y-123000000D01*
X45000000Y-123142857D01*
X45142857Y-123214286D01*
X45928571Y-123214286D01*
X44928571Y-124571429D02*
X46142857Y-124571429D01*
X46285714Y-124500000D01*
X46357143Y-124428572D01*
X46428571Y-124285715D01*
X46428571Y-124071429D01*
X46357143Y-123928572D01*
X45857143Y-124571429D02*
X45928571Y-124428572D01*
X45928571Y-124142858D01*
X45857143Y-124000000D01*
X45785714Y-123928572D01*
X45642857Y-123857143D01*
X45214286Y-123857143D01*
X45071429Y-123928572D01*
X45000000Y-124000000D01*
X44928571Y-124142858D01*
X44928571Y-124428572D01*
X45000000Y-124571429D01*
X39000000Y-119500000D02*
X39500000Y-119000000D01*
D11*
X42000000Y-109761905D02*
X41952381Y-109666667D01*
X41952381Y-109523810D01*
X42000000Y-109380952D01*
X42095238Y-109285714D01*
X42190476Y-109238095D01*
X42380952Y-109190476D01*
X42523810Y-109190476D01*
X42714286Y-109238095D01*
X42809524Y-109285714D01*
X42904762Y-109380952D01*
X42952381Y-109523810D01*
X42952381Y-109619048D01*
X42904762Y-109761905D01*
X42857143Y-109809524D01*
X42523810Y-109809524D01*
X42523810Y-109619048D01*
X42952381Y-110238095D02*
X41952381Y-110238095D01*
X42952381Y-110809524D01*
X41952381Y-110809524D01*
X42952381Y-111285714D02*
X41952381Y-111285714D01*
X41952381Y-111523809D01*
X42000000Y-111666667D01*
X42095238Y-111761905D01*
X42190476Y-111809524D01*
X42380952Y-111857143D01*
X42523810Y-111857143D01*
X42714286Y-111809524D01*
X42809524Y-111761905D01*
X42904762Y-111666667D01*
X42952381Y-111523809D01*
X42952381Y-111285714D01*
X39000000Y-109761905D02*
X38952381Y-109666667D01*
X38952381Y-109523810D01*
X39000000Y-109380952D01*
X39095238Y-109285714D01*
X39190476Y-109238095D01*
X39380952Y-109190476D01*
X39523810Y-109190476D01*
X39714286Y-109238095D01*
X39809524Y-109285714D01*
X39904762Y-109380952D01*
X39952381Y-109523810D01*
X39952381Y-109619048D01*
X39904762Y-109761905D01*
X39857143Y-109809524D01*
X39523810Y-109809524D01*
X39523810Y-109619048D01*
X39952381Y-110238095D02*
X38952381Y-110238095D01*
X39952381Y-110809524D01*
X38952381Y-110809524D01*
X39952381Y-111285714D02*
X38952381Y-111285714D01*
X38952381Y-111523809D01*
X39000000Y-111666667D01*
X39095238Y-111761905D01*
X39190476Y-111809524D01*
X39380952Y-111857143D01*
X39523810Y-111857143D01*
X39714286Y-111809524D01*
X39809524Y-111761905D01*
X39904762Y-111666667D01*
X39952381Y-111523809D01*
X39952381Y-111285714D01*
X37452381Y-109238095D02*
X36452381Y-109238095D01*
X36452381Y-109619048D01*
X36500000Y-109714286D01*
X36547619Y-109761905D01*
X36642857Y-109809524D01*
X36785714Y-109809524D01*
X36880952Y-109761905D01*
X36928571Y-109714286D01*
X36976190Y-109619048D01*
X36976190Y-109238095D01*
X36500000Y-110761905D02*
X36452381Y-110666667D01*
X36452381Y-110523810D01*
X36500000Y-110380952D01*
X36595238Y-110285714D01*
X36690476Y-110238095D01*
X36880952Y-110190476D01*
X37023810Y-110190476D01*
X37214286Y-110238095D01*
X37309524Y-110285714D01*
X37404762Y-110380952D01*
X37452381Y-110523810D01*
X37452381Y-110619048D01*
X37404762Y-110761905D01*
X37357143Y-110809524D01*
X37023810Y-110809524D01*
X37023810Y-110619048D01*
X37166667Y-111190476D02*
X37166667Y-111666667D01*
X37452381Y-111095238D02*
X36452381Y-111428571D01*
X37452381Y-111761905D01*
D12*
X43500000Y-125000000D02*
X43500000Y-124500000D01*
X35500000Y-125000000D02*
X43500000Y-125000000D01*
X35500000Y-114000000D02*
X35500000Y-125000000D01*
X36000000Y-114000000D02*
X35500000Y-114000000D01*
X43500000Y-114000000D02*
X36000000Y-114000000D01*
X43500000Y-124500000D02*
X43500000Y-114000000D01*
X36500000Y-123000000D02*
X36500000Y-112500000D01*
X37500000Y-123000000D02*
X36500000Y-123000000D01*
X39000000Y-123000000D02*
X37500000Y-123000000D01*
X42000000Y-117500000D02*
X42000000Y-112500000D01*
X41500000Y-118000000D02*
X42000000Y-117500000D01*
X42000000Y-118500000D02*
X41500000Y-118000000D01*
X39000000Y-118500000D02*
X39000000Y-112500000D01*
X39500000Y-119000000D02*
X39000000Y-118500000D01*
X39000000Y-122000000D02*
X39000000Y-123000000D01*
X42000000Y-122000000D02*
X39000000Y-122000000D01*
X42000000Y-124000000D02*
X42000000Y-122000000D01*
X39000000Y-124000000D02*
X42000000Y-124000000D01*
X39000000Y-123000000D02*
X39000000Y-124000000D01*
X72000000Y-57500000D02*
X73000000Y-57500000D01*
X72000000Y-56000000D02*
X72000000Y-57500000D01*
X70000000Y-57500000D02*
X71000000Y-57500000D01*
X70000000Y-50000000D02*
X70000000Y-57500000D01*
X68000000Y-57500000D02*
X69000000Y-57500000D01*
X68000000Y-50000000D02*
X68000000Y-57500000D01*
X66000000Y-57500000D02*
X67000000Y-57500000D01*
X66000000Y-50000000D02*
X66000000Y-57500000D01*
D11*
X70952381Y-41738095D02*
X69952381Y-41738095D01*
X70666667Y-42071429D01*
X69952381Y-42404762D01*
X70952381Y-42404762D01*
X70952381Y-42880952D02*
X69952381Y-42880952D01*
X70666667Y-43214286D01*
X69952381Y-43547619D01*
X70952381Y-43547619D01*
X70428571Y-44357143D02*
X70476190Y-44500000D01*
X70523810Y-44547619D01*
X70619048Y-44595238D01*
X70761905Y-44595238D01*
X70857143Y-44547619D01*
X70904762Y-44500000D01*
X70952381Y-44404762D01*
X70952381Y-44023809D01*
X69952381Y-44023809D01*
X69952381Y-44357143D01*
X70000000Y-44452381D01*
X70047619Y-44500000D01*
X70142857Y-44547619D01*
X70238095Y-44547619D01*
X70333333Y-44500000D01*
X70380952Y-44452381D01*
X70428571Y-44357143D01*
X70428571Y-44023809D01*
X69952381Y-44880952D02*
X69952381Y-45452381D01*
X70952381Y-45166666D02*
X69952381Y-45166666D01*
X69952381Y-45690476D02*
X69952381Y-46309524D01*
X70333333Y-45976190D01*
X70333333Y-46119048D01*
X70380952Y-46214286D01*
X70428571Y-46261905D01*
X70523810Y-46309524D01*
X70761905Y-46309524D01*
X70857143Y-46261905D01*
X70904762Y-46214286D01*
X70952381Y-46119048D01*
X70952381Y-45833333D01*
X70904762Y-45738095D01*
X70857143Y-45690476D01*
X70952381Y-46785714D02*
X70952381Y-46976190D01*
X70904762Y-47071429D01*
X70857143Y-47119048D01*
X70714286Y-47214286D01*
X70523810Y-47261905D01*
X70142857Y-47261905D01*
X70047619Y-47214286D01*
X70000000Y-47166667D01*
X69952381Y-47071429D01*
X69952381Y-46880952D01*
X70000000Y-46785714D01*
X70047619Y-46738095D01*
X70142857Y-46690476D01*
X70380952Y-46690476D01*
X70476190Y-46738095D01*
X70523810Y-46785714D01*
X70571429Y-46880952D01*
X70571429Y-47071429D01*
X70523810Y-47166667D01*
X70476190Y-47214286D01*
X70380952Y-47261905D01*
X69952381Y-47880952D02*
X69952381Y-47976191D01*
X70000000Y-48071429D01*
X70047619Y-48119048D01*
X70142857Y-48166667D01*
X70333333Y-48214286D01*
X70571429Y-48214286D01*
X70761905Y-48166667D01*
X70857143Y-48119048D01*
X70904762Y-48071429D01*
X70952381Y-47976191D01*
X70952381Y-47880952D01*
X70904762Y-47785714D01*
X70857143Y-47738095D01*
X70761905Y-47690476D01*
X70571429Y-47642857D01*
X70333333Y-47642857D01*
X70142857Y-47690476D01*
X70047619Y-47738095D01*
X70000000Y-47785714D01*
X69952381Y-47880952D01*
X70285714Y-49071429D02*
X70952381Y-49071429D01*
X69904762Y-48833333D02*
X70619048Y-48595238D01*
X70619048Y-49214286D01*
D12*
X36500000Y-57500000D02*
X36500000Y-46000000D01*
X37500000Y-57500000D02*
X36500000Y-57500000D01*
X38500000Y-57500000D02*
X38500000Y-45000000D01*
X41000000Y-57500000D02*
X38500000Y-57500000D01*
X42000000Y-57500000D02*
X44500000Y-57500000D01*
X42000000Y-46000000D02*
X42000000Y-57500000D01*
X45500000Y-50000000D02*
X45500000Y-45000000D01*
X45500000Y-50000000D02*
X45500000Y-57500000D01*
X45500000Y-57500000D02*
X46500000Y-57500000D01*
X76500000Y-41000000D02*
X35500000Y-41000000D01*
X76500000Y-90500000D02*
X76500000Y-41000000D01*
X35500000Y-90500000D02*
X76500000Y-90500000D01*
X35500000Y-41000000D02*
X35500000Y-90500000D01*
X47500000Y-46500000D02*
X47500000Y-57500000D01*
X49500000Y-57500000D02*
X50500000Y-57500000D01*
X49500000Y-45000000D02*
X49500000Y-57500000D01*
X60000000Y-57500000D02*
X61000000Y-57500000D01*
X60000000Y-46000000D02*
X60000000Y-57500000D01*
D11*
X50357143Y-58809524D02*
X50404762Y-58761905D01*
X50452381Y-58619048D01*
X50452381Y-58523810D01*
X50404762Y-58380952D01*
X50309524Y-58285714D01*
X50214286Y-58238095D01*
X50023810Y-58190476D01*
X49880952Y-58190476D01*
X49690476Y-58238095D01*
X49595238Y-58285714D01*
X49500000Y-58380952D01*
X49452381Y-58523810D01*
X49452381Y-58619048D01*
X49500000Y-58761905D01*
X49547619Y-58809524D01*
X49452381Y-59666667D02*
X49452381Y-59476190D01*
X49500000Y-59380952D01*
X49547619Y-59333333D01*
X49690476Y-59238095D01*
X49880952Y-59190476D01*
X50261905Y-59190476D01*
X50357143Y-59238095D01*
X50404762Y-59285714D01*
X50452381Y-59380952D01*
X50452381Y-59571429D01*
X50404762Y-59666667D01*
X50357143Y-59714286D01*
X50261905Y-59761905D01*
X50023810Y-59761905D01*
X49928571Y-59714286D01*
X49880952Y-59666667D01*
X49833333Y-59571429D01*
X49833333Y-59380952D01*
X49880952Y-59285714D01*
X49928571Y-59238095D01*
X50023810Y-59190476D01*
X49452381Y-60095238D02*
X49452381Y-60761905D01*
X50452381Y-60333333D01*
X50452381Y-42261905D02*
X50452381Y-41690476D01*
X50452381Y-41976190D02*
X49452381Y-41976190D01*
X49595238Y-41880952D01*
X49690476Y-41785714D01*
X49738095Y-41690476D01*
X49785714Y-42690476D02*
X50785714Y-42690476D01*
X50309524Y-43166667D02*
X50404762Y-43214286D01*
X50452381Y-43309524D01*
X50309524Y-42690476D02*
X50404762Y-42738095D01*
X50452381Y-42833333D01*
X50452381Y-43023810D01*
X50404762Y-43119048D01*
X50309524Y-43166667D01*
X49785714Y-43166667D01*
X49928571Y-44071429D02*
X49928571Y-43738095D01*
X50452381Y-43738095D02*
X49452381Y-43738095D01*
X49452381Y-44214286D01*
X64476190Y-58428571D02*
X64952381Y-58428571D01*
X63952381Y-58095238D02*
X64476190Y-58428571D01*
X63952381Y-58761905D01*
X64952381Y-59619048D02*
X64952381Y-59047619D01*
X64952381Y-59333333D02*
X63952381Y-59333333D01*
X64095238Y-59238095D01*
X64190476Y-59142857D01*
X64238095Y-59047619D01*
X64904762Y-60095238D02*
X64952381Y-60095238D01*
X65047619Y-60047619D01*
X65095238Y-60000000D01*
X64047619Y-60476190D02*
X64000000Y-60523809D01*
X63952381Y-60619047D01*
X63952381Y-60857143D01*
X64000000Y-60952381D01*
X64047619Y-61000000D01*
X64142857Y-61047619D01*
X64238095Y-61047619D01*
X64380952Y-61000000D01*
X64952381Y-60428571D01*
X64952381Y-61047619D01*
D12*
X64000000Y-57500000D02*
X65000000Y-57500000D01*
X64000000Y-56000000D02*
X64000000Y-57500000D01*
D11*
X64952381Y-42261905D02*
X64952381Y-41690476D01*
X64952381Y-41976190D02*
X63952381Y-41976190D01*
X64095238Y-41880952D01*
X64190476Y-41785714D01*
X64238095Y-41690476D01*
X63952381Y-43119048D02*
X63952381Y-42928571D01*
X64000000Y-42833333D01*
X64047619Y-42785714D01*
X64190476Y-42690476D01*
X64380952Y-42642857D01*
X64761905Y-42642857D01*
X64857143Y-42690476D01*
X64904762Y-42738095D01*
X64952381Y-42833333D01*
X64952381Y-43023810D01*
X64904762Y-43119048D01*
X64857143Y-43166667D01*
X64761905Y-43214286D01*
X64523810Y-43214286D01*
X64428571Y-43166667D01*
X64380952Y-43119048D01*
X64333333Y-43023810D01*
X64333333Y-42833333D01*
X64380952Y-42738095D01*
X64428571Y-42690476D01*
X64523810Y-42642857D01*
X64857143Y-43642857D02*
X64904762Y-43690476D01*
X64952381Y-43642857D01*
X64904762Y-43595238D01*
X64857143Y-43642857D01*
X64952381Y-43642857D01*
X63952381Y-44023809D02*
X63952381Y-44642857D01*
X64333333Y-44309523D01*
X64333333Y-44452381D01*
X64380952Y-44547619D01*
X64428571Y-44595238D01*
X64523810Y-44642857D01*
X64761905Y-44642857D01*
X64857143Y-44595238D01*
X64904762Y-44547619D01*
X64952381Y-44452381D01*
X64952381Y-44166666D01*
X64904762Y-44071428D01*
X64857143Y-44023809D01*
X64380952Y-45214285D02*
X64333333Y-45119047D01*
X64285714Y-45071428D01*
X64190476Y-45023809D01*
X64142857Y-45023809D01*
X64047619Y-45071428D01*
X64000000Y-45119047D01*
X63952381Y-45214285D01*
X63952381Y-45404762D01*
X64000000Y-45500000D01*
X64047619Y-45547619D01*
X64142857Y-45595238D01*
X64190476Y-45595238D01*
X64285714Y-45547619D01*
X64333333Y-45500000D01*
X64380952Y-45404762D01*
X64380952Y-45214285D01*
X64428571Y-45119047D01*
X64476190Y-45071428D01*
X64571429Y-45023809D01*
X64761905Y-45023809D01*
X64857143Y-45071428D01*
X64904762Y-45119047D01*
X64952381Y-45214285D01*
X64952381Y-45404762D01*
X64904762Y-45500000D01*
X64857143Y-45547619D01*
X64761905Y-45595238D01*
X64571429Y-45595238D01*
X64476190Y-45547619D01*
X64428571Y-45500000D01*
X64380952Y-45404762D01*
X64285714Y-46452381D02*
X64952381Y-46452381D01*
X63904762Y-46214285D02*
X64619048Y-45976190D01*
X64619048Y-46595238D01*
X64952381Y-46976190D02*
X63952381Y-46976190D01*
X64666667Y-47309524D01*
X63952381Y-47642857D01*
X64952381Y-47642857D01*
X64952381Y-48119047D02*
X63952381Y-48119047D01*
X64428571Y-48119047D02*
X64428571Y-48690476D01*
X64952381Y-48690476D02*
X63952381Y-48690476D01*
X64285714Y-49071428D02*
X64285714Y-49595238D01*
X64952381Y-49071428D01*
X64952381Y-49595238D01*
X64857143Y-51309524D02*
X64904762Y-51261905D01*
X64952381Y-51119048D01*
X64952381Y-51023810D01*
X64904762Y-50880952D01*
X64809524Y-50785714D01*
X64714286Y-50738095D01*
X64523810Y-50690476D01*
X64380952Y-50690476D01*
X64190476Y-50738095D01*
X64095238Y-50785714D01*
X64000000Y-50880952D01*
X63952381Y-51023810D01*
X63952381Y-51119048D01*
X64000000Y-51261905D01*
X64047619Y-51309524D01*
X64952381Y-51738095D02*
X64285714Y-51738095D01*
X64476190Y-51738095D02*
X64380952Y-51785714D01*
X64333333Y-51833333D01*
X64285714Y-51928571D01*
X64285714Y-52023810D01*
X64285714Y-52261905D02*
X64952381Y-52500000D01*
X64285714Y-52738096D02*
X64952381Y-52500000D01*
X65190476Y-52404762D01*
X65238095Y-52357143D01*
X65285714Y-52261905D01*
X64904762Y-53071429D02*
X64952381Y-53166667D01*
X64952381Y-53357143D01*
X64904762Y-53452382D01*
X64809524Y-53500001D01*
X64761905Y-53500001D01*
X64666667Y-53452382D01*
X64619048Y-53357143D01*
X64619048Y-53214286D01*
X64571429Y-53119048D01*
X64476190Y-53071429D01*
X64428571Y-53071429D01*
X64333333Y-53119048D01*
X64285714Y-53214286D01*
X64285714Y-53357143D01*
X64333333Y-53452382D01*
X64285714Y-53785715D02*
X64285714Y-54166667D01*
X63952381Y-53928572D02*
X64809524Y-53928572D01*
X64904762Y-53976191D01*
X64952381Y-54071429D01*
X64952381Y-54166667D01*
X64952381Y-54928573D02*
X64428571Y-54928573D01*
X64333333Y-54880954D01*
X64285714Y-54785716D01*
X64285714Y-54595239D01*
X64333333Y-54500001D01*
X64904762Y-54928573D02*
X64952381Y-54833335D01*
X64952381Y-54595239D01*
X64904762Y-54500001D01*
X64809524Y-54452382D01*
X64714286Y-54452382D01*
X64619048Y-54500001D01*
X64571429Y-54595239D01*
X64571429Y-54833335D01*
X64523810Y-54928573D01*
X64952381Y-55547620D02*
X64904762Y-55452382D01*
X64809524Y-55404763D01*
X63952381Y-55404763D01*
D12*
X62000000Y-57500000D02*
X63000000Y-57500000D01*
X62000000Y-52500000D02*
X62000000Y-57500000D01*
D11*
X62666667Y-41690476D02*
X62666667Y-42166667D01*
X62952381Y-41595238D02*
X61952381Y-41928571D01*
X62952381Y-42261905D01*
X62952381Y-42595238D02*
X61952381Y-42595238D01*
X61952381Y-42833333D01*
X62000000Y-42976191D01*
X62095238Y-43071429D01*
X62190476Y-43119048D01*
X62380952Y-43166667D01*
X62523810Y-43166667D01*
X62714286Y-43119048D01*
X62809524Y-43071429D01*
X62904762Y-42976191D01*
X62952381Y-42833333D01*
X62952381Y-42595238D01*
X62428571Y-43595238D02*
X62428571Y-43928572D01*
X62952381Y-44071429D02*
X62952381Y-43595238D01*
X61952381Y-43595238D01*
X61952381Y-44071429D01*
X61952381Y-44404762D02*
X61952381Y-45071429D01*
X62952381Y-44642857D01*
X62380952Y-45595238D02*
X62333333Y-45500000D01*
X62285714Y-45452381D01*
X62190476Y-45404762D01*
X62142857Y-45404762D01*
X62047619Y-45452381D01*
X62000000Y-45500000D01*
X61952381Y-45595238D01*
X61952381Y-45785715D01*
X62000000Y-45880953D01*
X62047619Y-45928572D01*
X62142857Y-45976191D01*
X62190476Y-45976191D01*
X62285714Y-45928572D01*
X62333333Y-45880953D01*
X62380952Y-45785715D01*
X62380952Y-45595238D01*
X62428571Y-45500000D01*
X62476190Y-45452381D01*
X62571429Y-45404762D01*
X62761905Y-45404762D01*
X62857143Y-45452381D01*
X62904762Y-45500000D01*
X62952381Y-45595238D01*
X62952381Y-45785715D01*
X62904762Y-45880953D01*
X62857143Y-45928572D01*
X62761905Y-45976191D01*
X62571429Y-45976191D01*
X62476190Y-45928572D01*
X62428571Y-45880953D01*
X62380952Y-45785715D01*
X62952381Y-46928572D02*
X62952381Y-46357143D01*
X62952381Y-46642857D02*
X61952381Y-46642857D01*
X62095238Y-46547619D01*
X62190476Y-46452381D01*
X62238095Y-46357143D01*
X61952381Y-47785715D02*
X61952381Y-47595238D01*
X62000000Y-47500000D01*
X62047619Y-47452381D01*
X62190476Y-47357143D01*
X62380952Y-47309524D01*
X62761905Y-47309524D01*
X62857143Y-47357143D01*
X62904762Y-47404762D01*
X62952381Y-47500000D01*
X62952381Y-47690477D01*
X62904762Y-47785715D01*
X62857143Y-47833334D01*
X62761905Y-47880953D01*
X62523810Y-47880953D01*
X62428571Y-47833334D01*
X62380952Y-47785715D01*
X62333333Y-47690477D01*
X62333333Y-47500000D01*
X62380952Y-47404762D01*
X62428571Y-47357143D01*
X62523810Y-47309524D01*
X62666667Y-48261905D02*
X62666667Y-48738096D01*
X62952381Y-48166667D02*
X61952381Y-48500000D01*
X62952381Y-48833334D01*
X62857143Y-49738096D02*
X62904762Y-49690477D01*
X62952381Y-49547620D01*
X62952381Y-49452382D01*
X62904762Y-49309524D01*
X62809524Y-49214286D01*
X62714286Y-49166667D01*
X62523810Y-49119048D01*
X62380952Y-49119048D01*
X62190476Y-49166667D01*
X62095238Y-49214286D01*
X62000000Y-49309524D01*
X61952381Y-49452382D01*
X61952381Y-49547620D01*
X62000000Y-49690477D01*
X62047619Y-49738096D01*
X62952381Y-50166667D02*
X61952381Y-50166667D01*
X61952381Y-50547620D01*
X62000000Y-50642858D01*
X62047619Y-50690477D01*
X62142857Y-50738096D01*
X62285714Y-50738096D01*
X62380952Y-50690477D01*
X62428571Y-50642858D01*
X62476190Y-50547620D01*
X62476190Y-50166667D01*
X61952381Y-51071429D02*
X61952381Y-51738096D01*
X62952381Y-51071429D01*
X62952381Y-51738096D01*
X61952381Y-58238095D02*
X62761905Y-58238095D01*
X62857143Y-58285714D01*
X62904762Y-58333333D01*
X62952381Y-58428571D01*
X62952381Y-58619048D01*
X62904762Y-58714286D01*
X62857143Y-58761905D01*
X62761905Y-58809524D01*
X61952381Y-58809524D01*
X62952381Y-59809524D02*
X62952381Y-59238095D01*
X62952381Y-59523809D02*
X61952381Y-59523809D01*
X62095238Y-59428571D01*
X62190476Y-59333333D01*
X62238095Y-59238095D01*
X62904762Y-60285714D02*
X62952381Y-60285714D01*
X63047619Y-60238095D01*
X63095238Y-60190476D01*
X62047619Y-60666666D02*
X62000000Y-60714285D01*
X61952381Y-60809523D01*
X61952381Y-61047619D01*
X62000000Y-61142857D01*
X62047619Y-61190476D01*
X62142857Y-61238095D01*
X62238095Y-61238095D01*
X62380952Y-61190476D01*
X62952381Y-60619047D01*
X62952381Y-61238095D01*
D12*
X53500000Y-57500000D02*
X59000000Y-57500000D01*
X53500000Y-45500000D02*
X53500000Y-57500000D01*
X51500000Y-57500000D02*
X52500000Y-57500000D01*
X51500000Y-46500000D02*
X51500000Y-57500000D01*
X47500000Y-57500000D02*
X48500000Y-57500000D01*
D11*
X37452381Y-58809524D02*
X36976190Y-58476190D01*
X37452381Y-58238095D02*
X36452381Y-58238095D01*
X36452381Y-58619048D01*
X36500000Y-58714286D01*
X36547619Y-58761905D01*
X36642857Y-58809524D01*
X36785714Y-58809524D01*
X36880952Y-58761905D01*
X36928571Y-58714286D01*
X36976190Y-58619048D01*
X36976190Y-58238095D01*
X36452381Y-59714286D02*
X36452381Y-59238095D01*
X36928571Y-59190476D01*
X36880952Y-59238095D01*
X36833333Y-59333333D01*
X36833333Y-59571429D01*
X36880952Y-59666667D01*
X36928571Y-59714286D01*
X37023810Y-59761905D01*
X37261905Y-59761905D01*
X37357143Y-59714286D01*
X37404762Y-59666667D01*
X37452381Y-59571429D01*
X37452381Y-59333333D01*
X37404762Y-59238095D01*
X37357143Y-59190476D01*
X36452381Y-60095238D02*
X36452381Y-60761905D01*
X37452381Y-60333333D01*
X39452381Y-58809524D02*
X38976190Y-58476190D01*
X39452381Y-58238095D02*
X38452381Y-58238095D01*
X38452381Y-58619048D01*
X38500000Y-58714286D01*
X38547619Y-58761905D01*
X38642857Y-58809524D01*
X38785714Y-58809524D01*
X38880952Y-58761905D01*
X38928571Y-58714286D01*
X38976190Y-58619048D01*
X38976190Y-58238095D01*
X38547619Y-59190476D02*
X38500000Y-59238095D01*
X38452381Y-59333333D01*
X38452381Y-59571429D01*
X38500000Y-59666667D01*
X38547619Y-59714286D01*
X38642857Y-59761905D01*
X38738095Y-59761905D01*
X38880952Y-59714286D01*
X39452381Y-59142857D01*
X39452381Y-59761905D01*
X39452381Y-60714286D02*
X39452381Y-60142857D01*
X39452381Y-60428571D02*
X38452381Y-60428571D01*
X38595238Y-60333333D01*
X38690476Y-60238095D01*
X38738095Y-60142857D01*
X39404762Y-61190476D02*
X39452381Y-61190476D01*
X39547619Y-61142857D01*
X39595238Y-61095238D01*
X38547619Y-61571428D02*
X38500000Y-61619047D01*
X38452381Y-61714285D01*
X38452381Y-61952381D01*
X38500000Y-62047619D01*
X38547619Y-62095238D01*
X38642857Y-62142857D01*
X38738095Y-62142857D01*
X38880952Y-62095238D01*
X39452381Y-61523809D01*
X39452381Y-62142857D01*
X38547619Y-62523809D02*
X38500000Y-62571428D01*
X38452381Y-62666666D01*
X38452381Y-62904762D01*
X38500000Y-63000000D01*
X38547619Y-63047619D01*
X38642857Y-63095238D01*
X38738095Y-63095238D01*
X38880952Y-63047619D01*
X39452381Y-62476190D01*
X39452381Y-63095238D01*
X39404762Y-63571428D02*
X39452381Y-63571428D01*
X39547619Y-63523809D01*
X39595238Y-63476190D01*
X38547619Y-63952380D02*
X38500000Y-63999999D01*
X38452381Y-64095237D01*
X38452381Y-64333333D01*
X38500000Y-64428571D01*
X38547619Y-64476190D01*
X38642857Y-64523809D01*
X38738095Y-64523809D01*
X38880952Y-64476190D01*
X39452381Y-63904761D01*
X39452381Y-64523809D01*
X38452381Y-64857142D02*
X38452381Y-65476190D01*
X38833333Y-65142856D01*
X38833333Y-65285714D01*
X38880952Y-65380952D01*
X38928571Y-65428571D01*
X39023810Y-65476190D01*
X39261905Y-65476190D01*
X39357143Y-65428571D01*
X39404762Y-65380952D01*
X39452381Y-65285714D01*
X39452381Y-64999999D01*
X39404762Y-64904761D01*
X39357143Y-64857142D01*
X39404762Y-65952380D02*
X39452381Y-65952380D01*
X39547619Y-65904761D01*
X39595238Y-65857142D01*
X38547619Y-66333332D02*
X38500000Y-66380951D01*
X38452381Y-66476189D01*
X38452381Y-66714285D01*
X38500000Y-66809523D01*
X38547619Y-66857142D01*
X38642857Y-66904761D01*
X38738095Y-66904761D01*
X38880952Y-66857142D01*
X39452381Y-66285713D01*
X39452381Y-66904761D01*
X38785714Y-67761904D02*
X39452381Y-67761904D01*
X38404762Y-67523808D02*
X39119048Y-67285713D01*
X39119048Y-67904761D01*
X39404762Y-68333332D02*
X39452381Y-68333332D01*
X39547619Y-68285713D01*
X39595238Y-68238094D01*
X38547619Y-68714284D02*
X38500000Y-68761903D01*
X38452381Y-68857141D01*
X38452381Y-69095237D01*
X38500000Y-69190475D01*
X38547619Y-69238094D01*
X38642857Y-69285713D01*
X38738095Y-69285713D01*
X38880952Y-69238094D01*
X39452381Y-68666665D01*
X39452381Y-69285713D01*
X38452381Y-70190475D02*
X38452381Y-69714284D01*
X38928571Y-69666665D01*
X38880952Y-69714284D01*
X38833333Y-69809522D01*
X38833333Y-70047618D01*
X38880952Y-70142856D01*
X38928571Y-70190475D01*
X39023810Y-70238094D01*
X39261905Y-70238094D01*
X39357143Y-70190475D01*
X39404762Y-70142856D01*
X39452381Y-70047618D01*
X39452381Y-69809522D01*
X39404762Y-69714284D01*
X39357143Y-69666665D01*
X39404762Y-70714284D02*
X39452381Y-70714284D01*
X39547619Y-70666665D01*
X39595238Y-70619046D01*
X38547619Y-71095236D02*
X38500000Y-71142855D01*
X38452381Y-71238093D01*
X38452381Y-71476189D01*
X38500000Y-71571427D01*
X38547619Y-71619046D01*
X38642857Y-71666665D01*
X38738095Y-71666665D01*
X38880952Y-71619046D01*
X39452381Y-71047617D01*
X39452381Y-71666665D01*
X38452381Y-72523808D02*
X38452381Y-72333331D01*
X38500000Y-72238093D01*
X38547619Y-72190474D01*
X38690476Y-72095236D01*
X38880952Y-72047617D01*
X39261905Y-72047617D01*
X39357143Y-72095236D01*
X39404762Y-72142855D01*
X39452381Y-72238093D01*
X39452381Y-72428570D01*
X39404762Y-72523808D01*
X39357143Y-72571427D01*
X39261905Y-72619046D01*
X39023810Y-72619046D01*
X38928571Y-72571427D01*
X38880952Y-72523808D01*
X38833333Y-72428570D01*
X38833333Y-72238093D01*
X38880952Y-72142855D01*
X38928571Y-72095236D01*
X39023810Y-72047617D01*
X39404762Y-73095236D02*
X39452381Y-73095236D01*
X39547619Y-73047617D01*
X39595238Y-72999998D01*
X38547619Y-73476188D02*
X38500000Y-73523807D01*
X38452381Y-73619045D01*
X38452381Y-73857141D01*
X38500000Y-73952379D01*
X38547619Y-73999998D01*
X38642857Y-74047617D01*
X38738095Y-74047617D01*
X38880952Y-73999998D01*
X39452381Y-73428569D01*
X39452381Y-74047617D01*
X38452381Y-74380950D02*
X38452381Y-75047617D01*
X39452381Y-74619045D01*
X39404762Y-75476188D02*
X39452381Y-75476188D01*
X39547619Y-75428569D01*
X39595238Y-75380950D01*
X38547619Y-75857140D02*
X38500000Y-75904759D01*
X38452381Y-75999997D01*
X38452381Y-76238093D01*
X38500000Y-76333331D01*
X38547619Y-76380950D01*
X38642857Y-76428569D01*
X38738095Y-76428569D01*
X38880952Y-76380950D01*
X39452381Y-75809521D01*
X39452381Y-76428569D01*
X38880952Y-76999997D02*
X38833333Y-76904759D01*
X38785714Y-76857140D01*
X38690476Y-76809521D01*
X38642857Y-76809521D01*
X38547619Y-76857140D01*
X38500000Y-76904759D01*
X38452381Y-76999997D01*
X38452381Y-77190474D01*
X38500000Y-77285712D01*
X38547619Y-77333331D01*
X38642857Y-77380950D01*
X38690476Y-77380950D01*
X38785714Y-77333331D01*
X38833333Y-77285712D01*
X38880952Y-77190474D01*
X38880952Y-76999997D01*
X38928571Y-76904759D01*
X38976190Y-76857140D01*
X39071429Y-76809521D01*
X39261905Y-76809521D01*
X39357143Y-76857140D01*
X39404762Y-76904759D01*
X39452381Y-76999997D01*
X39452381Y-77190474D01*
X39404762Y-77285712D01*
X39357143Y-77333331D01*
X39261905Y-77380950D01*
X39071429Y-77380950D01*
X38976190Y-77333331D01*
X38928571Y-77285712D01*
X38880952Y-77190474D01*
X39404762Y-77857140D02*
X39452381Y-77857140D01*
X39547619Y-77809521D01*
X39595238Y-77761902D01*
X38547619Y-78238092D02*
X38500000Y-78285711D01*
X38452381Y-78380949D01*
X38452381Y-78619045D01*
X38500000Y-78714283D01*
X38547619Y-78761902D01*
X38642857Y-78809521D01*
X38738095Y-78809521D01*
X38880952Y-78761902D01*
X39452381Y-78190473D01*
X39452381Y-78809521D01*
X39452381Y-79285711D02*
X39452381Y-79476187D01*
X39404762Y-79571426D01*
X39357143Y-79619045D01*
X39214286Y-79714283D01*
X39023810Y-79761902D01*
X38642857Y-79761902D01*
X38547619Y-79714283D01*
X38500000Y-79666664D01*
X38452381Y-79571426D01*
X38452381Y-79380949D01*
X38500000Y-79285711D01*
X38547619Y-79238092D01*
X38642857Y-79190473D01*
X38880952Y-79190473D01*
X38976190Y-79238092D01*
X39023810Y-79285711D01*
X39071429Y-79380949D01*
X39071429Y-79571426D01*
X39023810Y-79666664D01*
X38976190Y-79714283D01*
X38880952Y-79761902D01*
X39404762Y-80238092D02*
X39452381Y-80238092D01*
X39547619Y-80190473D01*
X39595238Y-80142854D01*
X38452381Y-80571425D02*
X38452381Y-81190473D01*
X38833333Y-80857139D01*
X38833333Y-80999997D01*
X38880952Y-81095235D01*
X38928571Y-81142854D01*
X39023810Y-81190473D01*
X39261905Y-81190473D01*
X39357143Y-81142854D01*
X39404762Y-81095235D01*
X39452381Y-80999997D01*
X39452381Y-80714282D01*
X39404762Y-80619044D01*
X39357143Y-80571425D01*
X38452381Y-81809520D02*
X38452381Y-81904759D01*
X38500000Y-81999997D01*
X38547619Y-82047616D01*
X38642857Y-82095235D01*
X38833333Y-82142854D01*
X39071429Y-82142854D01*
X39261905Y-82095235D01*
X39357143Y-82047616D01*
X39404762Y-81999997D01*
X39452381Y-81904759D01*
X39452381Y-81809520D01*
X39404762Y-81714282D01*
X39357143Y-81666663D01*
X39261905Y-81619044D01*
X39071429Y-81571425D01*
X38833333Y-81571425D01*
X38642857Y-81619044D01*
X38547619Y-81666663D01*
X38500000Y-81714282D01*
X38452381Y-81809520D01*
X39404762Y-82619044D02*
X39452381Y-82619044D01*
X39547619Y-82571425D01*
X39595238Y-82523806D01*
X38452381Y-82952377D02*
X38452381Y-83571425D01*
X38833333Y-83238091D01*
X38833333Y-83380949D01*
X38880952Y-83476187D01*
X38928571Y-83523806D01*
X39023810Y-83571425D01*
X39261905Y-83571425D01*
X39357143Y-83523806D01*
X39404762Y-83476187D01*
X39452381Y-83380949D01*
X39452381Y-83095234D01*
X39404762Y-82999996D01*
X39357143Y-82952377D01*
X39452381Y-84523806D02*
X39452381Y-83952377D01*
X39452381Y-84238091D02*
X38452381Y-84238091D01*
X38595238Y-84142853D01*
X38690476Y-84047615D01*
X38738095Y-83952377D01*
X39404762Y-84999996D02*
X39452381Y-84999996D01*
X39547619Y-84952377D01*
X39595238Y-84904758D01*
X38452381Y-85333329D02*
X38452381Y-85952377D01*
X38833333Y-85619043D01*
X38833333Y-85761901D01*
X38880952Y-85857139D01*
X38928571Y-85904758D01*
X39023810Y-85952377D01*
X39261905Y-85952377D01*
X39357143Y-85904758D01*
X39404762Y-85857139D01*
X39452381Y-85761901D01*
X39452381Y-85476186D01*
X39404762Y-85380948D01*
X39357143Y-85333329D01*
X38547619Y-86333329D02*
X38500000Y-86380948D01*
X38452381Y-86476186D01*
X38452381Y-86714282D01*
X38500000Y-86809520D01*
X38547619Y-86857139D01*
X38642857Y-86904758D01*
X38738095Y-86904758D01*
X38880952Y-86857139D01*
X39452381Y-86285710D01*
X39452381Y-86904758D01*
X40952381Y-58809524D02*
X40476190Y-58476190D01*
X40952381Y-58238095D02*
X39952381Y-58238095D01*
X39952381Y-58619048D01*
X40000000Y-58714286D01*
X40047619Y-58761905D01*
X40142857Y-58809524D01*
X40285714Y-58809524D01*
X40380952Y-58761905D01*
X40428571Y-58714286D01*
X40476190Y-58619048D01*
X40476190Y-58238095D01*
X40285714Y-59666667D02*
X40952381Y-59666667D01*
X39904762Y-59428571D02*
X40619048Y-59190476D01*
X40619048Y-59809524D01*
X39952381Y-60666667D02*
X39952381Y-60190476D01*
X40428571Y-60142857D01*
X40380952Y-60190476D01*
X40333333Y-60285714D01*
X40333333Y-60523810D01*
X40380952Y-60619048D01*
X40428571Y-60666667D01*
X40523810Y-60714286D01*
X40761905Y-60714286D01*
X40857143Y-60666667D01*
X40904762Y-60619048D01*
X40952381Y-60523810D01*
X40952381Y-60285714D01*
X40904762Y-60190476D01*
X40857143Y-60142857D01*
X40904762Y-61190476D02*
X40952381Y-61190476D01*
X41047619Y-61142857D01*
X41095238Y-61095238D01*
X40285714Y-62047619D02*
X40952381Y-62047619D01*
X39904762Y-61809523D02*
X40619048Y-61571428D01*
X40619048Y-62190476D01*
X39952381Y-63000000D02*
X39952381Y-62809523D01*
X40000000Y-62714285D01*
X40047619Y-62666666D01*
X40190476Y-62571428D01*
X40380952Y-62523809D01*
X40761905Y-62523809D01*
X40857143Y-62571428D01*
X40904762Y-62619047D01*
X40952381Y-62714285D01*
X40952381Y-62904762D01*
X40904762Y-63000000D01*
X40857143Y-63047619D01*
X40761905Y-63095238D01*
X40523810Y-63095238D01*
X40428571Y-63047619D01*
X40380952Y-63000000D01*
X40333333Y-62904762D01*
X40333333Y-62714285D01*
X40380952Y-62619047D01*
X40428571Y-62571428D01*
X40523810Y-62523809D01*
X40904762Y-63571428D02*
X40952381Y-63571428D01*
X41047619Y-63523809D01*
X41095238Y-63476190D01*
X40285714Y-64428571D02*
X40952381Y-64428571D01*
X39904762Y-64190475D02*
X40619048Y-63952380D01*
X40619048Y-64571428D01*
X39952381Y-64857142D02*
X39952381Y-65523809D01*
X40952381Y-65095237D01*
X40904762Y-65952380D02*
X40952381Y-65952380D01*
X41047619Y-65904761D01*
X41095238Y-65857142D01*
X40285714Y-66809523D02*
X40952381Y-66809523D01*
X39904762Y-66571427D02*
X40619048Y-66333332D01*
X40619048Y-66952380D01*
X40952381Y-67380951D02*
X40952381Y-67571427D01*
X40904762Y-67666666D01*
X40857143Y-67714285D01*
X40714286Y-67809523D01*
X40523810Y-67857142D01*
X40142857Y-67857142D01*
X40047619Y-67809523D01*
X40000000Y-67761904D01*
X39952381Y-67666666D01*
X39952381Y-67476189D01*
X40000000Y-67380951D01*
X40047619Y-67333332D01*
X40142857Y-67285713D01*
X40380952Y-67285713D01*
X40476190Y-67333332D01*
X40523810Y-67380951D01*
X40571429Y-67476189D01*
X40571429Y-67666666D01*
X40523810Y-67761904D01*
X40476190Y-67809523D01*
X40380952Y-67857142D01*
X40904762Y-68333332D02*
X40952381Y-68333332D01*
X41047619Y-68285713D01*
X41095238Y-68238094D01*
X39952381Y-69238094D02*
X39952381Y-68761903D01*
X40428571Y-68714284D01*
X40380952Y-68761903D01*
X40333333Y-68857141D01*
X40333333Y-69095237D01*
X40380952Y-69190475D01*
X40428571Y-69238094D01*
X40523810Y-69285713D01*
X40761905Y-69285713D01*
X40857143Y-69238094D01*
X40904762Y-69190475D01*
X40952381Y-69095237D01*
X40952381Y-68857141D01*
X40904762Y-68761903D01*
X40857143Y-68714284D01*
X40952381Y-70238094D02*
X40952381Y-69666665D01*
X40952381Y-69952379D02*
X39952381Y-69952379D01*
X40095238Y-69857141D01*
X40190476Y-69761903D01*
X40238095Y-69666665D01*
X40904762Y-70714284D02*
X40952381Y-70714284D01*
X41047619Y-70666665D01*
X41095238Y-70619046D01*
X39952381Y-71619046D02*
X39952381Y-71142855D01*
X40428571Y-71095236D01*
X40380952Y-71142855D01*
X40333333Y-71238093D01*
X40333333Y-71476189D01*
X40380952Y-71571427D01*
X40428571Y-71619046D01*
X40523810Y-71666665D01*
X40761905Y-71666665D01*
X40857143Y-71619046D01*
X40904762Y-71571427D01*
X40952381Y-71476189D01*
X40952381Y-71238093D01*
X40904762Y-71142855D01*
X40857143Y-71095236D01*
X40047619Y-72047617D02*
X40000000Y-72095236D01*
X39952381Y-72190474D01*
X39952381Y-72428570D01*
X40000000Y-72523808D01*
X40047619Y-72571427D01*
X40142857Y-72619046D01*
X40238095Y-72619046D01*
X40380952Y-72571427D01*
X40952381Y-71999998D01*
X40952381Y-72619046D01*
X40904762Y-73095236D02*
X40952381Y-73095236D01*
X41047619Y-73047617D01*
X41095238Y-72999998D01*
X39952381Y-73999998D02*
X39952381Y-73523807D01*
X40428571Y-73476188D01*
X40380952Y-73523807D01*
X40333333Y-73619045D01*
X40333333Y-73857141D01*
X40380952Y-73952379D01*
X40428571Y-73999998D01*
X40523810Y-74047617D01*
X40761905Y-74047617D01*
X40857143Y-73999998D01*
X40904762Y-73952379D01*
X40952381Y-73857141D01*
X40952381Y-73619045D01*
X40904762Y-73523807D01*
X40857143Y-73476188D01*
X39952381Y-74380950D02*
X39952381Y-74999998D01*
X40333333Y-74666664D01*
X40333333Y-74809522D01*
X40380952Y-74904760D01*
X40428571Y-74952379D01*
X40523810Y-74999998D01*
X40761905Y-74999998D01*
X40857143Y-74952379D01*
X40904762Y-74904760D01*
X40952381Y-74809522D01*
X40952381Y-74523807D01*
X40904762Y-74428569D01*
X40857143Y-74380950D01*
X40904762Y-75476188D02*
X40952381Y-75476188D01*
X41047619Y-75428569D01*
X41095238Y-75380950D01*
X39952381Y-76380950D02*
X39952381Y-75904759D01*
X40428571Y-75857140D01*
X40380952Y-75904759D01*
X40333333Y-75999997D01*
X40333333Y-76238093D01*
X40380952Y-76333331D01*
X40428571Y-76380950D01*
X40523810Y-76428569D01*
X40761905Y-76428569D01*
X40857143Y-76380950D01*
X40904762Y-76333331D01*
X40952381Y-76238093D01*
X40952381Y-75999997D01*
X40904762Y-75904759D01*
X40857143Y-75857140D01*
X39952381Y-77333331D02*
X39952381Y-76857140D01*
X40428571Y-76809521D01*
X40380952Y-76857140D01*
X40333333Y-76952378D01*
X40333333Y-77190474D01*
X40380952Y-77285712D01*
X40428571Y-77333331D01*
X40523810Y-77380950D01*
X40761905Y-77380950D01*
X40857143Y-77333331D01*
X40904762Y-77285712D01*
X40952381Y-77190474D01*
X40952381Y-76952378D01*
X40904762Y-76857140D01*
X40857143Y-76809521D01*
X40904762Y-77857140D02*
X40952381Y-77857140D01*
X41047619Y-77809521D01*
X41095238Y-77761902D01*
X39952381Y-78761902D02*
X39952381Y-78285711D01*
X40428571Y-78238092D01*
X40380952Y-78285711D01*
X40333333Y-78380949D01*
X40333333Y-78619045D01*
X40380952Y-78714283D01*
X40428571Y-78761902D01*
X40523810Y-78809521D01*
X40761905Y-78809521D01*
X40857143Y-78761902D01*
X40904762Y-78714283D01*
X40952381Y-78619045D01*
X40952381Y-78380949D01*
X40904762Y-78285711D01*
X40857143Y-78238092D01*
X40380952Y-79380949D02*
X40333333Y-79285711D01*
X40285714Y-79238092D01*
X40190476Y-79190473D01*
X40142857Y-79190473D01*
X40047619Y-79238092D01*
X40000000Y-79285711D01*
X39952381Y-79380949D01*
X39952381Y-79571426D01*
X40000000Y-79666664D01*
X40047619Y-79714283D01*
X40142857Y-79761902D01*
X40190476Y-79761902D01*
X40285714Y-79714283D01*
X40333333Y-79666664D01*
X40380952Y-79571426D01*
X40380952Y-79380949D01*
X40428571Y-79285711D01*
X40476190Y-79238092D01*
X40571429Y-79190473D01*
X40761905Y-79190473D01*
X40857143Y-79238092D01*
X40904762Y-79285711D01*
X40952381Y-79380949D01*
X40952381Y-79571426D01*
X40904762Y-79666664D01*
X40857143Y-79714283D01*
X40761905Y-79761902D01*
X40571429Y-79761902D01*
X40476190Y-79714283D01*
X40428571Y-79666664D01*
X40380952Y-79571426D01*
X40904762Y-80238092D02*
X40952381Y-80238092D01*
X41047619Y-80190473D01*
X41095238Y-80142854D01*
X39952381Y-81095235D02*
X39952381Y-80904758D01*
X40000000Y-80809520D01*
X40047619Y-80761901D01*
X40190476Y-80666663D01*
X40380952Y-80619044D01*
X40761905Y-80619044D01*
X40857143Y-80666663D01*
X40904762Y-80714282D01*
X40952381Y-80809520D01*
X40952381Y-80999997D01*
X40904762Y-81095235D01*
X40857143Y-81142854D01*
X40761905Y-81190473D01*
X40523810Y-81190473D01*
X40428571Y-81142854D01*
X40380952Y-81095235D01*
X40333333Y-80999997D01*
X40333333Y-80809520D01*
X40380952Y-80714282D01*
X40428571Y-80666663D01*
X40523810Y-80619044D01*
X40952381Y-82142854D02*
X40952381Y-81571425D01*
X40952381Y-81857139D02*
X39952381Y-81857139D01*
X40095238Y-81761901D01*
X40190476Y-81666663D01*
X40238095Y-81571425D01*
X40904762Y-82619044D02*
X40952381Y-82619044D01*
X41047619Y-82571425D01*
X41095238Y-82523806D01*
X39952381Y-83476187D02*
X39952381Y-83285710D01*
X40000000Y-83190472D01*
X40047619Y-83142853D01*
X40190476Y-83047615D01*
X40380952Y-82999996D01*
X40761905Y-82999996D01*
X40857143Y-83047615D01*
X40904762Y-83095234D01*
X40952381Y-83190472D01*
X40952381Y-83380949D01*
X40904762Y-83476187D01*
X40857143Y-83523806D01*
X40761905Y-83571425D01*
X40523810Y-83571425D01*
X40428571Y-83523806D01*
X40380952Y-83476187D01*
X40333333Y-83380949D01*
X40333333Y-83190472D01*
X40380952Y-83095234D01*
X40428571Y-83047615D01*
X40523810Y-82999996D01*
X40047619Y-83952377D02*
X40000000Y-83999996D01*
X39952381Y-84095234D01*
X39952381Y-84333330D01*
X40000000Y-84428568D01*
X40047619Y-84476187D01*
X40142857Y-84523806D01*
X40238095Y-84523806D01*
X40380952Y-84476187D01*
X40952381Y-83904758D01*
X40952381Y-84523806D01*
X40904762Y-84999996D02*
X40952381Y-84999996D01*
X41047619Y-84952377D01*
X41095238Y-84904758D01*
X39952381Y-85857139D02*
X39952381Y-85666662D01*
X40000000Y-85571424D01*
X40047619Y-85523805D01*
X40190476Y-85428567D01*
X40380952Y-85380948D01*
X40761905Y-85380948D01*
X40857143Y-85428567D01*
X40904762Y-85476186D01*
X40952381Y-85571424D01*
X40952381Y-85761901D01*
X40904762Y-85857139D01*
X40857143Y-85904758D01*
X40761905Y-85952377D01*
X40523810Y-85952377D01*
X40428571Y-85904758D01*
X40380952Y-85857139D01*
X40333333Y-85761901D01*
X40333333Y-85571424D01*
X40380952Y-85476186D01*
X40428571Y-85428567D01*
X40523810Y-85380948D01*
X39952381Y-86285710D02*
X39952381Y-86904758D01*
X40333333Y-86571424D01*
X40333333Y-86714282D01*
X40380952Y-86809520D01*
X40428571Y-86857139D01*
X40523810Y-86904758D01*
X40761905Y-86904758D01*
X40857143Y-86857139D01*
X40904762Y-86809520D01*
X40952381Y-86714282D01*
X40952381Y-86428567D01*
X40904762Y-86333329D01*
X40857143Y-86285710D01*
X42952381Y-58809524D02*
X42476190Y-58476190D01*
X42952381Y-58238095D02*
X41952381Y-58238095D01*
X41952381Y-58619048D01*
X42000000Y-58714286D01*
X42047619Y-58761905D01*
X42142857Y-58809524D01*
X42285714Y-58809524D01*
X42380952Y-58761905D01*
X42428571Y-58714286D01*
X42476190Y-58619048D01*
X42476190Y-58238095D01*
X42952381Y-59285714D02*
X42952381Y-59476190D01*
X42904762Y-59571429D01*
X42857143Y-59619048D01*
X42714286Y-59714286D01*
X42523810Y-59761905D01*
X42142857Y-59761905D01*
X42047619Y-59714286D01*
X42000000Y-59666667D01*
X41952381Y-59571429D01*
X41952381Y-59380952D01*
X42000000Y-59285714D01*
X42047619Y-59238095D01*
X42142857Y-59190476D01*
X42380952Y-59190476D01*
X42476190Y-59238095D01*
X42523810Y-59285714D01*
X42571429Y-59380952D01*
X42571429Y-59571429D01*
X42523810Y-59666667D01*
X42476190Y-59714286D01*
X42380952Y-59761905D01*
X42904762Y-60238095D02*
X42952381Y-60238095D01*
X43047619Y-60190476D01*
X43095238Y-60142857D01*
X42952381Y-61190476D02*
X42952381Y-60619047D01*
X42952381Y-60904761D02*
X41952381Y-60904761D01*
X42095238Y-60809523D01*
X42190476Y-60714285D01*
X42238095Y-60619047D01*
X41952381Y-61809523D02*
X41952381Y-61904762D01*
X42000000Y-62000000D01*
X42047619Y-62047619D01*
X42142857Y-62095238D01*
X42333333Y-62142857D01*
X42571429Y-62142857D01*
X42761905Y-62095238D01*
X42857143Y-62047619D01*
X42904762Y-62000000D01*
X42952381Y-61904762D01*
X42952381Y-61809523D01*
X42904762Y-61714285D01*
X42857143Y-61666666D01*
X42761905Y-61619047D01*
X42571429Y-61571428D01*
X42333333Y-61571428D01*
X42142857Y-61619047D01*
X42047619Y-61666666D01*
X42000000Y-61714285D01*
X41952381Y-61809523D01*
X42904762Y-62619047D02*
X42952381Y-62619047D01*
X43047619Y-62571428D01*
X43095238Y-62523809D01*
X42952381Y-63571428D02*
X42952381Y-62999999D01*
X42952381Y-63285713D02*
X41952381Y-63285713D01*
X42095238Y-63190475D01*
X42190476Y-63095237D01*
X42238095Y-62999999D01*
X42952381Y-64523809D02*
X42952381Y-63952380D01*
X42952381Y-64238094D02*
X41952381Y-64238094D01*
X42095238Y-64142856D01*
X42190476Y-64047618D01*
X42238095Y-63952380D01*
X42904762Y-64999999D02*
X42952381Y-64999999D01*
X43047619Y-64952380D01*
X43095238Y-64904761D01*
X42952381Y-65952380D02*
X42952381Y-65380951D01*
X42952381Y-65666665D02*
X41952381Y-65666665D01*
X42095238Y-65571427D01*
X42190476Y-65476189D01*
X42238095Y-65380951D01*
X42047619Y-66333332D02*
X42000000Y-66380951D01*
X41952381Y-66476189D01*
X41952381Y-66714285D01*
X42000000Y-66809523D01*
X42047619Y-66857142D01*
X42142857Y-66904761D01*
X42238095Y-66904761D01*
X42380952Y-66857142D01*
X42952381Y-66285713D01*
X42952381Y-66904761D01*
X42904762Y-67380951D02*
X42952381Y-67380951D01*
X43047619Y-67333332D01*
X43095238Y-67285713D01*
X42952381Y-68333332D02*
X42952381Y-67761903D01*
X42952381Y-68047617D02*
X41952381Y-68047617D01*
X42095238Y-67952379D01*
X42190476Y-67857141D01*
X42238095Y-67761903D01*
X41952381Y-68666665D02*
X41952381Y-69285713D01*
X42333333Y-68952379D01*
X42333333Y-69095237D01*
X42380952Y-69190475D01*
X42428571Y-69238094D01*
X42523810Y-69285713D01*
X42761905Y-69285713D01*
X42857143Y-69238094D01*
X42904762Y-69190475D01*
X42952381Y-69095237D01*
X42952381Y-68809522D01*
X42904762Y-68714284D01*
X42857143Y-68666665D01*
X42904762Y-69761903D02*
X42952381Y-69761903D01*
X43047619Y-69714284D01*
X43095238Y-69666665D01*
X42952381Y-70714284D02*
X42952381Y-70142855D01*
X42952381Y-70428569D02*
X41952381Y-70428569D01*
X42095238Y-70333331D01*
X42190476Y-70238093D01*
X42238095Y-70142855D01*
X42285714Y-71571427D02*
X42952381Y-71571427D01*
X41904762Y-71333331D02*
X42619048Y-71095236D01*
X42619048Y-71714284D01*
X42904762Y-72142855D02*
X42952381Y-72142855D01*
X43047619Y-72095236D01*
X43095238Y-72047617D01*
X42952381Y-73095236D02*
X42952381Y-72523807D01*
X42952381Y-72809521D02*
X41952381Y-72809521D01*
X42095238Y-72714283D01*
X42190476Y-72619045D01*
X42238095Y-72523807D01*
X41952381Y-73999998D02*
X41952381Y-73523807D01*
X42428571Y-73476188D01*
X42380952Y-73523807D01*
X42333333Y-73619045D01*
X42333333Y-73857141D01*
X42380952Y-73952379D01*
X42428571Y-73999998D01*
X42523810Y-74047617D01*
X42761905Y-74047617D01*
X42857143Y-73999998D01*
X42904762Y-73952379D01*
X42952381Y-73857141D01*
X42952381Y-73619045D01*
X42904762Y-73523807D01*
X42857143Y-73476188D01*
X42904762Y-74523807D02*
X42952381Y-74523807D01*
X43047619Y-74476188D01*
X43095238Y-74428569D01*
X42952381Y-75476188D02*
X42952381Y-74904759D01*
X42952381Y-75190473D02*
X41952381Y-75190473D01*
X42095238Y-75095235D01*
X42190476Y-74999997D01*
X42238095Y-74904759D01*
X41952381Y-76333331D02*
X41952381Y-76142854D01*
X42000000Y-76047616D01*
X42047619Y-75999997D01*
X42190476Y-75904759D01*
X42380952Y-75857140D01*
X42761905Y-75857140D01*
X42857143Y-75904759D01*
X42904762Y-75952378D01*
X42952381Y-76047616D01*
X42952381Y-76238093D01*
X42904762Y-76333331D01*
X42857143Y-76380950D01*
X42761905Y-76428569D01*
X42523810Y-76428569D01*
X42428571Y-76380950D01*
X42380952Y-76333331D01*
X42333333Y-76238093D01*
X42333333Y-76047616D01*
X42380952Y-75952378D01*
X42428571Y-75904759D01*
X42523810Y-75857140D01*
X42904762Y-76904759D02*
X42952381Y-76904759D01*
X43047619Y-76857140D01*
X43095238Y-76809521D01*
X42952381Y-77857140D02*
X42952381Y-77285711D01*
X42952381Y-77571425D02*
X41952381Y-77571425D01*
X42095238Y-77476187D01*
X42190476Y-77380949D01*
X42238095Y-77285711D01*
X41952381Y-78190473D02*
X41952381Y-78857140D01*
X42952381Y-78428568D01*
X42904762Y-79285711D02*
X42952381Y-79285711D01*
X43047619Y-79238092D01*
X43095238Y-79190473D01*
X42952381Y-80238092D02*
X42952381Y-79666663D01*
X42952381Y-79952377D02*
X41952381Y-79952377D01*
X42095238Y-79857139D01*
X42190476Y-79761901D01*
X42238095Y-79666663D01*
X42380952Y-80809520D02*
X42333333Y-80714282D01*
X42285714Y-80666663D01*
X42190476Y-80619044D01*
X42142857Y-80619044D01*
X42047619Y-80666663D01*
X42000000Y-80714282D01*
X41952381Y-80809520D01*
X41952381Y-80999997D01*
X42000000Y-81095235D01*
X42047619Y-81142854D01*
X42142857Y-81190473D01*
X42190476Y-81190473D01*
X42285714Y-81142854D01*
X42333333Y-81095235D01*
X42380952Y-80999997D01*
X42380952Y-80809520D01*
X42428571Y-80714282D01*
X42476190Y-80666663D01*
X42571429Y-80619044D01*
X42761905Y-80619044D01*
X42857143Y-80666663D01*
X42904762Y-80714282D01*
X42952381Y-80809520D01*
X42952381Y-80999997D01*
X42904762Y-81095235D01*
X42857143Y-81142854D01*
X42761905Y-81190473D01*
X42571429Y-81190473D01*
X42476190Y-81142854D01*
X42428571Y-81095235D01*
X42380952Y-80999997D01*
X42904762Y-81666663D02*
X42952381Y-81666663D01*
X43047619Y-81619044D01*
X43095238Y-81571425D01*
X42952381Y-82619044D02*
X42952381Y-82047615D01*
X42952381Y-82333329D02*
X41952381Y-82333329D01*
X42095238Y-82238091D01*
X42190476Y-82142853D01*
X42238095Y-82047615D01*
X42952381Y-83095234D02*
X42952381Y-83285710D01*
X42904762Y-83380949D01*
X42857143Y-83428568D01*
X42714286Y-83523806D01*
X42523810Y-83571425D01*
X42142857Y-83571425D01*
X42047619Y-83523806D01*
X42000000Y-83476187D01*
X41952381Y-83380949D01*
X41952381Y-83190472D01*
X42000000Y-83095234D01*
X42047619Y-83047615D01*
X42142857Y-82999996D01*
X42380952Y-82999996D01*
X42476190Y-83047615D01*
X42523810Y-83095234D01*
X42571429Y-83190472D01*
X42571429Y-83380949D01*
X42523810Y-83476187D01*
X42476190Y-83523806D01*
X42380952Y-83571425D01*
X42904762Y-84047615D02*
X42952381Y-84047615D01*
X43047619Y-83999996D01*
X43095238Y-83952377D01*
X42047619Y-84428567D02*
X42000000Y-84476186D01*
X41952381Y-84571424D01*
X41952381Y-84809520D01*
X42000000Y-84904758D01*
X42047619Y-84952377D01*
X42142857Y-84999996D01*
X42238095Y-84999996D01*
X42380952Y-84952377D01*
X42952381Y-84380948D01*
X42952381Y-84999996D01*
X41952381Y-85619043D02*
X41952381Y-85714282D01*
X42000000Y-85809520D01*
X42047619Y-85857139D01*
X42142857Y-85904758D01*
X42333333Y-85952377D01*
X42571429Y-85952377D01*
X42761905Y-85904758D01*
X42857143Y-85857139D01*
X42904762Y-85809520D01*
X42952381Y-85714282D01*
X42952381Y-85619043D01*
X42904762Y-85523805D01*
X42857143Y-85476186D01*
X42761905Y-85428567D01*
X42571429Y-85380948D01*
X42333333Y-85380948D01*
X42142857Y-85428567D01*
X42047619Y-85476186D01*
X42000000Y-85523805D01*
X41952381Y-85619043D01*
X44452381Y-58809524D02*
X43976190Y-58476190D01*
X44452381Y-58238095D02*
X43452381Y-58238095D01*
X43452381Y-58619048D01*
X43500000Y-58714286D01*
X43547619Y-58761905D01*
X43642857Y-58809524D01*
X43785714Y-58809524D01*
X43880952Y-58761905D01*
X43928571Y-58714286D01*
X43976190Y-58619048D01*
X43976190Y-58238095D01*
X43452381Y-59142857D02*
X43452381Y-59761905D01*
X43833333Y-59428571D01*
X43833333Y-59571429D01*
X43880952Y-59666667D01*
X43928571Y-59714286D01*
X44023810Y-59761905D01*
X44261905Y-59761905D01*
X44357143Y-59714286D01*
X44404762Y-59666667D01*
X44452381Y-59571429D01*
X44452381Y-59285714D01*
X44404762Y-59190476D01*
X44357143Y-59142857D01*
X43452381Y-60095238D02*
X43452381Y-60714286D01*
X43833333Y-60380952D01*
X43833333Y-60523810D01*
X43880952Y-60619048D01*
X43928571Y-60666667D01*
X44023810Y-60714286D01*
X44261905Y-60714286D01*
X44357143Y-60666667D01*
X44404762Y-60619048D01*
X44452381Y-60523810D01*
X44452381Y-60238095D01*
X44404762Y-60142857D01*
X44357143Y-60095238D01*
X44404762Y-61190476D02*
X44452381Y-61190476D01*
X44547619Y-61142857D01*
X44595238Y-61095238D01*
X43452381Y-61523809D02*
X43452381Y-62142857D01*
X43833333Y-61809523D01*
X43833333Y-61952381D01*
X43880952Y-62047619D01*
X43928571Y-62095238D01*
X44023810Y-62142857D01*
X44261905Y-62142857D01*
X44357143Y-62095238D01*
X44404762Y-62047619D01*
X44452381Y-61952381D01*
X44452381Y-61666666D01*
X44404762Y-61571428D01*
X44357143Y-61523809D01*
X43785714Y-63000000D02*
X44452381Y-63000000D01*
X43404762Y-62761904D02*
X44119048Y-62523809D01*
X44119048Y-63142857D01*
X44404762Y-63571428D02*
X44452381Y-63571428D01*
X44547619Y-63523809D01*
X44595238Y-63476190D01*
X43452381Y-63904761D02*
X43452381Y-64523809D01*
X43833333Y-64190475D01*
X43833333Y-64333333D01*
X43880952Y-64428571D01*
X43928571Y-64476190D01*
X44023810Y-64523809D01*
X44261905Y-64523809D01*
X44357143Y-64476190D01*
X44404762Y-64428571D01*
X44452381Y-64333333D01*
X44452381Y-64047618D01*
X44404762Y-63952380D01*
X44357143Y-63904761D01*
X43452381Y-65428571D02*
X43452381Y-64952380D01*
X43928571Y-64904761D01*
X43880952Y-64952380D01*
X43833333Y-65047618D01*
X43833333Y-65285714D01*
X43880952Y-65380952D01*
X43928571Y-65428571D01*
X44023810Y-65476190D01*
X44261905Y-65476190D01*
X44357143Y-65428571D01*
X44404762Y-65380952D01*
X44452381Y-65285714D01*
X44452381Y-65047618D01*
X44404762Y-64952380D01*
X44357143Y-64904761D01*
X44404762Y-65952380D02*
X44452381Y-65952380D01*
X44547619Y-65904761D01*
X44595238Y-65857142D01*
X43452381Y-66285713D02*
X43452381Y-66904761D01*
X43833333Y-66571427D01*
X43833333Y-66714285D01*
X43880952Y-66809523D01*
X43928571Y-66857142D01*
X44023810Y-66904761D01*
X44261905Y-66904761D01*
X44357143Y-66857142D01*
X44404762Y-66809523D01*
X44452381Y-66714285D01*
X44452381Y-66428570D01*
X44404762Y-66333332D01*
X44357143Y-66285713D01*
X43452381Y-67238094D02*
X43452381Y-67904761D01*
X44452381Y-67476189D01*
X44404762Y-68333332D02*
X44452381Y-68333332D01*
X44547619Y-68285713D01*
X44595238Y-68238094D01*
X43452381Y-68666665D02*
X43452381Y-69285713D01*
X43833333Y-68952379D01*
X43833333Y-69095237D01*
X43880952Y-69190475D01*
X43928571Y-69238094D01*
X44023810Y-69285713D01*
X44261905Y-69285713D01*
X44357143Y-69238094D01*
X44404762Y-69190475D01*
X44452381Y-69095237D01*
X44452381Y-68809522D01*
X44404762Y-68714284D01*
X44357143Y-68666665D01*
X44452381Y-69761903D02*
X44452381Y-69952379D01*
X44404762Y-70047618D01*
X44357143Y-70095237D01*
X44214286Y-70190475D01*
X44023810Y-70238094D01*
X43642857Y-70238094D01*
X43547619Y-70190475D01*
X43500000Y-70142856D01*
X43452381Y-70047618D01*
X43452381Y-69857141D01*
X43500000Y-69761903D01*
X43547619Y-69714284D01*
X43642857Y-69666665D01*
X43880952Y-69666665D01*
X43976190Y-69714284D01*
X44023810Y-69761903D01*
X44071429Y-69857141D01*
X44071429Y-70047618D01*
X44023810Y-70142856D01*
X43976190Y-70190475D01*
X43880952Y-70238094D01*
X44404762Y-70714284D02*
X44452381Y-70714284D01*
X44547619Y-70666665D01*
X44595238Y-70619046D01*
X43785714Y-71571427D02*
X44452381Y-71571427D01*
X43404762Y-71333331D02*
X44119048Y-71095236D01*
X44119048Y-71714284D01*
X43452381Y-72285712D02*
X43452381Y-72380951D01*
X43500000Y-72476189D01*
X43547619Y-72523808D01*
X43642857Y-72571427D01*
X43833333Y-72619046D01*
X44071429Y-72619046D01*
X44261905Y-72571427D01*
X44357143Y-72523808D01*
X44404762Y-72476189D01*
X44452381Y-72380951D01*
X44452381Y-72285712D01*
X44404762Y-72190474D01*
X44357143Y-72142855D01*
X44261905Y-72095236D01*
X44071429Y-72047617D01*
X43833333Y-72047617D01*
X43642857Y-72095236D01*
X43547619Y-72142855D01*
X43500000Y-72190474D01*
X43452381Y-72285712D01*
X44404762Y-73095236D02*
X44452381Y-73095236D01*
X44547619Y-73047617D01*
X44595238Y-72999998D01*
X43785714Y-73952379D02*
X44452381Y-73952379D01*
X43404762Y-73714283D02*
X44119048Y-73476188D01*
X44119048Y-74095236D01*
X44452381Y-74999998D02*
X44452381Y-74428569D01*
X44452381Y-74714283D02*
X43452381Y-74714283D01*
X43595238Y-74619045D01*
X43690476Y-74523807D01*
X43738095Y-74428569D01*
X44404762Y-75476188D02*
X44452381Y-75476188D01*
X44547619Y-75428569D01*
X44595238Y-75380950D01*
X43785714Y-76333331D02*
X44452381Y-76333331D01*
X43404762Y-76095235D02*
X44119048Y-75857140D01*
X44119048Y-76476188D01*
X43452381Y-76761902D02*
X43452381Y-77380950D01*
X43833333Y-77047616D01*
X43833333Y-77190474D01*
X43880952Y-77285712D01*
X43928571Y-77333331D01*
X44023810Y-77380950D01*
X44261905Y-77380950D01*
X44357143Y-77333331D01*
X44404762Y-77285712D01*
X44452381Y-77190474D01*
X44452381Y-76904759D01*
X44404762Y-76809521D01*
X44357143Y-76761902D01*
X46452381Y-58809524D02*
X45976190Y-58476190D01*
X46452381Y-58238095D02*
X45452381Y-58238095D01*
X45452381Y-58619048D01*
X45500000Y-58714286D01*
X45547619Y-58761905D01*
X45642857Y-58809524D01*
X45785714Y-58809524D01*
X45880952Y-58761905D01*
X45928571Y-58714286D01*
X45976190Y-58619048D01*
X45976190Y-58238095D01*
X46452381Y-59761905D02*
X46452381Y-59190476D01*
X46452381Y-59476190D02*
X45452381Y-59476190D01*
X45595238Y-59380952D01*
X45690476Y-59285714D01*
X45738095Y-59190476D01*
X46404762Y-60238095D02*
X46452381Y-60238095D01*
X46547619Y-60190476D01*
X46595238Y-60142857D01*
X45452381Y-61142857D02*
X45452381Y-60666666D01*
X45928571Y-60619047D01*
X45880952Y-60666666D01*
X45833333Y-60761904D01*
X45833333Y-61000000D01*
X45880952Y-61095238D01*
X45928571Y-61142857D01*
X46023810Y-61190476D01*
X46261905Y-61190476D01*
X46357143Y-61142857D01*
X46404762Y-61095238D01*
X46452381Y-61000000D01*
X46452381Y-60761904D01*
X46404762Y-60666666D01*
X46357143Y-60619047D01*
X46452381Y-61666666D02*
X46452381Y-61857142D01*
X46404762Y-61952381D01*
X46357143Y-62000000D01*
X46214286Y-62095238D01*
X46023810Y-62142857D01*
X45642857Y-62142857D01*
X45547619Y-62095238D01*
X45500000Y-62047619D01*
X45452381Y-61952381D01*
X45452381Y-61761904D01*
X45500000Y-61666666D01*
X45547619Y-61619047D01*
X45642857Y-61571428D01*
X45880952Y-61571428D01*
X45976190Y-61619047D01*
X46023810Y-61666666D01*
X46071429Y-61761904D01*
X46071429Y-61952381D01*
X46023810Y-62047619D01*
X45976190Y-62095238D01*
X45880952Y-62142857D01*
X37452381Y-42261905D02*
X37452381Y-41690476D01*
X37452381Y-41976190D02*
X36452381Y-41976190D01*
X36595238Y-41880952D01*
X36690476Y-41785714D01*
X36738095Y-41690476D01*
X36452381Y-42880952D02*
X36452381Y-42976191D01*
X36500000Y-43071429D01*
X36547619Y-43119048D01*
X36642857Y-43166667D01*
X36833333Y-43214286D01*
X37071429Y-43214286D01*
X37261905Y-43166667D01*
X37357143Y-43119048D01*
X37404762Y-43071429D01*
X37452381Y-42976191D01*
X37452381Y-42880952D01*
X37404762Y-42785714D01*
X37357143Y-42738095D01*
X37261905Y-42690476D01*
X37071429Y-42642857D01*
X36833333Y-42642857D01*
X36642857Y-42690476D01*
X36547619Y-42738095D01*
X36500000Y-42785714D01*
X36452381Y-42880952D01*
X37452381Y-43642857D02*
X36452381Y-43642857D01*
X37452381Y-44214286D02*
X36880952Y-43785714D01*
X36452381Y-44214286D02*
X37023810Y-43642857D01*
X37452381Y-44595238D02*
X37452381Y-44833333D01*
X37261905Y-44833333D01*
X37214286Y-44738095D01*
X37119048Y-44642857D01*
X36976190Y-44595238D01*
X36738095Y-44595238D01*
X36595238Y-44642857D01*
X36500000Y-44738095D01*
X36452381Y-44880952D01*
X36452381Y-45071429D01*
X36500000Y-45214286D01*
X36595238Y-45309524D01*
X36738095Y-45357143D01*
X36976190Y-45357143D01*
X37119048Y-45309524D01*
X37214286Y-45214286D01*
X37261905Y-45119048D01*
X37452381Y-45119048D01*
X37452381Y-45357143D01*
X39452381Y-42261905D02*
X39452381Y-41690476D01*
X39452381Y-41976190D02*
X38452381Y-41976190D01*
X38595238Y-41880952D01*
X38690476Y-41785714D01*
X38738095Y-41690476D01*
X39452381Y-42690476D02*
X38452381Y-42690476D01*
X39452381Y-43261905D02*
X38880952Y-42833333D01*
X38452381Y-43261905D02*
X39023810Y-42690476D01*
X39452381Y-43642857D02*
X39452381Y-43880952D01*
X39261905Y-43880952D01*
X39214286Y-43785714D01*
X39119048Y-43690476D01*
X38976190Y-43642857D01*
X38738095Y-43642857D01*
X38595238Y-43690476D01*
X38500000Y-43785714D01*
X38452381Y-43928571D01*
X38452381Y-44119048D01*
X38500000Y-44261905D01*
X38595238Y-44357143D01*
X38738095Y-44404762D01*
X38976190Y-44404762D01*
X39119048Y-44357143D01*
X39214286Y-44261905D01*
X39261905Y-44166667D01*
X39452381Y-44166667D01*
X39452381Y-44404762D01*
X42952381Y-42261905D02*
X42952381Y-41690476D01*
X42952381Y-41976190D02*
X41952381Y-41976190D01*
X42095238Y-41880952D01*
X42190476Y-41785714D01*
X42238095Y-41690476D01*
X41952381Y-42880952D02*
X41952381Y-42976191D01*
X42000000Y-43071429D01*
X42047619Y-43119048D01*
X42142857Y-43166667D01*
X42333333Y-43214286D01*
X42571429Y-43214286D01*
X42761905Y-43166667D01*
X42857143Y-43119048D01*
X42904762Y-43071429D01*
X42952381Y-42976191D01*
X42952381Y-42880952D01*
X42904762Y-42785714D01*
X42857143Y-42738095D01*
X42761905Y-42690476D01*
X42571429Y-42642857D01*
X42333333Y-42642857D01*
X42142857Y-42690476D01*
X42047619Y-42738095D01*
X42000000Y-42785714D01*
X41952381Y-42880952D01*
X41952381Y-43833333D02*
X41952381Y-43928572D01*
X42000000Y-44023810D01*
X42047619Y-44071429D01*
X42142857Y-44119048D01*
X42333333Y-44166667D01*
X42571429Y-44166667D01*
X42761905Y-44119048D01*
X42857143Y-44071429D01*
X42904762Y-44023810D01*
X42952381Y-43928572D01*
X42952381Y-43833333D01*
X42904762Y-43738095D01*
X42857143Y-43690476D01*
X42761905Y-43642857D01*
X42571429Y-43595238D01*
X42333333Y-43595238D01*
X42142857Y-43642857D01*
X42047619Y-43690476D01*
X42000000Y-43738095D01*
X41952381Y-43833333D01*
X42952381Y-44547619D02*
X42952381Y-44785714D01*
X42761905Y-44785714D01*
X42714286Y-44690476D01*
X42619048Y-44595238D01*
X42476190Y-44547619D01*
X42238095Y-44547619D01*
X42095238Y-44595238D01*
X42000000Y-44690476D01*
X41952381Y-44833333D01*
X41952381Y-45023810D01*
X42000000Y-45166667D01*
X42095238Y-45261905D01*
X42238095Y-45309524D01*
X42476190Y-45309524D01*
X42619048Y-45261905D01*
X42714286Y-45166667D01*
X42761905Y-45071429D01*
X42952381Y-45071429D01*
X42952381Y-45309524D01*
X45452381Y-42166667D02*
X45452381Y-41976190D01*
X45500000Y-41880952D01*
X45547619Y-41833333D01*
X45690476Y-41738095D01*
X45880952Y-41690476D01*
X46261905Y-41690476D01*
X46357143Y-41738095D01*
X46404762Y-41785714D01*
X46452381Y-41880952D01*
X46452381Y-42071429D01*
X46404762Y-42166667D01*
X46357143Y-42214286D01*
X46261905Y-42261905D01*
X46023810Y-42261905D01*
X45928571Y-42214286D01*
X45880952Y-42166667D01*
X45833333Y-42071429D01*
X45833333Y-41880952D01*
X45880952Y-41785714D01*
X45928571Y-41738095D01*
X46023810Y-41690476D01*
X45880952Y-42833333D02*
X45833333Y-42738095D01*
X45785714Y-42690476D01*
X45690476Y-42642857D01*
X45642857Y-42642857D01*
X45547619Y-42690476D01*
X45500000Y-42738095D01*
X45452381Y-42833333D01*
X45452381Y-43023810D01*
X45500000Y-43119048D01*
X45547619Y-43166667D01*
X45642857Y-43214286D01*
X45690476Y-43214286D01*
X45785714Y-43166667D01*
X45833333Y-43119048D01*
X45880952Y-43023810D01*
X45880952Y-42833333D01*
X45928571Y-42738095D01*
X45976190Y-42690476D01*
X46071429Y-42642857D01*
X46261905Y-42642857D01*
X46357143Y-42690476D01*
X46404762Y-42738095D01*
X46452381Y-42833333D01*
X46452381Y-43023810D01*
X46404762Y-43119048D01*
X46357143Y-43166667D01*
X46261905Y-43214286D01*
X46071429Y-43214286D01*
X45976190Y-43166667D01*
X45928571Y-43119048D01*
X45880952Y-43023810D01*
X46452381Y-43595238D02*
X46452381Y-43833333D01*
X46261905Y-43833333D01*
X46214286Y-43738095D01*
X46119048Y-43642857D01*
X45976190Y-43595238D01*
X45738095Y-43595238D01*
X45595238Y-43642857D01*
X45500000Y-43738095D01*
X45452381Y-43880952D01*
X45452381Y-44071429D01*
X45500000Y-44214286D01*
X45595238Y-44309524D01*
X45738095Y-44357143D01*
X45976190Y-44357143D01*
X46119048Y-44309524D01*
X46214286Y-44214286D01*
X46261905Y-44119048D01*
X46452381Y-44119048D01*
X46452381Y-44357143D01*
X71047619Y-58904762D02*
X71000000Y-58809524D01*
X70904762Y-58714286D01*
X70761905Y-58571429D01*
X70714286Y-58476190D01*
X70714286Y-58380952D01*
X70952381Y-58428571D02*
X70904762Y-58333333D01*
X70809524Y-58238095D01*
X70619048Y-58190476D01*
X70285714Y-58190476D01*
X70095238Y-58238095D01*
X70000000Y-58333333D01*
X69952381Y-58428571D01*
X69952381Y-58619048D01*
X70000000Y-58714286D01*
X70095238Y-58809524D01*
X70285714Y-58857143D01*
X70619048Y-58857143D01*
X70809524Y-58809524D01*
X70904762Y-58714286D01*
X70952381Y-58619048D01*
X70952381Y-58428571D01*
X70952381Y-59809524D02*
X70952381Y-59238095D01*
X70952381Y-59523809D02*
X69952381Y-59523809D01*
X70095238Y-59428571D01*
X70190476Y-59333333D01*
X70238095Y-59238095D01*
X71952381Y-58523810D02*
X72666667Y-58523810D01*
X72809524Y-58476190D01*
X72904762Y-58380952D01*
X72952381Y-58238095D01*
X72952381Y-58142857D01*
X72952381Y-59523810D02*
X72952381Y-58952381D01*
X72952381Y-59238095D02*
X71952381Y-59238095D01*
X72095238Y-59142857D01*
X72190476Y-59047619D01*
X72238095Y-58952381D01*
X72904762Y-60000000D02*
X72952381Y-60000000D01*
X73047619Y-59952381D01*
X73095238Y-59904762D01*
X72047619Y-60380952D02*
X72000000Y-60428571D01*
X71952381Y-60523809D01*
X71952381Y-60761905D01*
X72000000Y-60857143D01*
X72047619Y-60904762D01*
X72142857Y-60952381D01*
X72238095Y-60952381D01*
X72380952Y-60904762D01*
X72952381Y-60333333D01*
X72952381Y-60952381D01*
X72904762Y-61428571D02*
X72952381Y-61428571D01*
X73047619Y-61380952D01*
X73095238Y-61333333D01*
X71952381Y-61761904D02*
X71952381Y-62380952D01*
X72333333Y-62047618D01*
X72333333Y-62190476D01*
X72380952Y-62285714D01*
X72428571Y-62333333D01*
X72523810Y-62380952D01*
X72761905Y-62380952D01*
X72857143Y-62333333D01*
X72904762Y-62285714D01*
X72952381Y-62190476D01*
X72952381Y-61904761D01*
X72904762Y-61809523D01*
X72857143Y-61761904D01*
X72904762Y-62857142D02*
X72952381Y-62857142D01*
X73047619Y-62809523D01*
X73095238Y-62761904D01*
X72285714Y-63714285D02*
X72952381Y-63714285D01*
X71904762Y-63476189D02*
X72619048Y-63238094D01*
X72619048Y-63857142D01*
X72904762Y-64285713D02*
X72952381Y-64285713D01*
X73047619Y-64238094D01*
X73095238Y-64190475D01*
X71952381Y-65190475D02*
X71952381Y-64714284D01*
X72428571Y-64666665D01*
X72380952Y-64714284D01*
X72333333Y-64809522D01*
X72333333Y-65047618D01*
X72380952Y-65142856D01*
X72428571Y-65190475D01*
X72523810Y-65238094D01*
X72761905Y-65238094D01*
X72857143Y-65190475D01*
X72904762Y-65142856D01*
X72952381Y-65047618D01*
X72952381Y-64809522D01*
X72904762Y-64714284D01*
X72857143Y-64666665D01*
X72904762Y-65714284D02*
X72952381Y-65714284D01*
X73047619Y-65666665D01*
X73095238Y-65619046D01*
X71952381Y-66571427D02*
X71952381Y-66380950D01*
X72000000Y-66285712D01*
X72047619Y-66238093D01*
X72190476Y-66142855D01*
X72380952Y-66095236D01*
X72761905Y-66095236D01*
X72857143Y-66142855D01*
X72904762Y-66190474D01*
X72952381Y-66285712D01*
X72952381Y-66476189D01*
X72904762Y-66571427D01*
X72857143Y-66619046D01*
X72761905Y-66666665D01*
X72523810Y-66666665D01*
X72428571Y-66619046D01*
X72380952Y-66571427D01*
X72333333Y-66476189D01*
X72333333Y-66285712D01*
X72380952Y-66190474D01*
X72428571Y-66142855D01*
X72523810Y-66095236D01*
X72904762Y-67142855D02*
X72952381Y-67142855D01*
X73047619Y-67095236D01*
X73095238Y-67047617D01*
X71952381Y-67476188D02*
X71952381Y-68142855D01*
X72952381Y-67714283D01*
X72904762Y-68571426D02*
X72952381Y-68571426D01*
X73047619Y-68523807D01*
X73095238Y-68476188D01*
X72380952Y-69142854D02*
X72333333Y-69047616D01*
X72285714Y-68999997D01*
X72190476Y-68952378D01*
X72142857Y-68952378D01*
X72047619Y-68999997D01*
X72000000Y-69047616D01*
X71952381Y-69142854D01*
X71952381Y-69333331D01*
X72000000Y-69428569D01*
X72047619Y-69476188D01*
X72142857Y-69523807D01*
X72190476Y-69523807D01*
X72285714Y-69476188D01*
X72333333Y-69428569D01*
X72380952Y-69333331D01*
X72380952Y-69142854D01*
X72428571Y-69047616D01*
X72476190Y-68999997D01*
X72571429Y-68952378D01*
X72761905Y-68952378D01*
X72857143Y-68999997D01*
X72904762Y-69047616D01*
X72952381Y-69142854D01*
X72952381Y-69333331D01*
X72904762Y-69428569D01*
X72857143Y-69476188D01*
X72761905Y-69523807D01*
X72571429Y-69523807D01*
X72476190Y-69476188D01*
X72428571Y-69428569D01*
X72380952Y-69333331D01*
X72904762Y-69999997D02*
X72952381Y-69999997D01*
X73047619Y-69952378D01*
X73095238Y-69904759D01*
X72952381Y-70476187D02*
X72952381Y-70666663D01*
X72904762Y-70761902D01*
X72857143Y-70809521D01*
X72714286Y-70904759D01*
X72523810Y-70952378D01*
X72142857Y-70952378D01*
X72047619Y-70904759D01*
X72000000Y-70857140D01*
X71952381Y-70761902D01*
X71952381Y-70571425D01*
X72000000Y-70476187D01*
X72047619Y-70428568D01*
X72142857Y-70380949D01*
X72380952Y-70380949D01*
X72476190Y-70428568D01*
X72523810Y-70476187D01*
X72571429Y-70571425D01*
X72571429Y-70761902D01*
X72523810Y-70857140D01*
X72476190Y-70904759D01*
X72380952Y-70952378D01*
X72904762Y-71428568D02*
X72952381Y-71428568D01*
X73047619Y-71380949D01*
X73095238Y-71333330D01*
X72952381Y-72380949D02*
X72952381Y-71809520D01*
X72952381Y-72095234D02*
X71952381Y-72095234D01*
X72095238Y-71999996D01*
X72190476Y-71904758D01*
X72238095Y-71809520D01*
X71952381Y-72999996D02*
X71952381Y-73095235D01*
X72000000Y-73190473D01*
X72047619Y-73238092D01*
X72142857Y-73285711D01*
X72333333Y-73333330D01*
X72571429Y-73333330D01*
X72761905Y-73285711D01*
X72857143Y-73238092D01*
X72904762Y-73190473D01*
X72952381Y-73095235D01*
X72952381Y-72999996D01*
X72904762Y-72904758D01*
X72857143Y-72857139D01*
X72761905Y-72809520D01*
X72571429Y-72761901D01*
X72333333Y-72761901D01*
X72142857Y-72809520D01*
X72047619Y-72857139D01*
X72000000Y-72904758D01*
X71952381Y-72999996D01*
X72904762Y-73809520D02*
X72952381Y-73809520D01*
X73047619Y-73761901D01*
X73095238Y-73714282D01*
X72952381Y-74761901D02*
X72952381Y-74190472D01*
X72952381Y-74476186D02*
X71952381Y-74476186D01*
X72095238Y-74380948D01*
X72190476Y-74285710D01*
X72238095Y-74190472D01*
X72952381Y-75714282D02*
X72952381Y-75142853D01*
X72952381Y-75428567D02*
X71952381Y-75428567D01*
X72095238Y-75333329D01*
X72190476Y-75238091D01*
X72238095Y-75142853D01*
X72904762Y-76190472D02*
X72952381Y-76190472D01*
X73047619Y-76142853D01*
X73095238Y-76095234D01*
X72952381Y-77142853D02*
X72952381Y-76571424D01*
X72952381Y-76857138D02*
X71952381Y-76857138D01*
X72095238Y-76761900D01*
X72190476Y-76666662D01*
X72238095Y-76571424D01*
X72047619Y-77523805D02*
X72000000Y-77571424D01*
X71952381Y-77666662D01*
X71952381Y-77904758D01*
X72000000Y-77999996D01*
X72047619Y-78047615D01*
X72142857Y-78095234D01*
X72238095Y-78095234D01*
X72380952Y-78047615D01*
X72952381Y-77476186D01*
X72952381Y-78095234D01*
X72904762Y-41690476D02*
X72952381Y-41833333D01*
X72952381Y-42071429D01*
X72904762Y-42166667D01*
X72857143Y-42214286D01*
X72761905Y-42261905D01*
X72666667Y-42261905D01*
X72571429Y-42214286D01*
X72523810Y-42166667D01*
X72476190Y-42071429D01*
X72428571Y-41880952D01*
X72380952Y-41785714D01*
X72333333Y-41738095D01*
X72238095Y-41690476D01*
X72142857Y-41690476D01*
X72047619Y-41738095D01*
X72000000Y-41785714D01*
X71952381Y-41880952D01*
X71952381Y-42119048D01*
X72000000Y-42261905D01*
X71952381Y-42976191D02*
X72666667Y-42976191D01*
X72809524Y-42928571D01*
X72904762Y-42833333D01*
X72952381Y-42690476D01*
X72952381Y-42595238D01*
X72571429Y-43452381D02*
X72571429Y-44214286D01*
X72047619Y-44642857D02*
X72000000Y-44690476D01*
X71952381Y-44785714D01*
X71952381Y-45023810D01*
X72000000Y-45119048D01*
X72047619Y-45166667D01*
X72142857Y-45214286D01*
X72238095Y-45214286D01*
X72380952Y-45166667D01*
X72952381Y-44595238D01*
X72952381Y-45214286D01*
X71952381Y-46119048D02*
X71952381Y-45642857D01*
X72428571Y-45595238D01*
X72380952Y-45642857D01*
X72333333Y-45738095D01*
X72333333Y-45976191D01*
X72380952Y-46071429D01*
X72428571Y-46119048D01*
X72523810Y-46166667D01*
X72761905Y-46166667D01*
X72857143Y-46119048D01*
X72904762Y-46071429D01*
X72952381Y-45976191D01*
X72952381Y-45738095D01*
X72904762Y-45642857D01*
X72857143Y-45595238D01*
X72047619Y-46547619D02*
X72000000Y-46595238D01*
X71952381Y-46690476D01*
X71952381Y-46928572D01*
X72000000Y-47023810D01*
X72047619Y-47071429D01*
X72142857Y-47119048D01*
X72238095Y-47119048D01*
X72380952Y-47071429D01*
X72952381Y-46500000D01*
X72952381Y-47119048D01*
X71952381Y-47452381D02*
X71952381Y-48071429D01*
X72333333Y-47738095D01*
X72333333Y-47880953D01*
X72380952Y-47976191D01*
X72428571Y-48023810D01*
X72523810Y-48071429D01*
X72761905Y-48071429D01*
X72857143Y-48023810D01*
X72904762Y-47976191D01*
X72952381Y-47880953D01*
X72952381Y-47595238D01*
X72904762Y-47500000D01*
X72857143Y-47452381D01*
X72571429Y-48500000D02*
X72571429Y-49261905D01*
X72904762Y-49690476D02*
X72952381Y-49833333D01*
X72952381Y-50071429D01*
X72904762Y-50166667D01*
X72857143Y-50214286D01*
X72761905Y-50261905D01*
X72666667Y-50261905D01*
X72571429Y-50214286D01*
X72523810Y-50166667D01*
X72476190Y-50071429D01*
X72428571Y-49880952D01*
X72380952Y-49785714D01*
X72333333Y-49738095D01*
X72238095Y-49690476D01*
X72142857Y-49690476D01*
X72047619Y-49738095D01*
X72000000Y-49785714D01*
X71952381Y-49880952D01*
X71952381Y-50119048D01*
X72000000Y-50261905D01*
X72952381Y-50690476D02*
X71952381Y-50690476D01*
X72666667Y-51023810D01*
X71952381Y-51357143D01*
X72952381Y-51357143D01*
X71952381Y-51690476D02*
X71952381Y-52261905D01*
X72952381Y-51976190D02*
X71952381Y-51976190D01*
X72571429Y-52595238D02*
X72571429Y-53357143D01*
X71952381Y-53690476D02*
X71952381Y-54261905D01*
X72952381Y-53976190D02*
X71952381Y-53976190D01*
X72952381Y-55166667D02*
X72476190Y-54833333D01*
X72952381Y-54595238D02*
X71952381Y-54595238D01*
X71952381Y-54976191D01*
X72000000Y-55071429D01*
X72047619Y-55119048D01*
X72142857Y-55166667D01*
X72285714Y-55166667D01*
X72380952Y-55119048D01*
X72428571Y-55071429D01*
X72476190Y-54976191D01*
X72476190Y-54595238D01*
X66952381Y-58238095D02*
X65952381Y-58238095D01*
X65952381Y-58476190D01*
X66000000Y-58619048D01*
X66095238Y-58714286D01*
X66190476Y-58761905D01*
X66380952Y-58809524D01*
X66523810Y-58809524D01*
X66714286Y-58761905D01*
X66809524Y-58714286D01*
X66904762Y-58619048D01*
X66952381Y-58476190D01*
X66952381Y-58238095D01*
X66047619Y-59190476D02*
X66000000Y-59238095D01*
X65952381Y-59333333D01*
X65952381Y-59571429D01*
X66000000Y-59666667D01*
X66047619Y-59714286D01*
X66142857Y-59761905D01*
X66238095Y-59761905D01*
X66380952Y-59714286D01*
X66952381Y-59142857D01*
X66952381Y-59761905D01*
X68952381Y-58238095D02*
X67952381Y-58238095D01*
X67952381Y-58476190D01*
X68000000Y-58619048D01*
X68095238Y-58714286D01*
X68190476Y-58761905D01*
X68380952Y-58809524D01*
X68523810Y-58809524D01*
X68714286Y-58761905D01*
X68809524Y-58714286D01*
X68904762Y-58619048D01*
X68952381Y-58476190D01*
X68952381Y-58238095D01*
X68952381Y-59761905D02*
X68952381Y-59190476D01*
X68952381Y-59476190D02*
X67952381Y-59476190D01*
X68095238Y-59380952D01*
X68190476Y-59285714D01*
X68238095Y-59190476D01*
X60857143Y-58809524D02*
X60904762Y-58761905D01*
X60952381Y-58619048D01*
X60952381Y-58523810D01*
X60904762Y-58380952D01*
X60809524Y-58285714D01*
X60714286Y-58238095D01*
X60523810Y-58190476D01*
X60380952Y-58190476D01*
X60190476Y-58238095D01*
X60095238Y-58285714D01*
X60000000Y-58380952D01*
X59952381Y-58523810D01*
X59952381Y-58619048D01*
X60000000Y-58761905D01*
X60047619Y-58809524D01*
X59952381Y-59714286D02*
X59952381Y-59238095D01*
X60428571Y-59190476D01*
X60380952Y-59238095D01*
X60333333Y-59333333D01*
X60333333Y-59571429D01*
X60380952Y-59666667D01*
X60428571Y-59714286D01*
X60523810Y-59761905D01*
X60761905Y-59761905D01*
X60857143Y-59714286D01*
X60904762Y-59666667D01*
X60952381Y-59571429D01*
X60952381Y-59333333D01*
X60904762Y-59238095D01*
X60857143Y-59190476D01*
X60952381Y-60714286D02*
X60952381Y-60142857D01*
X60952381Y-60428571D02*
X59952381Y-60428571D01*
X60095238Y-60333333D01*
X60190476Y-60238095D01*
X60238095Y-60142857D01*
X60904762Y-61190476D02*
X60952381Y-61190476D01*
X61047619Y-61142857D01*
X61095238Y-61095238D01*
X59952381Y-62095238D02*
X59952381Y-61619047D01*
X60428571Y-61571428D01*
X60380952Y-61619047D01*
X60333333Y-61714285D01*
X60333333Y-61952381D01*
X60380952Y-62047619D01*
X60428571Y-62095238D01*
X60523810Y-62142857D01*
X60761905Y-62142857D01*
X60857143Y-62095238D01*
X60904762Y-62047619D01*
X60952381Y-61952381D01*
X60952381Y-61714285D01*
X60904762Y-61619047D01*
X60857143Y-61571428D01*
X60285714Y-63000000D02*
X60952381Y-63000000D01*
X59904762Y-62761904D02*
X60619048Y-62523809D01*
X60619048Y-63142857D01*
X60904762Y-63571428D02*
X60952381Y-63571428D01*
X61047619Y-63523809D01*
X61095238Y-63476190D01*
X59952381Y-64476190D02*
X59952381Y-63999999D01*
X60428571Y-63952380D01*
X60380952Y-63999999D01*
X60333333Y-64095237D01*
X60333333Y-64333333D01*
X60380952Y-64428571D01*
X60428571Y-64476190D01*
X60523810Y-64523809D01*
X60761905Y-64523809D01*
X60857143Y-64476190D01*
X60904762Y-64428571D01*
X60952381Y-64333333D01*
X60952381Y-64095237D01*
X60904762Y-63999999D01*
X60857143Y-63952380D01*
X60952381Y-64999999D02*
X60952381Y-65190475D01*
X60904762Y-65285714D01*
X60857143Y-65333333D01*
X60714286Y-65428571D01*
X60523810Y-65476190D01*
X60142857Y-65476190D01*
X60047619Y-65428571D01*
X60000000Y-65380952D01*
X59952381Y-65285714D01*
X59952381Y-65095237D01*
X60000000Y-64999999D01*
X60047619Y-64952380D01*
X60142857Y-64904761D01*
X60380952Y-64904761D01*
X60476190Y-64952380D01*
X60523810Y-64999999D01*
X60571429Y-65095237D01*
X60571429Y-65285714D01*
X60523810Y-65380952D01*
X60476190Y-65428571D01*
X60380952Y-65476190D01*
X60904762Y-65952380D02*
X60952381Y-65952380D01*
X61047619Y-65904761D01*
X61095238Y-65857142D01*
X59952381Y-66809523D02*
X59952381Y-66619046D01*
X60000000Y-66523808D01*
X60047619Y-66476189D01*
X60190476Y-66380951D01*
X60380952Y-66333332D01*
X60761905Y-66333332D01*
X60857143Y-66380951D01*
X60904762Y-66428570D01*
X60952381Y-66523808D01*
X60952381Y-66714285D01*
X60904762Y-66809523D01*
X60857143Y-66857142D01*
X60761905Y-66904761D01*
X60523810Y-66904761D01*
X60428571Y-66857142D01*
X60380952Y-66809523D01*
X60333333Y-66714285D01*
X60333333Y-66523808D01*
X60380952Y-66428570D01*
X60428571Y-66380951D01*
X60523810Y-66333332D01*
X60047619Y-67285713D02*
X60000000Y-67333332D01*
X59952381Y-67428570D01*
X59952381Y-67666666D01*
X60000000Y-67761904D01*
X60047619Y-67809523D01*
X60142857Y-67857142D01*
X60238095Y-67857142D01*
X60380952Y-67809523D01*
X60952381Y-67238094D01*
X60952381Y-67857142D01*
X66380952Y-41880952D02*
X66333333Y-41785714D01*
X66285714Y-41738095D01*
X66190476Y-41690476D01*
X66142857Y-41690476D01*
X66047619Y-41738095D01*
X66000000Y-41785714D01*
X65952381Y-41880952D01*
X65952381Y-42071429D01*
X66000000Y-42166667D01*
X66047619Y-42214286D01*
X66142857Y-42261905D01*
X66190476Y-42261905D01*
X66285714Y-42214286D01*
X66333333Y-42166667D01*
X66380952Y-42071429D01*
X66380952Y-41880952D01*
X66428571Y-41785714D01*
X66476190Y-41738095D01*
X66571429Y-41690476D01*
X66761905Y-41690476D01*
X66857143Y-41738095D01*
X66904762Y-41785714D01*
X66952381Y-41880952D01*
X66952381Y-42071429D01*
X66904762Y-42166667D01*
X66857143Y-42214286D01*
X66761905Y-42261905D01*
X66571429Y-42261905D01*
X66476190Y-42214286D01*
X66428571Y-42166667D01*
X66380952Y-42071429D01*
X65952381Y-43119048D02*
X65952381Y-42928571D01*
X66000000Y-42833333D01*
X66047619Y-42785714D01*
X66190476Y-42690476D01*
X66380952Y-42642857D01*
X66761905Y-42642857D01*
X66857143Y-42690476D01*
X66904762Y-42738095D01*
X66952381Y-42833333D01*
X66952381Y-43023810D01*
X66904762Y-43119048D01*
X66857143Y-43166667D01*
X66761905Y-43214286D01*
X66523810Y-43214286D01*
X66428571Y-43166667D01*
X66380952Y-43119048D01*
X66333333Y-43023810D01*
X66333333Y-42833333D01*
X66380952Y-42738095D01*
X66428571Y-42690476D01*
X66523810Y-42642857D01*
X66047619Y-43595238D02*
X66000000Y-43642857D01*
X65952381Y-43738095D01*
X65952381Y-43976191D01*
X66000000Y-44071429D01*
X66047619Y-44119048D01*
X66142857Y-44166667D01*
X66238095Y-44166667D01*
X66380952Y-44119048D01*
X66952381Y-43547619D01*
X66952381Y-44166667D01*
X66571429Y-44595238D02*
X66571429Y-45357143D01*
X66285714Y-46261905D02*
X66952381Y-46261905D01*
X65904762Y-46023809D02*
X66619048Y-45785714D01*
X66619048Y-46404762D01*
X65952381Y-47261905D02*
X65952381Y-46785714D01*
X66428571Y-46738095D01*
X66380952Y-46785714D01*
X66333333Y-46880952D01*
X66333333Y-47119048D01*
X66380952Y-47214286D01*
X66428571Y-47261905D01*
X66523810Y-47309524D01*
X66761905Y-47309524D01*
X66857143Y-47261905D01*
X66904762Y-47214286D01*
X66952381Y-47119048D01*
X66952381Y-46880952D01*
X66904762Y-46785714D01*
X66857143Y-46738095D01*
X65952381Y-47642857D02*
X65952381Y-48309524D01*
X66952381Y-47880952D01*
X66047619Y-48642857D02*
X66000000Y-48690476D01*
X65952381Y-48785714D01*
X65952381Y-49023810D01*
X66000000Y-49119048D01*
X66047619Y-49166667D01*
X66142857Y-49214286D01*
X66238095Y-49214286D01*
X66380952Y-49166667D01*
X66952381Y-48595238D01*
X66952381Y-49214286D01*
X68380952Y-41880952D02*
X68333333Y-41785714D01*
X68285714Y-41738095D01*
X68190476Y-41690476D01*
X68142857Y-41690476D01*
X68047619Y-41738095D01*
X68000000Y-41785714D01*
X67952381Y-41880952D01*
X67952381Y-42071429D01*
X68000000Y-42166667D01*
X68047619Y-42214286D01*
X68142857Y-42261905D01*
X68190476Y-42261905D01*
X68285714Y-42214286D01*
X68333333Y-42166667D01*
X68380952Y-42071429D01*
X68380952Y-41880952D01*
X68428571Y-41785714D01*
X68476190Y-41738095D01*
X68571429Y-41690476D01*
X68761905Y-41690476D01*
X68857143Y-41738095D01*
X68904762Y-41785714D01*
X68952381Y-41880952D01*
X68952381Y-42071429D01*
X68904762Y-42166667D01*
X68857143Y-42214286D01*
X68761905Y-42261905D01*
X68571429Y-42261905D01*
X68476190Y-42214286D01*
X68428571Y-42166667D01*
X68380952Y-42071429D01*
X67952381Y-43119048D02*
X67952381Y-42928571D01*
X68000000Y-42833333D01*
X68047619Y-42785714D01*
X68190476Y-42690476D01*
X68380952Y-42642857D01*
X68761905Y-42642857D01*
X68857143Y-42690476D01*
X68904762Y-42738095D01*
X68952381Y-42833333D01*
X68952381Y-43023810D01*
X68904762Y-43119048D01*
X68857143Y-43166667D01*
X68761905Y-43214286D01*
X68523810Y-43214286D01*
X68428571Y-43166667D01*
X68380952Y-43119048D01*
X68333333Y-43023810D01*
X68333333Y-42833333D01*
X68380952Y-42738095D01*
X68428571Y-42690476D01*
X68523810Y-42642857D01*
X68047619Y-43595238D02*
X68000000Y-43642857D01*
X67952381Y-43738095D01*
X67952381Y-43976191D01*
X68000000Y-44071429D01*
X68047619Y-44119048D01*
X68142857Y-44166667D01*
X68238095Y-44166667D01*
X68380952Y-44119048D01*
X68952381Y-43547619D01*
X68952381Y-44166667D01*
X68571429Y-44595238D02*
X68571429Y-45357143D01*
X68285714Y-46261905D02*
X68952381Y-46261905D01*
X67904762Y-46023809D02*
X68619048Y-45785714D01*
X68619048Y-46404762D01*
X67952381Y-47261905D02*
X67952381Y-46785714D01*
X68428571Y-46738095D01*
X68380952Y-46785714D01*
X68333333Y-46880952D01*
X68333333Y-47119048D01*
X68380952Y-47214286D01*
X68428571Y-47261905D01*
X68523810Y-47309524D01*
X68761905Y-47309524D01*
X68857143Y-47261905D01*
X68904762Y-47214286D01*
X68952381Y-47119048D01*
X68952381Y-46880952D01*
X68904762Y-46785714D01*
X68857143Y-46738095D01*
X67952381Y-48166667D02*
X67952381Y-47976190D01*
X68000000Y-47880952D01*
X68047619Y-47833333D01*
X68190476Y-47738095D01*
X68380952Y-47690476D01*
X68761905Y-47690476D01*
X68857143Y-47738095D01*
X68904762Y-47785714D01*
X68952381Y-47880952D01*
X68952381Y-48071429D01*
X68904762Y-48166667D01*
X68857143Y-48214286D01*
X68761905Y-48261905D01*
X68523810Y-48261905D01*
X68428571Y-48214286D01*
X68380952Y-48166667D01*
X68333333Y-48071429D01*
X68333333Y-47880952D01*
X68380952Y-47785714D01*
X68428571Y-47738095D01*
X68523810Y-47690476D01*
X67952381Y-49119048D02*
X67952381Y-48928571D01*
X68000000Y-48833333D01*
X68047619Y-48785714D01*
X68190476Y-48690476D01*
X68380952Y-48642857D01*
X68761905Y-48642857D01*
X68857143Y-48690476D01*
X68904762Y-48738095D01*
X68952381Y-48833333D01*
X68952381Y-49023810D01*
X68904762Y-49119048D01*
X68857143Y-49166667D01*
X68761905Y-49214286D01*
X68523810Y-49214286D01*
X68428571Y-49166667D01*
X68380952Y-49119048D01*
X68333333Y-49023810D01*
X68333333Y-48833333D01*
X68380952Y-48738095D01*
X68428571Y-48690476D01*
X68523810Y-48642857D01*
X60047619Y-41690476D02*
X60000000Y-41738095D01*
X59952381Y-41833333D01*
X59952381Y-42071429D01*
X60000000Y-42166667D01*
X60047619Y-42214286D01*
X60142857Y-42261905D01*
X60238095Y-42261905D01*
X60380952Y-42214286D01*
X60952381Y-41642857D01*
X60952381Y-42261905D01*
X59952381Y-42880952D02*
X59952381Y-42976191D01*
X60000000Y-43071429D01*
X60047619Y-43119048D01*
X60142857Y-43166667D01*
X60333333Y-43214286D01*
X60571429Y-43214286D01*
X60761905Y-43166667D01*
X60857143Y-43119048D01*
X60904762Y-43071429D01*
X60952381Y-42976191D01*
X60952381Y-42880952D01*
X60904762Y-42785714D01*
X60857143Y-42738095D01*
X60761905Y-42690476D01*
X60571429Y-42642857D01*
X60333333Y-42642857D01*
X60142857Y-42690476D01*
X60047619Y-42738095D01*
X60000000Y-42785714D01*
X59952381Y-42880952D01*
X60285714Y-43642857D02*
X61285714Y-43642857D01*
X60333333Y-43642857D02*
X60285714Y-43738095D01*
X60285714Y-43928572D01*
X60333333Y-44023810D01*
X60380952Y-44071429D01*
X60476190Y-44119048D01*
X60761905Y-44119048D01*
X60857143Y-44071429D01*
X60904762Y-44023810D01*
X60952381Y-43928572D01*
X60952381Y-43738095D01*
X60904762Y-43642857D01*
X60428571Y-44880953D02*
X60428571Y-44547619D01*
X60952381Y-44547619D02*
X59952381Y-44547619D01*
X59952381Y-45023810D01*
X48357143Y-58809524D02*
X48404762Y-58761905D01*
X48452381Y-58619048D01*
X48452381Y-58523810D01*
X48404762Y-58380952D01*
X48309524Y-58285714D01*
X48214286Y-58238095D01*
X48023810Y-58190476D01*
X47880952Y-58190476D01*
X47690476Y-58238095D01*
X47595238Y-58285714D01*
X47500000Y-58380952D01*
X47452381Y-58523810D01*
X47452381Y-58619048D01*
X47500000Y-58761905D01*
X47547619Y-58809524D01*
X47785714Y-59666667D02*
X48452381Y-59666667D01*
X47404762Y-59428571D02*
X48119048Y-59190476D01*
X48119048Y-59809524D01*
X48452381Y-60238095D02*
X48452381Y-60428571D01*
X48404762Y-60523810D01*
X48357143Y-60571429D01*
X48214286Y-60666667D01*
X48023810Y-60714286D01*
X47642857Y-60714286D01*
X47547619Y-60666667D01*
X47500000Y-60619048D01*
X47452381Y-60523810D01*
X47452381Y-60333333D01*
X47500000Y-60238095D01*
X47547619Y-60190476D01*
X47642857Y-60142857D01*
X47880952Y-60142857D01*
X47976190Y-60190476D01*
X48023810Y-60238095D01*
X48071429Y-60333333D01*
X48071429Y-60523810D01*
X48023810Y-60619048D01*
X47976190Y-60666667D01*
X47880952Y-60714286D01*
X48404762Y-61190476D02*
X48452381Y-61190476D01*
X48547619Y-61142857D01*
X48595238Y-61095238D01*
X47452381Y-62095238D02*
X47452381Y-61619047D01*
X47928571Y-61571428D01*
X47880952Y-61619047D01*
X47833333Y-61714285D01*
X47833333Y-61952381D01*
X47880952Y-62047619D01*
X47928571Y-62095238D01*
X48023810Y-62142857D01*
X48261905Y-62142857D01*
X48357143Y-62095238D01*
X48404762Y-62047619D01*
X48452381Y-61952381D01*
X48452381Y-61714285D01*
X48404762Y-61619047D01*
X48357143Y-61571428D01*
X47547619Y-62523809D02*
X47500000Y-62571428D01*
X47452381Y-62666666D01*
X47452381Y-62904762D01*
X47500000Y-63000000D01*
X47547619Y-63047619D01*
X47642857Y-63095238D01*
X47738095Y-63095238D01*
X47880952Y-63047619D01*
X48452381Y-62476190D01*
X48452381Y-63095238D01*
X48404762Y-63571428D02*
X48452381Y-63571428D01*
X48547619Y-63523809D01*
X48595238Y-63476190D01*
X47452381Y-64476190D02*
X47452381Y-63999999D01*
X47928571Y-63952380D01*
X47880952Y-63999999D01*
X47833333Y-64095237D01*
X47833333Y-64333333D01*
X47880952Y-64428571D01*
X47928571Y-64476190D01*
X48023810Y-64523809D01*
X48261905Y-64523809D01*
X48357143Y-64476190D01*
X48404762Y-64428571D01*
X48452381Y-64333333D01*
X48452381Y-64095237D01*
X48404762Y-63999999D01*
X48357143Y-63952380D01*
X47452381Y-65428571D02*
X47452381Y-64952380D01*
X47928571Y-64904761D01*
X47880952Y-64952380D01*
X47833333Y-65047618D01*
X47833333Y-65285714D01*
X47880952Y-65380952D01*
X47928571Y-65428571D01*
X48023810Y-65476190D01*
X48261905Y-65476190D01*
X48357143Y-65428571D01*
X48404762Y-65380952D01*
X48452381Y-65285714D01*
X48452381Y-65047618D01*
X48404762Y-64952380D01*
X48357143Y-64904761D01*
X48404762Y-65952380D02*
X48452381Y-65952380D01*
X48547619Y-65904761D01*
X48595238Y-65857142D01*
X47452381Y-66857142D02*
X47452381Y-66380951D01*
X47928571Y-66333332D01*
X47880952Y-66380951D01*
X47833333Y-66476189D01*
X47833333Y-66714285D01*
X47880952Y-66809523D01*
X47928571Y-66857142D01*
X48023810Y-66904761D01*
X48261905Y-66904761D01*
X48357143Y-66857142D01*
X48404762Y-66809523D01*
X48452381Y-66714285D01*
X48452381Y-66476189D01*
X48404762Y-66380951D01*
X48357143Y-66333332D01*
X47452381Y-67238094D02*
X47452381Y-67904761D01*
X48452381Y-67476189D01*
X48404762Y-68333332D02*
X48452381Y-68333332D01*
X48547619Y-68285713D01*
X48595238Y-68238094D01*
X47452381Y-69190475D02*
X47452381Y-68999998D01*
X47500000Y-68904760D01*
X47547619Y-68857141D01*
X47690476Y-68761903D01*
X47880952Y-68714284D01*
X48261905Y-68714284D01*
X48357143Y-68761903D01*
X48404762Y-68809522D01*
X48452381Y-68904760D01*
X48452381Y-69095237D01*
X48404762Y-69190475D01*
X48357143Y-69238094D01*
X48261905Y-69285713D01*
X48023810Y-69285713D01*
X47928571Y-69238094D01*
X47880952Y-69190475D01*
X47833333Y-69095237D01*
X47833333Y-68904760D01*
X47880952Y-68809522D01*
X47928571Y-68761903D01*
X48023810Y-68714284D01*
X47452381Y-69904760D02*
X47452381Y-69999999D01*
X47500000Y-70095237D01*
X47547619Y-70142856D01*
X47642857Y-70190475D01*
X47833333Y-70238094D01*
X48071429Y-70238094D01*
X48261905Y-70190475D01*
X48357143Y-70142856D01*
X48404762Y-70095237D01*
X48452381Y-69999999D01*
X48452381Y-69904760D01*
X48404762Y-69809522D01*
X48357143Y-69761903D01*
X48261905Y-69714284D01*
X48071429Y-69666665D01*
X47833333Y-69666665D01*
X47642857Y-69714284D01*
X47547619Y-69761903D01*
X47500000Y-69809522D01*
X47452381Y-69904760D01*
X48404762Y-70714284D02*
X48452381Y-70714284D01*
X48547619Y-70666665D01*
X48595238Y-70619046D01*
X47452381Y-71571427D02*
X47452381Y-71380950D01*
X47500000Y-71285712D01*
X47547619Y-71238093D01*
X47690476Y-71142855D01*
X47880952Y-71095236D01*
X48261905Y-71095236D01*
X48357143Y-71142855D01*
X48404762Y-71190474D01*
X48452381Y-71285712D01*
X48452381Y-71476189D01*
X48404762Y-71571427D01*
X48357143Y-71619046D01*
X48261905Y-71666665D01*
X48023810Y-71666665D01*
X47928571Y-71619046D01*
X47880952Y-71571427D01*
X47833333Y-71476189D01*
X47833333Y-71285712D01*
X47880952Y-71190474D01*
X47928571Y-71142855D01*
X48023810Y-71095236D01*
X47452381Y-71999998D02*
X47452381Y-72619046D01*
X47833333Y-72285712D01*
X47833333Y-72428570D01*
X47880952Y-72523808D01*
X47928571Y-72571427D01*
X48023810Y-72619046D01*
X48261905Y-72619046D01*
X48357143Y-72571427D01*
X48404762Y-72523808D01*
X48452381Y-72428570D01*
X48452381Y-72142855D01*
X48404762Y-72047617D01*
X48357143Y-71999998D01*
X47785714Y-42166667D02*
X48452381Y-42166667D01*
X47404762Y-41928571D02*
X48119048Y-41690476D01*
X48119048Y-42309524D01*
X48357143Y-42690476D02*
X48404762Y-42738095D01*
X48452381Y-42690476D01*
X48404762Y-42642857D01*
X48357143Y-42690476D01*
X48452381Y-42690476D01*
X47452381Y-43071428D02*
X47452381Y-43738095D01*
X48452381Y-43309523D01*
X47785714Y-44119047D02*
X48785714Y-44119047D01*
X48309524Y-44595238D02*
X48404762Y-44642857D01*
X48452381Y-44738095D01*
X48309524Y-44119047D02*
X48404762Y-44166666D01*
X48452381Y-44261904D01*
X48452381Y-44452381D01*
X48404762Y-44547619D01*
X48309524Y-44595238D01*
X47785714Y-44595238D01*
X47928571Y-45500000D02*
X47928571Y-45166666D01*
X48452381Y-45166666D02*
X47452381Y-45166666D01*
X47452381Y-45642857D01*
X58857143Y-58809524D02*
X58904762Y-58761905D01*
X58952381Y-58619048D01*
X58952381Y-58523810D01*
X58904762Y-58380952D01*
X58809524Y-58285714D01*
X58714286Y-58238095D01*
X58523810Y-58190476D01*
X58380952Y-58190476D01*
X58190476Y-58238095D01*
X58095238Y-58285714D01*
X58000000Y-58380952D01*
X57952381Y-58523810D01*
X57952381Y-58619048D01*
X58000000Y-58761905D01*
X58047619Y-58809524D01*
X57952381Y-59714286D02*
X57952381Y-59238095D01*
X58428571Y-59190476D01*
X58380952Y-59238095D01*
X58333333Y-59333333D01*
X58333333Y-59571429D01*
X58380952Y-59666667D01*
X58428571Y-59714286D01*
X58523810Y-59761905D01*
X58761905Y-59761905D01*
X58857143Y-59714286D01*
X58904762Y-59666667D01*
X58952381Y-59571429D01*
X58952381Y-59333333D01*
X58904762Y-59238095D01*
X58857143Y-59190476D01*
X57952381Y-60619048D02*
X57952381Y-60428571D01*
X58000000Y-60333333D01*
X58047619Y-60285714D01*
X58190476Y-60190476D01*
X58380952Y-60142857D01*
X58761905Y-60142857D01*
X58857143Y-60190476D01*
X58904762Y-60238095D01*
X58952381Y-60333333D01*
X58952381Y-60523810D01*
X58904762Y-60619048D01*
X58857143Y-60666667D01*
X58761905Y-60714286D01*
X58523810Y-60714286D01*
X58428571Y-60666667D01*
X58380952Y-60619048D01*
X58333333Y-60523810D01*
X58333333Y-60333333D01*
X58380952Y-60238095D01*
X58428571Y-60190476D01*
X58523810Y-60142857D01*
X58904762Y-61190476D02*
X58952381Y-61190476D01*
X59047619Y-61142857D01*
X59095238Y-61095238D01*
X57952381Y-62047619D02*
X57952381Y-61857142D01*
X58000000Y-61761904D01*
X58047619Y-61714285D01*
X58190476Y-61619047D01*
X58380952Y-61571428D01*
X58761905Y-61571428D01*
X58857143Y-61619047D01*
X58904762Y-61666666D01*
X58952381Y-61761904D01*
X58952381Y-61952381D01*
X58904762Y-62047619D01*
X58857143Y-62095238D01*
X58761905Y-62142857D01*
X58523810Y-62142857D01*
X58428571Y-62095238D01*
X58380952Y-62047619D01*
X58333333Y-61952381D01*
X58333333Y-61761904D01*
X58380952Y-61666666D01*
X58428571Y-61619047D01*
X58523810Y-61571428D01*
X58952381Y-63095238D02*
X58952381Y-62523809D01*
X58952381Y-62809523D02*
X57952381Y-62809523D01*
X58095238Y-62714285D01*
X58190476Y-62619047D01*
X58238095Y-62523809D01*
X58904762Y-63571428D02*
X58952381Y-63571428D01*
X59047619Y-63523809D01*
X59095238Y-63476190D01*
X57952381Y-64428571D02*
X57952381Y-64238094D01*
X58000000Y-64142856D01*
X58047619Y-64095237D01*
X58190476Y-63999999D01*
X58380952Y-63952380D01*
X58761905Y-63952380D01*
X58857143Y-63999999D01*
X58904762Y-64047618D01*
X58952381Y-64142856D01*
X58952381Y-64333333D01*
X58904762Y-64428571D01*
X58857143Y-64476190D01*
X58761905Y-64523809D01*
X58523810Y-64523809D01*
X58428571Y-64476190D01*
X58380952Y-64428571D01*
X58333333Y-64333333D01*
X58333333Y-64142856D01*
X58380952Y-64047618D01*
X58428571Y-63999999D01*
X58523810Y-63952380D01*
X58285714Y-65380952D02*
X58952381Y-65380952D01*
X57904762Y-65142856D02*
X58619048Y-64904761D01*
X58619048Y-65523809D01*
X58904762Y-65952380D02*
X58952381Y-65952380D01*
X59047619Y-65904761D01*
X59095238Y-65857142D01*
X57952381Y-66809523D02*
X57952381Y-66619046D01*
X58000000Y-66523808D01*
X58047619Y-66476189D01*
X58190476Y-66380951D01*
X58380952Y-66333332D01*
X58761905Y-66333332D01*
X58857143Y-66380951D01*
X58904762Y-66428570D01*
X58952381Y-66523808D01*
X58952381Y-66714285D01*
X58904762Y-66809523D01*
X58857143Y-66857142D01*
X58761905Y-66904761D01*
X58523810Y-66904761D01*
X58428571Y-66857142D01*
X58380952Y-66809523D01*
X58333333Y-66714285D01*
X58333333Y-66523808D01*
X58380952Y-66428570D01*
X58428571Y-66380951D01*
X58523810Y-66333332D01*
X57952381Y-67809523D02*
X57952381Y-67333332D01*
X58428571Y-67285713D01*
X58380952Y-67333332D01*
X58333333Y-67428570D01*
X58333333Y-67666666D01*
X58380952Y-67761904D01*
X58428571Y-67809523D01*
X58523810Y-67857142D01*
X58761905Y-67857142D01*
X58857143Y-67809523D01*
X58904762Y-67761904D01*
X58952381Y-67666666D01*
X58952381Y-67428570D01*
X58904762Y-67333332D01*
X58857143Y-67285713D01*
X58904762Y-68333332D02*
X58952381Y-68333332D01*
X59047619Y-68285713D01*
X59095238Y-68238094D01*
X57952381Y-69190475D02*
X57952381Y-68999998D01*
X58000000Y-68904760D01*
X58047619Y-68857141D01*
X58190476Y-68761903D01*
X58380952Y-68714284D01*
X58761905Y-68714284D01*
X58857143Y-68761903D01*
X58904762Y-68809522D01*
X58952381Y-68904760D01*
X58952381Y-69095237D01*
X58904762Y-69190475D01*
X58857143Y-69238094D01*
X58761905Y-69285713D01*
X58523810Y-69285713D01*
X58428571Y-69238094D01*
X58380952Y-69190475D01*
X58333333Y-69095237D01*
X58333333Y-68904760D01*
X58380952Y-68809522D01*
X58428571Y-68761903D01*
X58523810Y-68714284D01*
X57952381Y-70142856D02*
X57952381Y-69952379D01*
X58000000Y-69857141D01*
X58047619Y-69809522D01*
X58190476Y-69714284D01*
X58380952Y-69666665D01*
X58761905Y-69666665D01*
X58857143Y-69714284D01*
X58904762Y-69761903D01*
X58952381Y-69857141D01*
X58952381Y-70047618D01*
X58904762Y-70142856D01*
X58857143Y-70190475D01*
X58761905Y-70238094D01*
X58523810Y-70238094D01*
X58428571Y-70190475D01*
X58380952Y-70142856D01*
X58333333Y-70047618D01*
X58333333Y-69857141D01*
X58380952Y-69761903D01*
X58428571Y-69714284D01*
X58523810Y-69666665D01*
X57357143Y-58809524D02*
X57404762Y-58761905D01*
X57452381Y-58619048D01*
X57452381Y-58523810D01*
X57404762Y-58380952D01*
X57309524Y-58285714D01*
X57214286Y-58238095D01*
X57023810Y-58190476D01*
X56880952Y-58190476D01*
X56690476Y-58238095D01*
X56595238Y-58285714D01*
X56500000Y-58380952D01*
X56452381Y-58523810D01*
X56452381Y-58619048D01*
X56500000Y-58761905D01*
X56547619Y-58809524D01*
X56452381Y-59142857D02*
X56452381Y-59761905D01*
X56833333Y-59428571D01*
X56833333Y-59571429D01*
X56880952Y-59666667D01*
X56928571Y-59714286D01*
X57023810Y-59761905D01*
X57261905Y-59761905D01*
X57357143Y-59714286D01*
X57404762Y-59666667D01*
X57452381Y-59571429D01*
X57452381Y-59285714D01*
X57404762Y-59190476D01*
X57357143Y-59142857D01*
X57452381Y-60714286D02*
X57452381Y-60142857D01*
X57452381Y-60428571D02*
X56452381Y-60428571D01*
X56595238Y-60333333D01*
X56690476Y-60238095D01*
X56738095Y-60142857D01*
X57404762Y-61190476D02*
X57452381Y-61190476D01*
X57547619Y-61142857D01*
X57595238Y-61095238D01*
X56452381Y-61523809D02*
X56452381Y-62142857D01*
X56833333Y-61809523D01*
X56833333Y-61952381D01*
X56880952Y-62047619D01*
X56928571Y-62095238D01*
X57023810Y-62142857D01*
X57261905Y-62142857D01*
X57357143Y-62095238D01*
X57404762Y-62047619D01*
X57452381Y-61952381D01*
X57452381Y-61666666D01*
X57404762Y-61571428D01*
X57357143Y-61523809D01*
X56547619Y-62523809D02*
X56500000Y-62571428D01*
X56452381Y-62666666D01*
X56452381Y-62904762D01*
X56500000Y-63000000D01*
X56547619Y-63047619D01*
X56642857Y-63095238D01*
X56738095Y-63095238D01*
X56880952Y-63047619D01*
X57452381Y-62476190D01*
X57452381Y-63095238D01*
X57404762Y-63571428D02*
X57452381Y-63571428D01*
X57547619Y-63523809D01*
X57595238Y-63476190D01*
X56452381Y-63904761D02*
X56452381Y-64523809D01*
X56833333Y-64190475D01*
X56833333Y-64333333D01*
X56880952Y-64428571D01*
X56928571Y-64476190D01*
X57023810Y-64523809D01*
X57261905Y-64523809D01*
X57357143Y-64476190D01*
X57404762Y-64428571D01*
X57452381Y-64333333D01*
X57452381Y-64047618D01*
X57404762Y-63952380D01*
X57357143Y-63904761D01*
X56452381Y-64857142D02*
X56452381Y-65476190D01*
X56833333Y-65142856D01*
X56833333Y-65285714D01*
X56880952Y-65380952D01*
X56928571Y-65428571D01*
X57023810Y-65476190D01*
X57261905Y-65476190D01*
X57357143Y-65428571D01*
X57404762Y-65380952D01*
X57452381Y-65285714D01*
X57452381Y-64999999D01*
X57404762Y-64904761D01*
X57357143Y-64857142D01*
X57404762Y-65952380D02*
X57452381Y-65952380D01*
X57547619Y-65904761D01*
X57595238Y-65857142D01*
X56452381Y-66285713D02*
X56452381Y-66904761D01*
X56833333Y-66571427D01*
X56833333Y-66714285D01*
X56880952Y-66809523D01*
X56928571Y-66857142D01*
X57023810Y-66904761D01*
X57261905Y-66904761D01*
X57357143Y-66857142D01*
X57404762Y-66809523D01*
X57452381Y-66714285D01*
X57452381Y-66428570D01*
X57404762Y-66333332D01*
X57357143Y-66285713D01*
X56452381Y-67809523D02*
X56452381Y-67333332D01*
X56928571Y-67285713D01*
X56880952Y-67333332D01*
X56833333Y-67428570D01*
X56833333Y-67666666D01*
X56880952Y-67761904D01*
X56928571Y-67809523D01*
X57023810Y-67857142D01*
X57261905Y-67857142D01*
X57357143Y-67809523D01*
X57404762Y-67761904D01*
X57452381Y-67666666D01*
X57452381Y-67428570D01*
X57404762Y-67333332D01*
X57357143Y-67285713D01*
X57404762Y-68333332D02*
X57452381Y-68333332D01*
X57547619Y-68285713D01*
X57595238Y-68238094D01*
X56452381Y-68666665D02*
X56452381Y-69285713D01*
X56833333Y-68952379D01*
X56833333Y-69095237D01*
X56880952Y-69190475D01*
X56928571Y-69238094D01*
X57023810Y-69285713D01*
X57261905Y-69285713D01*
X57357143Y-69238094D01*
X57404762Y-69190475D01*
X57452381Y-69095237D01*
X57452381Y-68809522D01*
X57404762Y-68714284D01*
X57357143Y-68666665D01*
X56452381Y-69619046D02*
X56452381Y-70285713D01*
X57452381Y-69857141D01*
X57404762Y-70714284D02*
X57452381Y-70714284D01*
X57547619Y-70666665D01*
X57595238Y-70619046D01*
X56452381Y-71047617D02*
X56452381Y-71666665D01*
X56833333Y-71333331D01*
X56833333Y-71476189D01*
X56880952Y-71571427D01*
X56928571Y-71619046D01*
X57023810Y-71666665D01*
X57261905Y-71666665D01*
X57357143Y-71619046D01*
X57404762Y-71571427D01*
X57452381Y-71476189D01*
X57452381Y-71190474D01*
X57404762Y-71095236D01*
X57357143Y-71047617D01*
X56880952Y-72238093D02*
X56833333Y-72142855D01*
X56785714Y-72095236D01*
X56690476Y-72047617D01*
X56642857Y-72047617D01*
X56547619Y-72095236D01*
X56500000Y-72142855D01*
X56452381Y-72238093D01*
X56452381Y-72428570D01*
X56500000Y-72523808D01*
X56547619Y-72571427D01*
X56642857Y-72619046D01*
X56690476Y-72619046D01*
X56785714Y-72571427D01*
X56833333Y-72523808D01*
X56880952Y-72428570D01*
X56880952Y-72238093D01*
X56928571Y-72142855D01*
X56976190Y-72095236D01*
X57071429Y-72047617D01*
X57261905Y-72047617D01*
X57357143Y-72095236D01*
X57404762Y-72142855D01*
X57452381Y-72238093D01*
X57452381Y-72428570D01*
X57404762Y-72523808D01*
X57357143Y-72571427D01*
X57261905Y-72619046D01*
X57071429Y-72619046D01*
X56976190Y-72571427D01*
X56928571Y-72523808D01*
X56880952Y-72428570D01*
X57404762Y-73095236D02*
X57452381Y-73095236D01*
X57547619Y-73047617D01*
X57595238Y-72999998D01*
X56452381Y-73428569D02*
X56452381Y-74047617D01*
X56833333Y-73714283D01*
X56833333Y-73857141D01*
X56880952Y-73952379D01*
X56928571Y-73999998D01*
X57023810Y-74047617D01*
X57261905Y-74047617D01*
X57357143Y-73999998D01*
X57404762Y-73952379D01*
X57452381Y-73857141D01*
X57452381Y-73571426D01*
X57404762Y-73476188D01*
X57357143Y-73428569D01*
X57452381Y-74523807D02*
X57452381Y-74714283D01*
X57404762Y-74809522D01*
X57357143Y-74857141D01*
X57214286Y-74952379D01*
X57023810Y-74999998D01*
X56642857Y-74999998D01*
X56547619Y-74952379D01*
X56500000Y-74904760D01*
X56452381Y-74809522D01*
X56452381Y-74619045D01*
X56500000Y-74523807D01*
X56547619Y-74476188D01*
X56642857Y-74428569D01*
X56880952Y-74428569D01*
X56976190Y-74476188D01*
X57023810Y-74523807D01*
X57071429Y-74619045D01*
X57071429Y-74809522D01*
X57023810Y-74904760D01*
X56976190Y-74952379D01*
X56880952Y-74999998D01*
X57404762Y-75476188D02*
X57452381Y-75476188D01*
X57547619Y-75428569D01*
X57595238Y-75380950D01*
X56785714Y-76333331D02*
X57452381Y-76333331D01*
X56404762Y-76095235D02*
X57119048Y-75857140D01*
X57119048Y-76476188D01*
X57452381Y-77380950D02*
X57452381Y-76809521D01*
X57452381Y-77095235D02*
X56452381Y-77095235D01*
X56595238Y-76999997D01*
X56690476Y-76904759D01*
X56738095Y-76809521D01*
X57404762Y-77857140D02*
X57452381Y-77857140D01*
X57547619Y-77809521D01*
X57595238Y-77761902D01*
X56785714Y-78714283D02*
X57452381Y-78714283D01*
X56404762Y-78476187D02*
X57119048Y-78238092D01*
X57119048Y-78857140D01*
X56452381Y-79142854D02*
X56452381Y-79761902D01*
X56833333Y-79428568D01*
X56833333Y-79571426D01*
X56880952Y-79666664D01*
X56928571Y-79714283D01*
X57023810Y-79761902D01*
X57261905Y-79761902D01*
X57357143Y-79714283D01*
X57404762Y-79666664D01*
X57452381Y-79571426D01*
X57452381Y-79285711D01*
X57404762Y-79190473D01*
X57357143Y-79142854D01*
X57404762Y-80238092D02*
X57452381Y-80238092D01*
X57547619Y-80190473D01*
X57595238Y-80142854D01*
X56785714Y-81095235D02*
X57452381Y-81095235D01*
X56404762Y-80857139D02*
X57119048Y-80619044D01*
X57119048Y-81238092D01*
X56785714Y-82047616D02*
X57452381Y-82047616D01*
X56404762Y-81809520D02*
X57119048Y-81571425D01*
X57119048Y-82190473D01*
X57404762Y-82619044D02*
X57452381Y-82619044D01*
X57547619Y-82571425D01*
X57595238Y-82523806D01*
X56785714Y-83476187D02*
X57452381Y-83476187D01*
X56404762Y-83238091D02*
X57119048Y-82999996D01*
X57119048Y-83619044D01*
X56452381Y-84476187D02*
X56452381Y-83999996D01*
X56928571Y-83952377D01*
X56880952Y-83999996D01*
X56833333Y-84095234D01*
X56833333Y-84333330D01*
X56880952Y-84428568D01*
X56928571Y-84476187D01*
X57023810Y-84523806D01*
X57261905Y-84523806D01*
X57357143Y-84476187D01*
X57404762Y-84428568D01*
X57452381Y-84333330D01*
X57452381Y-84095234D01*
X57404762Y-83999996D01*
X57357143Y-83952377D01*
X57404762Y-84999996D02*
X57452381Y-84999996D01*
X57547619Y-84952377D01*
X57595238Y-84904758D01*
X56785714Y-85857139D02*
X57452381Y-85857139D01*
X56404762Y-85619043D02*
X57119048Y-85380948D01*
X57119048Y-85999996D01*
X56452381Y-86285710D02*
X56452381Y-86952377D01*
X57452381Y-86523805D01*
X57404762Y-87380948D02*
X57452381Y-87380948D01*
X57547619Y-87333329D01*
X57595238Y-87285710D01*
X56452381Y-88285710D02*
X56452381Y-87809519D01*
X56928571Y-87761900D01*
X56880952Y-87809519D01*
X56833333Y-87904757D01*
X56833333Y-88142853D01*
X56880952Y-88238091D01*
X56928571Y-88285710D01*
X57023810Y-88333329D01*
X57261905Y-88333329D01*
X57357143Y-88285710D01*
X57404762Y-88238091D01*
X57452381Y-88142853D01*
X57452381Y-87904757D01*
X57404762Y-87809519D01*
X57357143Y-87761900D01*
X56452381Y-88666662D02*
X56452381Y-89285710D01*
X56833333Y-88952376D01*
X56833333Y-89095234D01*
X56880952Y-89190472D01*
X56928571Y-89238091D01*
X57023810Y-89285710D01*
X57261905Y-89285710D01*
X57357143Y-89238091D01*
X57404762Y-89190472D01*
X57452381Y-89095234D01*
X57452381Y-88809519D01*
X57404762Y-88714281D01*
X57357143Y-88666662D01*
X52357143Y-58809524D02*
X52404762Y-58761905D01*
X52452381Y-58619048D01*
X52452381Y-58523810D01*
X52404762Y-58380952D01*
X52309524Y-58285714D01*
X52214286Y-58238095D01*
X52023810Y-58190476D01*
X51880952Y-58190476D01*
X51690476Y-58238095D01*
X51595238Y-58285714D01*
X51500000Y-58380952D01*
X51452381Y-58523810D01*
X51452381Y-58619048D01*
X51500000Y-58761905D01*
X51547619Y-58809524D01*
X51452381Y-59714286D02*
X51452381Y-59238095D01*
X51928571Y-59190476D01*
X51880952Y-59238095D01*
X51833333Y-59333333D01*
X51833333Y-59571429D01*
X51880952Y-59666667D01*
X51928571Y-59714286D01*
X52023810Y-59761905D01*
X52261905Y-59761905D01*
X52357143Y-59714286D01*
X52404762Y-59666667D01*
X52452381Y-59571429D01*
X52452381Y-59333333D01*
X52404762Y-59238095D01*
X52357143Y-59190476D01*
X51452381Y-60380952D02*
X51452381Y-60476191D01*
X51500000Y-60571429D01*
X51547619Y-60619048D01*
X51642857Y-60666667D01*
X51833333Y-60714286D01*
X52071429Y-60714286D01*
X52261905Y-60666667D01*
X52357143Y-60619048D01*
X52404762Y-60571429D01*
X52452381Y-60476191D01*
X52452381Y-60380952D01*
X52404762Y-60285714D01*
X52357143Y-60238095D01*
X52261905Y-60190476D01*
X52071429Y-60142857D01*
X51833333Y-60142857D01*
X51642857Y-60190476D01*
X51547619Y-60238095D01*
X51500000Y-60285714D01*
X51452381Y-60380952D01*
X52404762Y-61190476D02*
X52452381Y-61190476D01*
X52547619Y-61142857D01*
X52595238Y-61095238D01*
X51452381Y-62095238D02*
X51452381Y-61619047D01*
X51928571Y-61571428D01*
X51880952Y-61619047D01*
X51833333Y-61714285D01*
X51833333Y-61952381D01*
X51880952Y-62047619D01*
X51928571Y-62095238D01*
X52023810Y-62142857D01*
X52261905Y-62142857D01*
X52357143Y-62095238D01*
X52404762Y-62047619D01*
X52452381Y-61952381D01*
X52452381Y-61714285D01*
X52404762Y-61619047D01*
X52357143Y-61571428D01*
X51880952Y-62714285D02*
X51833333Y-62619047D01*
X51785714Y-62571428D01*
X51690476Y-62523809D01*
X51642857Y-62523809D01*
X51547619Y-62571428D01*
X51500000Y-62619047D01*
X51452381Y-62714285D01*
X51452381Y-62904762D01*
X51500000Y-63000000D01*
X51547619Y-63047619D01*
X51642857Y-63095238D01*
X51690476Y-63095238D01*
X51785714Y-63047619D01*
X51833333Y-63000000D01*
X51880952Y-62904762D01*
X51880952Y-62714285D01*
X51928571Y-62619047D01*
X51976190Y-62571428D01*
X52071429Y-62523809D01*
X52261905Y-62523809D01*
X52357143Y-62571428D01*
X52404762Y-62619047D01*
X52452381Y-62714285D01*
X52452381Y-62904762D01*
X52404762Y-63000000D01*
X52357143Y-63047619D01*
X52261905Y-63095238D01*
X52071429Y-63095238D01*
X51976190Y-63047619D01*
X51928571Y-63000000D01*
X51880952Y-62904762D01*
X52452381Y-42261905D02*
X52452381Y-41690476D01*
X52452381Y-41976190D02*
X51452381Y-41976190D01*
X51595238Y-41880952D01*
X51690476Y-41785714D01*
X51738095Y-41690476D01*
X51452381Y-42880952D02*
X51452381Y-42976191D01*
X51500000Y-43071429D01*
X51547619Y-43119048D01*
X51642857Y-43166667D01*
X51833333Y-43214286D01*
X52071429Y-43214286D01*
X52261905Y-43166667D01*
X52357143Y-43119048D01*
X52404762Y-43071429D01*
X52452381Y-42976191D01*
X52452381Y-42880952D01*
X52404762Y-42785714D01*
X52357143Y-42738095D01*
X52261905Y-42690476D01*
X52071429Y-42642857D01*
X51833333Y-42642857D01*
X51642857Y-42690476D01*
X51547619Y-42738095D01*
X51500000Y-42785714D01*
X51452381Y-42880952D01*
X51452381Y-43833333D02*
X51452381Y-43928572D01*
X51500000Y-44023810D01*
X51547619Y-44071429D01*
X51642857Y-44119048D01*
X51833333Y-44166667D01*
X52071429Y-44166667D01*
X52261905Y-44119048D01*
X52357143Y-44071429D01*
X52404762Y-44023810D01*
X52452381Y-43928572D01*
X52452381Y-43833333D01*
X52404762Y-43738095D01*
X52357143Y-43690476D01*
X52261905Y-43642857D01*
X52071429Y-43595238D01*
X51833333Y-43595238D01*
X51642857Y-43642857D01*
X51547619Y-43690476D01*
X51500000Y-43738095D01*
X51452381Y-43833333D01*
X51785714Y-44595238D02*
X52452381Y-44595238D01*
X51880952Y-44595238D02*
X51833333Y-44642857D01*
X51785714Y-44738095D01*
X51785714Y-44880953D01*
X51833333Y-44976191D01*
X51928571Y-45023810D01*
X52452381Y-45023810D01*
X51928571Y-45833334D02*
X51928571Y-45500000D01*
X52452381Y-45500000D02*
X51452381Y-45500000D01*
X51452381Y-45976191D01*
X53547619Y-41690476D02*
X53500000Y-41738095D01*
X53452381Y-41833333D01*
X53452381Y-42071429D01*
X53500000Y-42166667D01*
X53547619Y-42214286D01*
X53642857Y-42261905D01*
X53738095Y-42261905D01*
X53880952Y-42214286D01*
X54452381Y-41642857D01*
X54452381Y-42261905D01*
X53547619Y-42642857D02*
X53500000Y-42690476D01*
X53452381Y-42785714D01*
X53452381Y-43023810D01*
X53500000Y-43119048D01*
X53547619Y-43166667D01*
X53642857Y-43214286D01*
X53738095Y-43214286D01*
X53880952Y-43166667D01*
X54452381Y-42595238D01*
X54452381Y-43214286D01*
X53785714Y-43642857D02*
X54452381Y-43642857D01*
X53880952Y-43642857D02*
X53833333Y-43690476D01*
X53785714Y-43785714D01*
X53785714Y-43928572D01*
X53833333Y-44023810D01*
X53928571Y-44071429D01*
X54452381Y-44071429D01*
X53928571Y-44880953D02*
X53928571Y-44547619D01*
X54452381Y-44547619D02*
X53452381Y-44547619D01*
X53452381Y-45023810D01*
X54357143Y-58809524D02*
X54404762Y-58761905D01*
X54452381Y-58619048D01*
X54452381Y-58523810D01*
X54404762Y-58380952D01*
X54309524Y-58285714D01*
X54214286Y-58238095D01*
X54023810Y-58190476D01*
X53880952Y-58190476D01*
X53690476Y-58238095D01*
X53595238Y-58285714D01*
X53500000Y-58380952D01*
X53452381Y-58523810D01*
X53452381Y-58619048D01*
X53500000Y-58761905D01*
X53547619Y-58809524D01*
X54452381Y-59761905D02*
X54452381Y-59190476D01*
X54452381Y-59476190D02*
X53452381Y-59476190D01*
X53595238Y-59380952D01*
X53690476Y-59285714D01*
X53738095Y-59190476D01*
X54404762Y-60238095D02*
X54452381Y-60238095D01*
X54547619Y-60190476D01*
X54595238Y-60142857D01*
X53547619Y-60619047D02*
X53500000Y-60666666D01*
X53452381Y-60761904D01*
X53452381Y-61000000D01*
X53500000Y-61095238D01*
X53547619Y-61142857D01*
X53642857Y-61190476D01*
X53738095Y-61190476D01*
X53880952Y-61142857D01*
X54452381Y-60571428D01*
X54452381Y-61190476D01*
X54404762Y-61666666D02*
X54452381Y-61666666D01*
X54547619Y-61619047D01*
X54595238Y-61571428D01*
X53452381Y-61999999D02*
X53452381Y-62619047D01*
X53833333Y-62285713D01*
X53833333Y-62428571D01*
X53880952Y-62523809D01*
X53928571Y-62571428D01*
X54023810Y-62619047D01*
X54261905Y-62619047D01*
X54357143Y-62571428D01*
X54404762Y-62523809D01*
X54452381Y-62428571D01*
X54452381Y-62142856D01*
X54404762Y-62047618D01*
X54357143Y-61999999D01*
X54404762Y-63095237D02*
X54452381Y-63095237D01*
X54547619Y-63047618D01*
X54595238Y-62999999D01*
X53785714Y-63952380D02*
X54452381Y-63952380D01*
X53404762Y-63714284D02*
X54119048Y-63476189D01*
X54119048Y-64095237D01*
X54404762Y-64523808D02*
X54452381Y-64523808D01*
X54547619Y-64476189D01*
X54595238Y-64428570D01*
X53452381Y-65428570D02*
X53452381Y-64952379D01*
X53928571Y-64904760D01*
X53880952Y-64952379D01*
X53833333Y-65047617D01*
X53833333Y-65285713D01*
X53880952Y-65380951D01*
X53928571Y-65428570D01*
X54023810Y-65476189D01*
X54261905Y-65476189D01*
X54357143Y-65428570D01*
X54404762Y-65380951D01*
X54452381Y-65285713D01*
X54452381Y-65047617D01*
X54404762Y-64952379D01*
X54357143Y-64904760D01*
X54404762Y-65952379D02*
X54452381Y-65952379D01*
X54547619Y-65904760D01*
X54595238Y-65857141D01*
X53452381Y-66809522D02*
X53452381Y-66619045D01*
X53500000Y-66523807D01*
X53547619Y-66476188D01*
X53690476Y-66380950D01*
X53880952Y-66333331D01*
X54261905Y-66333331D01*
X54357143Y-66380950D01*
X54404762Y-66428569D01*
X54452381Y-66523807D01*
X54452381Y-66714284D01*
X54404762Y-66809522D01*
X54357143Y-66857141D01*
X54261905Y-66904760D01*
X54023810Y-66904760D01*
X53928571Y-66857141D01*
X53880952Y-66809522D01*
X53833333Y-66714284D01*
X53833333Y-66523807D01*
X53880952Y-66428569D01*
X53928571Y-66380950D01*
X54023810Y-66333331D01*
X54404762Y-67380950D02*
X54452381Y-67380950D01*
X54547619Y-67333331D01*
X54595238Y-67285712D01*
X53452381Y-67714283D02*
X53452381Y-68380950D01*
X54452381Y-67952378D01*
X54404762Y-68809521D02*
X54452381Y-68809521D01*
X54547619Y-68761902D01*
X54595238Y-68714283D01*
X53880952Y-69380949D02*
X53833333Y-69285711D01*
X53785714Y-69238092D01*
X53690476Y-69190473D01*
X53642857Y-69190473D01*
X53547619Y-69238092D01*
X53500000Y-69285711D01*
X53452381Y-69380949D01*
X53452381Y-69571426D01*
X53500000Y-69666664D01*
X53547619Y-69714283D01*
X53642857Y-69761902D01*
X53690476Y-69761902D01*
X53785714Y-69714283D01*
X53833333Y-69666664D01*
X53880952Y-69571426D01*
X53880952Y-69380949D01*
X53928571Y-69285711D01*
X53976190Y-69238092D01*
X54071429Y-69190473D01*
X54261905Y-69190473D01*
X54357143Y-69238092D01*
X54404762Y-69285711D01*
X54452381Y-69380949D01*
X54452381Y-69571426D01*
X54404762Y-69666664D01*
X54357143Y-69714283D01*
X54261905Y-69761902D01*
X54071429Y-69761902D01*
X53976190Y-69714283D01*
X53928571Y-69666664D01*
X53880952Y-69571426D01*
X54404762Y-70238092D02*
X54452381Y-70238092D01*
X54547619Y-70190473D01*
X54595238Y-70142854D01*
X54452381Y-70714282D02*
X54452381Y-70904758D01*
X54404762Y-70999997D01*
X54357143Y-71047616D01*
X54214286Y-71142854D01*
X54023810Y-71190473D01*
X53642857Y-71190473D01*
X53547619Y-71142854D01*
X53500000Y-71095235D01*
X53452381Y-70999997D01*
X53452381Y-70809520D01*
X53500000Y-70714282D01*
X53547619Y-70666663D01*
X53642857Y-70619044D01*
X53880952Y-70619044D01*
X53976190Y-70666663D01*
X54023810Y-70714282D01*
X54071429Y-70809520D01*
X54071429Y-70999997D01*
X54023810Y-71095235D01*
X53976190Y-71142854D01*
X53880952Y-71190473D01*
X54404762Y-71666663D02*
X54452381Y-71666663D01*
X54547619Y-71619044D01*
X54595238Y-71571425D01*
X54452381Y-72619044D02*
X54452381Y-72047615D01*
X54452381Y-72333329D02*
X53452381Y-72333329D01*
X53595238Y-72238091D01*
X53690476Y-72142853D01*
X53738095Y-72047615D01*
X53452381Y-73238091D02*
X53452381Y-73333330D01*
X53500000Y-73428568D01*
X53547619Y-73476187D01*
X53642857Y-73523806D01*
X53833333Y-73571425D01*
X54071429Y-73571425D01*
X54261905Y-73523806D01*
X54357143Y-73476187D01*
X54404762Y-73428568D01*
X54452381Y-73333330D01*
X54452381Y-73238091D01*
X54404762Y-73142853D01*
X54357143Y-73095234D01*
X54261905Y-73047615D01*
X54071429Y-72999996D01*
X53833333Y-72999996D01*
X53642857Y-73047615D01*
X53547619Y-73095234D01*
X53500000Y-73142853D01*
X53452381Y-73238091D01*
X54404762Y-74047615D02*
X54452381Y-74047615D01*
X54547619Y-73999996D01*
X54595238Y-73952377D01*
X54452381Y-74999996D02*
X54452381Y-74428567D01*
X54452381Y-74714281D02*
X53452381Y-74714281D01*
X53595238Y-74619043D01*
X53690476Y-74523805D01*
X53738095Y-74428567D01*
X54452381Y-75952377D02*
X54452381Y-75380948D01*
X54452381Y-75666662D02*
X53452381Y-75666662D01*
X53595238Y-75571424D01*
X53690476Y-75476186D01*
X53738095Y-75380948D01*
X54404762Y-76428567D02*
X54452381Y-76428567D01*
X54547619Y-76380948D01*
X54595238Y-76333329D01*
X54452381Y-77380948D02*
X54452381Y-76809519D01*
X54452381Y-77095233D02*
X53452381Y-77095233D01*
X53595238Y-76999995D01*
X53690476Y-76904757D01*
X53738095Y-76809519D01*
X53547619Y-77761900D02*
X53500000Y-77809519D01*
X53452381Y-77904757D01*
X53452381Y-78142853D01*
X53500000Y-78238091D01*
X53547619Y-78285710D01*
X53642857Y-78333329D01*
X53738095Y-78333329D01*
X53880952Y-78285710D01*
X54452381Y-77714281D01*
X54452381Y-78333329D01*
X54404762Y-78809519D02*
X54452381Y-78809519D01*
X54547619Y-78761900D01*
X54595238Y-78714281D01*
X54452381Y-79761900D02*
X54452381Y-79190471D01*
X54452381Y-79476185D02*
X53452381Y-79476185D01*
X53595238Y-79380947D01*
X53690476Y-79285709D01*
X53738095Y-79190471D01*
X53452381Y-80095233D02*
X53452381Y-80714281D01*
X53833333Y-80380947D01*
X53833333Y-80523805D01*
X53880952Y-80619043D01*
X53928571Y-80666662D01*
X54023810Y-80714281D01*
X54261905Y-80714281D01*
X54357143Y-80666662D01*
X54404762Y-80619043D01*
X54452381Y-80523805D01*
X54452381Y-80238090D01*
X54404762Y-80142852D01*
X54357143Y-80095233D01*
X54404762Y-81190471D02*
X54452381Y-81190471D01*
X54547619Y-81142852D01*
X54595238Y-81095233D01*
X54452381Y-82142852D02*
X54452381Y-81571423D01*
X54452381Y-81857137D02*
X53452381Y-81857137D01*
X53595238Y-81761899D01*
X53690476Y-81666661D01*
X53738095Y-81571423D01*
X53785714Y-82999995D02*
X54452381Y-82999995D01*
X53404762Y-82761899D02*
X54119048Y-82523804D01*
X54119048Y-83142852D01*
X54404762Y-83571423D02*
X54452381Y-83571423D01*
X54547619Y-83523804D01*
X54595238Y-83476185D01*
X54452381Y-84523804D02*
X54452381Y-83952375D01*
X54452381Y-84238089D02*
X53452381Y-84238089D01*
X53595238Y-84142851D01*
X53690476Y-84047613D01*
X53738095Y-83952375D01*
X53452381Y-85428566D02*
X53452381Y-84952375D01*
X53928571Y-84904756D01*
X53880952Y-84952375D01*
X53833333Y-85047613D01*
X53833333Y-85285709D01*
X53880952Y-85380947D01*
X53928571Y-85428566D01*
X54023810Y-85476185D01*
X54261905Y-85476185D01*
X54357143Y-85428566D01*
X54404762Y-85380947D01*
X54452381Y-85285709D01*
X54452381Y-85047613D01*
X54404762Y-84952375D01*
X54357143Y-84904756D01*
X55857143Y-58809524D02*
X55904762Y-58761905D01*
X55952381Y-58619048D01*
X55952381Y-58523810D01*
X55904762Y-58380952D01*
X55809524Y-58285714D01*
X55714286Y-58238095D01*
X55523810Y-58190476D01*
X55380952Y-58190476D01*
X55190476Y-58238095D01*
X55095238Y-58285714D01*
X55000000Y-58380952D01*
X54952381Y-58523810D01*
X54952381Y-58619048D01*
X55000000Y-58761905D01*
X55047619Y-58809524D01*
X55952381Y-59761905D02*
X55952381Y-59190476D01*
X55952381Y-59476190D02*
X54952381Y-59476190D01*
X55095238Y-59380952D01*
X55190476Y-59285714D01*
X55238095Y-59190476D01*
X54952381Y-60619048D02*
X54952381Y-60428571D01*
X55000000Y-60333333D01*
X55047619Y-60285714D01*
X55190476Y-60190476D01*
X55380952Y-60142857D01*
X55761905Y-60142857D01*
X55857143Y-60190476D01*
X55904762Y-60238095D01*
X55952381Y-60333333D01*
X55952381Y-60523810D01*
X55904762Y-60619048D01*
X55857143Y-60666667D01*
X55761905Y-60714286D01*
X55523810Y-60714286D01*
X55428571Y-60666667D01*
X55380952Y-60619048D01*
X55333333Y-60523810D01*
X55333333Y-60333333D01*
X55380952Y-60238095D01*
X55428571Y-60190476D01*
X55523810Y-60142857D01*
X55904762Y-61190476D02*
X55952381Y-61190476D01*
X56047619Y-61142857D01*
X56095238Y-61095238D01*
X55952381Y-62142857D02*
X55952381Y-61571428D01*
X55952381Y-61857142D02*
X54952381Y-61857142D01*
X55095238Y-61761904D01*
X55190476Y-61666666D01*
X55238095Y-61571428D01*
X54952381Y-62476190D02*
X54952381Y-63142857D01*
X55952381Y-62714285D01*
X55904762Y-63571428D02*
X55952381Y-63571428D01*
X56047619Y-63523809D01*
X56095238Y-63476190D01*
X55952381Y-64523809D02*
X55952381Y-63952380D01*
X55952381Y-64238094D02*
X54952381Y-64238094D01*
X55095238Y-64142856D01*
X55190476Y-64047618D01*
X55238095Y-63952380D01*
X55380952Y-65095237D02*
X55333333Y-64999999D01*
X55285714Y-64952380D01*
X55190476Y-64904761D01*
X55142857Y-64904761D01*
X55047619Y-64952380D01*
X55000000Y-64999999D01*
X54952381Y-65095237D01*
X54952381Y-65285714D01*
X55000000Y-65380952D01*
X55047619Y-65428571D01*
X55142857Y-65476190D01*
X55190476Y-65476190D01*
X55285714Y-65428571D01*
X55333333Y-65380952D01*
X55380952Y-65285714D01*
X55380952Y-65095237D01*
X55428571Y-64999999D01*
X55476190Y-64952380D01*
X55571429Y-64904761D01*
X55761905Y-64904761D01*
X55857143Y-64952380D01*
X55904762Y-64999999D01*
X55952381Y-65095237D01*
X55952381Y-65285714D01*
X55904762Y-65380952D01*
X55857143Y-65428571D01*
X55761905Y-65476190D01*
X55571429Y-65476190D01*
X55476190Y-65428571D01*
X55428571Y-65380952D01*
X55380952Y-65285714D01*
X55904762Y-65952380D02*
X55952381Y-65952380D01*
X56047619Y-65904761D01*
X56095238Y-65857142D01*
X55952381Y-66904761D02*
X55952381Y-66333332D01*
X55952381Y-66619046D02*
X54952381Y-66619046D01*
X55095238Y-66523808D01*
X55190476Y-66428570D01*
X55238095Y-66333332D01*
X55952381Y-67380951D02*
X55952381Y-67571427D01*
X55904762Y-67666666D01*
X55857143Y-67714285D01*
X55714286Y-67809523D01*
X55523810Y-67857142D01*
X55142857Y-67857142D01*
X55047619Y-67809523D01*
X55000000Y-67761904D01*
X54952381Y-67666666D01*
X54952381Y-67476189D01*
X55000000Y-67380951D01*
X55047619Y-67333332D01*
X55142857Y-67285713D01*
X55380952Y-67285713D01*
X55476190Y-67333332D01*
X55523810Y-67380951D01*
X55571429Y-67476189D01*
X55571429Y-67666666D01*
X55523810Y-67761904D01*
X55476190Y-67809523D01*
X55380952Y-67857142D01*
X55904762Y-68333332D02*
X55952381Y-68333332D01*
X56047619Y-68285713D01*
X56095238Y-68238094D01*
X55047619Y-68714284D02*
X55000000Y-68761903D01*
X54952381Y-68857141D01*
X54952381Y-69095237D01*
X55000000Y-69190475D01*
X55047619Y-69238094D01*
X55142857Y-69285713D01*
X55238095Y-69285713D01*
X55380952Y-69238094D01*
X55952381Y-68666665D01*
X55952381Y-69285713D01*
X54952381Y-69904760D02*
X54952381Y-69999999D01*
X55000000Y-70095237D01*
X55047619Y-70142856D01*
X55142857Y-70190475D01*
X55333333Y-70238094D01*
X55571429Y-70238094D01*
X55761905Y-70190475D01*
X55857143Y-70142856D01*
X55904762Y-70095237D01*
X55952381Y-69999999D01*
X55952381Y-69904760D01*
X55904762Y-69809522D01*
X55857143Y-69761903D01*
X55761905Y-69714284D01*
X55571429Y-69666665D01*
X55333333Y-69666665D01*
X55142857Y-69714284D01*
X55047619Y-69761903D01*
X55000000Y-69809522D01*
X54952381Y-69904760D01*
X55904762Y-70714284D02*
X55952381Y-70714284D01*
X56047619Y-70666665D01*
X56095238Y-70619046D01*
X55047619Y-71095236D02*
X55000000Y-71142855D01*
X54952381Y-71238093D01*
X54952381Y-71476189D01*
X55000000Y-71571427D01*
X55047619Y-71619046D01*
X55142857Y-71666665D01*
X55238095Y-71666665D01*
X55380952Y-71619046D01*
X55952381Y-71047617D01*
X55952381Y-71666665D01*
X55952381Y-72619046D02*
X55952381Y-72047617D01*
X55952381Y-72333331D02*
X54952381Y-72333331D01*
X55095238Y-72238093D01*
X55190476Y-72142855D01*
X55238095Y-72047617D01*
X55904762Y-73095236D02*
X55952381Y-73095236D01*
X56047619Y-73047617D01*
X56095238Y-72999998D01*
X55047619Y-73476188D02*
X55000000Y-73523807D01*
X54952381Y-73619045D01*
X54952381Y-73857141D01*
X55000000Y-73952379D01*
X55047619Y-73999998D01*
X55142857Y-74047617D01*
X55238095Y-74047617D01*
X55380952Y-73999998D01*
X55952381Y-73428569D01*
X55952381Y-74047617D01*
X55047619Y-74428569D02*
X55000000Y-74476188D01*
X54952381Y-74571426D01*
X54952381Y-74809522D01*
X55000000Y-74904760D01*
X55047619Y-74952379D01*
X55142857Y-74999998D01*
X55238095Y-74999998D01*
X55380952Y-74952379D01*
X55952381Y-74380950D01*
X55952381Y-74999998D01*
X55904762Y-75476188D02*
X55952381Y-75476188D01*
X56047619Y-75428569D01*
X56095238Y-75380950D01*
X55047619Y-75857140D02*
X55000000Y-75904759D01*
X54952381Y-75999997D01*
X54952381Y-76238093D01*
X55000000Y-76333331D01*
X55047619Y-76380950D01*
X55142857Y-76428569D01*
X55238095Y-76428569D01*
X55380952Y-76380950D01*
X55952381Y-75809521D01*
X55952381Y-76428569D01*
X54952381Y-76761902D02*
X54952381Y-77380950D01*
X55333333Y-77047616D01*
X55333333Y-77190474D01*
X55380952Y-77285712D01*
X55428571Y-77333331D01*
X55523810Y-77380950D01*
X55761905Y-77380950D01*
X55857143Y-77333331D01*
X55904762Y-77285712D01*
X55952381Y-77190474D01*
X55952381Y-76904759D01*
X55904762Y-76809521D01*
X55857143Y-76761902D01*
X55904762Y-77857140D02*
X55952381Y-77857140D01*
X56047619Y-77809521D01*
X56095238Y-77761902D01*
X55047619Y-78238092D02*
X55000000Y-78285711D01*
X54952381Y-78380949D01*
X54952381Y-78619045D01*
X55000000Y-78714283D01*
X55047619Y-78761902D01*
X55142857Y-78809521D01*
X55238095Y-78809521D01*
X55380952Y-78761902D01*
X55952381Y-78190473D01*
X55952381Y-78809521D01*
X55285714Y-79666664D02*
X55952381Y-79666664D01*
X54904762Y-79428568D02*
X55619048Y-79190473D01*
X55619048Y-79809521D01*
X55904762Y-80238092D02*
X55952381Y-80238092D01*
X56047619Y-80190473D01*
X56095238Y-80142854D01*
X55047619Y-80619044D02*
X55000000Y-80666663D01*
X54952381Y-80761901D01*
X54952381Y-80999997D01*
X55000000Y-81095235D01*
X55047619Y-81142854D01*
X55142857Y-81190473D01*
X55238095Y-81190473D01*
X55380952Y-81142854D01*
X55952381Y-80571425D01*
X55952381Y-81190473D01*
X54952381Y-82095235D02*
X54952381Y-81619044D01*
X55428571Y-81571425D01*
X55380952Y-81619044D01*
X55333333Y-81714282D01*
X55333333Y-81952378D01*
X55380952Y-82047616D01*
X55428571Y-82095235D01*
X55523810Y-82142854D01*
X55761905Y-82142854D01*
X55857143Y-82095235D01*
X55904762Y-82047616D01*
X55952381Y-81952378D01*
X55952381Y-81714282D01*
X55904762Y-81619044D01*
X55857143Y-81571425D01*
X55904762Y-82619044D02*
X55952381Y-82619044D01*
X56047619Y-82571425D01*
X56095238Y-82523806D01*
X55047619Y-82999996D02*
X55000000Y-83047615D01*
X54952381Y-83142853D01*
X54952381Y-83380949D01*
X55000000Y-83476187D01*
X55047619Y-83523806D01*
X55142857Y-83571425D01*
X55238095Y-83571425D01*
X55380952Y-83523806D01*
X55952381Y-82952377D01*
X55952381Y-83571425D01*
X54952381Y-84428568D02*
X54952381Y-84238091D01*
X55000000Y-84142853D01*
X55047619Y-84095234D01*
X55190476Y-83999996D01*
X55380952Y-83952377D01*
X55761905Y-83952377D01*
X55857143Y-83999996D01*
X55904762Y-84047615D01*
X55952381Y-84142853D01*
X55952381Y-84333330D01*
X55904762Y-84428568D01*
X55857143Y-84476187D01*
X55761905Y-84523806D01*
X55523810Y-84523806D01*
X55428571Y-84476187D01*
X55380952Y-84428568D01*
X55333333Y-84333330D01*
X55333333Y-84142853D01*
X55380952Y-84047615D01*
X55428571Y-83999996D01*
X55523810Y-83952377D01*
X55904762Y-84999996D02*
X55952381Y-84999996D01*
X56047619Y-84952377D01*
X56095238Y-84904758D01*
X55047619Y-85380948D02*
X55000000Y-85428567D01*
X54952381Y-85523805D01*
X54952381Y-85761901D01*
X55000000Y-85857139D01*
X55047619Y-85904758D01*
X55142857Y-85952377D01*
X55238095Y-85952377D01*
X55380952Y-85904758D01*
X55952381Y-85333329D01*
X55952381Y-85952377D01*
X54952381Y-86285710D02*
X54952381Y-86952377D01*
X55952381Y-86523805D01*
X55904762Y-87380948D02*
X55952381Y-87380948D01*
X56047619Y-87333329D01*
X56095238Y-87285710D01*
X55047619Y-87761900D02*
X55000000Y-87809519D01*
X54952381Y-87904757D01*
X54952381Y-88142853D01*
X55000000Y-88238091D01*
X55047619Y-88285710D01*
X55142857Y-88333329D01*
X55238095Y-88333329D01*
X55380952Y-88285710D01*
X55952381Y-87714281D01*
X55952381Y-88333329D01*
X55952381Y-88809519D02*
X55952381Y-88999995D01*
X55904762Y-89095234D01*
X55857143Y-89142853D01*
X55714286Y-89238091D01*
X55523810Y-89285710D01*
X55142857Y-89285710D01*
X55047619Y-89238091D01*
X55000000Y-89190472D01*
X54952381Y-89095234D01*
X54952381Y-88904757D01*
X55000000Y-88809519D01*
X55047619Y-88761900D01*
X55142857Y-88714281D01*
X55380952Y-88714281D01*
X55476190Y-88761900D01*
X55523810Y-88809519D01*
X55571429Y-88904757D01*
X55571429Y-89095234D01*
X55523810Y-89190472D01*
X55476190Y-89238091D01*
X55380952Y-89285710D01*
M02*
