G04 #@! TF.FileFunction,Legend,Top*
%FSLAX46Y46*%
G04 Gerber Fmt 4.6, Leading zero omitted, Abs format (unit mm)*
G04 Created by KiCad (PCBNEW 4.0.7) date 08/27/18 20:28:57*
%MOMM*%
%LPD*%
G01*
G04 APERTURE LIST*
%ADD10C,0.100000*%
%ADD11C,0.300000*%
%ADD12C,0.150000*%
%ADD13C,0.200000*%
%ADD14C,0.120000*%
G04 APERTURE END LIST*
D10*
D11*
X74928572Y-76892857D02*
X75428572Y-76892857D01*
X75642858Y-77678571D02*
X74928572Y-77678571D01*
X74928572Y-76178571D01*
X75642858Y-76178571D01*
X76214286Y-77250000D02*
X76928572Y-77250000D01*
X76071429Y-77678571D02*
X76571429Y-76178571D01*
X77071429Y-77678571D01*
X78428572Y-77678571D02*
X77928572Y-76964286D01*
X77571429Y-77678571D02*
X77571429Y-76178571D01*
X78142857Y-76178571D01*
X78285715Y-76250000D01*
X78357143Y-76321429D01*
X78428572Y-76464286D01*
X78428572Y-76678571D01*
X78357143Y-76821429D01*
X78285715Y-76892857D01*
X78142857Y-76964286D01*
X77571429Y-76964286D01*
X78857143Y-76178571D02*
X79714286Y-76178571D01*
X79285715Y-77678571D02*
X79285715Y-76178571D01*
X80214286Y-77678571D02*
X80214286Y-76178571D01*
X80214286Y-76892857D02*
X81071429Y-76892857D01*
X81071429Y-77678571D02*
X81071429Y-76178571D01*
X75035714Y-86928571D02*
X75035714Y-85428571D01*
X75892857Y-86928571D01*
X75892857Y-85428571D01*
X76607143Y-86142857D02*
X77107143Y-86142857D01*
X77321429Y-86928571D02*
X76607143Y-86928571D01*
X76607143Y-85428571D01*
X77321429Y-85428571D01*
X77964286Y-85428571D02*
X77964286Y-86642857D01*
X78035714Y-86785714D01*
X78107143Y-86857143D01*
X78250000Y-86928571D01*
X78535714Y-86928571D01*
X78678572Y-86857143D01*
X78750000Y-86785714D01*
X78821429Y-86642857D01*
X78821429Y-85428571D01*
X79321429Y-85428571D02*
X80178572Y-85428571D01*
X79750001Y-86928571D02*
X79750001Y-85428571D01*
X81535715Y-86928571D02*
X81035715Y-86214286D01*
X80678572Y-86928571D02*
X80678572Y-85428571D01*
X81250000Y-85428571D01*
X81392858Y-85500000D01*
X81464286Y-85571429D01*
X81535715Y-85714286D01*
X81535715Y-85928571D01*
X81464286Y-86071429D01*
X81392858Y-86142857D01*
X81250000Y-86214286D01*
X80678572Y-86214286D01*
X82107143Y-86500000D02*
X82821429Y-86500000D01*
X81964286Y-86928571D02*
X82464286Y-85428571D01*
X82964286Y-86928571D01*
X84178572Y-86928571D02*
X83464286Y-86928571D01*
X83464286Y-85428571D01*
X75785715Y-68678571D02*
X75071429Y-68678571D01*
X75071429Y-67178571D01*
X76285715Y-68678571D02*
X76285715Y-67178571D01*
X76785715Y-67178571D02*
X77285715Y-68678571D01*
X77785715Y-67178571D01*
X78285715Y-67892857D02*
X78785715Y-67892857D01*
X79000001Y-68678571D02*
X78285715Y-68678571D01*
X78285715Y-67178571D01*
X79000001Y-67178571D01*
X133678573Y-102178571D02*
X132964287Y-102178571D01*
X132892858Y-102892857D01*
X132964287Y-102821429D01*
X133107144Y-102750000D01*
X133464287Y-102750000D01*
X133607144Y-102821429D01*
X133678573Y-102892857D01*
X133750001Y-103035714D01*
X133750001Y-103392857D01*
X133678573Y-103535714D01*
X133607144Y-103607143D01*
X133464287Y-103678571D01*
X133107144Y-103678571D01*
X132964287Y-103607143D01*
X132892858Y-103535714D01*
X134178572Y-102178571D02*
X134678572Y-103678571D01*
X135178572Y-102178571D01*
X137464286Y-102678571D02*
X137464286Y-103678571D01*
X137107143Y-102107143D02*
X136750000Y-103178571D01*
X137678572Y-103178571D01*
X138178571Y-103250000D02*
X138892857Y-103250000D01*
X138035714Y-103678571D02*
X138535714Y-102178571D01*
X139035714Y-103678571D01*
X140464285Y-102178571D02*
X141321428Y-102178571D01*
X140892857Y-103678571D02*
X140892857Y-102178571D01*
X142107142Y-102178571D02*
X142392856Y-102178571D01*
X142535714Y-102250000D01*
X142678571Y-102392857D01*
X142749999Y-102678571D01*
X142749999Y-103178571D01*
X142678571Y-103464286D01*
X142535714Y-103607143D01*
X142392856Y-103678571D01*
X142107142Y-103678571D01*
X141964285Y-103607143D01*
X141821428Y-103464286D01*
X141749999Y-103178571D01*
X141749999Y-102678571D01*
X141821428Y-102392857D01*
X141964285Y-102250000D01*
X142107142Y-102178571D01*
X143178571Y-102178571D02*
X144035714Y-102178571D01*
X143607143Y-103678571D02*
X143607143Y-102178571D01*
X144464285Y-103250000D02*
X145178571Y-103250000D01*
X144321428Y-103678571D02*
X144821428Y-102178571D01*
X145321428Y-103678571D01*
X146535714Y-103678571D02*
X145821428Y-103678571D01*
X145821428Y-102178571D01*
X148178571Y-103678571D02*
X148178571Y-102178571D01*
X148678571Y-103250000D01*
X149178571Y-102178571D01*
X149178571Y-103678571D01*
X149821428Y-103250000D02*
X150535714Y-103250000D01*
X149678571Y-103678571D02*
X150178571Y-102178571D01*
X150678571Y-103678571D01*
X151035714Y-102178571D02*
X152035714Y-103678571D01*
X152035714Y-102178571D02*
X151035714Y-103678571D01*
D12*
X120500000Y-54500000D02*
X142500000Y-54500000D01*
X142500000Y-54500000D02*
X142500000Y-73000000D01*
X142500000Y-73000000D02*
X120500000Y-73000000D01*
X120500000Y-73000000D02*
X120500000Y-54500000D01*
D13*
X137400000Y-74800000D02*
X137400000Y-102000000D01*
X137400000Y-102000000D02*
X85000000Y-102000000D01*
X85000000Y-102000000D02*
X85000000Y-74800000D01*
X85000000Y-74800000D02*
X137400000Y-74800000D01*
D14*
X99000000Y-59500000D02*
X99000000Y-62000000D01*
X99000000Y-52000000D02*
X99000000Y-54500000D01*
X87000000Y-52000000D02*
X87000000Y-54500000D01*
X87000000Y-62000000D02*
X87000000Y-59500000D01*
X97500000Y-57000000D02*
X88500000Y-57000000D01*
X97500000Y-59500000D02*
X97500000Y-54500000D01*
X88500000Y-59500000D02*
X88500000Y-54500000D01*
X83000000Y-58900000D02*
X83000000Y-59500000D01*
X103000000Y-55100000D02*
X103000000Y-54500000D01*
X103000000Y-54500000D02*
X83000000Y-54500000D01*
X83000000Y-54500000D02*
X83000000Y-55100000D01*
X83000000Y-59500000D02*
X103000000Y-59500000D01*
X103000000Y-59500000D02*
X103000000Y-58900000D01*
X81000000Y-58900000D02*
X81000000Y-62000000D01*
X105000000Y-55100000D02*
X105000000Y-52000000D01*
X105000000Y-52000000D02*
X81000000Y-52000000D01*
X81000000Y-52000000D02*
X81000000Y-55100000D01*
X81000000Y-62000000D02*
X105000000Y-62000000D01*
X105000000Y-62000000D02*
X105000000Y-58900000D01*
X151830000Y-61130000D02*
X149170000Y-61130000D01*
X151830000Y-63730000D02*
X151830000Y-61130000D01*
X149170000Y-63730000D02*
X149170000Y-61130000D01*
X151830000Y-63730000D02*
X149170000Y-63730000D01*
X151830000Y-65000000D02*
X151830000Y-66330000D01*
X151830000Y-66330000D02*
X150500000Y-66330000D01*
X148820000Y-101000000D02*
X159500000Y-101000000D01*
X148820000Y-95000000D02*
X159500000Y-95000000D01*
X159500000Y-95000000D02*
X159500000Y-101000000D01*
X146640000Y-95000000D02*
X141820000Y-95000000D01*
X139730000Y-100200000D02*
X139730000Y-95800000D01*
X146640000Y-101000000D02*
X141820000Y-101000000D01*
X148820000Y-87000000D02*
X159500000Y-87000000D01*
X148820000Y-81000000D02*
X159500000Y-81000000D01*
X159500000Y-81000000D02*
X159500000Y-87000000D01*
X146640000Y-81000000D02*
X141820000Y-81000000D01*
X139730000Y-86200000D02*
X139730000Y-81800000D01*
X146640000Y-87000000D02*
X141820000Y-87000000D01*
D12*
X104000000Y-65000000D02*
X82000000Y-65000000D01*
X82000000Y-65000000D02*
X82000000Y-72000000D01*
X82000000Y-72000000D02*
X104000000Y-72000000D01*
X104000000Y-72000000D02*
X104000000Y-65000000D01*
D14*
X110400000Y-58180000D02*
X115600000Y-58180000D01*
X115600000Y-61820000D02*
X110400000Y-61820000D01*
X110400000Y-52180000D02*
X115600000Y-52180000D01*
X115600000Y-55820000D02*
X110400000Y-55820000D01*
X108180000Y-71600000D02*
X108180000Y-66400000D01*
X111820000Y-66400000D02*
X111820000Y-71600000D01*
X146820000Y-61400000D02*
X146820000Y-66600000D01*
X143180000Y-66600000D02*
X143180000Y-61400000D01*
D12*
X131238095Y-73452381D02*
X131809524Y-73452381D01*
X131523809Y-74452381D02*
X131523809Y-73452381D01*
X132666667Y-74452381D02*
X132095238Y-74452381D01*
X132380952Y-74452381D02*
X132380952Y-73452381D01*
X132285714Y-73595238D01*
X132190476Y-73690476D01*
X132095238Y-73738095D01*
X124452380Y-52452381D02*
X125023809Y-52452381D01*
X124738094Y-53452381D02*
X124738094Y-52452381D01*
X125357142Y-53452381D02*
X125357142Y-52785714D01*
X125357142Y-52976190D02*
X125404761Y-52880952D01*
X125452380Y-52833333D01*
X125547618Y-52785714D01*
X125642857Y-52785714D01*
X126404762Y-53452381D02*
X126404762Y-52928571D01*
X126357143Y-52833333D01*
X126261905Y-52785714D01*
X126071428Y-52785714D01*
X125976190Y-52833333D01*
X126404762Y-53404762D02*
X126309524Y-53452381D01*
X126071428Y-53452381D01*
X125976190Y-53404762D01*
X125928571Y-53309524D01*
X125928571Y-53214286D01*
X125976190Y-53119048D01*
X126071428Y-53071429D01*
X126309524Y-53071429D01*
X126404762Y-53023810D01*
X126880952Y-52785714D02*
X126880952Y-53452381D01*
X126880952Y-52880952D02*
X126928571Y-52833333D01*
X127023809Y-52785714D01*
X127166667Y-52785714D01*
X127261905Y-52833333D01*
X127309524Y-52928571D01*
X127309524Y-53452381D01*
X127738095Y-53404762D02*
X127833333Y-53452381D01*
X128023809Y-53452381D01*
X128119048Y-53404762D01*
X128166667Y-53309524D01*
X128166667Y-53261905D01*
X128119048Y-53166667D01*
X128023809Y-53119048D01*
X127880952Y-53119048D01*
X127785714Y-53071429D01*
X127738095Y-52976190D01*
X127738095Y-52928571D01*
X127785714Y-52833333D01*
X127880952Y-52785714D01*
X128023809Y-52785714D01*
X128119048Y-52833333D01*
X128452381Y-52785714D02*
X128833333Y-52785714D01*
X128595238Y-53452381D02*
X128595238Y-52595238D01*
X128642857Y-52500000D01*
X128738095Y-52452381D01*
X128833333Y-52452381D01*
X129309524Y-53452381D02*
X129214286Y-53404762D01*
X129166667Y-53357143D01*
X129119048Y-53261905D01*
X129119048Y-52976190D01*
X129166667Y-52880952D01*
X129214286Y-52833333D01*
X129309524Y-52785714D01*
X129452382Y-52785714D01*
X129547620Y-52833333D01*
X129595239Y-52880952D01*
X129642858Y-52976190D01*
X129642858Y-53261905D01*
X129595239Y-53357143D01*
X129547620Y-53404762D01*
X129452382Y-53452381D01*
X129309524Y-53452381D01*
X130071429Y-53452381D02*
X130071429Y-52785714D01*
X130071429Y-52976190D02*
X130119048Y-52880952D01*
X130166667Y-52833333D01*
X130261905Y-52785714D01*
X130357144Y-52785714D01*
X130690477Y-53452381D02*
X130690477Y-52785714D01*
X130690477Y-52880952D02*
X130738096Y-52833333D01*
X130833334Y-52785714D01*
X130976192Y-52785714D01*
X131071430Y-52833333D01*
X131119049Y-52928571D01*
X131119049Y-53452381D01*
X131119049Y-52928571D02*
X131166668Y-52833333D01*
X131261906Y-52785714D01*
X131404763Y-52785714D01*
X131500001Y-52833333D01*
X131547620Y-52928571D01*
X131547620Y-53452381D01*
X132404763Y-53404762D02*
X132309525Y-53452381D01*
X132119048Y-53452381D01*
X132023810Y-53404762D01*
X131976191Y-53309524D01*
X131976191Y-52928571D01*
X132023810Y-52833333D01*
X132119048Y-52785714D01*
X132309525Y-52785714D01*
X132404763Y-52833333D01*
X132452382Y-52928571D01*
X132452382Y-53023810D01*
X131976191Y-53119048D01*
X132880953Y-53452381D02*
X132880953Y-52785714D01*
X132880953Y-52976190D02*
X132928572Y-52880952D01*
X132976191Y-52833333D01*
X133071429Y-52785714D01*
X133166668Y-52785714D01*
X133261906Y-53547619D02*
X134023811Y-53547619D01*
X134785716Y-53452381D02*
X134214287Y-53452381D01*
X134500001Y-53452381D02*
X134500001Y-52452381D01*
X134404763Y-52595238D01*
X134309525Y-52690476D01*
X134214287Y-52738095D01*
X135214287Y-53452381D02*
X135214287Y-52452381D01*
X135595240Y-52452381D01*
X135690478Y-52500000D01*
X135738097Y-52547619D01*
X135785716Y-52642857D01*
X135785716Y-52785714D01*
X135738097Y-52880952D01*
X135690478Y-52928571D01*
X135595240Y-52976190D01*
X135214287Y-52976190D01*
X135976192Y-53547619D02*
X136738097Y-53547619D01*
X137500002Y-53452381D02*
X136928573Y-53452381D01*
X137214287Y-53452381D02*
X137214287Y-52452381D01*
X137119049Y-52595238D01*
X137023811Y-52690476D01*
X136928573Y-52738095D01*
X137880954Y-53404762D02*
X138023811Y-53452381D01*
X138261907Y-53452381D01*
X138357145Y-53404762D01*
X138404764Y-53357143D01*
X138452383Y-53261905D01*
X138452383Y-53166667D01*
X138404764Y-53071429D01*
X138357145Y-53023810D01*
X138261907Y-52976190D01*
X138071430Y-52928571D01*
X137976192Y-52880952D01*
X137928573Y-52833333D01*
X137880954Y-52738095D01*
X137880954Y-52642857D01*
X137928573Y-52547619D01*
X137976192Y-52500000D01*
X138071430Y-52452381D01*
X138309526Y-52452381D01*
X138452383Y-52500000D01*
X86785714Y-103452381D02*
X86785714Y-102452381D01*
X87166667Y-102452381D01*
X87261905Y-102500000D01*
X87309524Y-102547619D01*
X87357143Y-102642857D01*
X87357143Y-102785714D01*
X87309524Y-102880952D01*
X87261905Y-102928571D01*
X87166667Y-102976190D01*
X86785714Y-102976190D01*
X87738095Y-103404762D02*
X87880952Y-103452381D01*
X88119048Y-103452381D01*
X88214286Y-103404762D01*
X88261905Y-103357143D01*
X88309524Y-103261905D01*
X88309524Y-103166667D01*
X88261905Y-103071429D01*
X88214286Y-103023810D01*
X88119048Y-102976190D01*
X87928571Y-102928571D01*
X87833333Y-102880952D01*
X87785714Y-102833333D01*
X87738095Y-102738095D01*
X87738095Y-102642857D01*
X87785714Y-102547619D01*
X87833333Y-102500000D01*
X87928571Y-102452381D01*
X88166667Y-102452381D01*
X88309524Y-102500000D01*
X89261905Y-103452381D02*
X88690476Y-103452381D01*
X88976190Y-103452381D02*
X88976190Y-102452381D01*
X88880952Y-102595238D01*
X88785714Y-102690476D01*
X88690476Y-102738095D01*
X108261905Y-103452381D02*
X108261905Y-102452381D01*
X109309524Y-103452381D02*
X108976190Y-102976190D01*
X108738095Y-103452381D02*
X108738095Y-102452381D01*
X109119048Y-102452381D01*
X109214286Y-102500000D01*
X109261905Y-102547619D01*
X109309524Y-102642857D01*
X109309524Y-102785714D01*
X109261905Y-102880952D01*
X109214286Y-102928571D01*
X109119048Y-102976190D01*
X108738095Y-102976190D01*
X109738095Y-103452381D02*
X109738095Y-102452381D01*
X110071429Y-103166667D01*
X110404762Y-102452381D01*
X110404762Y-103452381D01*
X110880952Y-103071429D02*
X111642857Y-103071429D01*
X112071428Y-102547619D02*
X112119047Y-102500000D01*
X112214285Y-102452381D01*
X112452381Y-102452381D01*
X112547619Y-102500000D01*
X112595238Y-102547619D01*
X112642857Y-102642857D01*
X112642857Y-102738095D01*
X112595238Y-102880952D01*
X112023809Y-103452381D01*
X112642857Y-103452381D01*
X113261904Y-102452381D02*
X113357143Y-102452381D01*
X113452381Y-102500000D01*
X113500000Y-102547619D01*
X113547619Y-102642857D01*
X113595238Y-102833333D01*
X113595238Y-103071429D01*
X113547619Y-103261905D01*
X113500000Y-103357143D01*
X113452381Y-103404762D01*
X113357143Y-103452381D01*
X113261904Y-103452381D01*
X113166666Y-103404762D01*
X113119047Y-103357143D01*
X113071428Y-103261905D01*
X113023809Y-103071429D01*
X113023809Y-102833333D01*
X113071428Y-102642857D01*
X113119047Y-102547619D01*
X113166666Y-102500000D01*
X113261904Y-102452381D01*
X114023809Y-103071429D02*
X114785714Y-103071429D01*
X115738095Y-102452381D02*
X115261904Y-102452381D01*
X115214285Y-102928571D01*
X115261904Y-102880952D01*
X115357142Y-102833333D01*
X115595238Y-102833333D01*
X115690476Y-102880952D01*
X115738095Y-102928571D01*
X115785714Y-103023810D01*
X115785714Y-103261905D01*
X115738095Y-103357143D01*
X115690476Y-103404762D01*
X115595238Y-103452381D01*
X115357142Y-103452381D01*
X115261904Y-103404762D01*
X115214285Y-103357143D01*
X82916667Y-50928571D02*
X82583333Y-50928571D01*
X82583333Y-51452381D02*
X82583333Y-50452381D01*
X83059524Y-50452381D01*
X83964286Y-51452381D02*
X83392857Y-51452381D01*
X83678571Y-51452381D02*
X83678571Y-50452381D01*
X83583333Y-50595238D01*
X83488095Y-50690476D01*
X83392857Y-50738095D01*
X91607143Y-50928571D02*
X91273809Y-50928571D01*
X91273809Y-51452381D02*
X91273809Y-50452381D01*
X91750000Y-50452381D01*
X92559524Y-50785714D02*
X92559524Y-51452381D01*
X92130952Y-50785714D02*
X92130952Y-51309524D01*
X92178571Y-51404762D01*
X92273809Y-51452381D01*
X92416667Y-51452381D01*
X92511905Y-51404762D01*
X92559524Y-51357143D01*
X92988095Y-51404762D02*
X93083333Y-51452381D01*
X93273809Y-51452381D01*
X93369048Y-51404762D01*
X93416667Y-51309524D01*
X93416667Y-51261905D01*
X93369048Y-51166667D01*
X93273809Y-51119048D01*
X93130952Y-51119048D01*
X93035714Y-51071429D01*
X92988095Y-50976190D01*
X92988095Y-50928571D01*
X93035714Y-50833333D01*
X93130952Y-50785714D01*
X93273809Y-50785714D01*
X93369048Y-50833333D01*
X94226191Y-51404762D02*
X94130953Y-51452381D01*
X93940476Y-51452381D01*
X93845238Y-51404762D01*
X93797619Y-51309524D01*
X93797619Y-50928571D01*
X93845238Y-50833333D01*
X93940476Y-50785714D01*
X94130953Y-50785714D01*
X94226191Y-50833333D01*
X94273810Y-50928571D01*
X94273810Y-51023810D01*
X93797619Y-51119048D01*
X150166667Y-66782381D02*
X150166667Y-67496667D01*
X150119047Y-67639524D01*
X150023809Y-67734762D01*
X149880952Y-67782381D01*
X149785714Y-67782381D01*
X151166667Y-67782381D02*
X150595238Y-67782381D01*
X150880952Y-67782381D02*
X150880952Y-66782381D01*
X150785714Y-66925238D01*
X150690476Y-67020476D01*
X150595238Y-67068095D01*
X146095238Y-58452381D02*
X146428571Y-59452381D01*
X146761905Y-58452381D01*
X147809524Y-59404762D02*
X147952381Y-59452381D01*
X148190477Y-59452381D01*
X148285715Y-59404762D01*
X148333334Y-59357143D01*
X148380953Y-59261905D01*
X148380953Y-59166667D01*
X148333334Y-59071429D01*
X148285715Y-59023810D01*
X148190477Y-58976190D01*
X148000000Y-58928571D01*
X147904762Y-58880952D01*
X147857143Y-58833333D01*
X147809524Y-58738095D01*
X147809524Y-58642857D01*
X147857143Y-58547619D01*
X147904762Y-58500000D01*
X148000000Y-58452381D01*
X148238096Y-58452381D01*
X148380953Y-58500000D01*
X149190477Y-59404762D02*
X149095239Y-59452381D01*
X148904762Y-59452381D01*
X148809524Y-59404762D01*
X148761905Y-59309524D01*
X148761905Y-58928571D01*
X148809524Y-58833333D01*
X148904762Y-58785714D01*
X149095239Y-58785714D01*
X149190477Y-58833333D01*
X149238096Y-58928571D01*
X149238096Y-59023810D01*
X148761905Y-59119048D01*
X149666667Y-58785714D02*
X149666667Y-59452381D01*
X149666667Y-58880952D02*
X149714286Y-58833333D01*
X149809524Y-58785714D01*
X149952382Y-58785714D01*
X150047620Y-58833333D01*
X150095239Y-58928571D01*
X150095239Y-59452381D01*
X150523810Y-59404762D02*
X150619048Y-59452381D01*
X150809524Y-59452381D01*
X150904763Y-59404762D01*
X150952382Y-59309524D01*
X150952382Y-59261905D01*
X150904763Y-59166667D01*
X150809524Y-59119048D01*
X150666667Y-59119048D01*
X150571429Y-59071429D01*
X150523810Y-58976190D01*
X150523810Y-58928571D01*
X150571429Y-58833333D01*
X150666667Y-58785714D01*
X150809524Y-58785714D01*
X150904763Y-58833333D01*
X151761906Y-59404762D02*
X151666668Y-59452381D01*
X151476191Y-59452381D01*
X151380953Y-59404762D01*
X151333334Y-59309524D01*
X151333334Y-58928571D01*
X151380953Y-58833333D01*
X151476191Y-58785714D01*
X151666668Y-58785714D01*
X151761906Y-58833333D01*
X151809525Y-58928571D01*
X151809525Y-59023810D01*
X151333334Y-59119048D01*
X137502381Y-98333333D02*
X138216667Y-98333333D01*
X138359524Y-98380953D01*
X138454762Y-98476191D01*
X138502381Y-98619048D01*
X138502381Y-98714286D01*
X137597619Y-97904762D02*
X137550000Y-97857143D01*
X137502381Y-97761905D01*
X137502381Y-97523809D01*
X137550000Y-97428571D01*
X137597619Y-97380952D01*
X137692857Y-97333333D01*
X137788095Y-97333333D01*
X137930952Y-97380952D01*
X138502381Y-97952381D01*
X138502381Y-97333333D01*
X137502381Y-84333333D02*
X138216667Y-84333333D01*
X138359524Y-84380953D01*
X138454762Y-84476191D01*
X138502381Y-84619048D01*
X138502381Y-84714286D01*
X137502381Y-83952381D02*
X137502381Y-83333333D01*
X137883333Y-83666667D01*
X137883333Y-83523809D01*
X137930952Y-83428571D01*
X137978571Y-83380952D01*
X138073810Y-83333333D01*
X138311905Y-83333333D01*
X138407143Y-83380952D01*
X138454762Y-83428571D01*
X138502381Y-83523809D01*
X138502381Y-83809524D01*
X138454762Y-83904762D01*
X138407143Y-83952381D01*
X82904762Y-64452381D02*
X82571428Y-63976190D01*
X82333333Y-64452381D02*
X82333333Y-63452381D01*
X82714286Y-63452381D01*
X82809524Y-63500000D01*
X82857143Y-63547619D01*
X82904762Y-63642857D01*
X82904762Y-63785714D01*
X82857143Y-63880952D01*
X82809524Y-63928571D01*
X82714286Y-63976190D01*
X82333333Y-63976190D01*
X83190476Y-63452381D02*
X83523809Y-64452381D01*
X83857143Y-63452381D01*
X84714286Y-64452381D02*
X84142857Y-64452381D01*
X84428571Y-64452381D02*
X84428571Y-63452381D01*
X84333333Y-63595238D01*
X84238095Y-63690476D01*
X84142857Y-63738095D01*
X89464285Y-63452381D02*
X89797618Y-64452381D01*
X90130952Y-63452381D01*
X90892857Y-64452381D02*
X90892857Y-63928571D01*
X90845238Y-63833333D01*
X90750000Y-63785714D01*
X90559523Y-63785714D01*
X90464285Y-63833333D01*
X90892857Y-64404762D02*
X90797619Y-64452381D01*
X90559523Y-64452381D01*
X90464285Y-64404762D01*
X90416666Y-64309524D01*
X90416666Y-64214286D01*
X90464285Y-64119048D01*
X90559523Y-64071429D01*
X90797619Y-64071429D01*
X90892857Y-64023810D01*
X91369047Y-64452381D02*
X91369047Y-63785714D01*
X91369047Y-63976190D02*
X91416666Y-63880952D01*
X91464285Y-63833333D01*
X91559523Y-63785714D01*
X91654762Y-63785714D01*
X91988095Y-64452381D02*
X91988095Y-63785714D01*
X91988095Y-63452381D02*
X91940476Y-63500000D01*
X91988095Y-63547619D01*
X92035714Y-63500000D01*
X91988095Y-63452381D01*
X91988095Y-63547619D01*
X92416666Y-64404762D02*
X92511904Y-64452381D01*
X92702380Y-64452381D01*
X92797619Y-64404762D01*
X92845238Y-64309524D01*
X92845238Y-64261905D01*
X92797619Y-64166667D01*
X92702380Y-64119048D01*
X92559523Y-64119048D01*
X92464285Y-64071429D01*
X92416666Y-63976190D01*
X92416666Y-63928571D01*
X92464285Y-63833333D01*
X92559523Y-63785714D01*
X92702380Y-63785714D01*
X92797619Y-63833333D01*
X93130952Y-63785714D02*
X93511904Y-63785714D01*
X93273809Y-63452381D02*
X93273809Y-64309524D01*
X93321428Y-64404762D01*
X93416666Y-64452381D01*
X93511904Y-64452381D01*
X93988095Y-64452381D02*
X93892857Y-64404762D01*
X93845238Y-64357143D01*
X93797619Y-64261905D01*
X93797619Y-63976190D01*
X93845238Y-63880952D01*
X93892857Y-63833333D01*
X93988095Y-63785714D01*
X94130953Y-63785714D01*
X94226191Y-63833333D01*
X94273810Y-63880952D01*
X94321429Y-63976190D01*
X94321429Y-64261905D01*
X94273810Y-64357143D01*
X94226191Y-64404762D01*
X94130953Y-64452381D01*
X93988095Y-64452381D01*
X94750000Y-64452381D02*
X94750000Y-63785714D01*
X94750000Y-63976190D02*
X94797619Y-63880952D01*
X94845238Y-63833333D01*
X94940476Y-63785714D01*
X95035715Y-63785714D01*
X112833334Y-63052381D02*
X112500000Y-62576190D01*
X112261905Y-63052381D02*
X112261905Y-62052381D01*
X112642858Y-62052381D01*
X112738096Y-62100000D01*
X112785715Y-62147619D01*
X112833334Y-62242857D01*
X112833334Y-62385714D01*
X112785715Y-62480952D01*
X112738096Y-62528571D01*
X112642858Y-62576190D01*
X112261905Y-62576190D01*
X113690477Y-62385714D02*
X113690477Y-63052381D01*
X113452381Y-62004762D02*
X113214286Y-62719048D01*
X113833334Y-62719048D01*
X118452381Y-60738095D02*
X118452381Y-61214286D01*
X118928571Y-61261905D01*
X118880952Y-61214286D01*
X118833333Y-61119048D01*
X118833333Y-60880952D01*
X118880952Y-60785714D01*
X118928571Y-60738095D01*
X119023810Y-60690476D01*
X119261905Y-60690476D01*
X119357143Y-60738095D01*
X119404762Y-60785714D01*
X119452381Y-60880952D01*
X119452381Y-61119048D01*
X119404762Y-61214286D01*
X119357143Y-61261905D01*
X118452381Y-60071429D02*
X118452381Y-59976190D01*
X118500000Y-59880952D01*
X118547619Y-59833333D01*
X118642857Y-59785714D01*
X118833333Y-59738095D01*
X119071429Y-59738095D01*
X119261905Y-59785714D01*
X119357143Y-59833333D01*
X119404762Y-59880952D01*
X119452381Y-59976190D01*
X119452381Y-60071429D01*
X119404762Y-60166667D01*
X119357143Y-60214286D01*
X119261905Y-60261905D01*
X119071429Y-60309524D01*
X118833333Y-60309524D01*
X118642857Y-60261905D01*
X118547619Y-60214286D01*
X118500000Y-60166667D01*
X118452381Y-60071429D01*
X119452381Y-59309524D02*
X118452381Y-59309524D01*
X119452381Y-58738095D02*
X118880952Y-59166667D01*
X118452381Y-58738095D02*
X119023810Y-59309524D01*
X112833334Y-57052381D02*
X112500000Y-56576190D01*
X112261905Y-57052381D02*
X112261905Y-56052381D01*
X112642858Y-56052381D01*
X112738096Y-56100000D01*
X112785715Y-56147619D01*
X112833334Y-56242857D01*
X112833334Y-56385714D01*
X112785715Y-56480952D01*
X112738096Y-56528571D01*
X112642858Y-56576190D01*
X112261905Y-56576190D01*
X113785715Y-57052381D02*
X113214286Y-57052381D01*
X113500000Y-57052381D02*
X113500000Y-56052381D01*
X113404762Y-56195238D01*
X113309524Y-56290476D01*
X113214286Y-56338095D01*
X118452381Y-54738095D02*
X118452381Y-55214286D01*
X118928571Y-55261905D01*
X118880952Y-55214286D01*
X118833333Y-55119048D01*
X118833333Y-54880952D01*
X118880952Y-54785714D01*
X118928571Y-54738095D01*
X119023810Y-54690476D01*
X119261905Y-54690476D01*
X119357143Y-54738095D01*
X119404762Y-54785714D01*
X119452381Y-54880952D01*
X119452381Y-55119048D01*
X119404762Y-55214286D01*
X119357143Y-55261905D01*
X118452381Y-54071429D02*
X118452381Y-53976190D01*
X118500000Y-53880952D01*
X118547619Y-53833333D01*
X118642857Y-53785714D01*
X118833333Y-53738095D01*
X119071429Y-53738095D01*
X119261905Y-53785714D01*
X119357143Y-53833333D01*
X119404762Y-53880952D01*
X119452381Y-53976190D01*
X119452381Y-54071429D01*
X119404762Y-54166667D01*
X119357143Y-54214286D01*
X119261905Y-54261905D01*
X119071429Y-54309524D01*
X118833333Y-54309524D01*
X118642857Y-54261905D01*
X118547619Y-54214286D01*
X118500000Y-54166667D01*
X118452381Y-54071429D01*
X119452381Y-53309524D02*
X118452381Y-53309524D01*
X119452381Y-52738095D02*
X118880952Y-53166667D01*
X118452381Y-52738095D02*
X119023810Y-53309524D01*
X113052381Y-69166666D02*
X112576190Y-69500000D01*
X113052381Y-69738095D02*
X112052381Y-69738095D01*
X112052381Y-69357142D01*
X112100000Y-69261904D01*
X112147619Y-69214285D01*
X112242857Y-69166666D01*
X112385714Y-69166666D01*
X112480952Y-69214285D01*
X112528571Y-69261904D01*
X112576190Y-69357142D01*
X112576190Y-69738095D01*
X112147619Y-68785714D02*
X112100000Y-68738095D01*
X112052381Y-68642857D01*
X112052381Y-68404761D01*
X112100000Y-68309523D01*
X112147619Y-68261904D01*
X112242857Y-68214285D01*
X112338095Y-68214285D01*
X112480952Y-68261904D01*
X113052381Y-68833333D01*
X113052381Y-68214285D01*
X106702381Y-70785714D02*
X106702381Y-70119047D01*
X107702381Y-70547619D01*
X106702381Y-69261904D02*
X106702381Y-69738095D01*
X107178571Y-69785714D01*
X107130952Y-69738095D01*
X107083333Y-69642857D01*
X107083333Y-69404761D01*
X107130952Y-69309523D01*
X107178571Y-69261904D01*
X107273810Y-69214285D01*
X107511905Y-69214285D01*
X107607143Y-69261904D01*
X107654762Y-69309523D01*
X107702381Y-69404761D01*
X107702381Y-69642857D01*
X107654762Y-69738095D01*
X107607143Y-69785714D01*
X106702381Y-68595238D02*
X106702381Y-68499999D01*
X106750000Y-68404761D01*
X106797619Y-68357142D01*
X106892857Y-68309523D01*
X107083333Y-68261904D01*
X107321429Y-68261904D01*
X107511905Y-68309523D01*
X107607143Y-68357142D01*
X107654762Y-68404761D01*
X107702381Y-68499999D01*
X107702381Y-68595238D01*
X107654762Y-68690476D01*
X107607143Y-68738095D01*
X107511905Y-68785714D01*
X107321429Y-68833333D01*
X107083333Y-68833333D01*
X106892857Y-68785714D01*
X106797619Y-68738095D01*
X106750000Y-68690476D01*
X106702381Y-68595238D01*
X107702381Y-67261904D02*
X107226190Y-67595238D01*
X107702381Y-67833333D02*
X106702381Y-67833333D01*
X106702381Y-67452380D01*
X106750000Y-67357142D01*
X106797619Y-67309523D01*
X106892857Y-67261904D01*
X107035714Y-67261904D01*
X107130952Y-67309523D01*
X107178571Y-67357142D01*
X107226190Y-67452380D01*
X107226190Y-67833333D01*
X144833334Y-69452381D02*
X144500000Y-68976190D01*
X144261905Y-69452381D02*
X144261905Y-68452381D01*
X144642858Y-68452381D01*
X144738096Y-68500000D01*
X144785715Y-68547619D01*
X144833334Y-68642857D01*
X144833334Y-68785714D01*
X144785715Y-68880952D01*
X144738096Y-68928571D01*
X144642858Y-68976190D01*
X144261905Y-68976190D01*
X145166667Y-68452381D02*
X145785715Y-68452381D01*
X145452381Y-68833333D01*
X145595239Y-68833333D01*
X145690477Y-68880952D01*
X145738096Y-68928571D01*
X145785715Y-69023810D01*
X145785715Y-69261905D01*
X145738096Y-69357143D01*
X145690477Y-69404762D01*
X145595239Y-69452381D01*
X145309524Y-69452381D01*
X145214286Y-69404762D01*
X145166667Y-69357143D01*
X147202381Y-65214285D02*
X147202381Y-65690476D01*
X147678571Y-65738095D01*
X147630952Y-65690476D01*
X147583333Y-65595238D01*
X147583333Y-65357142D01*
X147630952Y-65261904D01*
X147678571Y-65214285D01*
X147773810Y-65166666D01*
X148011905Y-65166666D01*
X148107143Y-65214285D01*
X148154762Y-65261904D01*
X148202381Y-65357142D01*
X148202381Y-65595238D01*
X148154762Y-65690476D01*
X148107143Y-65738095D01*
X147202381Y-64547619D02*
X147202381Y-64452380D01*
X147250000Y-64357142D01*
X147297619Y-64309523D01*
X147392857Y-64261904D01*
X147583333Y-64214285D01*
X147821429Y-64214285D01*
X148011905Y-64261904D01*
X148107143Y-64309523D01*
X148154762Y-64357142D01*
X148202381Y-64452380D01*
X148202381Y-64547619D01*
X148154762Y-64642857D01*
X148107143Y-64690476D01*
X148011905Y-64738095D01*
X147821429Y-64785714D01*
X147583333Y-64785714D01*
X147392857Y-64738095D01*
X147297619Y-64690476D01*
X147250000Y-64642857D01*
X147202381Y-64547619D01*
X147202381Y-63595238D02*
X147202381Y-63499999D01*
X147250000Y-63404761D01*
X147297619Y-63357142D01*
X147392857Y-63309523D01*
X147583333Y-63261904D01*
X147821429Y-63261904D01*
X148011905Y-63309523D01*
X148107143Y-63357142D01*
X148154762Y-63404761D01*
X148202381Y-63499999D01*
X148202381Y-63595238D01*
X148154762Y-63690476D01*
X148107143Y-63738095D01*
X148011905Y-63785714D01*
X147821429Y-63833333D01*
X147583333Y-63833333D01*
X147392857Y-63785714D01*
X147297619Y-63738095D01*
X147250000Y-63690476D01*
X147202381Y-63595238D01*
X148202381Y-62261904D02*
X147726190Y-62595238D01*
X148202381Y-62833333D02*
X147202381Y-62833333D01*
X147202381Y-62452380D01*
X147250000Y-62357142D01*
X147297619Y-62309523D01*
X147392857Y-62261904D01*
X147535714Y-62261904D01*
X147630952Y-62309523D01*
X147678571Y-62357142D01*
X147726190Y-62452380D01*
X147726190Y-62833333D01*
M02*
