M48
;DRILL file {KiCad 4.0.7} date 08/27/18 20:28:58
;FORMAT={-:-/ absolute / metric / decimal}
FMAT,2
METRIC,TZ
T1C0.762
T2C0.920
T3C1.000
T4C1.100
T5C1.350
T6C1.500
T7C1.650
T8C3.200
T9C3.400
%
G90
G05
M71
T1
X88.5Y-69.5
X98.5Y-67.5
X123.Y-57.
X123.Y-70.5
X140.Y-57.
X140.Y-70.5
T2
X141.Y-84.
X141.Y-98.
X143.Y-84.
X143.Y-98.
X145.Y-84.
X145.Y-98.
X147.Y-84.
X147.Y-98.
T3
X150.5Y-62.46
X150.5Y-65.
T4
X88.4Y-78.
X88.4Y-98.8
X133.4Y-90.8
X133.4Y-98.8
T5
X140.73Y-81.28
X140.73Y-86.72
X140.73Y-95.28
X140.73Y-100.72
X147.73Y-81.28
X147.73Y-86.72
X147.73Y-95.28
X147.73Y-100.72
T6
X82.Y-57.
X104.Y-57.
T7
X69.Y-67.86
X69.Y-77.
X69.Y-86.14
T8
X70.Y-57.5
X70.Y-97.5
X148.Y-75.
T9
X59.35Y-57.
X59.35Y-97.
T0
M30
